<?xml version="1.0" encoding="us-ascii" standalone="no"?><svg xmlns="http://www.w3.org/2000/svg" xmlns:xlink="http://www.w3.org/1999/xlink" contentStyleType="text/css" height="435px" preserveAspectRatio="none" style="width:1118px;height:435px;background:#FFFFFF;" version="1.1" viewBox="0 0 1118 435" width="1118px" zoomAndPan="magnify"><defs/><g><rect fill="#F1F1F1" height="81.2901" rx="12.5" ry="12.5" style="stroke:#181818;stroke-width:1.5;" width="96" x="430" y="176.0927"/><text fill="#000000" font-family="sans-serif" font-size="45" lengthAdjust="spacing" textLength="0" x="452" y="234.1977">&#129300;</text><text fill="#000000" font-family="sans-serif" font-size="14" lengthAdjust="spacing" textLength="4" x="512" y="243.2808">&#160;</text><rect fill="#F1F1F1" height="39.0679" rx="12.5" ry="12.5" style="stroke:#181818;stroke-width:1.5;" width="217" x="576" y="197.2038"/><text fill="#000000" font-family="sans-serif" font-size="14" lengthAdjust="spacing" textLength="197" x="586" y="222.1697">Tecnolog&#237;as transformadoras</text><rect fill="#F1F1F1" height="39.0679" rx="12.5" ry="12.5" style="stroke:#181818;stroke-width:1.5;" width="263" x="843" y="20"/><text fill="#000000" font-family="sans-serif" font-size="14" lengthAdjust="spacing" textLength="243" x="853" y="44.9659">IA generativa y sistemas aut&#243;nomos</text><path d="M793,216.7377 L803,216.7377 C818,216.7377 818,39.534 833,39.534 L843,39.534 " fill="none" style="stroke:#181818;stroke-width:1.0;"/><rect fill="#F1F1F1" height="39.0679" rx="12.5" ry="12.5" style="stroke:#181818;stroke-width:1.5;" width="170" x="843" y="79.0679"/><text fill="#000000" font-family="sans-serif" font-size="14" lengthAdjust="spacing" textLength="150" x="853" y="104.0339">Computaci&#243;n cu&#225;ntica</text><path d="M793,216.7377 L803,216.7377 C818,216.7377 818,98.6019 833,98.6019 L843,98.6019 " fill="none" style="stroke:#181818;stroke-width:1.0;"/><rect fill="#F1F1F1" height="39.0679" rx="12.5" ry="12.5" style="stroke:#181818;stroke-width:1.5;" width="145" x="843" y="138.1358"/><text fill="#000000" font-family="sans-serif" font-size="14" lengthAdjust="spacing" textLength="125" x="853" y="163.1018">Web3 y blockchain</text><path d="M793,216.7377 L803,216.7377 C818,216.7377 818,157.6698 833,157.6698 L843,157.6698 " fill="none" style="stroke:#181818;stroke-width:1.0;"/><rect fill="#F1F1F1" height="39.0679" rx="12.5" ry="12.5" style="stroke:#181818;stroke-width:1.5;" width="232" x="843" y="197.2038"/><text fill="#000000" font-family="sans-serif" font-size="14" lengthAdjust="spacing" textLength="212" x="853" y="222.1697">Metaverso y realidad extendida</text><path d="M793,216.7377 L803,216.7377 C818,216.7377 818,216.7377 833,216.7377 L843,216.7377 " fill="none" style="stroke:#181818;stroke-width:1.0;"/><rect fill="#F1F1F1" height="39.0679" rx="12.5" ry="12.5" style="stroke:#181818;stroke-width:1.5;" width="180" x="843" y="256.2717"/><text fill="#000000" font-family="sans-serif" font-size="14" lengthAdjust="spacing" textLength="160" x="853" y="281.2376">Internet de los sentidos</text><path d="M793,216.7377 L803,216.7377 C818,216.7377 818,275.8056 833,275.8056 L843,275.8056 " fill="none" style="stroke:#181818;stroke-width:1.0;"/><rect fill="#F1F1F1" height="39.0679" rx="12.5" ry="12.5" style="stroke:#181818;stroke-width:1.5;" width="140" x="843" y="315.3396"/><text fill="#000000" font-family="sans-serif" font-size="14" lengthAdjust="spacing" textLength="120" x="853" y="340.3055">Gemelos digitales</text><path d="M793,216.7377 L803,216.7377 C818,216.7377 818,334.8735 833,334.8735 L843,334.8735 " fill="none" style="stroke:#181818;stroke-width:1.0;"/><rect fill="#F1F1F1" height="39.0679" rx="12.5" ry="12.5" style="stroke:#181818;stroke-width:1.5;" width="163" x="843" y="374.4075"/><text fill="#000000" font-family="sans-serif" font-size="14" lengthAdjust="spacing" textLength="143" x="853" y="399.3734">Sostenibilidad digital</text><path d="M793,216.7377 L803,216.7377 C818,216.7377 818,393.9415 833,393.9415 L843,393.9415 " fill="none" style="stroke:#181818;stroke-width:1.0;"/><path d="M526,216.7377 L536,216.7377 C551,216.7377 551,216.7377 566,216.7377 L576,216.7377 " fill="none" style="stroke:#181818;stroke-width:1.0;"/><rect fill="#F1F1F1" height="39.0679" rx="12.5" ry="12.5" style="stroke:#181818;stroke-width:1.5;" width="130" x="250" y="197.2038"/><text fill="#000000" font-family="sans-serif" font-size="14" lengthAdjust="spacing" textLength="110" x="260" y="222.1697">Mi huella digital</text><rect fill="#F1F1F1" height="39.0679" rx="12.5" ry="12.5" style="stroke:#181818;stroke-width:1.5;" width="157" x="43" y="108.6019"/><text fill="#000000" font-family="sans-serif" font-size="14" lengthAdjust="spacing" textLength="137" x="53" y="133.5678">Interacciones con IA</text><path d="M250,216.7377 L240,216.7377 C225,216.7377 225,128.1358 210,128.1358 L200,128.1358 " fill="none" style="stroke:#181818;stroke-width:1.0;"/><rect fill="#F1F1F1" height="39.0679" rx="12.5" ry="12.5" style="stroke:#181818;stroke-width:1.5;" width="136" x="64" y="167.6698"/><text fill="#000000" font-family="sans-serif" font-size="14" lengthAdjust="spacing" textLength="116" x="74" y="192.6357">En redes sociales</text><path d="M250,216.7377 L240,216.7377 C225,216.7377 225,187.2038 210,187.2038 L200,187.2038 " fill="none" style="stroke:#181818;stroke-width:1.0;"/><rect fill="#F1F1F1" height="39.0679" rx="12.5" ry="12.5" style="stroke:#181818;stroke-width:1.5;" width="186" x="14" y="226.7377"/><text fill="#000000" font-family="sans-serif" font-size="14" lengthAdjust="spacing" textLength="166" x="24" y="251.7036">Identidad digital y Web3</text><path d="M250,216.7377 L240,216.7377 C225,216.7377 225,246.2717 210,246.2717 L200,246.2717 " fill="none" style="stroke:#181818;stroke-width:1.0;"/><rect fill="#F1F1F1" height="39.0679" rx="12.5" ry="12.5" style="stroke:#181818;stroke-width:1.5;" width="190" x="10" y="285.8056"/><text fill="#000000" font-family="sans-serif" font-size="14" lengthAdjust="spacing" textLength="170" x="20" y="310.7716">Huella de carbono digital</text><path d="M250,216.7377 L240,216.7377 C225,216.7377 225,305.3396 210,305.3396 L200,305.3396 " fill="none" style="stroke:#181818;stroke-width:1.0;"/><path d="M430,216.7377 L420,216.7377 C405,216.7377 405,216.7377 390,216.7377 L380,216.7377 " fill="none" style="stroke:#181818;stroke-width:1.0;"/><!--SRC=[JL7BJXj14BplL_GHP9aOOqUHHH3468BZLL1ioBbtjhqUPRRRceSL-8xS8oIkEUKJ_4FvXFIk3ScSHbKzrLKrvo6YZxNbiiPrbdNWT2aS8TX7UZyOdi6Vdyy_e3cdRnhY3B9k1t8BgqJE8PIsiX6TWXsuuKWUZR725C08myr5IqmOF9MA1J4M7ONTU4aSROdbYmWym5SgJbhourwUmA0lXELrav8BCYnEgkql310zSbYAhx4KZq5vbRw0YbZDHBj1bGqsHAfr65FS_cQfPJStbdgT8Xgh89YqVL931bkgSQ8l2oVccrcXvHRDAUA6V12bFA5hxTFtI5pgTRUxQO4fDjwTQEOsvNxXDTNKWFimj4FdelRO5jRzNqUMdQliwy_SEkHuby-WsQyLm_5HlzSV79qSB5O9hgY0uo7qUwD1RzGRmdYoW8O-p0wkRsURlbQVl27L3j7R8aLLECocgFLyIMgmfX5yNXDFBp-z0Ffj6-k5QmsGJU_pVmDl1zqFDiASl7g1-poxf2Kc5_M5aT9oDOAxnLNtNJP3hX9Mggr9nwAw_c44a_bV]--></g></svg>