<?xml version="1.0" encoding="us-ascii" standalone="no"?><svg xmlns="http://www.w3.org/2000/svg" xmlns:xlink="http://www.w3.org/1999/xlink" contentStyleType="text/css" height="1049px" preserveAspectRatio="none" style="width:723px;height:1049px;background:#FFFFFF;" version="1.1" viewBox="0 0 723 1049" width="723px" zoomAndPan="magnify"><defs/><g><!--cluster SI--><g id="cluster_SI"><rect fill="none" height="806" rx="7.5" ry="7.5" style="stroke:#181818;stroke-width:2.0;" width="648" x="69" y="237"/><text fill="#000000" font-family="sans-serif" font-size="14" font-weight="bold" lengthAdjust="spacing" textLength="165" x="310.5" y="253.9659">Sistema de Informaci&#243;n</text></g><!--cluster INFO--><g id="cluster_INFO"><rect fill="#ADD8E6" height="212" rx="7.5" ry="7.5" style="stroke:#0000FF;stroke-width:2.0;" width="460" x="150" y="799"/><text fill="#000000" font-family="sans-serif" font-size="14" font-style="italic" lengthAdjust="spacing" textLength="55" x="352.5" y="815.9659">&#171;L&#243;gico&#187;</text><text fill="#000000" font-family="sans-serif" font-size="14" font-weight="bold" lengthAdjust="spacing" textLength="85" x="337.5" y="835.0339">Informaci&#243;n</text></g><!--entity HW--><g id="elem_HW"><rect fill="#98FB98" height="58.1358" rx="7.5" ry="7.5" style="stroke:#006400;stroke-width:2.0;" width="86" x="534" y="694"/><text fill="#000000" font-family="sans-serif" font-size="14" font-style="italic" lengthAdjust="spacing" textLength="49" x="552.5" y="718.9659">&#171;F&#237;sico&#187;</text><text fill="#000000" font-family="sans-serif" font-size="14" lengthAdjust="spacing" textLength="66" x="544" y="738.0339">Hardware</text></g><!--entity SW--><g id="elem_SW"><rect fill="#ADD8E6" height="58.1358" rx="7.5" ry="7.5" style="stroke:#0000FF;stroke-width:2.0;" width="79" x="421.5" y="557"/><text fill="#000000" font-family="sans-serif" font-size="14" font-style="italic" lengthAdjust="spacing" textLength="55" x="433.5" y="581.9659">&#171;L&#243;gico&#187;</text><text fill="#000000" font-family="sans-serif" font-size="14" lengthAdjust="spacing" textLength="59" x="431.5" y="601.0339">Software</text></g><!--entity DAT--><g id="elem_DAT"><rect fill="#ADD8E6" height="58.1358" rx="7.5" ry="7.5" style="stroke:#0000FF;stroke-width:2.0;" width="75" x="210.5" y="694"/><text fill="#000000" font-family="sans-serif" font-size="14" font-style="italic" lengthAdjust="spacing" textLength="55" x="220.5" y="718.9659">&#171;L&#243;gico&#187;</text><text fill="#000000" font-family="sans-serif" font-size="14" lengthAdjust="spacing" textLength="38" x="229" y="738.0339">Datos</text></g><!--entity PROC--><g id="elem_PROC"><rect fill="#FFE4E1" height="58.1358" rx="7.5" ry="7.5" style="stroke:#800000;stroke-width:2.0;" width="124" x="175" y="420"/><text fill="#000000" font-family="sans-serif" font-size="14" font-style="italic" lengthAdjust="spacing" textLength="63" x="205.5" y="444.9659">&#171;Proceso&#187;</text><text fill="#000000" font-family="sans-serif" font-size="14" lengthAdjust="spacing" textLength="104" x="185" y="464.0339">Procedimientos</text></g><!--entity USR--><g id="elem_USR"><rect fill="#FFFFE0" height="58.1358" rx="7.5" ry="7.5" style="stroke:#FFA500;stroke-width:2.0;" width="88" x="193" y="283"/><text fill="#000000" font-family="sans-serif" font-size="14" font-style="italic" lengthAdjust="spacing" textLength="68" x="203" y="307.9659">&#171;Humano&#187;</text><text fill="#000000" font-family="sans-serif" font-size="14" lengthAdjust="spacing" textLength="59" x="207.5" y="327.0339">Usuarios</text></g><!--entity RECOP--><g id="elem_RECOP"><rect fill="#F1F1F1" height="39.0679" rx="7.5" ry="7.5" style="stroke:#181818;stroke-width:2.0;" width="105" x="166.5" y="856"/><text fill="#000000" font-family="sans-serif" font-size="14" lengthAdjust="spacing" textLength="85" x="176.5" y="880.9659">Recopilaci&#243;n</text></g><!--entity PROCESS--><g id="elem_PROCESS"><rect fill="#F1F1F1" height="39.0679" rx="7.5" ry="7.5" style="stroke:#181818;stroke-width:2.0;" width="119" x="306.5" y="856"/><text fill="#000000" font-family="sans-serif" font-size="14" lengthAdjust="spacing" textLength="99" x="316.5" y="880.9659">Procesamiento</text></g><!--entity ALMAC--><g id="elem_ALMAC"><rect fill="#F1F1F1" height="39.0679" rx="7.5" ry="7.5" style="stroke:#181818;stroke-width:2.0;" width="133" x="460.5" y="856"/><text fill="#000000" font-family="sans-serif" font-size="14" lengthAdjust="spacing" textLength="113" x="470.5" y="880.9659">Almacenamiento</text></g><!--entity ANAL--><g id="elem_ANAL"><rect fill="#F1F1F1" height="39.0679" rx="7.5" ry="7.5" style="stroke:#181818;stroke-width:2.0;" width="72" x="444" y="956"/><text fill="#000000" font-family="sans-serif" font-size="14" lengthAdjust="spacing" textLength="52" x="454" y="980.9659">An&#225;lisis</text></g><!--entity DIST--><g id="elem_DIST"><rect fill="#F1F1F1" height="39.0679" rx="7.5" ry="7.5" style="stroke:#181818;stroke-width:2.0;" width="102" x="260" y="956"/><text fill="#000000" font-family="sans-serif" font-size="14" lengthAdjust="spacing" textLength="82" x="270" y="980.9659">Distribuci&#243;n</text></g><!--entity SCOMP--><g id="elem_SCOMP"><rect fill="#F1F1F1" height="39.0679" rx="7.5" ry="7.5" style="stroke:#181818;stroke-width:2.0;" width="140" x="7" y="125"/><text fill="#000000" font-family="sans-serif" font-size="14" lengthAdjust="spacing" textLength="120" x="17" y="149.9659">Sistema Complejo</text></g><!--entity SIST--><g id="elem_SIST"><rect fill="#F1F1F1" height="39.0679" rx="7.5" ry="7.5" style="stroke:#181818;stroke-width:2.0;" width="73" x="40.5" y="7"/><text fill="#000000" font-family="sans-serif" font-size="14" lengthAdjust="spacing" textLength="53" x="50.5" y="31.9659">Sistema</text></g><!--link HW to SW--><g id="link_HW_SW"><path d="M549.94,693.76 C541.2,684.41 531.56,673.88 523,664 C509.29,648.17 498.2924,634.6457 486.6324,619.9057 " fill="none" id="HW-to-SW" style="stroke:#181818;stroke-width:1.0;"/><polygon fill="#181818" points="482.91,615.2,485.3565,624.7402,486.012,619.1214,491.6308,619.7769,482.91,615.2" style="stroke:#181818;stroke-width:1.0;"/><polygon fill="#000000" points="524.7459,651.0568,528.4013,659.8369,532.8639,656.0115,524.7459,651.0568" style="stroke:#000000;stroke-width:1.0;"/><text fill="#000000" font-family="sans-serif" font-size="13" lengthAdjust="spacing" textLength="47" x="537" y="659.897">soporta</text></g><!--link SW to HW--><g id="link_SW_HW"><path d="M500.59,593.27 C530.51,600.31 569.63,614.96 589,645 C598.24,659.33 597.374,672.5101 592.194,687.9901 " fill="none" id="SW-to-HW" style="stroke:#181818;stroke-width:1.0;"/><polygon fill="#181818" points="590.29,693.68,596.9392,686.4145,591.8767,688.9384,589.3527,683.8758,590.29,693.68" style="stroke:#181818;stroke-width:1.0;"/><polygon fill="#000000" points="595.5241,651.2588,599.6995,659.8038,603.9247,655.7177,595.5241,651.2588" style="stroke:#000000;stroke-width:1.0;"/><text fill="#000000" font-family="sans-serif" font-size="13" lengthAdjust="spacing" textLength="50" x="608" y="659.897">controla</text></g><!--link DAT to SW--><g id="link_DAT_SW"><path d="M255.57,693.76 C261.36,677.33 270.96,657.46 286,645 C324.37,613.23 346.93,631.3 394,615 C402.93,611.91 406.8309,610.502 415.7309,606.842 " fill="none" id="DAT-to-SW" style="stroke:#181818;stroke-width:1.0;"/><polygon fill="#181818" points="421.28,604.56,411.435,604.2836,416.6557,606.4617,414.4777,611.6824,421.28,604.56" style="stroke:#181818;stroke-width:1.0;"/><polygon fill="#000000" points="295.3946,652.4681,286.0429,654.1994,288.8465,659.3655,295.3946,652.4681" style="stroke:#000000;stroke-width:1.0;"/><text fill="#000000" font-family="sans-serif" font-size="13" lengthAdjust="spacing" textLength="75" x="300" y="659.897">utilizado por</text></g><!--link SW to DAT--><g id="link_SW_DAT"><path d="M436.01,615.18 C420.93,630.99 400.68,650.24 380,664 C350.41,683.69 318.6622,697.3116 291.2422,707.3816 " fill="none" id="SW-to-DAT" style="stroke:#181818;stroke-width:1.0;"/><polygon fill="#181818" points="285.61,709.45,295.4372,710.1022,290.3035,707.7263,292.6793,702.5926,285.61,709.45" style="stroke:#181818;stroke-width:1.0;"/><polygon fill="#000000" points="413.2173,652.167,404.0094,654.5471,407.1669,659.5049,413.2173,652.167" style="stroke:#000000;stroke-width:1.0;"/><text fill="#000000" font-family="sans-serif" font-size="13" lengthAdjust="spacing" textLength="52" x="418" y="659.897">gestiona</text></g><!--link USR to SW--><g id="link_USR_SW"><path d="M281.37,338.96 C294.95,348.09 309.37,359.07 321,371 C336.11,386.49 406.2452,497.465 440.3352,551.895 " fill="none" id="USR-to-SW" style="stroke:#181818;stroke-width:1.0;"/><polygon fill="#181818" points="443.52,556.98,442.1328,547.2293,440.866,552.7425,435.3528,551.4757,443.52,556.98" style="stroke:#181818;stroke-width:1.0;"/><polygon fill="#000000" points="398.9911,453.3596,395.9352,444.3534,391.2251,447.8697,398.9911,453.3596" style="stroke:#000000;stroke-width:1.0;"/><text fill="#000000" font-family="sans-serif" font-size="13" lengthAdjust="spacing" textLength="86" x="405" y="454.397">interact&#250;a con</text></g><!--link SW to USR--><g id="link_SW_USR"><path d="M479.97,556.93 C500.94,522.05 528.26,462.01 500,420 C450.89,346.99 348.3569,324.4975 287.1669,317.1275 " fill="none" id="SW-to-USR" style="stroke:#181818;stroke-width:1.0;"/><polygon fill="#181818" points="281.21,316.41,289.6671,321.4575,286.1741,317.0079,290.6237,313.5149,281.21,316.41" style="stroke:#181818;stroke-width:1.0;"/><polygon fill="#000000" points="520.133,453.2497,516.7558,444.359,512.1749,448.042,520.133,453.2497" style="stroke:#000000;stroke-width:1.0;"/><text fill="#000000" font-family="sans-serif" font-size="13" lengthAdjust="spacing" textLength="138" x="526" y="454.397">presenta informaci&#243;n a</text></g><!--link USR to PROC--><g id="link_USR_PROC"><path d="M237,347.3 C237,370.34 237,390.71 237,413.74 " fill="none" id="USR-PROC" style="stroke:#181818;stroke-width:1.0;"/><polygon fill="#181818" points="237,341.3,233,350.3,237,346.3,241,350.3,237,341.3" style="stroke:#181818;stroke-width:1.0;"/><polygon fill="#181818" points="237,419.74,241,410.74,237,414.74,233,410.74,237,419.74" style="stroke:#181818;stroke-width:1.0;"/><text fill="#000000" font-family="sans-serif" font-size="13" lengthAdjust="spacing" textLength="74" x="238" y="385.897">sigue/define</text></g><!--link PROC to SW--><g id="link_PROC_SW"><path d="M263.74,478.21 C279.82,494.04 301.32,513.29 323,527 C324.13,527.71 375.2546,549.1449 415.6146,566.0249 " fill="none" id="PROC-to-SW" style="stroke:#181818;stroke-width:1.0;"/><polygon fill="#181818" points="421.15,568.34,414.3903,561.1771,416.5372,566.4108,411.3035,568.5576,421.15,568.34" style="stroke:#181818;stroke-width:1.0;"/><polygon fill="#000000" points="332.3285,520.3558,325.9692,513.284,323.0271,518.3725,332.3285,520.3558" style="stroke:#000000;stroke-width:1.0;"/><text fill="#000000" font-family="sans-serif" font-size="13" lengthAdjust="spacing" textLength="65" x="337" y="522.897">configuran</text></g><!--link PROC to DAT--><g id="link_PROC_DAT"><path d="M263.33,478.02 C270.1,486.94 276.46,497.29 280,508 C287.1,529.51 272.1,535.19 266,557 C252.93,603.76 249.4348,654.4525 248.4648,687.7425 " fill="none" id="PROC-to-DAT" style="stroke:#181818;stroke-width:1.0;"/><polygon fill="#181818" points="248.29,693.74,252.5504,684.8603,248.4356,688.7421,244.5538,684.6273,248.29,693.74" style="stroke:#181818;stroke-width:1.0;"/><polygon fill="#000000" points="270.6465,591.3405,274.2176,582.5258,268.3544,582.1103,270.6465,591.3405" style="stroke:#000000;stroke-width:1.0;"/><text fill="#000000" font-family="sans-serif" font-size="13" lengthAdjust="spacing" textLength="123" x="280" y="591.397">determinan acceso a</text></g><!--link DAT to RECOP--><g id="link_DAT_RECOP"><path d="M242.55,752.31 C236.7,782.62 228.7343,823.9582 223.7343,849.9282 " fill="none" id="DAT-to-RECOP" style="stroke:#181818;stroke-width:1.0;"/><polygon fill="#181818" points="222.6,855.82,228.2294,847.7385,223.5453,850.9102,220.3737,846.2261,222.6,855.82" style="stroke:#181818;stroke-width:1.0;"/></g><!--link RECOP to PROCESS--><g id="link_RECOP_PROCESS"><path d="M271.54,875.5 C283.1,875.5 288.66,875.5 300.23,875.5 " fill="none" id="RECOP-to-PROCESS" style="stroke:#181818;stroke-width:1.0;"/><polygon fill="#181818" points="306.23,875.5,297.23,871.5,301.23,875.5,297.23,879.5,306.23,875.5" style="stroke:#181818;stroke-width:1.0;"/></g><!--link PROCESS to ALMAC--><g id="link_PROCESS_ALMAC"><path d="M425.75,875.5 C437.22,875.5 442.69,875.5 454.16,875.5 " fill="none" id="PROCESS-to-ALMAC" style="stroke:#181818;stroke-width:1.0;"/><polygon fill="#181818" points="460.16,875.5,451.16,871.5,455.16,875.5,451.16,879.5,460.16,875.5" style="stroke:#181818;stroke-width:1.0;"/></g><!--link ALMAC to ANAL--><g id="link_ALMAC_ANAL"><path d="M517.94,895.4 C509.56,912.86 499.7868,933.2511 491.4668,950.5811 " fill="none" id="ALMAC-to-ANAL" style="stroke:#181818;stroke-width:1.0;"/><polygon fill="#181818" points="488.87,955.99,496.3712,949.6078,491.034,951.4825,489.1592,946.1454,488.87,955.99" style="stroke:#181818;stroke-width:1.0;"/></g><!--reverse link DIST to ANAL--><g id="link_DIST_ANAL"><path d="M368.16,975.5 C395.32,975.5 416.48,975.5 443.64,975.5 " fill="none" id="DIST-backto-ANAL" style="stroke:#181818;stroke-width:1.0;"/><polygon fill="#181818" points="362.16,975.5,371.16,979.5,367.16,975.5,371.16,971.5,362.16,975.5" style="stroke:#181818;stroke-width:1.0;"/></g><!--reverse link USR to DIST--><g id="link_USR_DIST"><path d="M193.9278,344.7829 C154.0078,375.5529 102,420.49 102,448 C102,448 102,448 102,876.5 C102,946.03 198,966.33 259.87,972.19 " fill="none" id="USR-backto-DIST" style="stroke:#181818;stroke-width:1.0;"/><polygon fill="#181818" points="198.68,341.12,189.1098,343.4463,194.7199,344.1724,193.9937,349.7825,198.68,341.12" style="stroke:#181818;stroke-width:1.0;"/></g><!--link USR to DAT--><g id="link_USR_DAT"><path d="M209.03,341.15 C173.03,380.91 117.21,456.54 136,527 C153.31,591.88 194.2949,652.819 221.7049,688.969 " fill="none" id="USR-to-DAT" style="stroke:#181818;stroke-width:1.0;"/><polygon fill="#181818" points="225.33,693.75,223.0797,684.1617,222.3091,689.7658,216.7049,688.9952,225.33,693.75" style="stroke:#181818;stroke-width:1.0;"/><polygon fill="#000000" points="141.1821,522.8497,143.7897,513.7036,137.9157,513.9176,141.1821,522.8497" style="stroke:#000000;stroke-width:1.0;"/><text fill="#000000" font-family="sans-serif" font-size="13" lengthAdjust="spacing" textLength="121" x="150" y="522.897">proporciona nuevos</text></g><!--reverse link SCOMP to SI--><g id="link_SCOMP_SI"><path d="M77,182.16 C77,192.8125 77,189.115 77,204.6258 C77,212.3812 77,220.4386 77,228.4929 C77,230.5065 77,232.5199 77,234.5283 C77,235.0304 77,235.5322 77,236.0336 C77,236.2843 77,236.5349 77,236.7855 " fill="none" id="SCOMP-backto-SI" style="stroke:#181818;stroke-width:1.0;"/><polygon fill="none" points="77,164.16,71,182.16,83,182.16,77,164.16" style="stroke:#181818;stroke-width:1.0;"/><text fill="#000000" font-family="sans-serif" font-size="13" lengthAdjust="spacing" textLength="77" x="78" y="208.897">es un tipo de</text></g><!--reverse link SIST to SCOMP--><g id="link_SIST_SCOMP"><path d="M77,64.14 C77,85.78 77,103.28 77,124.91 " fill="none" id="SIST-backto-SCOMP" style="stroke:#181818;stroke-width:1.0;"/><polygon fill="none" points="77,46.14,71,64.14,83,64.14,77,46.14" style="stroke:#181818;stroke-width:1.0;"/><text fill="#000000" font-family="sans-serif" font-size="13" lengthAdjust="spacing" textLength="77" x="78" y="90.897">es un tipo de</text></g><!--SRC=[TLJBRjim4BphAnQv-6GKBT1BO1XmvAHsuSI6bQ3eSIFH3ckAL4YfGH_vc7v0JhdrwX_hhkXG3xk0iOR8sU7k3Ba3c8gDr3ALHWi7cG3XIgbCv7PI5sWn1olI4lLM2VWL0LnWkjjQK-aiDihOqUXg_-9aQiPZMA4IdwmGcc76Pi8UGQPeTm7IPrhiNxSUjf3RX_92LQBFr43UTliaiof77JY-2gNCKvybO9QM6Zj9ix8c5OunrzALFzR67TNIWg0rfkdwza6cErBJmGTQMtjMguM5zn-ZvoWQ1CtthvebJqrUaFow90SAAtKg2vBIHOtoPmbL8N9az5nlZCsnpZu3T93CQsTQw1dQx0cjgBTdNw1jGHUPc4qPa0aZWyHTu1HBushKT7BxVrWjIYPpITqSyAlrCeQMNDs4ErUXbGVeNRA6nXu2qcy0SP07KeeM5SiWMp9qAOy4cjzSBTibrt9rKjOYDOLKhPprPRnSzM6-1_JTXUOkawGFd2WwN-WsShAudiH7EBt_ewIJllt9pMJHHqp9U2llgwQowJov9TJpoQja1JV1RpaYtuV3CPjw3iuKnfO8uoZngpDU7T7D8psDmeXD3UYA9e3yYPa1ocfo6CD9MnuHHcF4TeKaIVvOJClzNsJQ9erHd5POuKWDx3W7dcN4mFgYKAroMubt6VSbedejd46y6zgbLqlqOSlNbGawFvUQzZ3bcmRSBYaKorGPraPrZmuzUwlh24DxA8HDFVpxHUzV7M6OyGAxnG66YgjWMpZuJ-egwECBB2oRmEOWw4fyDyxNz_QqQGeO885aXXayLZI9wGQOUuJIPERKBE1teSGtVxsIU7czYke8ez_38K-5SnhcK6aePS42y66VoIFxMErVwb7YFDEfINEOBDGJXmDbpTvd_GS0]--></g></svg>