<?xml version="1.0" encoding="us-ascii" standalone="no"?><svg xmlns="http://www.w3.org/2000/svg" xmlns:xlink="http://www.w3.org/1999/xlink" contentStyleType="text/css" height="893px" preserveAspectRatio="none" style="width:917px;height:893px;background:#FFFFFF;" version="1.1" viewBox="0 0 917 893" width="917px" zoomAndPan="magnify"><defs/><g><!--entity SIST--><g id="elem_SIST"><rect fill="#F1F1F1" height="39.0679" rx="7.5" ry="7.5" style="stroke:#181818;stroke-width:2.0;" width="73" x="7" y="7"/><text fill="#000000" font-family="sans-serif" font-size="14" lengthAdjust="spacing" textLength="53" x="17" y="31.9659">Sistema</text></g><!--entity SCOMP--><g id="elem_SCOMP"><rect fill="#F1F1F1" height="58.1358" rx="7.5" ry="7.5" style="stroke:#181818;stroke-width:2.0;" width="83" x="537" y="125"/><text fill="#000000" font-family="sans-serif" font-size="14" lengthAdjust="spacing" textLength="53" x="547" y="149.9659">Sistema</text><text fill="#000000" font-family="sans-serif" font-size="14" lengthAdjust="spacing" textLength="63" x="547" y="169.0339">Complejo</text></g><!--entity SI--><g id="elem_SI"><rect fill="#F1F1F1" height="58.1358" rx="7.5" ry="7.5" style="stroke:#181818;stroke-width:2.0;" width="123" x="276" y="271.5"/><text fill="#000000" font-family="sans-serif" font-size="14" lengthAdjust="spacing" textLength="53" x="286" y="296.4659">Sistema</text><text fill="#000000" font-family="sans-serif" font-size="14" lengthAdjust="spacing" textLength="103" x="286" y="315.5339">de Informaci&#243;n</text></g><!--entity SIUSR--><g id="elem_SIUSR"><rect fill="#F1F1F1" height="77.2038" rx="7.5" ry="7.5" style="stroke:#181818;stroke-width:2.0;" width="123" x="517" y="262"/><text fill="#000000" font-family="sans-serif" font-size="14" lengthAdjust="spacing" textLength="53" x="527" y="286.9659">Sistema</text><text fill="#000000" font-family="sans-serif" font-size="14" lengthAdjust="spacing" textLength="103" x="527" y="306.0339">de Informaci&#243;n</text><text fill="#000000" font-family="sans-serif" font-size="14" lengthAdjust="spacing" textLength="77" x="527" y="325.1018">del Usuario</text></g><!--entity HW--><g id="elem_HW"><rect fill="#98FB98" height="58.1358" rx="7.5" ry="7.5" style="stroke:#006400;stroke-width:2.0;" width="86" x="578.5" y="692"/><text fill="#000000" font-family="sans-serif" font-size="14" font-style="italic" lengthAdjust="spacing" textLength="49" x="597" y="716.9659">&#171;F&#237;sico&#187;</text><text fill="#000000" font-family="sans-serif" font-size="14" lengthAdjust="spacing" textLength="66" x="588.5" y="736.0339">Hardware</text></g><!--entity SW--><g id="elem_SW"><rect fill="#ADD8E6" height="58.1358" rx="7.5" ry="7.5" style="stroke:#0000FF;stroke-width:2.0;" width="79" x="416" y="555"/><text fill="#000000" font-family="sans-serif" font-size="14" font-style="italic" lengthAdjust="spacing" textLength="55" x="428" y="579.9659">&#171;L&#243;gico&#187;</text><text fill="#000000" font-family="sans-serif" font-size="14" lengthAdjust="spacing" textLength="59" x="426" y="599.0339">Software</text></g><!--entity DAT--><g id="elem_DAT"><rect fill="#ADD8E6" height="58.1358" rx="7.5" ry="7.5" style="stroke:#0000FF;stroke-width:2.0;" width="75" x="325" y="829"/><text fill="#000000" font-family="sans-serif" font-size="14" font-style="italic" lengthAdjust="spacing" textLength="55" x="335" y="853.9659">&#171;L&#243;gico&#187;</text><text fill="#000000" font-family="sans-serif" font-size="14" lengthAdjust="spacing" textLength="38" x="343.5" y="873.0339">Datos</text></g><!--entity PROC--><g id="elem_PROC"><rect fill="#FFE4E1" height="58.1358" rx="7.5" ry="7.5" style="stroke:#800000;stroke-width:2.0;" width="124" x="333.5" y="418"/><text fill="#000000" font-family="sans-serif" font-size="14" font-style="italic" lengthAdjust="spacing" textLength="63" x="364" y="442.9659">&#171;Proceso&#187;</text><text fill="#000000" font-family="sans-serif" font-size="14" lengthAdjust="spacing" textLength="104" x="343.5" y="462.0339">Procedimientos</text></g><!--entity USR--><g id="elem_USR"><rect fill="#FFFFE0" height="58.1358" rx="7.5" ry="7.5" style="stroke:#FFA500;stroke-width:2.0;" width="88" x="172.5" y="418"/><text fill="#000000" font-family="sans-serif" font-size="14" font-style="italic" lengthAdjust="spacing" textLength="68" x="182.5" y="442.9659">&#171;Humano&#187;</text><text fill="#000000" font-family="sans-serif" font-size="14" lengthAdjust="spacing" textLength="59" x="187" y="462.0339">Usuarios</text></g><!--entity INFO--><g id="elem_INFO"><rect fill="#ADD8E6" height="58.1358" rx="7.5" ry="7.5" style="stroke:#0000FF;stroke-width:2.0;" width="102" x="59.5" y="692"/><text fill="#000000" font-family="sans-serif" font-size="14" font-style="italic" lengthAdjust="spacing" textLength="55" x="83" y="716.9659">&#171;L&#243;gico&#187;</text><text fill="#000000" font-family="sans-serif" font-size="14" lengthAdjust="spacing" textLength="82" x="69.5" y="736.0339">Informaci&#243;n</text></g><!--reverse link SIST to SCOMP--><g id="link_SIST_SCOMP"><path d="M97.7946,40.2397 C193.9946,62.7997 435.15,119.37 536.73,143.2 " fill="none" id="SIST-backto-SCOMP" style="stroke:#181818;stroke-width:1.0;"/><polygon fill="none" points="80.27,36.13,96.4247,46.0812,99.1645,34.3982,80.27,36.13" style="stroke:#181818;stroke-width:1.0;"/><text fill="#000000" font-family="sans-serif" font-size="13" lengthAdjust="spacing" textLength="77" x="327.5" y="90.897">es un tipo de</text></g><!--reverse link SCOMP to SI--><g id="link_SCOMP_SI"><path d="M521.3613,189.2645 C478.9213,214.7045 428.7,244.82 384.46,271.34 " fill="none" id="SCOMP-backto-SI" style="stroke:#181818;stroke-width:1.0;"/><polygon fill="none" points="536.8,180.01,518.2764,184.1183,524.4461,194.4107,536.8,180.01" style="stroke:#181818;stroke-width:1.0;"/><text fill="#000000" font-family="sans-serif" font-size="13" lengthAdjust="spacing" textLength="77" x="480.5" y="227.897">es un tipo de</text></g><!--reverse link SCOMP to SIUSR--><g id="link_SCOMP_SIUSR"><path d="M578.5,201.2 C578.5,223.63 578.5,237.2 578.5,261.79 " fill="none" id="SCOMP-backto-SIUSR" style="stroke:#181818;stroke-width:1.0;"/><polygon fill="none" points="578.5,183.2,572.5,201.2,584.5,201.2,578.5,183.2" style="stroke:#181818;stroke-width:1.0;"/><text fill="#000000" font-family="sans-serif" font-size="13" lengthAdjust="spacing" textLength="77" x="579.5" y="227.897">es un tipo de</text></g><!--reverse link SIST to INFO--><g id="link_SIST_INFO"><path d="M34.3288,51.9764 C25.7388,76.2564 14.5,114.31 14.5,153 C14.5,153 14.5,153 14.5,585 C14.5,628.14 47.46,667.07 74.75,691.92 " fill="none" id="SIST-backto-INFO" style="stroke:#181818;stroke-width:1.0;"/><polygon fill="#181818" points="36.33,46.32,29.5573,53.4705,34.6623,51.0337,37.0992,56.1388,36.33,46.32" style="stroke:#181818;stroke-width:1.0;"/><text fill="#000000" font-family="sans-serif" font-size="13" lengthAdjust="spacing" textLength="50" x="15.5" y="383.897">produce</text></g><!--reverse link SCOMP to HW--><g id="link_SCOMP_HW"><path d="M626.1357,162.374 C693.6657,175.134 813.5,209.82 813.5,299.5 C813.5,299.5 813.5,299.5 813.5,585 C813.5,657.33 721.2,694.26 664.59,710.11 " fill="none" id="SCOMP-backto-HW" style="stroke:#181818;stroke-width:1.0;"/><polygon fill="#181818" points="620.24,161.26,628.3408,166.8615,625.1531,162.1883,629.8262,159.0006,620.24,161.26" style="stroke:#181818;stroke-width:1.0;"/><text fill="#000000" font-family="sans-serif" font-size="13" lengthAdjust="spacing" textLength="95" x="814.5" y="452.397">componente de</text></g><!--reverse link SCOMP to SW--><g id="link_SCOMP_SW"><path d="M625.3178,174.7839 C642.6278,184.1439 655.67,194.79 665.5,213 C681.96,243.51 688.53,497.44 667.5,525 C646.72,552.22 550.85,569.79 495.41,577.85 " fill="none" id="SCOMP-backto-SW" style="stroke:#181818;stroke-width:1.0;"/><polygon fill="#181818" points="620.04,171.93,626.0542,179.7294,624.4382,174.3082,629.8593,172.6923,620.04,171.93" style="stroke:#181818;stroke-width:1.0;"/><text fill="#000000" font-family="sans-serif" font-size="13" lengthAdjust="spacing" textLength="95" x="681.5" y="383.897">componente de</text></g><!--link SI to HW--><g id="link_SI_HW"><path d="M399.38,318.93 C448.83,336.08 516.03,367.21 554.5,418 C618.05,501.91 623.6539,628.3607 622.7539,685.8407 " fill="none" id="SI-to-HW" style="stroke:#181818;stroke-width:1.0;"/><polygon fill="#181818" points="622.66,691.84,626.8004,682.9037,622.7383,686.8406,618.8014,682.7785,622.66,691.84" style="stroke:#181818;stroke-width:1.0;"/><text fill="#000000" font-family="sans-serif" font-size="13" lengthAdjust="spacing" textLength="35" x="603.5" y="520.897">utiliza</text></g><!--link SI to SW--><g id="link_SI_SW"><path d="M382.23,329.71 C412.35,350.76 450.92,382.01 475.5,418 C503.35,458.79 522.7,478.7 505.5,525 C501.47,535.84 498.3489,541.4839 490.7689,550.1939 " fill="none" id="SI-to-SW" style="stroke:#181818;stroke-width:1.0;"/><polygon fill="#181818" points="486.83,554.72,495.7557,550.5568,490.1124,550.9483,489.7209,545.305,486.83,554.72" style="stroke:#181818;stroke-width:1.0;"/><text fill="#000000" font-family="sans-serif" font-size="13" lengthAdjust="spacing" textLength="35" x="510.5" y="452.397">utiliza</text></g><!--reverse link SI to INFO--><g id="link_SI_INFO"><path d="M270.141,327.2199 C229.011,345.9799 182.96,374.06 154.5,418 C98.19,504.94 102.22,635.22 107.28,691.94 " fill="none" id="SI-backto-INFO" style="stroke:#181818;stroke-width:1.0;"/><polygon fill="#181818" points="275.6,324.73,265.7516,324.8256,271.0509,326.8049,269.0715,332.1042,275.6,324.73" style="stroke:#181818;stroke-width:1.0;"/><text fill="#000000" font-family="sans-serif" font-size="13" lengthAdjust="spacing" textLength="52" x="119.5" y="520.897">gestiona</text></g><!--link SW to HW--><g id="link_SW_HW"><path d="M487.19,613.33 C503.99,628.12 525.11,646.34 544.5,662 C556.87,671.99 565.8591,678.9512 578.3191,688.2912 " fill="none" id="SW-to-HW" style="stroke:#181818;stroke-width:1.0;"/><polygon fill="#181818" points="583.12,691.89,578.3178,683.2912,579.1192,688.891,573.5194,689.6925,583.12,691.89" style="stroke:#181818;stroke-width:1.0;"/><text fill="#000000" font-family="sans-serif" font-size="13" lengthAdjust="spacing" textLength="50" x="545.5" y="657.897">controla</text></g><!--link SW to INFO--><g id="link_SW_INFO"><path d="M415.82,587.83 C341.72,593.84 186.05,610.1 144.5,643 C129.38,654.97 122.4551,669.2999 117.7051,685.9599 " fill="none" id="SW-to-INFO" style="stroke:#181818;stroke-width:1.0;"/><polygon fill="#181818" points="116.06,691.73,122.3744,684.1717,117.4309,686.9216,114.681,681.9782,116.06,691.73" style="stroke:#181818;stroke-width:1.0;"/><text fill="#000000" font-family="sans-serif" font-size="13" lengthAdjust="spacing" textLength="47" x="145.5" y="657.897">procesa</text></g><!--link INFO to SW--><g id="link_INFO_SW"><path d="M161.71,716.78 C216.82,711.52 305.68,697.78 373.5,662 C396.3,649.97 413.3609,634.3159 428.4409,617.6759 " fill="none" id="INFO-to-SW" style="stroke:#181818;stroke-width:1.0;"/><polygon fill="#181818" points="432.47,613.23,423.4624,617.2128,429.1124,616.9349,429.3903,622.585,432.47,613.23" style="stroke:#181818;stroke-width:1.0;"/><text fill="#000000" font-family="sans-serif" font-size="13" lengthAdjust="spacing" textLength="52" x="401.5" y="657.897">alimenta</text></g><!--link SI to SIUSR--><g id="link_SI_SIUSR"><path d="M399.25,300.5 C435.37,300.5 474.82,300.5 510.91,300.5 " fill="none" id="SI-to-SIUSR" style="stroke:#181818;stroke-width:1.0;stroke-dasharray:7.0,7.0;"/><polygon fill="#181818" points="516.91,300.5,507.91,296.5,511.91,300.5,507.91,304.5,516.91,300.5" style="stroke:#181818;stroke-width:1.0;"/><text fill="#000000" font-family="sans-serif" font-size="13" lengthAdjust="spacing" textLength="81" x="417.5" y="293.397">especializa en</text></g><!--link HW to DAT--><g id="link_HW_DAT"><path d="M587.71,750.12 C567.62,765.91 541.12,785.16 515.5,799 C478.01,819.25 437.6454,833.8541 405.9054,843.9941 " fill="none" id="HW-to-DAT" style="stroke:#181818;stroke-width:1.0;"/><polygon fill="#181818" points="400.19,845.82,409.9804,846.8914,404.9529,844.2984,407.5459,839.2709,400.19,845.82" style="stroke:#181818;stroke-width:1.0;"/><text fill="#000000" font-family="sans-serif" font-size="13" lengthAdjust="spacing" textLength="57" x="546.5" y="794.897">almacena</text></g><!--link SW to DAT--><g id="link_SW_DAT"><path d="M462.41,613.12 C464.93,627.85 466.34,646.08 462.5,662 C447.05,725.98 410.1546,787.5587 385.6946,823.9887 " fill="none" id="SW-to-DAT" style="stroke:#181818;stroke-width:1.0;"/><polygon fill="#181818" points="382.35,828.97,390.6878,823.7277,385.1372,824.8189,384.046,819.2683,382.35,828.97" style="stroke:#181818;stroke-width:1.0;"/><text fill="#000000" font-family="sans-serif" font-size="13" lengthAdjust="spacing" textLength="52" x="453.5" y="726.397">gestiona</text></g><!--reverse link INFO to DAT--><g id="link_INFO_DAT"><path d="M99.789,755.9517 C96.299,771.9217 96.73,785.51 107.5,799 C134.3,832.58 260.83,848.21 325,854.08 " fill="none" id="INFO-backto-DAT" style="stroke:#181818;stroke-width:1.0;"/><polygon fill="#181818" points="101.07,750.09,95.2408,758.0285,100.0025,754.9747,103.0563,759.7365,101.07,750.09" style="stroke:#181818;stroke-width:1.0;"/><text fill="#000000" font-family="sans-serif" font-size="13" lengthAdjust="spacing" textLength="101" x="108.5" y="794.897">se transforma en</text></g><!--link USR to SW--><g id="link_USR_SW"><path d="M248.37,476.36 C267.05,492.04 291.6,511.09 315.5,525 C347.68,543.72 381.4134,557.4413 410.1934,567.7813 " fill="none" id="USR-to-SW" style="stroke:#181818;stroke-width:1.0;"/><polygon fill="#181818" points="415.84,569.81,408.7225,563.0025,411.1345,568.1194,406.0176,570.5314,415.84,569.81" style="stroke:#181818;stroke-width:1.0;"/><text fill="#000000" font-family="sans-serif" font-size="13" lengthAdjust="spacing" textLength="86" x="316.5" y="520.897">interact&#250;a con</text></g><!--link USR to DAT--><g id="link_USR_DAT"><path d="M213.55,476.27 C210.21,518.12 207.75,598.43 229.5,662 C252.18,728.3 299.9044,788.5539 331.7544,824.2339 " fill="none" id="USR-to-DAT" style="stroke:#181818;stroke-width:1.0;"/><polygon fill="#181818" points="335.75,828.71,332.7407,819.3322,332.4203,824.9799,326.7726,824.6596,335.75,828.71" style="stroke:#181818;stroke-width:1.0;"/><text fill="#000000" font-family="sans-serif" font-size="13" lengthAdjust="spacing" textLength="134" x="230.5" y="657.897">proporciona/consume</text></g><!--link PROC to SW--><g id="link_PROC_SW"><path d="M402.4,476.07 C406.52,490.95 412.34,509.34 419.5,525 C424.13,535.13 427.0169,540.5665 432.8569,549.8165 " fill="none" id="PROC-to-SW" style="stroke:#181818;stroke-width:1.0;"/><polygon fill="#181818" points="436.06,554.89,434.6376,545.1444,433.3907,550.6621,427.873,549.4152,436.06,554.89" style="stroke:#181818;stroke-width:1.0;"/><text fill="#000000" font-family="sans-serif" font-size="13" lengthAdjust="spacing" textLength="80" x="420.5" y="520.897">define uso de</text></g><!--reverse link USR to PROC--><g id="link_USR_PROC"><path d="M266.75,447 C288.59,447 309.32,447 333.19,447 " fill="none" id="USR-backto-PROC" style="stroke:#181818;stroke-width:1.0;"/><polygon fill="#181818" points="260.75,447,269.75,451,265.75,447,269.75,443,260.75,447" style="stroke:#181818;stroke-width:1.0;"/><text fill="#000000" font-family="sans-serif" font-size="13" lengthAdjust="spacing" textLength="36" x="279" y="439.897">gu&#237;a a</text></g><!--link SIUSR to USR--><g id="link_SIUSR_USR"><path d="M516.68,326.18 C443.88,355.24 330.3525,400.5557 266.2425,426.1457 " fill="none" id="SIUSR-to-USR" style="stroke:#181818;stroke-width:1.0;"/><polygon fill="#181818" points="260.67,428.37,270.5116,428.7485,265.3137,426.5164,267.5459,421.3186,260.67,428.37" style="stroke:#181818;stroke-width:1.0;"/><text fill="#000000" font-family="sans-serif" font-size="13" lengthAdjust="spacing" textLength="38" x="408.5" y="383.897">sirve a</text></g><!--SRC=[ZLGzRzj03DtrAuWiIGUtQ84kGM2WiP7QG58RTeAWG1T2OkIBJtSgJqhGhv-KALjN_x7oxcn9aTsYcqG-FRv7KZo6CTqfer9b3Jd82CXLIjl4hPKfaR40fhH2ask27md0EQRhd6rjif7Lbi_EBZPFJgLsE8GvQlh8HCR3B6V4Uv0nyhg1z9akDyzvX5sgV5MTwvhwJ2rab-sJJEe2JSFncRIsZtsM1ZDZCNQGPius9USnLyfLtnRMxMdfG92jRLrVhrIwbcuwU2UnHMHbGmnltoU_akIuwVdcsVYMQuHxOkIlzUO9eMHbKbMYzYadrQb0bxHJE5h6s16WW-LqUNqWzyMCR55gkhSHDPfTpG_2fCJKt5akCAZPSluFr0SqtBWQMMshJ6-M2s_FrvPrCfLiLECcR9VU6VBUL8UjMt62d3qYKo2Tt49tWLueitTLWrjwNBCUNTWOA-i2PlpX-c-WCCnC5KfKRz7pnMm4dJ5tuLlR4IYkeLsgBcoljTDF5xCN4gHR2zBO_duhOfA6OMXMfZ2NNn31iigLaPKuAPaSyGDcw5ubVlfmzdEG3UA8uLH-NwWDLAgqmf34g204CFrtrhlO0mH-IGVTfp9CczKfzLJlnCcZT8y9qixyUu9ZHM6KkPvsW1qvNis1v1G6Ws7yh9OBfRxZBhRinJg2St_Dh97mRVjvQaMbrKsmDIU3nYIyDhoeLI4QiESPit0oW-aJKzD370Uy7dPQMP8CqgkIlYIJMCple6ULhQ1MLumsQlthe6wbEO9AJfKBs-J9V8L6ef8MCQRLvZTwRqqoaegjqd8G-qQohYue2QijMxCboFmv8gXT67fCQab67tcuIhwpE-8OTueVIE9_0000]--></g></svg>