<?xml version="1.0" encoding="us-ascii" standalone="no"?><svg xmlns="http://www.w3.org/2000/svg" xmlns:xlink="http://www.w3.org/1999/xlink" contentStyleType="text/css" height="820px" preserveAspectRatio="none" style="width:1298px;height:820px;background:#FFFFFF;" version="1.1" viewBox="0 0 1298 820" width="1298px" zoomAndPan="magnify"><defs/><g><text fill="#000000" font-family="sans-serif" font-size="14" font-weight="bold" lengthAdjust="spacing" textLength="363" x="460.5" y="24.9659">Direcci&#243;n de Sistemas de Informaci&#243;n - Introducci&#243;n</text><!--cluster introduccion--><g id="cluster_introduccion"><path d="M8.5,46.6699 L119.5,46.6699 A3.75,3.75 0 0 1 122,49.1699 L129,71.7378 L759.5,71.7378 A2.5,2.5 0 0 1 762,74.2378 L762,811.1699 A2.5,2.5 0 0 1 759.5,813.6699 L8.5,813.6699 A2.5,2.5 0 0 1 6,811.1699 L6,49.1699 A2.5,2.5 0 0 1 8.5,46.6699 " fill="none" style="stroke:#000000;stroke-width:1.5;"/><line style="stroke:#000000;stroke-width:1.5;" x1="6" x2="129" y1="71.7378" y2="71.7378"/><text fill="#000000" font-family="sans-serif" font-size="14" font-weight="bold" lengthAdjust="spacing" textLength="110" x="10" y="63.6358">00-Introducci&#243;n</text></g><!--cluster siguientes--><g id="cluster_siguientes"><path d="M804.5,270.6699 L918.5,270.6699 A3.75,3.75 0 0 1 921,273.1699 L928,295.7378 L1288.5,295.7378 A2.5,2.5 0 0 1 1291,298.2378 L1291,579.6699 A2.5,2.5 0 0 1 1288.5,582.1699 L804.5,582.1699 A2.5,2.5 0 0 1 802,579.6699 L802,273.1699 A2.5,2.5 0 0 1 804.5,270.6699 " fill="none" style="stroke:#000000;stroke-width:1.5;"/><line style="stroke:#000000;stroke-width:1.5;" x1="802" x2="928" y1="295.7378" y2="295.7378"/><text fill="#000000" font-family="sans-serif" font-size="14" font-weight="bold" lengthAdjust="spacing" textLength="113" x="806" y="287.6358">Pr&#243;ximos temas</text></g><!--class contexto--><g id="elem_contexto"><rect codeLine="6" fill="#F1F1F1" height="105.2038" id="contexto" rx="2.5" ry="2.5" style="stroke:#181818;stroke-width:0.5;" width="303" x="369.5" y="92.6699"/><ellipse cx="464.25" cy="108.6699" fill="#ADD1B2" rx="11" ry="11" style="stroke:#181818;stroke-width:1.0;"/><path d="M464.0469,115.4043 Q461.5625,115.4043 460.2344,113.7636 Q458.9219,112.0918 458.9219,108.9824 Q458.9219,105.8574 460.2344,104.2011 Q461.5625,102.5449 464.0469,102.5449 Q464.7656,102.5449 465.4219,102.7011 Q466.0625,102.8574 466.625,103.1543 L466.625,105.873 Q466.2656,105.5293 465.9688,105.3418 Q465.6719,105.1386 465.4063,105.0136 Q465.0938,104.873 464.7813,104.8105 Q464.4844,104.748 464.1719,104.748 Q462.8438,104.748 462.1563,105.8105 Q461.4688,106.9043 461.4688,108.9824 Q461.4688,111.0761 462.1563,112.1386 Q462.8438,113.2168 464.1719,113.2168 Q464.8125,113.2168 465.4063,112.9355 Q465.7031,112.8105 465.9844,112.623 Q466.2813,112.4199 466.625,112.0918 L466.625,114.8105 Q466.0469,115.1074 465.4063,115.2636 Q464.7813,115.4043 464.0469,115.4043 Z " fill="#000000"/><text fill="#000000" font-family="sans-serif" font-size="14" lengthAdjust="spacing" textLength="105" x="484.75" y="114.1019">Contexto Actual</text><line style="stroke:#181818;stroke-width:0.5;" x1="370.5" x2="671.5" y1="124.6699" y2="124.6699"/><ellipse cx="380.5" cy="139.7039" fill="none" rx="3" ry="3" style="stroke:#038048;stroke-width:1.0;"/><text fill="#000000" font-family="sans-serif" font-size="14" lengthAdjust="spacing" textLength="178" x="389.5" y="143.6358">5.35B usuarios de internet</text><ellipse cx="380.5" cy="158.7718" fill="none" rx="3" ry="3" style="stroke:#038048;stroke-width:1.0;"/><text fill="#000000" font-family="sans-serif" font-size="14" lengthAdjust="spacing" textLength="171" x="389.5" y="162.7038">66.2% penetraci&#243;n global</text><ellipse cx="380.5" cy="177.8397" fill="none" rx="3" ry="3" style="stroke:#038048;stroke-width:1.0;"/><text fill="#000000" font-family="sans-serif" font-size="14" lengthAdjust="spacing" textLength="277" x="389.5" y="181.7717">$2.8T inversi&#243;n en transformaci&#243;n digital</text><line style="stroke:#181818;stroke-width:0.5;" x1="370.5" x2="671.5" y1="189.8736" y2="189.8736"/></g><!--class sistemaInfo--><g id="elem_sistemaInfo"><rect codeLine="12" fill="#F1F1F1" height="124.2717" id="sistemaInfo" rx="2.5" ry="2.5" style="stroke:#181818;stroke-width:0.5;" width="419" x="311.5" y="278.6699"/><ellipse cx="436.75" cy="294.6699" fill="#ADD1B2" rx="11" ry="11" style="stroke:#181818;stroke-width:1.0;"/><path d="M436.5469,301.4043 Q434.0625,301.4043 432.7344,299.7636 Q431.4219,298.0918 431.4219,294.9824 Q431.4219,291.8574 432.7344,290.2011 Q434.0625,288.5449 436.5469,288.5449 Q437.2656,288.5449 437.9219,288.7011 Q438.5625,288.8574 439.125,289.1543 L439.125,291.873 Q438.7656,291.5293 438.4688,291.3418 Q438.1719,291.1386 437.9063,291.0136 Q437.5938,290.873 437.2813,290.8105 Q436.9844,290.748 436.6719,290.748 Q435.3438,290.748 434.6563,291.8105 Q433.9688,292.9043 433.9688,294.9824 Q433.9688,297.0761 434.6563,298.1386 Q435.3438,299.2168 436.6719,299.2168 Q437.3125,299.2168 437.9063,298.9355 Q438.2031,298.8105 438.4844,298.623 Q438.7813,298.4199 439.125,298.0918 L439.125,300.8105 Q438.5469,301.1074 437.9063,301.2636 Q437.2813,301.4043 436.5469,301.4043 Z " fill="#000000"/><text fill="#000000" font-family="sans-serif" font-size="14" lengthAdjust="spacing" textLength="160" x="457.25" y="300.1019">Sistema de Informaci&#243;n</text><line style="stroke:#181818;stroke-width:0.5;" x1="312.5" x2="729.5" y1="310.6699" y2="310.6699"/><ellipse cx="322.5" cy="325.7039" fill="none" rx="3" ry="3" style="stroke:#038048;stroke-width:1.0;"/><text fill="#000000" font-family="sans-serif" font-size="14" lengthAdjust="spacing" textLength="393" x="331.5" y="329.6358">Conjunto de elementos orientados al tratamiento de datos</text><ellipse cx="322.5" cy="344.7718" fill="none" rx="3" ry="3" style="stroke:#038048;stroke-width:1.0;"/><text fill="#000000" font-family="sans-serif" font-size="14" lengthAdjust="spacing" textLength="208" x="331.5" y="348.7038">Administraci&#243;n de informaci&#243;n</text><ellipse cx="322.5" cy="363.8397" fill="none" rx="3" ry="3" style="stroke:#038048;stroke-width:1.0;"/><text fill="#000000" font-family="sans-serif" font-size="14" lengthAdjust="spacing" textLength="268" x="331.5" y="367.7717">Capacidad de procesamiento aut&#243;nomo</text><ellipse cx="322.5" cy="382.9076" fill="none" rx="3" ry="3" style="stroke:#038048;stroke-width:1.0;"/><text fill="#000000" font-family="sans-serif" font-size="14" lengthAdjust="spacing" textLength="189" x="331.5" y="386.8396">Toma de decisiones asistida</text><line style="stroke:#181818;stroke-width:0.5;" x1="312.5" x2="729.5" y1="394.9416" y2="394.9416"/></g><!--class direccion--><g id="elem_direccion"><rect codeLine="19" fill="#F1F1F1" height="105.2038" id="direccion" rx="2.5" ry="2.5" style="stroke:#181818;stroke-width:0.5;" width="344" x="118" y="481.6699"/><ellipse cx="254.25" cy="497.6699" fill="#ADD1B2" rx="11" ry="11" style="stroke:#181818;stroke-width:1.0;"/><path d="M254.0469,504.4043 Q251.5625,504.4043 250.2344,502.7636 Q248.9219,501.0918 248.9219,497.9824 Q248.9219,494.8574 250.2344,493.2011 Q251.5625,491.5449 254.0469,491.5449 Q254.7656,491.5449 255.4219,491.7011 Q256.0625,491.8574 256.625,492.1543 L256.625,494.873 Q256.2656,494.5293 255.9688,494.3418 Q255.6719,494.1386 255.4063,494.0136 Q255.0938,493.873 254.7813,493.8105 Q254.4844,493.748 254.1719,493.748 Q252.8438,493.748 252.1563,494.8105 Q251.4688,495.9043 251.4688,497.9824 Q251.4688,500.0761 252.1563,501.1386 Q252.8438,502.2168 254.1719,502.2168 Q254.8125,502.2168 255.4063,501.9355 Q255.7031,501.8105 255.9844,501.623 Q256.2813,501.4199 256.625,501.0918 L256.625,503.8105 Q256.0469,504.1074 255.4063,504.2636 Q254.7813,504.4043 254.0469,504.4043 Z " fill="#000000"/><text fill="#000000" font-family="sans-serif" font-size="14" lengthAdjust="spacing" textLength="63" x="274.75" y="503.1019">Direcci&#243;n</text><line style="stroke:#181818;stroke-width:0.5;" x1="119" x2="461" y1="513.6699" y2="513.6699"/><ellipse cx="129" cy="528.7039" fill="none" rx="3" ry="3" style="stroke:#038048;stroke-width:1.0;"/><text fill="#000000" font-family="sans-serif" font-size="14" lengthAdjust="spacing" textLength="233" x="138" y="532.6358">Gesti&#243;n de sistemas socio-t&#233;cnicos</text><ellipse cx="129" cy="547.7718" fill="none" rx="3" ry="3" style="stroke:#038048;stroke-width:1.0;"/><text fill="#000000" font-family="sans-serif" font-size="14" lengthAdjust="spacing" textLength="318" x="138" y="551.7038">Integraci&#243;n de personas, tecnolog&#237;a y procesos</text><ellipse cx="129" cy="566.8397" fill="none" rx="3" ry="3" style="stroke:#038048;stroke-width:1.0;"/><text fill="#000000" font-family="sans-serif" font-size="14" lengthAdjust="spacing" textLength="215" x="138" y="570.7717">Adaptaci&#243;n al cambio constante</text><line style="stroke:#181818;stroke-width:0.5;" x1="119" x2="461" y1="578.8736" y2="578.8736"/></g><!--class desafios--><g id="elem_desafios"><rect codeLine="25" fill="#F1F1F1" height="124.2717" id="desafios" rx="2.5" ry="2.5" style="stroke:#181818;stroke-width:0.5;" width="246" x="30" y="278.6699"/><ellipse cx="120.25" cy="294.6699" fill="#ADD1B2" rx="11" ry="11" style="stroke:#181818;stroke-width:1.0;"/><path d="M120.0469,301.4043 Q117.5625,301.4043 116.2344,299.7636 Q114.9219,298.0918 114.9219,294.9824 Q114.9219,291.8574 116.2344,290.2011 Q117.5625,288.5449 120.0469,288.5449 Q120.7656,288.5449 121.4219,288.7011 Q122.0625,288.8574 122.625,289.1543 L122.625,291.873 Q122.2656,291.5293 121.9688,291.3418 Q121.6719,291.1386 121.4063,291.0136 Q121.0938,290.873 120.7813,290.8105 Q120.4844,290.748 120.1719,290.748 Q118.8438,290.748 118.1563,291.8105 Q117.4688,292.9043 117.4688,294.9824 Q117.4688,297.0761 118.1563,298.1386 Q118.8438,299.2168 120.1719,299.2168 Q120.8125,299.2168 121.4063,298.9355 Q121.7031,298.8105 121.9844,298.623 Q122.2813,298.4199 122.625,298.0918 L122.625,300.8105 Q122.0469,301.1074 121.4063,301.2636 Q120.7813,301.4043 120.0469,301.4043 Z " fill="#000000"/><text fill="#000000" font-family="sans-serif" font-size="14" lengthAdjust="spacing" textLength="57" x="140.75" y="300.1019">Desaf&#237;os</text><line style="stroke:#181818;stroke-width:0.5;" x1="31" x2="275" y1="310.6699" y2="310.6699"/><ellipse cx="41" cy="325.7039" fill="none" rx="3" ry="3" style="stroke:#038048;stroke-width:1.0;"/><text fill="#000000" font-family="sans-serif" font-size="14" lengthAdjust="spacing" textLength="188" x="50" y="329.6358">Complejidad organizacional</text><ellipse cx="41" cy="344.7718" fill="none" rx="3" ry="3" style="stroke:#038048;stroke-width:1.0;"/><text fill="#000000" font-family="sans-serif" font-size="14" lengthAdjust="spacing" textLength="131" x="50" y="348.7038">Impacto econ&#243;mico</text><ellipse cx="41" cy="363.8397" fill="none" rx="3" ry="3" style="stroke:#038048;stroke-width:1.0;"/><text fill="#000000" font-family="sans-serif" font-size="14" lengthAdjust="spacing" textLength="100" x="50" y="367.7717">Desaf&#237;os &#233;ticos</text><ellipse cx="41" cy="382.9076" fill="none" rx="3" ry="3" style="stroke:#038048;stroke-width:1.0;"/><text fill="#000000" font-family="sans-serif" font-size="14" lengthAdjust="spacing" textLength="220" x="50" y="386.8396">Velocidad de cambio tecnol&#243;gico</text><line style="stroke:#181818;stroke-width:0.5;" x1="31" x2="275" y1="394.9416" y2="394.9416"/></g><!--class objetivos--><g id="elem_objetivos"><rect codeLine="32" fill="#F1F1F1" height="124.2717" id="objetivos" rx="2.5" ry="2.5" style="stroke:#181818;stroke-width:0.5;" width="302" x="139" y="665.6699"/><ellipse cx="254.25" cy="681.6699" fill="#ADD1B2" rx="11" ry="11" style="stroke:#181818;stroke-width:1.0;"/><path d="M254.0469,688.4043 Q251.5625,688.4043 250.2344,686.7636 Q248.9219,685.0918 248.9219,681.9824 Q248.9219,678.8574 250.2344,677.2011 Q251.5625,675.5449 254.0469,675.5449 Q254.7656,675.5449 255.4219,675.7011 Q256.0625,675.8574 256.625,676.1543 L256.625,678.873 Q256.2656,678.5293 255.9688,678.3418 Q255.6719,678.1386 255.4063,678.0136 Q255.0938,677.873 254.7813,677.8105 Q254.4844,677.748 254.1719,677.748 Q252.8438,677.748 252.1563,678.8105 Q251.4688,679.9043 251.4688,681.9824 Q251.4688,684.0761 252.1563,685.1386 Q252.8438,686.2168 254.1719,686.2168 Q254.8125,686.2168 255.4063,685.9355 Q255.7031,685.8105 255.9844,685.623 Q256.2813,685.4199 256.625,685.0918 L256.625,687.8105 Q256.0469,688.1074 255.4063,688.2636 Q254.7813,688.4043 254.0469,688.4043 Z " fill="#000000"/><text fill="#000000" font-family="sans-serif" font-size="14" lengthAdjust="spacing" textLength="63" x="274.75" y="687.1019">Objetivos</text><line style="stroke:#181818;stroke-width:0.5;" x1="140" x2="440" y1="697.6699" y2="697.6699"/><ellipse cx="150" cy="712.7039" fill="none" rx="3" ry="3" style="stroke:#038048;stroke-width:1.0;"/><text fill="#000000" font-family="sans-serif" font-size="14" lengthAdjust="spacing" textLength="272" x="159" y="716.6358">Competencias directivas para era digital</text><ellipse cx="150" cy="731.7718" fill="none" rx="3" ry="3" style="stroke:#038048;stroke-width:1.0;"/><text fill="#000000" font-family="sans-serif" font-size="14" lengthAdjust="spacing" textLength="276" x="159" y="735.7038">Gesti&#243;n de TI tradicionales y emergentes</text><ellipse cx="150" cy="750.8397" fill="none" rx="3" ry="3" style="stroke:#038048;stroke-width:1.0;"/><text fill="#000000" font-family="sans-serif" font-size="14" lengthAdjust="spacing" textLength="194" x="159" y="754.7717">Innovaci&#243;n &#233;tica y sostenible</text><ellipse cx="150" cy="769.9076" fill="none" rx="3" ry="3" style="stroke:#038048;stroke-width:1.0;"/><text fill="#000000" font-family="sans-serif" font-size="14" lengthAdjust="spacing" textLength="233" x="159" y="773.8396">An&#225;lisis de impacto de tecnolog&#237;as</text><line style="stroke:#181818;stroke-width:0.5;" x1="140" x2="440" y1="781.9416" y2="781.9416"/></g><!--class modelos--><g id="elem_modelos"><rect codeLine="48" fill="#F1F1F1" height="48" id="modelos" rx="2.5" ry="2.5" style="stroke:#181818;stroke-width:0.5;" width="259" x="845.5" y="316.6699"/><ellipse cx="860.5" cy="332.6699" fill="#ADD1B2" rx="11" ry="11" style="stroke:#181818;stroke-width:1.0;"/><path d="M860.2969,339.4043 Q857.8125,339.4043 856.4844,337.7636 Q855.1719,336.0918 855.1719,332.9824 Q855.1719,329.8574 856.4844,328.2011 Q857.8125,326.5449 860.2969,326.5449 Q861.0156,326.5449 861.6719,326.7011 Q862.3125,326.8574 862.875,327.1543 L862.875,329.873 Q862.5156,329.5293 862.2188,329.3418 Q861.9219,329.1386 861.6563,329.0136 Q861.3438,328.873 861.0313,328.8105 Q860.7344,328.748 860.4219,328.748 Q859.0938,328.748 858.4063,329.8105 Q857.7188,330.9043 857.7188,332.9824 Q857.7188,335.0761 858.4063,336.1386 Q859.0938,337.2168 860.4219,337.2168 Q861.0625,337.2168 861.6563,336.9355 Q861.9531,336.8105 862.2344,336.623 Q862.5313,336.4199 862.875,336.0918 L862.875,338.8105 Q862.2969,339.1074 861.6563,339.2636 Q861.0313,339.4043 860.2969,339.4043 Z " fill="#000000"/><text fill="#000000" font-family="sans-serif" font-size="14" lengthAdjust="spacing" textLength="227" x="874.5" y="338.1019">Modelos de Negocio e Innovaci&#243;n</text><line style="stroke:#181818;stroke-width:0.5;" x1="846.5" x2="1103.5" y1="348.6699" y2="348.6699"/><line style="stroke:#181818;stroke-width:0.5;" x1="846.5" x2="1103.5" y1="356.6699" y2="356.6699"/></g><!--class funciones--><g id="elem_funciones"><rect codeLine="49" fill="#F1F1F1" height="48" id="funciones" rx="2.5" ry="2.5" style="stroke:#181818;stroke-width:0.5;" width="127" x="1139.5" y="316.6699"/><ellipse cx="1154.5" cy="332.6699" fill="#ADD1B2" rx="11" ry="11" style="stroke:#181818;stroke-width:1.0;"/><path d="M1154.2969,339.4043 Q1151.8125,339.4043 1150.4844,337.7636 Q1149.1719,336.0918 1149.1719,332.9824 Q1149.1719,329.8574 1150.4844,328.2011 Q1151.8125,326.5449 1154.2969,326.5449 Q1155.0156,326.5449 1155.6719,326.7011 Q1156.3125,326.8574 1156.875,327.1543 L1156.875,329.873 Q1156.5156,329.5293 1156.2188,329.3418 Q1155.9219,329.1386 1155.6563,329.0136 Q1155.3438,328.873 1155.0313,328.8105 Q1154.7344,328.748 1154.4219,328.748 Q1153.0938,328.748 1152.4063,329.8105 Q1151.7188,330.9043 1151.7188,332.9824 Q1151.7188,335.0761 1152.4063,336.1386 Q1153.0938,337.2168 1154.4219,337.2168 Q1155.0625,337.2168 1155.6563,336.9355 Q1155.9531,336.8105 1156.2344,336.623 Q1156.5313,336.4199 1156.875,336.0918 L1156.875,338.8105 Q1156.2969,339.1074 1155.6563,339.2636 Q1155.0313,339.4043 1154.2969,339.4043 Z " fill="#000000"/><text fill="#000000" font-family="sans-serif" font-size="14" lengthAdjust="spacing" textLength="95" x="1168.5" y="338.1019">Funciones DSI</text><line style="stroke:#181818;stroke-width:0.5;" x1="1140.5" x2="1265.5" y1="348.6699" y2="348.6699"/><line style="stroke:#181818;stroke-width:0.5;" x1="1140.5" x2="1265.5" y1="356.6699" y2="356.6699"/></g><!--class estrategia--><g id="elem_estrategia"><rect codeLine="50" fill="#F1F1F1" height="48" id="estrategia" rx="2.5" ry="2.5" style="stroke:#181818;stroke-width:0.5;" width="200" x="875" y="510.1699"/><ellipse cx="890" cy="526.1699" fill="#ADD1B2" rx="11" ry="11" style="stroke:#181818;stroke-width:1.0;"/><path d="M889.7969,532.9043 Q887.3125,532.9043 885.9844,531.2636 Q884.6719,529.5918 884.6719,526.4824 Q884.6719,523.3574 885.9844,521.7011 Q887.3125,520.0449 889.7969,520.0449 Q890.5156,520.0449 891.1719,520.2011 Q891.8125,520.3574 892.375,520.6543 L892.375,523.373 Q892.0156,523.0293 891.7188,522.8418 Q891.4219,522.6386 891.1563,522.5136 Q890.8438,522.373 890.5313,522.3105 Q890.2344,522.248 889.9219,522.248 Q888.5938,522.248 887.9063,523.3105 Q887.2188,524.4043 887.2188,526.4824 Q887.2188,528.5761 887.9063,529.6386 Q888.5938,530.7168 889.9219,530.7168 Q890.5625,530.7168 891.1563,530.4355 Q891.4531,530.3105 891.7344,530.123 Q892.0313,529.9199 892.375,529.5918 L892.375,532.3105 Q891.7969,532.6074 891.1563,532.7636 Q890.5313,532.9043 889.7969,532.9043 Z " fill="#000000"/><text fill="#000000" font-family="sans-serif" font-size="14" lengthAdjust="spacing" textLength="168" x="904" y="531.6019">Estrategia y Planificaci&#243;n</text><line style="stroke:#181818;stroke-width:0.5;" x1="876" x2="1074" y1="542.1699" y2="542.1699"/><line style="stroke:#181818;stroke-width:0.5;" x1="876" x2="1074" y1="550.1699" y2="550.1699"/></g><!--link contexto to sistemaInfo--><g id="link_contexto_sistemaInfo"><path codeLine="41" d="M521,197.7699 C521,222.6199 521,252.5999 521,278.5899 " fill="none" id="contexto-sistemaInfo" style="stroke:#181818;stroke-width:1.0;"/><text fill="#000000" font-family="sans-serif" font-size="13" lengthAdjust="spacing" textLength="74" x="522" y="242.5669">fundamenta</text></g><!--link sistemaInfo to direccion--><g id="link_sistemaInfo_direccion"><path codeLine="42" d="M447.28,402.7899 C416.64,428.1799 381.48,457.3299 352.18,481.6199 " fill="none" id="sistemaInfo-direccion" style="stroke:#181818;stroke-width:1.0;"/><text fill="#000000" font-family="sans-serif" font-size="13" lengthAdjust="spacing" textLength="50" x="407" y="447.5669">requiere</text></g><!--link desafios to direccion--><g id="link_desafios_direccion"><path codeLine="43" d="M196.72,402.7899 C214.89,428.1799 235.75,457.3299 253.12,481.6199 " fill="none" id="desafios-direccion" style="stroke:#181818;stroke-width:1.0;"/><text fill="#000000" font-family="sans-serif" font-size="13" lengthAdjust="spacing" textLength="42" x="231" y="447.5669">motiva</text></g><!--link direccion to objetivos--><g id="link_direccion_objetivos"><path codeLine="44" d="M290,586.7399 C290,610.9999 290,640.1099 290,665.4799 " fill="none" id="direccion-objetivos" style="stroke:#181818;stroke-width:1.0;"/><text fill="#000000" font-family="sans-serif" font-size="13" lengthAdjust="spacing" textLength="52" x="291" y="631.5669">persigue</text></g><!--link introduccion to siguientes--><g id="link_introduccion_siguientes"><path codeLine="53" d="M762.0643,174.0344 C762.1414,174.3007 762.2189,174.5686 762.2968,174.8378 C762.6085,175.9148 762.9269,177.0147 763.2514,178.136 C768.4441,196.0771 775.2281,219.5168 782.0113,242.9536 C788.7944,266.3905 795.5766,289.8246 800.7655,307.7544 C801.0898,308.875 801.4079,309.9742 801.7193,311.0504 C801.7972,311.3195 800.2067,305.8236 800.2837,306.0898 " fill="none" id="introduccion-to-siguientes" style="stroke:#181818;stroke-width:1.0;"/><polygon fill="#181818" points="801.9517,311.8533,803.2921,302.0961,800.5617,307.0504,795.6074,304.32,801.9517,311.8533" style="stroke:#181818;stroke-width:1.0;"/><text fill="#000000" font-family="sans-serif" font-size="13" lengthAdjust="spacing" textLength="61" x="783" y="242.5669">conduce a</text></g><!--SRC=[TLHDRzGm4BtdLrWLY0EagefQeJqW5Gfe3q15A-xUP3PoSUnWEwK5zSVqsCEUzYVaZ_7yaQopLLTgvNYUn_FU6uyJJX8x5uQgIWnRnMfYby8wQhdrwwLQQzFo62lnwOok-uWjYbVidDP2YHZkZ52LwBZ4GSc61qEyw7ZrYpV43ewEojdX0uOBnBIZ5VjNCFmgoQrb1n-rSdJhD3khNCzbG5VZNaJwtsjsSlZsv0FhRS-DqA5a92MZo6MWqzF3uvUi8-oQnAMHUiLbXdbnVFZk2eTloDY08CM0LZOJe1QDSEdKVVYVrvnqsvSjr6vZpE_FoWVFwrw14mwHf9QmjamRWGMliOIQgCBnrky4MCq1oLASrIqii1Ep8C7k-lmo3Zj4pMkFwOoko8vvUU-0rQtEu5Swagcf4XOE4QhnF93X6GLsVHH8r_5pyZQc_K98aGgrOwjP3LpfXiSAtJIZXwwX9kFMmH-jk7t375LAIzqC6yxk4fyzPNZdqadeMF5s9RHl8-iuiZv70ggiXussaOF_yfqrTwtj95q7ARLfk19_kUSvQwXb2xKXBU72OTk2LXQSBc73ezjZ_9EadcnAHKUkmxOPqpoj-_lgcfouINNhyUj9uUG8ptIq1nWiEsuu8_pb7VxKhgkbRyPQHAxeXpk6bZKDMeZcdYbzauGF_Bn1y0OtYvMat28rF4XqLtovIJ4iCszjudllvyqFaa5fikcT8ppDXRASlRC5M_UgvlvDyI8F0BThpGKpzBiNPAYOlDu3jDghLEos4D_fkmWjAPgUTWLwuYWBxdN3nlLI-mdGz28ADGt52pDiRqMBQ7W5QLACkFb4_AenLUE4-qQDVowCSg73uJQ2ydEVUvK4ExzS1j1wtCbXd_m0mKiJtgeBYPPUmxPTPfhYteZPu2vh_KULx_FA5vuzuiHuyHy0]--></g></svg>