<?xml version="1.0" encoding="us-ascii" standalone="no"?><svg xmlns="http://www.w3.org/2000/svg" xmlns:xlink="http://www.w3.org/1999/xlink" contentStyleType="text/css" height="953px" preserveAspectRatio="none" style="width:1358px;height:953px;background:#FFFFFF;" version="1.1" viewBox="0 0 1358 953" width="1358px" zoomAndPan="magnify"><defs/><g><text fill="#000000" font-family="sans-serif" font-size="14" font-weight="bold" lengthAdjust="spacing" textLength="508" x="418" y="24.9659">Direcci&#243;n de Sistemas de Informaci&#243;n - Modelos de Negocio e Innovaci&#243;n</text><!--cluster introduccion--><g id="cluster_introduccion"><path d="M1018.5,46.6699 L1129.5,46.6699 A3.75,3.75 0 0 1 1132,49.1699 L1139,71.7378 L1348.5,71.7378 A2.5,2.5 0 0 1 1351,74.2378 L1351,162.1699 A2.5,2.5 0 0 1 1348.5,164.6699 L1018.5,164.6699 A2.5,2.5 0 0 1 1016,162.1699 L1016,49.1699 A2.5,2.5 0 0 1 1018.5,46.6699 " fill="none" style="stroke:#000000;stroke-width:1.5;"/><line style="stroke:#000000;stroke-width:1.5;" x1="1016" x2="1139" y1="71.7378" y2="71.7378"/><text fill="#000000" font-family="sans-serif" font-size="14" font-weight="bold" lengthAdjust="spacing" textLength="110" x="1020" y="63.6358">00-Introducci&#243;n</text></g><!--cluster modelosNegocio--><g id="cluster_modelosNegocio"><path d="M8.5,231.6699 L264.5,231.6699 A3.75,3.75 0 0 1 267,234.1699 L274,256.7378 L1029.5,256.7378 A2.5,2.5 0 0 1 1032,259.2378 L1032,944.1699 A2.5,2.5 0 0 1 1029.5,946.6699 L8.5,946.6699 A2.5,2.5 0 0 1 6,944.1699 L6,234.1699 A2.5,2.5 0 0 1 8.5,231.6699 " fill="none" style="stroke:#000000;stroke-width:1.5;"/><line style="stroke:#000000;stroke-width:1.5;" x1="6" x2="274" y1="256.7378" y2="256.7378"/><text fill="#000000" font-family="sans-serif" font-size="14" font-weight="bold" lengthAdjust="spacing" textLength="255" x="10" y="248.6358">01-Modelos de Negocio e Innovaci&#243;n</text></g><!--cluster funcionesDSI--><g id="cluster_funcionesDSI"><path d="M1074.5,520.6699 L1193.5,520.6699 A3.75,3.75 0 0 1 1196,523.1699 L1203,545.7378 L1300.5,545.7378 A2.5,2.5 0 0 1 1303,548.2378 L1303,636.1699 A2.5,2.5 0 0 1 1300.5,638.6699 L1074.5,638.6699 A2.5,2.5 0 0 1 1072,636.1699 L1072,523.1699 A2.5,2.5 0 0 1 1074.5,520.6699 " fill="none" style="stroke:#000000;stroke-width:1.5;"/><line style="stroke:#000000;stroke-width:1.5;" x1="1072" x2="1203" y1="545.7378" y2="545.7378"/><text fill="#000000" font-family="sans-serif" font-size="14" font-weight="bold" lengthAdjust="spacing" textLength="118" x="1076" y="537.6358">02-Funciones DSI</text></g><!--class contexto--><g id="elem_contexto"><rect codeLine="6" fill="#F1F1F1" height="48" id="contexto" rx="2.5" ry="2.5" style="stroke:#181818;stroke-width:0.5;" width="137" x="1189.5" y="92.6699"/><ellipse cx="1204.5" cy="108.6699" fill="#ADD1B2" rx="11" ry="11" style="stroke:#181818;stroke-width:1.0;"/><path d="M1204.2969,115.4043 Q1201.8125,115.4043 1200.4844,113.7636 Q1199.1719,112.0918 1199.1719,108.9824 Q1199.1719,105.8574 1200.4844,104.2011 Q1201.8125,102.5449 1204.2969,102.5449 Q1205.0156,102.5449 1205.6719,102.7011 Q1206.3125,102.8574 1206.875,103.1543 L1206.875,105.873 Q1206.5156,105.5293 1206.2188,105.3418 Q1205.9219,105.1386 1205.6563,105.0136 Q1205.3438,104.873 1205.0313,104.8105 Q1204.7344,104.748 1204.4219,104.748 Q1203.0938,104.748 1202.4063,105.8105 Q1201.7188,106.9043 1201.7188,108.9824 Q1201.7188,111.0761 1202.4063,112.1386 Q1203.0938,113.2168 1204.4219,113.2168 Q1205.0625,113.2168 1205.6563,112.9355 Q1205.9531,112.8105 1206.2344,112.623 Q1206.5313,112.4199 1206.875,112.0918 L1206.875,114.8105 Q1206.2969,115.1074 1205.6563,115.2636 Q1205.0313,115.4043 1204.2969,115.4043 Z " fill="#000000"/><text fill="#000000" font-family="sans-serif" font-size="14" lengthAdjust="spacing" textLength="105" x="1218.5" y="114.1019">Contexto Actual</text><line style="stroke:#181818;stroke-width:0.5;" x1="1190.5" x2="1325.5" y1="124.6699" y2="124.6699"/><line style="stroke:#181818;stroke-width:0.5;" x1="1190.5" x2="1325.5" y1="132.6699" y2="132.6699"/></g><!--class objetivos--><g id="elem_objetivos"><rect codeLine="7" fill="#F1F1F1" height="48" id="objetivos" rx="2.5" ry="2.5" style="stroke:#181818;stroke-width:0.5;" width="95" x="1059.5" y="92.6699"/><ellipse cx="1074.5" cy="108.6699" fill="#ADD1B2" rx="11" ry="11" style="stroke:#181818;stroke-width:1.0;"/><path d="M1074.2969,115.4043 Q1071.8125,115.4043 1070.4844,113.7636 Q1069.1719,112.0918 1069.1719,108.9824 Q1069.1719,105.8574 1070.4844,104.2011 Q1071.8125,102.5449 1074.2969,102.5449 Q1075.0156,102.5449 1075.6719,102.7011 Q1076.3125,102.8574 1076.875,103.1543 L1076.875,105.873 Q1076.5156,105.5293 1076.2188,105.3418 Q1075.9219,105.1386 1075.6563,105.0136 Q1075.3438,104.873 1075.0313,104.8105 Q1074.7344,104.748 1074.4219,104.748 Q1073.0938,104.748 1072.4063,105.8105 Q1071.7188,106.9043 1071.7188,108.9824 Q1071.7188,111.0761 1072.4063,112.1386 Q1073.0938,113.2168 1074.4219,113.2168 Q1075.0625,113.2168 1075.6563,112.9355 Q1075.9531,112.8105 1076.2344,112.623 Q1076.5313,112.4199 1076.875,112.0918 L1076.875,114.8105 Q1076.2969,115.1074 1075.6563,115.2636 Q1075.0313,115.4043 1074.2969,115.4043 Z " fill="#000000"/><text fill="#000000" font-family="sans-serif" font-size="14" lengthAdjust="spacing" textLength="63" x="1088.5" y="114.1019">Objetivos</text><line style="stroke:#181818;stroke-width:0.5;" x1="1060.5" x2="1153.5" y1="124.6699" y2="124.6699"/><line style="stroke:#181818;stroke-width:0.5;" x1="1060.5" x2="1153.5" y1="132.6699" y2="132.6699"/></g><!--class modelo--><g id="elem_modelo"><rect codeLine="12" fill="#F1F1F1" height="124.2717" id="modelo" rx="2.5" ry="2.5" style="stroke:#181818;stroke-width:0.5;" width="238" x="409" y="277.6699"/><ellipse cx="458.75" cy="293.6699" fill="#ADD1B2" rx="11" ry="11" style="stroke:#181818;stroke-width:1.0;"/><path d="M458.5469,300.4043 Q456.0625,300.4043 454.7344,298.7636 Q453.4219,297.0918 453.4219,293.9824 Q453.4219,290.8574 454.7344,289.2011 Q456.0625,287.5449 458.5469,287.5449 Q459.2656,287.5449 459.9219,287.7011 Q460.5625,287.8574 461.125,288.1543 L461.125,290.873 Q460.7656,290.5293 460.4688,290.3418 Q460.1719,290.1386 459.9063,290.0136 Q459.5938,289.873 459.2813,289.8105 Q458.9844,289.748 458.6719,289.748 Q457.3438,289.748 456.6563,290.8105 Q455.9688,291.9043 455.9688,293.9824 Q455.9688,296.0761 456.6563,297.1386 Q457.3438,298.2168 458.6719,298.2168 Q459.3125,298.2168 459.9063,297.9355 Q460.2031,297.8105 460.4844,297.623 Q460.7813,297.4199 461.125,297.0918 L461.125,299.8105 Q460.5469,300.1074 459.9063,300.2636 Q459.2813,300.4043 458.5469,300.4043 Z " fill="#000000"/><text fill="#000000" font-family="sans-serif" font-size="14" lengthAdjust="spacing" textLength="130" x="479.25" y="299.1019">Modelo de Negocio</text><line style="stroke:#181818;stroke-width:0.5;" x1="410" x2="646" y1="309.6699" y2="309.6699"/><ellipse cx="420" cy="324.7039" fill="none" rx="3" ry="3" style="stroke:#038048;stroke-width:1.0;"/><text fill="#000000" font-family="sans-serif" font-size="14" lengthAdjust="spacing" textLength="179" x="429" y="328.6358">Abstracci&#243;n de la empresa</text><ellipse cx="420" cy="343.7718" fill="none" rx="3" ry="3" style="stroke:#038048;stroke-width:1.0;"/><text fill="#000000" font-family="sans-serif" font-size="14" lengthAdjust="spacing" textLength="160" x="429" y="347.7038">Generaci&#243;n de ingresos</text><ellipse cx="420" cy="362.8397" fill="none" rx="3" ry="3" style="stroke:#038048;stroke-width:1.0;"/><text fill="#000000" font-family="sans-serif" font-size="14" lengthAdjust="spacing" textLength="117" x="429" y="366.7717">Creaci&#243;n de valor</text><ellipse cx="420" cy="381.9076" fill="none" rx="3" ry="3" style="stroke:#038048;stroke-width:1.0;"/><text fill="#000000" font-family="sans-serif" font-size="14" lengthAdjust="spacing" textLength="212" x="429" y="385.8396">Concepto din&#225;mico y adaptable</text><line style="stroke:#181818;stroke-width:0.5;" x1="410" x2="646" y1="393.9416" y2="393.9416"/></g><!--class innovacion--><g id="elem_innovacion"><rect codeLine="19" fill="#F1F1F1" height="105.2038" id="innovacion" rx="2.5" ry="2.5" style="stroke:#181818;stroke-width:0.5;" width="255" x="30.5" y="538.1699"/><ellipse cx="116.75" cy="554.1699" fill="#ADD1B2" rx="11" ry="11" style="stroke:#181818;stroke-width:1.0;"/><path d="M116.5469,560.9043 Q114.0625,560.9043 112.7344,559.2636 Q111.4219,557.5918 111.4219,554.4824 Q111.4219,551.3574 112.7344,549.7011 Q114.0625,548.0449 116.5469,548.0449 Q117.2656,548.0449 117.9219,548.2011 Q118.5625,548.3574 119.125,548.6543 L119.125,551.373 Q118.7656,551.0293 118.4688,550.8418 Q118.1719,550.6386 117.9063,550.5136 Q117.5938,550.373 117.2813,550.3105 Q116.9844,550.248 116.6719,550.248 Q115.3438,550.248 114.6563,551.3105 Q113.9688,552.4043 113.9688,554.4824 Q113.9688,556.5761 114.6563,557.6386 Q115.3438,558.7168 116.6719,558.7168 Q117.3125,558.7168 117.9063,558.4355 Q118.2031,558.3105 118.4844,558.123 Q118.7813,557.9199 119.125,557.5918 L119.125,560.3105 Q118.5469,560.6074 117.9063,560.7636 Q117.2813,560.9043 116.5469,560.9043 Z " fill="#000000"/><text fill="#000000" font-family="sans-serif" font-size="14" lengthAdjust="spacing" textLength="74" x="137.25" y="559.6019">Innovaci&#243;n</text><line style="stroke:#181818;stroke-width:0.5;" x1="31.5" x2="284.5" y1="570.1699" y2="570.1699"/><ellipse cx="41.5" cy="585.2039" fill="none" rx="3" ry="3" style="stroke:#038048;stroke-width:1.0;"/><text fill="#000000" font-family="sans-serif" font-size="14" lengthAdjust="spacing" textLength="176" x="50.5" y="589.1358">Nuevas ideas y soluciones</text><ellipse cx="41.5" cy="604.2718" fill="none" rx="3" ry="3" style="stroke:#038048;stroke-width:1.0;"/><text fill="#000000" font-family="sans-serif" font-size="14" lengthAdjust="spacing" textLength="229" x="50.5" y="608.2038">Productos y procesos innovadores</text><ellipse cx="41.5" cy="623.3397" fill="none" rx="3" ry="3" style="stroke:#038048;stroke-width:1.0;"/><text fill="#000000" font-family="sans-serif" font-size="14" lengthAdjust="spacing" textLength="201" x="50.5" y="627.2717">Cambio como parte inherente</text><line style="stroke:#181818;stroke-width:0.5;" x1="31.5" x2="284.5" y1="635.3736" y2="635.3736"/></g><!--class analisis--><g id="elem_analisis"><rect codeLine="25" fill="#F1F1F1" height="105.2038" id="analisis" rx="2.5" ry="2.5" style="stroke:#181818;stroke-width:0.5;" width="414" x="321" y="538.1699"/><ellipse cx="458.25" cy="554.1699" fill="#ADD1B2" rx="11" ry="11" style="stroke:#181818;stroke-width:1.0;"/><path d="M458.0469,560.9043 Q455.5625,560.9043 454.2344,559.2636 Q452.9219,557.5918 452.9219,554.4824 Q452.9219,551.3574 454.2344,549.7011 Q455.5625,548.0449 458.0469,548.0449 Q458.7656,548.0449 459.4219,548.2011 Q460.0625,548.3574 460.625,548.6543 L460.625,551.373 Q460.2656,551.0293 459.9688,550.8418 Q459.6719,550.6386 459.4063,550.5136 Q459.0938,550.373 458.7813,550.3105 Q458.4844,550.248 458.1719,550.248 Q456.8438,550.248 456.1563,551.3105 Q455.4688,552.4043 455.4688,554.4824 Q455.4688,556.5761 456.1563,557.6386 Q456.8438,558.7168 458.1719,558.7168 Q458.8125,558.7168 459.4063,558.4355 Q459.7031,558.3105 459.9844,558.123 Q460.2813,557.9199 460.625,557.5918 L460.625,560.3105 Q460.0469,560.6074 459.4063,560.7636 Q458.7813,560.9043 458.0469,560.9043 Z " fill="#000000"/><text fill="#000000" font-family="sans-serif" font-size="14" lengthAdjust="spacing" textLength="131" x="478.75" y="559.6019">An&#225;lisis Estrat&#233;gico</text><line style="stroke:#181818;stroke-width:0.5;" x1="322" x2="734" y1="570.1699" y2="570.1699"/><ellipse cx="332" cy="585.2039" fill="none" rx="3" ry="3" style="stroke:#038048;stroke-width:1.0;"/><text fill="#000000" font-family="sans-serif" font-size="14" lengthAdjust="spacing" textLength="388" x="341" y="589.1358">DAFO: Debilidades, Amenazas, Fortalezas, Oportunidades</text><ellipse cx="332" cy="604.2718" fill="none" rx="3" ry="3" style="stroke:#038048;stroke-width:1.0;"/><text fill="#000000" font-family="sans-serif" font-size="14" lengthAdjust="spacing" textLength="159" x="341" y="608.2038">Cinco Fuerzas de Porter</text><ellipse cx="332" cy="623.3397" fill="none" rx="3" ry="3" style="stroke:#038048;stroke-width:1.0;"/><text fill="#000000" font-family="sans-serif" font-size="14" lengthAdjust="spacing" textLength="194" x="341" y="627.2717">An&#225;lisis de sector productivo</text><line style="stroke:#181818;stroke-width:0.5;" x1="322" x2="734" y1="635.3736" y2="635.3736"/></g><!--class canvas--><g id="elem_canvas"><rect codeLine="31" fill="#F1F1F1" height="219.6113" id="canvas" rx="2.5" ry="2.5" style="stroke:#181818;stroke-width:0.5;" width="230" x="770" y="480.6699"/><ellipse cx="785" cy="496.6699" fill="#ADD1B2" rx="11" ry="11" style="stroke:#181818;stroke-width:1.0;"/><path d="M784.7969,503.4043 Q782.3125,503.4043 780.9844,501.7636 Q779.6719,500.0918 779.6719,496.9824 Q779.6719,493.8574 780.9844,492.2011 Q782.3125,490.5449 784.7969,490.5449 Q785.5156,490.5449 786.1719,490.7011 Q786.8125,490.8574 787.375,491.1543 L787.375,493.873 Q787.0156,493.5293 786.7188,493.3418 Q786.4219,493.1386 786.1563,493.0136 Q785.8438,492.873 785.5313,492.8105 Q785.2344,492.748 784.9219,492.748 Q783.5938,492.748 782.9063,493.8105 Q782.2188,494.9043 782.2188,496.9824 Q782.2188,499.0761 782.9063,500.1386 Q783.5938,501.2168 784.9219,501.2168 Q785.5625,501.2168 786.1563,500.9355 Q786.4531,500.8105 786.7344,500.623 Q787.0313,500.4199 787.375,500.0918 L787.375,502.8105 Q786.7969,503.1074 786.1563,503.2636 Q785.5313,503.4043 784.7969,503.4043 Z " fill="#000000"/><text fill="#000000" font-family="sans-serif" font-size="14" lengthAdjust="spacing" textLength="198" x="799" y="502.1019">Lienzo de Modelo de Negocio</text><line style="stroke:#181818;stroke-width:0.5;" x1="771" x2="999" y1="512.6699" y2="512.6699"/><ellipse cx="781" cy="527.7039" fill="none" rx="3" ry="3" style="stroke:#038048;stroke-width:1.0;"/><text fill="#000000" font-family="sans-serif" font-size="14" lengthAdjust="spacing" textLength="126" x="790" y="531.6358">Propuesta de valor</text><ellipse cx="781" cy="546.7718" fill="none" rx="3" ry="3" style="stroke:#038048;stroke-width:1.0;"/><text fill="#000000" font-family="sans-serif" font-size="14" lengthAdjust="spacing" textLength="152" x="790" y="550.7038">Segmentos de clientes</text><ellipse cx="781" cy="565.8397" fill="none" rx="3" ry="3" style="stroke:#038048;stroke-width:1.0;"/><text fill="#000000" font-family="sans-serif" font-size="14" lengthAdjust="spacing" textLength="53" x="790" y="569.7717">Canales</text><ellipse cx="781" cy="584.9076" fill="none" rx="3" ry="3" style="stroke:#038048;stroke-width:1.0;"/><text fill="#000000" font-family="sans-serif" font-size="14" lengthAdjust="spacing" textLength="156" x="790" y="588.8396">Relaciones con clientes</text><ellipse cx="781" cy="603.9755" fill="none" rx="3" ry="3" style="stroke:#038048;stroke-width:1.0;"/><text fill="#000000" font-family="sans-serif" font-size="14" lengthAdjust="spacing" textLength="136" x="790" y="607.9075">Fuentes de ingresos</text><ellipse cx="781" cy="623.0434" fill="none" rx="3" ry="3" style="stroke:#038048;stroke-width:1.0;"/><text fill="#000000" font-family="sans-serif" font-size="14" lengthAdjust="spacing" textLength="99" x="790" y="626.9754">Recursos clave</text><ellipse cx="781" cy="642.1114" fill="none" rx="3" ry="3" style="stroke:#038048;stroke-width:1.0;"/><text fill="#000000" font-family="sans-serif" font-size="14" lengthAdjust="spacing" textLength="115" x="790" y="646.0433">Actividades clave</text><ellipse cx="781" cy="661.1793" fill="none" rx="3" ry="3" style="stroke:#038048;stroke-width:1.0;"/><text fill="#000000" font-family="sans-serif" font-size="14" lengthAdjust="spacing" textLength="124" x="790" y="665.1113">Asociaciones clave</text><ellipse cx="781" cy="680.2472" fill="none" rx="3" ry="3" style="stroke:#038048;stroke-width:1.0;"/><text fill="#000000" font-family="sans-serif" font-size="14" lengthAdjust="spacing" textLength="137" x="790" y="684.1792">Estructura de costos</text><line style="stroke:#181818;stroke-width:0.5;" x1="771" x2="999" y1="692.2812" y2="692.2812"/></g><!--class procesoInnovacion--><g id="elem_procesoInnovacion"><rect codeLine="43" fill="#F1F1F1" height="143.3396" id="procesoInnovacion" rx="2.5" ry="2.5" style="stroke:#181818;stroke-width:0.5;" width="183" x="48.5" y="779.6699"/><ellipse cx="63.5" cy="795.6699" fill="#ADD1B2" rx="11" ry="11" style="stroke:#181818;stroke-width:1.0;"/><path d="M63.2969,802.4043 Q60.8125,802.4043 59.4844,800.7636 Q58.1719,799.0918 58.1719,795.9824 Q58.1719,792.8574 59.4844,791.2011 Q60.8125,789.5449 63.2969,789.5449 Q64.0156,789.5449 64.6719,789.7011 Q65.3125,789.8574 65.875,790.1543 L65.875,792.873 Q65.5156,792.5293 65.2188,792.3418 Q64.9219,792.1386 64.6563,792.0136 Q64.3438,791.873 64.0313,791.8105 Q63.7344,791.748 63.4219,791.748 Q62.0938,791.748 61.4063,792.8105 Q60.7188,793.9043 60.7188,795.9824 Q60.7188,798.0761 61.4063,799.1386 Q62.0938,800.2168 63.4219,800.2168 Q64.0625,800.2168 64.6563,799.9355 Q64.9531,799.8105 65.2344,799.623 Q65.5313,799.4199 65.875,799.0918 L65.875,801.8105 Q65.2969,802.1074 64.6563,802.2636 Q64.0313,802.4043 63.2969,802.4043 Z " fill="#000000"/><text fill="#000000" font-family="sans-serif" font-size="14" lengthAdjust="spacing" textLength="151" x="77.5" y="801.1019">Proceso de Innovaci&#243;n</text><line style="stroke:#181818;stroke-width:0.5;" x1="49.5" x2="230.5" y1="811.6699" y2="811.6699"/><ellipse cx="59.5" cy="826.7039" fill="none" rx="3" ry="3" style="stroke:#038048;stroke-width:1.0;"/><text fill="#000000" font-family="sans-serif" font-size="14" lengthAdjust="spacing" textLength="43" x="68.5" y="830.6358">Vigilar</text><ellipse cx="59.5" cy="845.7718" fill="none" rx="3" ry="3" style="stroke:#038048;stroke-width:1.0;"/><text fill="#000000" font-family="sans-serif" font-size="14" lengthAdjust="spacing" textLength="59" x="68.5" y="849.7038">Focalizar</text><ellipse cx="59.5" cy="864.8397" fill="none" rx="3" ry="3" style="stroke:#038048;stroke-width:1.0;"/><text fill="#000000" font-family="sans-serif" font-size="14" lengthAdjust="spacing" textLength="79" x="68.5" y="868.7717">Capacitarse</text><ellipse cx="59.5" cy="883.9076" fill="none" rx="3" ry="3" style="stroke:#038048;stroke-width:1.0;"/><text fill="#000000" font-family="sans-serif" font-size="14" lengthAdjust="spacing" textLength="67" x="68.5" y="887.8396">Implantar</text><ellipse cx="59.5" cy="902.9755" fill="none" rx="3" ry="3" style="stroke:#038048;stroke-width:1.0;"/><text fill="#000000" font-family="sans-serif" font-size="14" lengthAdjust="spacing" textLength="64" x="68.5" y="906.9075">Aprender</text><line style="stroke:#181818;stroke-width:0.5;" x1="49.5" x2="230.5" y1="915.0095" y2="915.0095"/></g><!--class enfoquesInnovacion--><g id="elem_enfoquesInnovacion"><rect codeLine="51" fill="#F1F1F1" height="143.3396" id="enfoquesInnovacion" rx="2.5" ry="2.5" style="stroke:#181818;stroke-width:0.5;" width="194" x="267" y="779.6699"/><ellipse cx="282" cy="795.6699" fill="#ADD1B2" rx="11" ry="11" style="stroke:#181818;stroke-width:1.0;"/><path d="M281.7969,802.4043 Q279.3125,802.4043 277.9844,800.7636 Q276.6719,799.0918 276.6719,795.9824 Q276.6719,792.8574 277.9844,791.2011 Q279.3125,789.5449 281.7969,789.5449 Q282.5156,789.5449 283.1719,789.7011 Q283.8125,789.8574 284.375,790.1543 L284.375,792.873 Q284.0156,792.5293 283.7188,792.3418 Q283.4219,792.1386 283.1563,792.0136 Q282.8438,791.873 282.5313,791.8105 Q282.2344,791.748 281.9219,791.748 Q280.5938,791.748 279.9063,792.8105 Q279.2188,793.9043 279.2188,795.9824 Q279.2188,798.0761 279.9063,799.1386 Q280.5938,800.2168 281.9219,800.2168 Q282.5625,800.2168 283.1563,799.9355 Q283.4531,799.8105 283.7344,799.623 Q284.0313,799.4199 284.375,799.0918 L284.375,801.8105 Q283.7969,802.1074 283.1563,802.2636 Q282.5313,802.4043 281.7969,802.4043 Z " fill="#000000"/><text fill="#000000" font-family="sans-serif" font-size="14" lengthAdjust="spacing" textLength="162" x="296" y="801.1019">Enfoques de Innovaci&#243;n</text><line style="stroke:#181818;stroke-width:0.5;" x1="268" x2="460" y1="811.6699" y2="811.6699"/><ellipse cx="278" cy="826.7039" fill="none" rx="3" ry="3" style="stroke:#038048;stroke-width:1.0;"/><text fill="#000000" font-family="sans-serif" font-size="14" lengthAdjust="spacing" textLength="84" x="287" y="830.6358">Oc&#233;ano Azul</text><ellipse cx="278" cy="845.7718" fill="none" rx="3" ry="3" style="stroke:#038048;stroke-width:1.0;"/><text fill="#000000" font-family="sans-serif" font-size="14" lengthAdjust="spacing" textLength="127" x="287" y="849.7038">Innovaci&#243;n Abierta</text><ellipse cx="278" cy="864.8397" fill="none" rx="3" ry="3" style="stroke:#038048;stroke-width:1.0;"/><text fill="#000000" font-family="sans-serif" font-size="14" lengthAdjust="spacing" textLength="105" x="287" y="868.7717">Jobs to be Done</text><ellipse cx="278" cy="883.9076" fill="none" rx="3" ry="3" style="stroke:#038048;stroke-width:1.0;"/><text fill="#000000" font-family="sans-serif" font-size="14" lengthAdjust="spacing" textLength="84" x="287" y="887.8396">Modelo TRIZ</text><ellipse cx="278" cy="902.9755" fill="none" rx="3" ry="3" style="stroke:#038048;stroke-width:1.0;"/><text fill="#000000" font-family="sans-serif" font-size="14" lengthAdjust="spacing" textLength="131" x="287" y="906.9075">Modelo de Marquis</text><line style="stroke:#181818;stroke-width:0.5;" x1="268" x2="460" y1="915.0095" y2="915.0095"/></g><!--class funciones--><g id="elem_funciones"><rect codeLine="62" fill="#F1F1F1" height="48" id="funciones" rx="2.5" ry="2.5" style="stroke:#181818;stroke-width:0.5;" width="164" x="1115" y="566.6699"/><ellipse cx="1130" cy="582.6699" fill="#ADD1B2" rx="11" ry="11" style="stroke:#181818;stroke-width:1.0;"/><path d="M1129.7969,589.4043 Q1127.3125,589.4043 1125.9844,587.7636 Q1124.6719,586.0918 1124.6719,582.9824 Q1124.6719,579.8574 1125.9844,578.2011 Q1127.3125,576.5449 1129.7969,576.5449 Q1130.5156,576.5449 1131.1719,576.7011 Q1131.8125,576.8574 1132.375,577.1543 L1132.375,579.873 Q1132.0156,579.5293 1131.7188,579.3418 Q1131.4219,579.1386 1131.1563,579.0136 Q1130.8438,578.873 1130.5313,578.8105 Q1130.2344,578.748 1129.9219,578.748 Q1128.5938,578.748 1127.9063,579.8105 Q1127.2188,580.9043 1127.2188,582.9824 Q1127.2188,585.0761 1127.9063,586.1386 Q1128.5938,587.2168 1129.9219,587.2168 Q1130.5625,587.2168 1131.1563,586.9355 Q1131.4531,586.8105 1131.7344,586.623 Q1132.0313,586.4199 1132.375,586.0918 L1132.375,588.8105 Q1131.7969,589.1074 1131.1563,589.2636 Q1130.5313,589.4043 1129.7969,589.4043 Z " fill="#000000"/><text fill="#000000" font-family="sans-serif" font-size="14" lengthAdjust="spacing" textLength="132" x="1144" y="588.1019">Funciones de la DSI</text><line style="stroke:#181818;stroke-width:0.5;" x1="1116" x2="1278" y1="598.6699" y2="598.6699"/><line style="stroke:#181818;stroke-width:0.5;" x1="1116" x2="1278" y1="606.6699" y2="606.6699"/></g><!--link modelo to innovacion--><g id="link_modelo_innovacion"><path codeLine="66" d="M425.7,401.6999 C386.79,425.5899 342.38,453.6899 303,480.6699 C276.76,498.6499 248.65,519.3999 224.24,537.9499 " fill="none" id="modelo-innovacion" style="stroke:#181818;stroke-width:1.0;"/><text fill="#000000" font-family="sans-serif" font-size="13" lengthAdjust="spacing" textLength="125" x="378" y="446.5669">evoluciona mediante</text></g><!--link modelo to analisis--><g id="link_modelo_analisis"><path codeLine="67" d="M528,401.8999 C528,443.6599 528,498.3499 528,537.9299 " fill="none" id="modelo-analisis" style="stroke:#181818;stroke-width:1.0;"/><text fill="#000000" font-family="sans-serif" font-size="13" lengthAdjust="spacing" textLength="80" x="529" y="446.5669">se eval&#250;a con</text></g><!--link modelo to canvas--><g id="link_modelo_canvas"><path codeLine="68" d="M631.84,401.7499 C670.3,425.3499 713.81,453.2599 752,480.6699 C757.94,484.9399 763.96,489.3799 770,493.9399 " fill="none" id="modelo-canvas" style="stroke:#181818;stroke-width:1.0;"/><text fill="#000000" font-family="sans-serif" font-size="13" lengthAdjust="spacing" textLength="106" x="706" y="446.5669">se representa con</text></g><!--link innovacion to procesoInnovacion--><g id="link_innovacion_procesoInnovacion"><path codeLine="69" d="M154.4,643.3599 C151.68,682.3999 147.92,736.4299 144.92,779.4799 " fill="none" id="innovacion-procesoInnovacion" style="stroke:#181818;stroke-width:1.0;"/><text fill="#000000" font-family="sans-serif" font-size="13" lengthAdjust="spacing" textLength="148" x="149" y="745.5669">se implementa mediante</text></g><!--link innovacion to enfoquesInnovacion--><g id="link_innovacion_enfoquesInnovacion"><path codeLine="70" d="M222.85,643.2999 C250.79,667.7399 282.39,698.5899 306,730.6699 C316.93,745.5299 326.7,762.7699 334.95,779.4599 " fill="none" id="innovacion-enfoquesInnovacion" style="stroke:#181818;stroke-width:1.0;"/><text fill="#000000" font-family="sans-serif" font-size="13" lengthAdjust="spacing" textLength="119" x="320" y="745.5669">se aborda mediante</text></g><!--link introduccion to modelosNegocio--><g id="link_introduccion_modelosNegocio"><path codeLine="73" d="M1024,165.2706 C1024,165.6216 1024,165.9739 1024,166.3274 C1024,167.7415 1024,169.1755 1024,170.628 C1024,176.4376 1024,182.5417 1024,188.8418 C1024,201.4422 1024,214.8271 1024,228.2111 C1024,229.0477 1024,229.8842 1024,230.7205 C1024,230.9295 1024,225.1386 1024,225.3476 " fill="none" id="introduccion-to-modelosNegocio" style="stroke:#181818;stroke-width:1.0;"/><polygon fill="#181818" points="1024,231.3476,1028,222.3476,1024,226.3476,1020,222.3476,1024,231.3476" style="stroke:#181818;stroke-width:1.0;"/><text fill="#000000" font-family="sans-serif" font-size="13" lengthAdjust="spacing" textLength="131" x="1025" y="203.5669">proporciona contexto</text></g><!--link modelosNegocio to funcionesDSI--><g id="link_modelosNegocio_funcionesDSI"><path codeLine="74" d="M1032.0369,376.419 C1032.3498,377.8104 1032.6696,379.2325 1032.9959,380.6836 C1038.2175,403.9018 1045.1087,434.5424 1052,465.1824 C1058.8913,495.8224 1065.7825,526.4618 1071.0041,549.6774 C1071.3304,551.1284 1070.3336,546.6966 1070.6465,548.0878 " fill="none" id="modelosNegocio-to-funcionesDSI" style="stroke:#181818;stroke-width:1.0;"/><polygon fill="#181818" points="1071.9631,553.9415,1073.8907,544.2831,1070.866,549.0634,1066.0857,546.0386,1071.9631,553.9415" style="stroke:#181818;stroke-width:1.0;"/><text fill="#000000" font-family="sans-serif" font-size="13" lengthAdjust="spacing" textLength="132" x="1050" y="446.5669">define el entorno para</text></g><!--SRC=[XLKzRzim4DtrAuWi7Le1QKSF1OmuBboqiP4K7RgTg8lBbY8LaZ8I1_an6JDqojPLVwn7KfOeVw0U38dtZhptxl7aX9F8Pi8Wvw9zLQn4TYEimmgiVrweMsqgYB6SVTKbIXqYLxZMN6ZcCKfl8YJBth0BhHpUkmQas7Q9jS6DWAm6_XlMoCxEp_E5SaQNJJprZD5feb_HYZrcZ7vSWhNihDjHiodtsmOqxzPItBBuXKvij0q8lNlBddnPCxmLIkpg4OgB6YGHaQnzDfWMzpx_7ysmVnL1Ey2euhX1afzaT4Z_UykcXNK61kqbCAn8BWi9w1CgDD1ZX5eJW7WDY0jYqCSt8BL9Wrfnh4c-KgZskH9SimS69TGE2ea1-1J-KmRxR4NttlScxdtLuCP7IwJ_1sQrR3m6q-9MeQrEUq1jDFUrT_kLseoW5r0Lf2NNbMOr6EV9_aI3rEiJTKw9aXHMM7RfbNJjove8Xf91GOoa1S-cy-M4p508AKeeqRvZqmeLR86Uvjeua1YUbpMzD2g2qXB9EfhD6pJRU4LMXCDKxw4aYbeaviRpzXgG7K_m-29GRODZZdk7W_92FuvrhHkq3eur_GRNHCj54tCfl8HZfKcTqSerIeYzyvVhM0wHzYidF7YDl36-jSHeWwaUddVKyJ1cYM5_x5xGTvH4QqnWoBLrtO67ygsYh-B86ZktizpYk86_YxMGa2etrpoChj4L0XeFme6nQNsBgfQWt0WvfSkhoiuFXtLUqZozQz0UAnIxs8bAbxnz0KL3SDl8j8XX5vec0id1IVIpBYoZgr_Ga2UDaqXdis_NYn-7gzw6OEuQiTCxZD2LQL_l1LrD3dNxnpLI9rFpGpvlLDV8sSqYCBhThT32U40Es3Zq3ZBYYOadwVE0He7DkYcQv-bCcZ3STBC7M8Mb03yo1cW_2oPq8maBilqBtkS9fhjY0M7G3s6oUmGb9n7mq54XHv0Ti0evVGNZn2CT3fbGQ5CcMMFcjAF1GNERZRwKUVvn_rCqyHNI-8fgz5_AFPHF73LeGhsWRoJ98_sPsgWmX27x1m00]--></g></svg>