<?xml version="1.0" encoding="us-ascii" standalone="no"?><svg xmlns="http://www.w3.org/2000/svg" xmlns:xlink="http://www.w3.org/1999/xlink" contentStyleType="text/css" height="1263px" preserveAspectRatio="none" style="width:856px;height:1263px;background:#FFFFFF;" version="1.1" viewBox="0 0 856 1263" width="856px" zoomAndPan="magnify"><defs/><g><text fill="#000000" font-family="sans-serif" font-size="14" font-weight="bold" lengthAdjust="spacing" textLength="371" x="235.5" y="24.9659">Direcci&#243;n de Sistemas de Informaci&#243;n - Funciones DSI</text><!--cluster previos--><g id="cluster_previos"><path d="M371.5,46.6699 L492.5,46.6699 A3.75,3.75 0 0 1 495,49.1699 L502,71.7378 L846.5,71.7378 A2.5,2.5 0 0 1 849,74.2378 L849,162.1699 A2.5,2.5 0 0 1 846.5,164.6699 L371.5,164.6699 A2.5,2.5 0 0 1 369,162.1699 L369,49.1699 A2.5,2.5 0 0 1 371.5,46.6699 " fill="none" style="stroke:#000000;stroke-width:1.5;"/><line style="stroke:#000000;stroke-width:1.5;" x1="369" x2="502" y1="71.7378" y2="71.7378"/><text fill="#000000" font-family="sans-serif" font-size="14" font-weight="bold" lengthAdjust="spacing" textLength="120" x="373" y="63.6358">Cap&#237;tulos Previos</text></g><!--cluster funcionesDSI--><g id="cluster_funcionesDSI"><path d="M8.5,231.6699 L127.5,231.6699 A3.75,3.75 0 0 1 130,234.1699 L137,256.7378 L382.5,256.7378 A2.5,2.5 0 0 1 385,259.2378 L385,1254.1699 A2.5,2.5 0 0 1 382.5,1256.6699 L8.5,1256.6699 A2.5,2.5 0 0 1 6,1254.1699 L6,234.1699 A2.5,2.5 0 0 1 8.5,231.6699 " fill="none" style="stroke:#000000;stroke-width:1.5;"/><line style="stroke:#000000;stroke-width:1.5;" x1="6" x2="137" y1="256.7378" y2="256.7378"/><text fill="#000000" font-family="sans-serif" font-size="14" font-weight="bold" lengthAdjust="spacing" textLength="118" x="10" y="248.6358">02-Funciones DSI</text></g><!--cluster estrategia--><g id="cluster_estrategia"><path d="M427.5,472.6699 L622.5,472.6699 A3.75,3.75 0 0 1 625,475.1699 L632,497.7378 L632.5,497.7378 A2.5,2.5 0 0 1 635,500.2378 L635,588.1699 A2.5,2.5 0 0 1 632.5,590.6699 L427.5,590.6699 A2.5,2.5 0 0 1 425,588.1699 L425,475.1699 A2.5,2.5 0 0 1 427.5,472.6699 " fill="none" style="stroke:#000000;stroke-width:1.5;"/><line style="stroke:#000000;stroke-width:1.5;" x1="425" x2="632" y1="497.7378" y2="497.7378"/><text fill="#000000" font-family="sans-serif" font-size="14" font-weight="bold" lengthAdjust="spacing" textLength="194" x="429" y="489.6358">03-Estrategia y Planificaci&#243;n</text></g><!--class intro--><g id="elem_intro"><rect codeLine="6" fill="#F1F1F1" height="48" id="intro" rx="2.5" ry="2.5" style="stroke:#181818;stroke-width:0.5;" width="118" x="707" y="92.6699"/><ellipse cx="722" cy="108.6699" fill="#ADD1B2" rx="11" ry="11" style="stroke:#181818;stroke-width:1.0;"/><path d="M721.7969,115.4043 Q719.3125,115.4043 717.9844,113.7636 Q716.6719,112.0918 716.6719,108.9824 Q716.6719,105.8574 717.9844,104.2011 Q719.3125,102.5449 721.7969,102.5449 Q722.5156,102.5449 723.1719,102.7011 Q723.8125,102.8574 724.375,103.1543 L724.375,105.873 Q724.0156,105.5293 723.7188,105.3418 Q723.4219,105.1386 723.1563,105.0136 Q722.8438,104.873 722.5313,104.8105 Q722.2344,104.748 721.9219,104.748 Q720.5938,104.748 719.9063,105.8105 Q719.2188,106.9043 719.2188,108.9824 Q719.2188,111.0761 719.9063,112.1386 Q720.5938,113.2168 721.9219,113.2168 Q722.5625,113.2168 723.1563,112.9355 Q723.4531,112.8105 723.7344,112.623 Q724.0313,112.4199 724.375,112.0918 L724.375,114.8105 Q723.7969,115.1074 723.1563,115.2636 Q722.5313,115.4043 721.7969,115.4043 Z " fill="#000000"/><text fill="#000000" font-family="sans-serif" font-size="14" lengthAdjust="spacing" textLength="86" x="736" y="114.1019">Introducci&#243;n</text><line style="stroke:#181818;stroke-width:0.5;" x1="708" x2="824" y1="124.6699" y2="124.6699"/><line style="stroke:#181818;stroke-width:0.5;" x1="708" x2="824" y1="132.6699" y2="132.6699"/></g><!--class modelos--><g id="elem_modelos"><rect codeLine="7" fill="#F1F1F1" height="48" id="modelos" rx="2.5" ry="2.5" style="stroke:#181818;stroke-width:0.5;" width="259" x="412.5" y="92.6699"/><ellipse cx="427.5" cy="108.6699" fill="#ADD1B2" rx="11" ry="11" style="stroke:#181818;stroke-width:1.0;"/><path d="M427.2969,115.4043 Q424.8125,115.4043 423.4844,113.7636 Q422.1719,112.0918 422.1719,108.9824 Q422.1719,105.8574 423.4844,104.2011 Q424.8125,102.5449 427.2969,102.5449 Q428.0156,102.5449 428.6719,102.7011 Q429.3125,102.8574 429.875,103.1543 L429.875,105.873 Q429.5156,105.5293 429.2188,105.3418 Q428.9219,105.1386 428.6563,105.0136 Q428.3438,104.873 428.0313,104.8105 Q427.7344,104.748 427.4219,104.748 Q426.0938,104.748 425.4063,105.8105 Q424.7188,106.9043 424.7188,108.9824 Q424.7188,111.0761 425.4063,112.1386 Q426.0938,113.2168 427.4219,113.2168 Q428.0625,113.2168 428.6563,112.9355 Q428.9531,112.8105 429.2344,112.623 Q429.5313,112.4199 429.875,112.0918 L429.875,114.8105 Q429.2969,115.1074 428.6563,115.2636 Q428.0313,115.4043 427.2969,115.4043 Z " fill="#000000"/><text fill="#000000" font-family="sans-serif" font-size="14" lengthAdjust="spacing" textLength="227" x="441.5" y="114.1019">Modelos de Negocio e Innovaci&#243;n</text><line style="stroke:#181818;stroke-width:0.5;" x1="413.5" x2="670.5" y1="124.6699" y2="124.6699"/><line style="stroke:#181818;stroke-width:0.5;" x1="413.5" x2="670.5" y1="132.6699" y2="132.6699"/></g><!--class evolucion--><g id="elem_evolucion"><rect codeLine="12" fill="#F1F1F1" height="105.2038" id="evolucion" rx="2.5" ry="2.5" style="stroke:#181818;stroke-width:0.5;" width="311" x="30.5" y="277.6699"/><ellipse cx="117.75" cy="293.6699" fill="#ADD1B2" rx="11" ry="11" style="stroke:#181818;stroke-width:1.0;"/><path d="M117.5469,300.4043 Q115.0625,300.4043 113.7344,298.7636 Q112.4219,297.0918 112.4219,293.9824 Q112.4219,290.8574 113.7344,289.2011 Q115.0625,287.5449 117.5469,287.5449 Q118.2656,287.5449 118.9219,287.7011 Q119.5625,287.8574 120.125,288.1543 L120.125,290.873 Q119.7656,290.5293 119.4688,290.3418 Q119.1719,290.1386 118.9063,290.0136 Q118.5938,289.873 118.2813,289.8105 Q117.9844,289.748 117.6719,289.748 Q116.3438,289.748 115.6563,290.8105 Q114.9688,291.9043 114.9688,293.9824 Q114.9688,296.0761 115.6563,297.1386 Q116.3438,298.2168 117.6719,298.2168 Q118.3125,298.2168 118.9063,297.9355 Q119.2031,297.8105 119.4844,297.623 Q119.7813,297.4199 120.125,297.0918 L120.125,299.8105 Q119.5469,300.1074 118.9063,300.2636 Q118.2813,300.4043 117.5469,300.4043 Z " fill="#000000"/><text fill="#000000" font-family="sans-serif" font-size="14" lengthAdjust="spacing" textLength="128" x="138.25" y="299.1019">Evoluci&#243;n de la DSI</text><line style="stroke:#181818;stroke-width:0.5;" x1="31.5" x2="340.5" y1="309.6699" y2="309.6699"/><line style="stroke:#181818;stroke-width:0.5;" x1="31.5" x2="340.5" y1="317.6699" y2="317.6699"/><ellipse cx="41.5" cy="332.7039" fill="#84BE84" rx="3" ry="3" style="stroke:#038048;stroke-width:1.0;"/><text fill="#000000" font-family="sans-serif" font-size="14" lengthAdjust="spacing" textLength="185" x="50.5" y="336.6358">De &#225;rea t&#233;cnica (1960-1980)</text><ellipse cx="41.5" cy="351.7718" fill="#84BE84" rx="3" ry="3" style="stroke:#038048;stroke-width:1.0;"/><text fill="#000000" font-family="sans-serif" font-size="14" lengthAdjust="spacing" textLength="255" x="50.5" y="355.7038">A departamento de apoyo (1980-2000)</text><ellipse cx="41.5" cy="370.8397" fill="#84BE84" rx="3" ry="3" style="stroke:#038048;stroke-width:1.0;"/><text fill="#000000" font-family="sans-serif" font-size="14" lengthAdjust="spacing" textLength="285" x="50.5" y="374.7717">A componente estrat&#233;gico (2000-presente)</text></g><!--class componentes--><g id="elem_componentes"><rect codeLine="18" fill="#F1F1F1" height="162.4075" id="componentes" rx="2.5" ry="2.5" style="stroke:#181818;stroke-width:0.5;" width="130" x="121" y="461.6699"/><ellipse cx="138.25" cy="477.6699" fill="#ADD1B2" rx="11" ry="11" style="stroke:#181818;stroke-width:1.0;"/><path d="M138.0469,484.4043 Q135.5625,484.4043 134.2344,482.7636 Q132.9219,481.0918 132.9219,477.9824 Q132.9219,474.8574 134.2344,473.2011 Q135.5625,471.5449 138.0469,471.5449 Q138.7656,471.5449 139.4219,471.7011 Q140.0625,471.8574 140.625,472.1543 L140.625,474.873 Q140.2656,474.5293 139.9688,474.3418 Q139.6719,474.1386 139.4063,474.0136 Q139.0938,473.873 138.7813,473.8105 Q138.4844,473.748 138.1719,473.748 Q136.8438,473.748 136.1563,474.8105 Q135.4688,475.9043 135.4688,477.9824 Q135.4688,480.0761 136.1563,481.1386 Q136.8438,482.2168 138.1719,482.2168 Q138.8125,482.2168 139.4063,481.9355 Q139.7031,481.8105 139.9844,481.623 Q140.2813,481.4199 140.625,481.0918 L140.625,483.8105 Q140.0469,484.1074 139.4063,484.2636 Q138.7813,484.4043 138.0469,484.4043 Z " fill="#000000"/><text fill="#000000" font-family="sans-serif" font-size="14" lengthAdjust="spacing" textLength="93" x="152.75" y="483.1019">Componentes</text><line style="stroke:#181818;stroke-width:0.5;" x1="122" x2="250" y1="493.6699" y2="493.6699"/><ellipse cx="132" cy="508.7039" fill="none" rx="3" ry="3" style="stroke:#038048;stroke-width:1.0;"/><text fill="#000000" font-family="sans-serif" font-size="14" lengthAdjust="spacing" textLength="66" x="141" y="512.6358">Hardware</text><ellipse cx="132" cy="527.7718" fill="none" rx="3" ry="3" style="stroke:#038048;stroke-width:1.0;"/><text fill="#000000" font-family="sans-serif" font-size="14" lengthAdjust="spacing" textLength="59" x="141" y="531.7038">Software</text><ellipse cx="132" cy="546.8397" fill="none" rx="3" ry="3" style="stroke:#038048;stroke-width:1.0;"/><text fill="#000000" font-family="sans-serif" font-size="14" lengthAdjust="spacing" textLength="41" x="141" y="550.7717">Redes</text><ellipse cx="132" cy="565.9076" fill="none" rx="3" ry="3" style="stroke:#038048;stroke-width:1.0;"/><text fill="#000000" font-family="sans-serif" font-size="14" lengthAdjust="spacing" textLength="38" x="141" y="569.8396">Datos</text><ellipse cx="132" cy="584.9755" fill="none" rx="3" ry="3" style="stroke:#038048;stroke-width:1.0;"/><text fill="#000000" font-family="sans-serif" font-size="14" lengthAdjust="spacing" textLength="61" x="141" y="588.9075">Personas</text><ellipse cx="132" cy="604.0434" fill="none" rx="3" ry="3" style="stroke:#038048;stroke-width:1.0;"/><text fill="#000000" font-family="sans-serif" font-size="14" lengthAdjust="spacing" textLength="104" x="141" y="607.9754">Procedimientos</text><line style="stroke:#181818;stroke-width:0.5;" x1="122" x2="250" y1="616.0774" y2="616.0774"/></g><!--class organizacion--><g id="elem_organizacion"><rect codeLine="27" fill="#F1F1F1" height="124.2717" id="organizacion" rx="2.5" ry="2.5" style="stroke:#181818;stroke-width:0.5;" width="263" x="54.5" y="702.6699"/><ellipse cx="136.75" cy="718.6699" fill="#ADD1B2" rx="11" ry="11" style="stroke:#181818;stroke-width:1.0;"/><path d="M136.5469,725.4043 Q134.0625,725.4043 132.7344,723.7636 Q131.4219,722.0918 131.4219,718.9824 Q131.4219,715.8574 132.7344,714.2011 Q134.0625,712.5449 136.5469,712.5449 Q137.2656,712.5449 137.9219,712.7011 Q138.5625,712.8574 139.125,713.1543 L139.125,715.873 Q138.7656,715.5293 138.4688,715.3418 Q138.1719,715.1386 137.9063,715.0136 Q137.5938,714.873 137.2813,714.8105 Q136.9844,714.748 136.6719,714.748 Q135.3438,714.748 134.6563,715.8105 Q133.9688,716.9043 133.9688,718.9824 Q133.9688,721.0761 134.6563,722.1386 Q135.3438,723.2168 136.6719,723.2168 Q137.3125,723.2168 137.9063,722.9355 Q138.2031,722.8105 138.4844,722.623 Q138.7813,722.4199 139.125,722.0918 L139.125,724.8105 Q138.5469,725.1074 137.9063,725.2636 Q137.2813,725.4043 136.5469,725.4043 Z " fill="#000000"/><text fill="#000000" font-family="sans-serif" font-size="14" lengthAdjust="spacing" textLength="90" x="157.25" y="724.1019">Organizaci&#243;n</text><line style="stroke:#181818;stroke-width:0.5;" x1="55.5" x2="316.5" y1="734.6699" y2="734.6699"/><ellipse cx="65.5" cy="749.7039" fill="none" rx="3" ry="3" style="stroke:#038048;stroke-width:1.0;"/><text fill="#000000" font-family="sans-serif" font-size="14" lengthAdjust="spacing" textLength="171" x="74.5" y="753.6358">Estructuras organizativas</text><ellipse cx="65.5" cy="768.7718" fill="none" rx="3" ry="3" style="stroke:#038048;stroke-width:1.0;"/><text fill="#000000" font-family="sans-serif" font-size="14" lengthAdjust="spacing" textLength="67" x="74.5" y="772.7038">Reporting</text><ellipse cx="65.5" cy="787.8397" fill="none" rx="3" ry="3" style="stroke:#038048;stroke-width:1.0;"/><text fill="#000000" font-family="sans-serif" font-size="14" lengthAdjust="spacing" textLength="237" x="74.5" y="791.7717">Centralizaci&#243;n vs Descentralizaci&#243;n</text><ellipse cx="65.5" cy="806.9076" fill="none" rx="3" ry="3" style="stroke:#038048;stroke-width:1.0;"/><text fill="#000000" font-family="sans-serif" font-size="14" lengthAdjust="spacing" textLength="185" x="74.5" y="810.8396">Integraci&#243;n con otras &#225;reas</text><line style="stroke:#181818;stroke-width:0.5;" x1="55.5" x2="316.5" y1="818.9416" y2="818.9416"/></g><!--class actividades--><g id="elem_actividades"><rect codeLine="34" fill="#F1F1F1" height="124.2717" id="actividades" rx="2.5" ry="2.5" style="stroke:#181818;stroke-width:0.5;" width="116" x="128" y="905.6699"/><ellipse cx="146.15" cy="921.6699" fill="#ADD1B2" rx="11" ry="11" style="stroke:#181818;stroke-width:1.0;"/><path d="M145.9469,928.4043 Q143.4625,928.4043 142.1344,926.7636 Q140.8219,925.0918 140.8219,921.9824 Q140.8219,918.8574 142.1344,917.2011 Q143.4625,915.5449 145.9469,915.5449 Q146.6656,915.5449 147.3219,915.7011 Q147.9625,915.8574 148.525,916.1543 L148.525,918.873 Q148.1656,918.5293 147.8688,918.3418 Q147.5719,918.1386 147.3063,918.0136 Q146.9938,917.873 146.6813,917.8105 Q146.3844,917.748 146.0719,917.748 Q144.7438,917.748 144.0563,918.8105 Q143.3688,919.9043 143.3688,921.9824 Q143.3688,924.0761 144.0563,925.1386 Q144.7438,926.2168 146.0719,926.2168 Q146.7125,926.2168 147.3063,925.9355 Q147.6031,925.8105 147.8844,925.623 Q148.1813,925.4199 148.525,925.0918 L148.525,927.8105 Q147.9469,928.1074 147.3063,928.2636 Q146.6813,928.4043 145.9469,928.4043 Z " fill="#000000"/><text fill="#000000" font-family="sans-serif" font-size="14" lengthAdjust="spacing" textLength="77" x="160.85" y="927.1019">Actividades</text><line style="stroke:#181818;stroke-width:0.5;" x1="129" x2="243" y1="937.6699" y2="937.6699"/><ellipse cx="139" cy="952.7039" fill="none" rx="3" ry="3" style="stroke:#038048;stroke-width:1.0;"/><text fill="#000000" font-family="sans-serif" font-size="14" lengthAdjust="spacing" textLength="85" x="148" y="956.6358">Planificaci&#243;n</text><ellipse cx="139" cy="971.7718" fill="none" rx="3" ry="3" style="stroke:#038048;stroke-width:1.0;"/><text fill="#000000" font-family="sans-serif" font-size="14" lengthAdjust="spacing" textLength="90" x="148" y="975.7038">Organizaci&#243;n</text><ellipse cx="139" cy="990.8397" fill="none" rx="3" ry="3" style="stroke:#038048;stroke-width:1.0;"/><text fill="#000000" font-family="sans-serif" font-size="14" lengthAdjust="spacing" textLength="63" x="148" y="994.7717">Direcci&#243;n</text><ellipse cx="139" cy="1009.9076" fill="none" rx="3" ry="3" style="stroke:#038048;stroke-width:1.0;"/><text fill="#000000" font-family="sans-serif" font-size="14" lengthAdjust="spacing" textLength="49" x="148" y="1013.8396">Control</text><line style="stroke:#181818;stroke-width:0.5;" x1="129" x2="243" y1="1021.9416" y2="1021.9416"/></g><!--class director--><g id="elem_director"><rect codeLine="41" fill="#F1F1F1" height="124.2717" id="director" rx="2.5" ry="2.5" style="stroke:#181818;stroke-width:0.5;" width="201" x="85.5" y="1108.6699"/><ellipse cx="127.95" cy="1124.6699" fill="#ADD1B2" rx="11" ry="11" style="stroke:#181818;stroke-width:1.0;"/><path d="M127.7469,1131.4043 Q125.2625,1131.4043 123.9344,1129.7636 Q122.6219,1128.0918 122.6219,1124.9824 Q122.6219,1121.8574 123.9344,1120.2011 Q125.2625,1118.5449 127.7469,1118.5449 Q128.4656,1118.5449 129.1219,1118.7011 Q129.7625,1118.8574 130.325,1119.1543 L130.325,1121.873 Q129.9656,1121.5293 129.6688,1121.3418 Q129.3719,1121.1386 129.1063,1121.0136 Q128.7938,1120.873 128.4813,1120.8105 Q128.1844,1120.748 127.8719,1120.748 Q126.5438,1120.748 125.8563,1121.8105 Q125.1688,1122.9043 125.1688,1124.9824 Q125.1688,1127.0761 125.8563,1128.1386 Q126.5438,1129.2168 127.8719,1129.2168 Q128.5125,1129.2168 129.1063,1128.9355 Q129.4031,1128.8105 129.6844,1128.623 Q129.9813,1128.4199 130.325,1128.0918 L130.325,1130.8105 Q129.7469,1131.1074 129.1063,1131.2636 Q128.4813,1131.4043 127.7469,1131.4043 Z " fill="#000000"/><text fill="#000000" font-family="sans-serif" font-size="14" lengthAdjust="spacing" textLength="108" x="148.05" y="1130.1019">El Director de SI</text><line style="stroke:#181818;stroke-width:0.5;" x1="86.5" x2="285.5" y1="1140.6699" y2="1140.6699"/><ellipse cx="96.5" cy="1155.7039" fill="none" rx="3" ry="3" style="stroke:#038048;stroke-width:1.0;"/><text fill="#000000" font-family="sans-serif" font-size="14" lengthAdjust="spacing" textLength="175" x="105.5" y="1159.6358">Roles y responsabilidades</text><ellipse cx="96.5" cy="1174.7718" fill="none" rx="3" ry="3" style="stroke:#038048;stroke-width:1.0;"/><text fill="#000000" font-family="sans-serif" font-size="14" lengthAdjust="spacing" textLength="154" x="105.5" y="1178.7038">Competencias t&#233;cnicas</text><ellipse cx="96.5" cy="1193.8397" fill="none" rx="3" ry="3" style="stroke:#038048;stroke-width:1.0;"/><text fill="#000000" font-family="sans-serif" font-size="14" lengthAdjust="spacing" textLength="149" x="105.5" y="1197.7717">Habilidades directivas</text><ellipse cx="96.5" cy="1212.9076" fill="none" rx="3" ry="3" style="stroke:#038048;stroke-width:1.0;"/><text fill="#000000" font-family="sans-serif" font-size="14" lengthAdjust="spacing" textLength="129" x="105.5" y="1216.8396">Gesti&#243;n del cambio</text><line style="stroke:#181818;stroke-width:0.5;" x1="86.5" x2="285.5" y1="1224.9416" y2="1224.9416"/></g><!--class estrategiaSI--><g id="elem_estrategiaSI"><rect codeLine="51" fill="#F1F1F1" height="48" id="estrategiaSI" rx="2.5" ry="2.5" style="stroke:#181818;stroke-width:0.5;" width="138" x="470" y="518.6699"/><ellipse cx="485" cy="534.6699" fill="#ADD1B2" rx="11" ry="11" style="stroke:#181818;stroke-width:1.0;"/><path d="M484.7969,541.4043 Q482.3125,541.4043 480.9844,539.7636 Q479.6719,538.0918 479.6719,534.9824 Q479.6719,531.8574 480.9844,530.2011 Q482.3125,528.5449 484.7969,528.5449 Q485.5156,528.5449 486.1719,528.7011 Q486.8125,528.8574 487.375,529.1543 L487.375,531.873 Q487.0156,531.5293 486.7188,531.3418 Q486.4219,531.1386 486.1563,531.0136 Q485.8438,530.873 485.5313,530.8105 Q485.2344,530.748 484.9219,530.748 Q483.5938,530.748 482.9063,531.8105 Q482.2188,532.9043 482.2188,534.9824 Q482.2188,537.0761 482.9063,538.1386 Q483.5938,539.2168 484.9219,539.2168 Q485.5625,539.2168 486.1563,538.9355 Q486.4531,538.8105 486.7344,538.623 Q487.0313,538.4199 487.375,538.0918 L487.375,540.8105 Q486.7969,541.1074 486.1563,541.2636 Q485.5313,541.4043 484.7969,541.4043 Z " fill="#000000"/><text fill="#000000" font-family="sans-serif" font-size="14" lengthAdjust="spacing" textLength="106" x="499" y="540.1019">Estrategia de SI</text><line style="stroke:#181818;stroke-width:0.5;" x1="471" x2="607" y1="550.6699" y2="550.6699"/><line style="stroke:#181818;stroke-width:0.5;" x1="471" x2="607" y1="558.6699" y2="558.6699"/></g><!--link evolucion to componentes--><g id="link_evolucion_componentes"><path codeLine="55" d="M186,382.9299 C186,406.5499 186,435.0599 186,461.3599 " fill="none" id="evolucion-componentes" style="stroke:#181818;stroke-width:1.0;"/><text fill="#000000" font-family="sans-serif" font-size="13" lengthAdjust="spacing" textLength="37" x="187" y="427.5669">define</text></g><!--link componentes to organizacion--><g id="link_componentes_organizacion"><path codeLine="56" d="M186,623.7199 C186,649.7599 186,678.2299 186,702.6599 " fill="none" id="componentes-organizacion" style="stroke:#181818;stroke-width:1.0;"/><text fill="#000000" font-family="sans-serif" font-size="13" lengthAdjust="spacing" textLength="62" x="187" y="668.5669">estructura</text></g><!--link organizacion to actividades--><g id="link_organizacion_actividades"><path codeLine="57" d="M186,826.7999 C186,851.7399 186,880.5399 186,905.4899 " fill="none" id="organizacion-actividades" style="stroke:#181818;stroke-width:1.0;"/><text fill="#000000" font-family="sans-serif" font-size="13" lengthAdjust="spacing" textLength="43" x="187" y="871.5669">ejecuta</text></g><!--link actividades to director--><g id="link_actividades_director"><path codeLine="58" d="M186,1029.7999 C186,1054.7399 186,1083.5399 186,1108.4899 " fill="none" id="actividades-director" style="stroke:#181818;stroke-width:1.0;"/><text fill="#000000" font-family="sans-serif" font-size="13" lengthAdjust="spacing" textLength="33" x="187" y="1074.5669">lidera</text></g><!--link previos to funcionesDSI--><g id="link_previos_funcionesDSI"><path codeLine="61" d="M377,165.2524 C377,165.5931 377,165.9349 377,166.2779 C377,166.964 377,167.6545 377,168.3495 C377,173.9095 377,179.7511 377,185.7804 C377,197.8391 377,210.6486 377,223.4574 C377,225.0585 377,226.6596 377,228.2592 C377,229.059 377,229.8584 377,230.6573 C377,230.857 377,225.0567 377,225.2563 " fill="none" id="previos-to-funcionesDSI" style="stroke:#181818;stroke-width:1.0;"/><polygon fill="#181818" points="377,231.2563,381,222.2563,377,226.2563,373,222.2563,377,231.2563" style="stroke:#181818;stroke-width:1.0;"/><text fill="#000000" font-family="sans-serif" font-size="13" lengthAdjust="spacing" textLength="74" x="378" y="203.5669">fundamenta</text></g><!--link funcionesDSI to estrategia--><g id="link_funcionesDSI_estrategia"><path codeLine="62" d="M385.0643,361.4819 C385.1414,361.7716 385.2189,362.063 385.2968,362.3559 C385.6085,363.5276 385.9269,364.7241 386.2514,365.944 C391.4441,385.4618 398.2281,410.9611 405.0113,436.4574 C411.7944,461.9536 418.5766,487.4468 423.7655,506.9521 C424.0898,508.1712 424.4079,509.3669 424.7193,510.5377 C424.7972,510.8304 423.3322,505.3232 423.4092,505.6128 " fill="none" id="funcionesDSI-to-estrategia" style="stroke:#181818;stroke-width:1.0;"/><polygon fill="#181818" points="424.9517,511.4112,426.5035,501.6853,423.6663,506.5792,418.7724,503.742,424.9517,511.4112" style="stroke:#181818;stroke-width:1.0;"/><text fill="#000000" font-family="sans-serif" font-size="13" lengthAdjust="spacing" textLength="43" x="405" y="427.5669">orienta</text></g><!--SRC=[TLJDRjim3BxxAOHUjc4ma7R0qEPGe4YphOTjGVe4hCmOscJHaEIqtT27sN67dVe8UR5Hbd-a0F71iCbFv4Vg8xto6iMjiYYbEhmQKQ6uLyvZ0ovytvaTsGQYhnIVEYCL6NJYzlwkADw85HcFJxu3hNuDgDRYNa7HWlm9DOgp5RI7VxxJvCGckCYT2GxUnc_nkn3yI0tEYRCxuorLNUJImrImf92lL668nUI-OKrCHmIQXlOmdseYg7W976znfumQoIcke0NDvxKu_B6OC5rSb5c1VQZTQ653JdQz9zrDNTCm7S7e83FWm_EUQSHymX_-IkO3uktvrST5UNvrkNYNu6uuMWlMGuF6KmWDBJrJG5ykoel5uWWjgMcP7z-3GESjSFXQISO7QCbjTi4NpxpqxxI8rNGwNiiSpMNilu2j7i5YOhgddJyoRR52bzOCdjB_3Lf71ZAJ9OcLQbIerfrW-TtMO4Q5zJnfiXorUSqzwAJlR0BoQf_bt69BrYjJ9xOLvxU9ZFSi0NGojoPubYhMTW1B9a4-fEol-5GPDvAPg0ggeTam_sSrR3JJth54ZfDcVKZxF0rmMX65sT4dkAnrFEN9zaCVfLkDffJEbZGJV1Oi9TQ6WmUb8-aiMTEYHvuLZZ8gt6K2ceuDMOukvJEhTnWcBIGq3ue6wlqKR-pXzKarnAvXdoI3-w5SzzB7MW4JpViNPtBsvqCys-Skp63USdtsBMeO5WDl9BH1m_EObsKsDqiEnIi7YzJ8c4opopvBL6gHUHYP2eE1Fr1s7ehKog3fhfQ26uiS9YSQf8jpkrmnhjooeaTJNkUhRHb-gtxfG95vHdZImYNNedhaVm00]--></g></svg>