<?xml version="1.0" encoding="us-ascii" standalone="no"?><svg xmlns="http://www.w3.org/2000/svg" xmlns:xlink="http://www.w3.org/1999/xlink" contentStyleType="text/css" height="841px" preserveAspectRatio="none" style="width:1497px;height:841px;background:#FFFFFF;" version="1.1" viewBox="0 0 1497 841" width="1497px" zoomAndPan="magnify"><defs/><g><text fill="#000000" font-family="sans-serif" font-size="14" font-weight="bold" lengthAdjust="spacing" textLength="344" x="569.5" y="24.9659">Direcci&#243;n de Sistemas de Informaci&#243;n - Estrategia</text><!--cluster previos--><g id="cluster_previos"><path d="M472.5,46.6699 L593.5,46.6699 A3.75,3.75 0 0 1 596,49.1699 L603,71.7378 L1109.5,71.7378 A2.5,2.5 0 0 1 1112,74.2378 L1112,162.1699 A2.5,2.5 0 0 1 1109.5,164.6699 L472.5,164.6699 A2.5,2.5 0 0 1 470,162.1699 L470,49.1699 A2.5,2.5 0 0 1 472.5,46.6699 " fill="none" style="stroke:#000000;stroke-width:1.5;"/><line style="stroke:#000000;stroke-width:1.5;" x1="470" x2="603" y1="71.7378" y2="71.7378"/><text fill="#000000" font-family="sans-serif" font-size="14" font-weight="bold" lengthAdjust="spacing" textLength="120" x="474" y="63.6358">Cap&#237;tulos Previos</text></g><!--cluster estrategia--><g id="cluster_estrategia"><path d="M8.5,231.6699 L100.5,231.6699 A3.75,3.75 0 0 1 103,234.1699 L110,256.7378 L777.5,256.7378 A2.5,2.5 0 0 1 780,259.2378 L780,832.1699 A2.5,2.5 0 0 1 777.5,834.6699 L8.5,834.6699 A2.5,2.5 0 0 1 6,832.1699 L6,234.1699 A2.5,2.5 0 0 1 8.5,231.6699 " fill="none" style="stroke:#000000;stroke-width:1.5;"/><line style="stroke:#000000;stroke-width:1.5;" x1="6" x2="110" y1="256.7378" y2="256.7378"/><text fill="#000000" font-family="sans-serif" font-size="14" font-weight="bold" lengthAdjust="spacing" textLength="91" x="10" y="248.6358">03-Estrategia</text></g><!--cluster gestion--><g id="cluster_gestion"><path d="M822.5,678.6699 L944.5,678.6699 A3.75,3.75 0 0 1 947,681.1699 L954,703.7378 L1487.5,703.7378 A2.5,2.5 0 0 1 1490,706.2378 L1490,794.1699 A2.5,2.5 0 0 1 1487.5,796.6699 L822.5,796.6699 A2.5,2.5 0 0 1 820,794.1699 L820,681.1699 A2.5,2.5 0 0 1 822.5,678.6699 " fill="none" style="stroke:#000000;stroke-width:1.5;"/><line style="stroke:#000000;stroke-width:1.5;" x1="820" x2="954" y1="703.7378" y2="703.7378"/><text fill="#000000" font-family="sans-serif" font-size="14" font-weight="bold" lengthAdjust="spacing" textLength="121" x="824" y="695.6358">Gesti&#243;n Posterior</text></g><!--class intro--><g id="elem_intro"><rect codeLine="6" fill="#F1F1F1" height="48" id="intro" rx="2.5" ry="2.5" style="stroke:#181818;stroke-width:0.5;" width="118" x="970" y="92.6699"/><ellipse cx="985" cy="108.6699" fill="#ADD1B2" rx="11" ry="11" style="stroke:#181818;stroke-width:1.0;"/><path d="M984.7969,115.4043 Q982.3125,115.4043 980.9844,113.7636 Q979.6719,112.0918 979.6719,108.9824 Q979.6719,105.8574 980.9844,104.2011 Q982.3125,102.5449 984.7969,102.5449 Q985.5156,102.5449 986.1719,102.7011 Q986.8125,102.8574 987.375,103.1543 L987.375,105.873 Q987.0156,105.5293 986.7188,105.3418 Q986.4219,105.1386 986.1563,105.0136 Q985.8438,104.873 985.5313,104.8105 Q985.2344,104.748 984.9219,104.748 Q983.5938,104.748 982.9063,105.8105 Q982.2188,106.9043 982.2188,108.9824 Q982.2188,111.0761 982.9063,112.1386 Q983.5938,113.2168 984.9219,113.2168 Q985.5625,113.2168 986.1563,112.9355 Q986.4531,112.8105 986.7344,112.623 Q987.0313,112.4199 987.375,112.0918 L987.375,114.8105 Q986.7969,115.1074 986.1563,115.2636 Q985.5313,115.4043 984.7969,115.4043 Z " fill="#000000"/><text fill="#000000" font-family="sans-serif" font-size="14" lengthAdjust="spacing" textLength="86" x="999" y="114.1019">Introducci&#243;n</text><line style="stroke:#181818;stroke-width:0.5;" x1="971" x2="1087" y1="124.6699" y2="124.6699"/><line style="stroke:#181818;stroke-width:0.5;" x1="971" x2="1087" y1="132.6699" y2="132.6699"/></g><!--class modelos--><g id="elem_modelos"><rect codeLine="7" fill="#F1F1F1" height="48" id="modelos" rx="2.5" ry="2.5" style="stroke:#181818;stroke-width:0.5;" width="259" x="513.5" y="92.6699"/><ellipse cx="528.5" cy="108.6699" fill="#ADD1B2" rx="11" ry="11" style="stroke:#181818;stroke-width:1.0;"/><path d="M528.2969,115.4043 Q525.8125,115.4043 524.4844,113.7636 Q523.1719,112.0918 523.1719,108.9824 Q523.1719,105.8574 524.4844,104.2011 Q525.8125,102.5449 528.2969,102.5449 Q529.0156,102.5449 529.6719,102.7011 Q530.3125,102.8574 530.875,103.1543 L530.875,105.873 Q530.5156,105.5293 530.2188,105.3418 Q529.9219,105.1386 529.6563,105.0136 Q529.3438,104.873 529.0313,104.8105 Q528.7344,104.748 528.4219,104.748 Q527.0938,104.748 526.4063,105.8105 Q525.7188,106.9043 525.7188,108.9824 Q525.7188,111.0761 526.4063,112.1386 Q527.0938,113.2168 528.4219,113.2168 Q529.0625,113.2168 529.6563,112.9355 Q529.9531,112.8105 530.2344,112.623 Q530.5313,112.4199 530.875,112.0918 L530.875,114.8105 Q530.2969,115.1074 529.6563,115.2636 Q529.0313,115.4043 528.2969,115.4043 Z " fill="#000000"/><text fill="#000000" font-family="sans-serif" font-size="14" lengthAdjust="spacing" textLength="227" x="542.5" y="114.1019">Modelos de Negocio e Innovaci&#243;n</text><line style="stroke:#181818;stroke-width:0.5;" x1="514.5" x2="771.5" y1="124.6699" y2="124.6699"/><line style="stroke:#181818;stroke-width:0.5;" x1="514.5" x2="771.5" y1="132.6699" y2="132.6699"/></g><!--class funciones--><g id="elem_funciones"><rect codeLine="8" fill="#F1F1F1" height="48" id="funciones" rx="2.5" ry="2.5" style="stroke:#181818;stroke-width:0.5;" width="127" x="807.5" y="92.6699"/><ellipse cx="822.5" cy="108.6699" fill="#ADD1B2" rx="11" ry="11" style="stroke:#181818;stroke-width:1.0;"/><path d="M822.2969,115.4043 Q819.8125,115.4043 818.4844,113.7636 Q817.1719,112.0918 817.1719,108.9824 Q817.1719,105.8574 818.4844,104.2011 Q819.8125,102.5449 822.2969,102.5449 Q823.0156,102.5449 823.6719,102.7011 Q824.3125,102.8574 824.875,103.1543 L824.875,105.873 Q824.5156,105.5293 824.2188,105.3418 Q823.9219,105.1386 823.6563,105.0136 Q823.3438,104.873 823.0313,104.8105 Q822.7344,104.748 822.4219,104.748 Q821.0938,104.748 820.4063,105.8105 Q819.7188,106.9043 819.7188,108.9824 Q819.7188,111.0761 820.4063,112.1386 Q821.0938,113.2168 822.4219,113.2168 Q823.0625,113.2168 823.6563,112.9355 Q823.9531,112.8105 824.2344,112.623 Q824.5313,112.4199 824.875,112.0918 L824.875,114.8105 Q824.2969,115.1074 823.6563,115.2636 Q823.0313,115.4043 822.2969,115.4043 Z " fill="#000000"/><text fill="#000000" font-family="sans-serif" font-size="14" lengthAdjust="spacing" textLength="95" x="836.5" y="114.1019">Funciones DSI</text><line style="stroke:#181818;stroke-width:0.5;" x1="808.5" x2="933.5" y1="124.6699" y2="124.6699"/><line style="stroke:#181818;stroke-width:0.5;" x1="808.5" x2="933.5" y1="132.6699" y2="132.6699"/></g><!--class planificacion--><g id="elem_planificacion"><rect codeLine="13" fill="#F1F1F1" height="105.2038" id="planificacion" rx="2.5" ry="2.5" style="stroke:#181818;stroke-width:0.5;" width="187" x="549.5" y="296.6699"/><ellipse cx="578.9" cy="312.6699" fill="#ADD1B2" rx="11" ry="11" style="stroke:#181818;stroke-width:1.0;"/><path d="M578.6969,319.4043 Q576.2125,319.4043 574.8844,317.7636 Q573.5719,316.0918 573.5719,312.9824 Q573.5719,309.8574 574.8844,308.2011 Q576.2125,306.5449 578.6969,306.5449 Q579.4156,306.5449 580.0719,306.7011 Q580.7125,306.8574 581.275,307.1543 L581.275,309.873 Q580.9156,309.5293 580.6188,309.3418 Q580.3219,309.1386 580.0563,309.0136 Q579.7438,308.873 579.4313,308.8105 Q579.1344,308.748 578.8219,308.748 Q577.4938,308.748 576.8063,309.8105 Q576.1188,310.9043 576.1188,312.9824 Q576.1188,315.0761 576.8063,316.1386 Q577.4938,317.2168 578.8219,317.2168 Q579.4625,317.2168 580.0563,316.9355 Q580.3531,316.8105 580.6344,316.623 Q580.9313,316.4199 581.275,316.0918 L581.275,318.8105 Q580.6969,319.1074 580.0563,319.2636 Q579.4313,319.4043 578.6969,319.4043 Z " fill="#000000"/><text fill="#000000" font-family="sans-serif" font-size="14" lengthAdjust="spacing" textLength="123" x="596.1" y="318.1019">Planificaci&#243;n de SI</text><line style="stroke:#181818;stroke-width:0.5;" x1="550.5" x2="735.5" y1="328.6699" y2="328.6699"/><ellipse cx="560.5" cy="343.7039" fill="none" rx="3" ry="3" style="stroke:#038048;stroke-width:1.0;"/><text fill="#000000" font-family="sans-serif" font-size="14" lengthAdjust="spacing" textLength="155" x="569.5" y="347.6358">Alineaci&#243;n con negocio</text><ellipse cx="560.5" cy="362.7718" fill="none" rx="3" ry="3" style="stroke:#038048;stroke-width:1.0;"/><text fill="#000000" font-family="sans-serif" font-size="14" lengthAdjust="spacing" textLength="129" x="569.5" y="366.7038">Gesti&#243;n del cambio</text><ellipse cx="560.5" cy="381.8397" fill="none" rx="3" ry="3" style="stroke:#038048;stroke-width:1.0;"/><text fill="#000000" font-family="sans-serif" font-size="14" lengthAdjust="spacing" textLength="161" x="569.5" y="385.7717">An&#225;lisis de necesidades</text><line style="stroke:#181818;stroke-width:0.5;" x1="550.5" x2="735.5" y1="393.8736" y2="393.8736"/></g><!--class transformacion--><g id="elem_transformacion"><rect codeLine="19" fill="#F1F1F1" height="124.2717" id="transformacion" rx="2.5" ry="2.5" style="stroke:#181818;stroke-width:0.5;" width="215" x="342.5" y="481.6699"/><ellipse cx="370.55" cy="497.6699" fill="#ADD1B2" rx="11" ry="11" style="stroke:#181818;stroke-width:1.0;"/><path d="M370.3469,504.4043 Q367.8625,504.4043 366.5344,502.7636 Q365.2219,501.0918 365.2219,497.9824 Q365.2219,494.8574 366.5344,493.2011 Q367.8625,491.5449 370.3469,491.5449 Q371.0656,491.5449 371.7219,491.7011 Q372.3625,491.8574 372.925,492.1543 L372.925,494.873 Q372.5656,494.5293 372.2688,494.3418 Q371.9719,494.1386 371.7063,494.0136 Q371.3938,493.873 371.0813,493.8105 Q370.7844,493.748 370.4719,493.748 Q369.1438,493.748 368.4563,494.8105 Q367.7688,495.9043 367.7688,497.9824 Q367.7688,500.0761 368.4563,501.1386 Q369.1438,502.2168 370.4719,502.2168 Q371.1125,502.2168 371.7063,501.9355 Q372.0031,501.8105 372.2844,501.623 Q372.5813,501.4199 372.925,501.0918 L372.925,503.8105 Q372.3469,504.1074 371.7063,504.2636 Q371.0813,504.4043 370.3469,504.4043 Z " fill="#000000"/><text fill="#000000" font-family="sans-serif" font-size="14" lengthAdjust="spacing" textLength="154" x="387.45" y="503.1019">Transformaci&#243;n Digital</text><line style="stroke:#181818;stroke-width:0.5;" x1="343.5" x2="556.5" y1="513.6699" y2="513.6699"/><ellipse cx="353.5" cy="528.7039" fill="none" rx="3" ry="3" style="stroke:#038048;stroke-width:1.0;"/><text fill="#000000" font-family="sans-serif" font-size="14" lengthAdjust="spacing" textLength="189" x="362.5" y="532.6358">Nuevos modelos de negocio</text><ellipse cx="353.5" cy="547.7718" fill="none" rx="3" ry="3" style="stroke:#038048;stroke-width:1.0;"/><text fill="#000000" font-family="sans-serif" font-size="14" lengthAdjust="spacing" textLength="104" x="362.5" y="551.7038">Automatizaci&#243;n</text><ellipse cx="353.5" cy="566.8397" fill="none" rx="3" ry="3" style="stroke:#038048;stroke-width:1.0;"/><text fill="#000000" font-family="sans-serif" font-size="14" lengthAdjust="spacing" textLength="91" x="362.5" y="570.7717">Digitalizaci&#243;n</text><ellipse cx="353.5" cy="585.9076" fill="none" rx="3" ry="3" style="stroke:#038048;stroke-width:1.0;"/><text fill="#000000" font-family="sans-serif" font-size="14" lengthAdjust="spacing" textLength="114" x="362.5" y="589.8396">An&#225;lisis de datos</text><line style="stroke:#181818;stroke-width:0.5;" x1="343.5" x2="556.5" y1="597.9416" y2="597.9416"/></g><!--class frameworks--><g id="elem_frameworks"><rect codeLine="26" fill="#F1F1F1" height="124.2717" id="frameworks" rx="2.5" ry="2.5" style="stroke:#181818;stroke-width:0.5;" width="113" x="613.5" y="481.6699"/><ellipse cx="628.5" cy="497.6699" fill="#ADD1B2" rx="11" ry="11" style="stroke:#181818;stroke-width:1.0;"/><path d="M628.2969,504.4043 Q625.8125,504.4043 624.4844,502.7636 Q623.1719,501.0918 623.1719,497.9824 Q623.1719,494.8574 624.4844,493.2011 Q625.8125,491.5449 628.2969,491.5449 Q629.0156,491.5449 629.6719,491.7011 Q630.3125,491.8574 630.875,492.1543 L630.875,494.873 Q630.5156,494.5293 630.2188,494.3418 Q629.9219,494.1386 629.6563,494.0136 Q629.3438,493.873 629.0313,493.8105 Q628.7344,493.748 628.4219,493.748 Q627.0938,493.748 626.4063,494.8105 Q625.7188,495.9043 625.7188,497.9824 Q625.7188,500.0761 626.4063,501.1386 Q627.0938,502.2168 628.4219,502.2168 Q629.0625,502.2168 629.6563,501.9355 Q629.9531,501.8105 630.2344,501.623 Q630.5313,501.4199 630.875,501.0918 L630.875,503.8105 Q630.2969,504.1074 629.6563,504.2636 Q629.0313,504.4043 628.2969,504.4043 Z " fill="#000000"/><text fill="#000000" font-family="sans-serif" font-size="14" lengthAdjust="spacing" textLength="81" x="642.5" y="503.1019">Frameworks</text><line style="stroke:#181818;stroke-width:0.5;" x1="614.5" x2="725.5" y1="513.6699" y2="513.6699"/><ellipse cx="624.5" cy="528.7039" fill="none" rx="3" ry="3" style="stroke:#038048;stroke-width:1.0;"/><text fill="#000000" font-family="sans-serif" font-size="14" lengthAdjust="spacing" textLength="45" x="633.5" y="532.6358">TOGAF</text><ellipse cx="624.5" cy="547.7718" fill="none" rx="3" ry="3" style="stroke:#038048;stroke-width:1.0;"/><text fill="#000000" font-family="sans-serif" font-size="14" lengthAdjust="spacing" textLength="42" x="633.5" y="551.7038">COBIT</text><ellipse cx="624.5" cy="566.8397" fill="none" rx="3" ry="3" style="stroke:#038048;stroke-width:1.0;"/><text fill="#000000" font-family="sans-serif" font-size="14" lengthAdjust="spacing" textLength="25" x="633.5" y="570.7717">ITIL</text><ellipse cx="624.5" cy="585.9076" fill="none" rx="3" ry="3" style="stroke:#038048;stroke-width:1.0;"/><text fill="#000000" font-family="sans-serif" font-size="14" lengthAdjust="spacing" textLength="50" x="633.5" y="589.8396">PMBOK</text><line style="stroke:#181818;stroke-width:0.5;" x1="614.5" x2="725.5" y1="597.9416" y2="597.9416"/></g><!--class evolucion--><g id="elem_evolucion"><rect codeLine="33" fill="#F1F1F1" height="143.3396" id="evolucion" rx="2.5" ry="2.5" style="stroke:#181818;stroke-width:0.5;" width="233" x="281.5" y="277.6699"/><ellipse cx="330.25" cy="293.6699" fill="#ADD1B2" rx="11" ry="11" style="stroke:#181818;stroke-width:1.0;"/><path d="M330.0469,300.4043 Q327.5625,300.4043 326.2344,298.7636 Q324.9219,297.0918 324.9219,293.9824 Q324.9219,290.8574 326.2344,289.2011 Q327.5625,287.5449 330.0469,287.5449 Q330.7656,287.5449 331.4219,287.7011 Q332.0625,287.8574 332.625,288.1543 L332.625,290.873 Q332.2656,290.5293 331.9688,290.3418 Q331.6719,290.1386 331.4063,290.0136 Q331.0938,289.873 330.7813,289.8105 Q330.4844,289.748 330.1719,289.748 Q328.8438,289.748 328.1563,290.8105 Q327.4688,291.9043 327.4688,293.9824 Q327.4688,296.0761 328.1563,297.1386 Q328.8438,298.2168 330.1719,298.2168 Q330.8125,298.2168 331.4063,297.9355 Q331.7031,297.8105 331.9844,297.623 Q332.2813,297.4199 332.625,297.0918 L332.625,299.8105 Q332.0469,300.1074 331.4063,300.2636 Q330.7813,300.4043 330.0469,300.4043 Z " fill="#000000"/><text fill="#000000" font-family="sans-serif" font-size="14" lengthAdjust="spacing" textLength="127" x="350.75" y="299.1019">Evoluci&#243;n Hist&#243;rica</text><line style="stroke:#181818;stroke-width:0.5;" x1="282.5" x2="513.5" y1="309.6699" y2="309.6699"/><line style="stroke:#181818;stroke-width:0.5;" x1="282.5" x2="513.5" y1="317.6699" y2="317.6699"/><ellipse cx="292.5" cy="332.7039" fill="#84BE84" rx="3" ry="3" style="stroke:#038048;stroke-width:1.0;"/><text fill="#000000" font-family="sans-serif" font-size="14" lengthAdjust="spacing" textLength="172" x="301.5" y="336.6358">Orientada a datos (1960s)</text><ellipse cx="292.5" cy="351.7718" fill="#84BE84" rx="3" ry="3" style="stroke:#038048;stroke-width:1.0;"/><text fill="#000000" font-family="sans-serif" font-size="14" lengthAdjust="spacing" textLength="161" x="301.5" y="355.7038">Orientada a MIS (1970s)</text><ellipse cx="292.5" cy="370.8397" fill="#84BE84" rx="3" ry="3" style="stroke:#038048;stroke-width:1.0;"/><text fill="#000000" font-family="sans-serif" font-size="14" lengthAdjust="spacing" textLength="126" x="301.5" y="374.7717">Estrat&#233;gica (1980s)</text><ellipse cx="292.5" cy="389.9076" fill="#84BE84" rx="3" ry="3" style="stroke:#038048;stroke-width:1.0;"/><text fill="#000000" font-family="sans-serif" font-size="14" lengthAdjust="spacing" textLength="183" x="301.5" y="393.8396">Ventaja competitiva (1990s)</text><ellipse cx="292.5" cy="408.9755" fill="#84BE84" rx="3" ry="3" style="stroke:#038048;stroke-width:1.0;"/><text fill="#000000" font-family="sans-serif" font-size="14" lengthAdjust="spacing" textLength="207" x="301.5" y="412.9075">Transformaci&#243;n digital (Actual)</text></g><!--class etapas--><g id="elem_etapas"><rect codeLine="41" fill="#F1F1F1" height="124.2717" id="etapas" rx="2.5" ry="2.5" style="stroke:#181818;stroke-width:0.5;" width="208" x="346" y="686.6699"/><ellipse cx="361" cy="702.6699" fill="#ADD1B2" rx="11" ry="11" style="stroke:#181818;stroke-width:1.0;"/><path d="M360.7969,709.4043 Q358.3125,709.4043 356.9844,707.7636 Q355.6719,706.0918 355.6719,702.9824 Q355.6719,699.8574 356.9844,698.2011 Q358.3125,696.5449 360.7969,696.5449 Q361.5156,696.5449 362.1719,696.7011 Q362.8125,696.8574 363.375,697.1543 L363.375,699.873 Q363.0156,699.5293 362.7188,699.3418 Q362.4219,699.1386 362.1563,699.0136 Q361.8438,698.873 361.5313,698.8105 Q361.2344,698.748 360.9219,698.748 Q359.5938,698.748 358.9063,699.8105 Q358.2188,700.9043 358.2188,702.9824 Q358.2188,705.0761 358.9063,706.1386 Q359.5938,707.2168 360.9219,707.2168 Q361.5625,707.2168 362.1563,706.9355 Q362.4531,706.8105 362.7344,706.623 Q363.0313,706.4199 363.375,706.0918 L363.375,708.8105 Q362.7969,709.1074 362.1563,709.2636 Q361.5313,709.4043 360.7969,709.4043 Z " fill="#000000"/><text fill="#000000" font-family="sans-serif" font-size="14" lengthAdjust="spacing" textLength="176" x="375" y="708.1019">Etapas de Transformaci&#243;n</text><line style="stroke:#181818;stroke-width:0.5;" x1="347" x2="553" y1="718.6699" y2="718.6699"/><ellipse cx="357" cy="733.7039" fill="none" rx="3" ry="3" style="stroke:#038048;stroke-width:1.0;"/><text fill="#000000" font-family="sans-serif" font-size="14" lengthAdjust="spacing" textLength="91" x="366" y="737.6358">Digitalizaci&#243;n</text><ellipse cx="357" cy="752.7718" fill="none" rx="3" ry="3" style="stroke:#038048;stroke-width:1.0;"/><text fill="#000000" font-family="sans-serif" font-size="14" lengthAdjust="spacing" textLength="107" x="366" y="756.7038">Tecnocentrismo</text><ellipse cx="357" cy="771.8397" fill="none" rx="3" ry="3" style="stroke:#038048;stroke-width:1.0;"/><text fill="#000000" font-family="sans-serif" font-size="14" lengthAdjust="spacing" textLength="134" x="366" y="775.7717">Centrado en Cliente</text><ellipse cx="357" cy="790.9076" fill="none" rx="3" ry="3" style="stroke:#038048;stroke-width:1.0;"/><text fill="#000000" font-family="sans-serif" font-size="14" lengthAdjust="spacing" textLength="57" x="366" y="794.8396">Hol&#237;stica</text><line style="stroke:#181818;stroke-width:0.5;" x1="347" x2="553" y1="802.9416" y2="802.9416"/></g><!--class capitalHumano--><g id="elem_capitalHumano"><rect codeLine="48" fill="#F1F1F1" height="105.2038" id="capitalHumano" rx="2.5" ry="2.5" style="stroke:#181818;stroke-width:0.5;" width="216" x="30" y="296.6699"/><ellipse cx="45" cy="312.6699" fill="#ADD1B2" rx="11" ry="11" style="stroke:#181818;stroke-width:1.0;"/><path d="M44.7969,319.4043 Q42.3125,319.4043 40.9844,317.7636 Q39.6719,316.0918 39.6719,312.9824 Q39.6719,309.8574 40.9844,308.2011 Q42.3125,306.5449 44.7969,306.5449 Q45.5156,306.5449 46.1719,306.7011 Q46.8125,306.8574 47.375,307.1543 L47.375,309.873 Q47.0156,309.5293 46.7188,309.3418 Q46.4219,309.1386 46.1563,309.0136 Q45.8438,308.873 45.5313,308.8105 Q45.2344,308.748 44.9219,308.748 Q43.5938,308.748 42.9063,309.8105 Q42.2188,310.9043 42.2188,312.9824 Q42.2188,315.0761 42.9063,316.1386 Q43.5938,317.2168 44.9219,317.2168 Q45.5625,317.2168 46.1563,316.9355 Q46.4531,316.8105 46.7344,316.623 Q47.0313,316.4199 47.375,316.0918 L47.375,318.8105 Q46.7969,319.1074 46.1563,319.2636 Q45.5313,319.4043 44.7969,319.4043 Z " fill="#000000"/><text fill="#000000" font-family="sans-serif" font-size="14" lengthAdjust="spacing" textLength="184" x="59" y="318.1019">Gesti&#243;n de Capital Humano</text><line style="stroke:#181818;stroke-width:0.5;" x1="31" x2="245" y1="328.6699" y2="328.6699"/><ellipse cx="41" cy="343.7039" fill="none" rx="3" ry="3" style="stroke:#038048;stroke-width:1.0;"/><text fill="#000000" font-family="sans-serif" font-size="14" lengthAdjust="spacing" textLength="157" x="50" y="347.6358">Competencias digitales</text><ellipse cx="41" cy="362.7718" fill="none" rx="3" ry="3" style="stroke:#038048;stroke-width:1.0;"/><text fill="#000000" font-family="sans-serif" font-size="14" lengthAdjust="spacing" textLength="133" x="50" y="366.7038">Nuevas habilidades</text><ellipse cx="41" cy="381.8397" fill="none" rx="3" ry="3" style="stroke:#038048;stroke-width:1.0;"/><text fill="#000000" font-family="sans-serif" font-size="14" lengthAdjust="spacing" textLength="66" x="50" y="385.7717">Liderazgo</text><line style="stroke:#181818;stroke-width:0.5;" x1="31" x2="245" y1="393.8736" y2="393.8736"/></g><!--class proyectos--><g id="elem_proyectos"><rect codeLine="57" fill="#F1F1F1" height="48" id="proyectos" rx="2.5" ry="2.5" style="stroke:#181818;stroke-width:0.5;" width="172" x="1275" y="724.6699"/><ellipse cx="1290" cy="740.6699" fill="#ADD1B2" rx="11" ry="11" style="stroke:#181818;stroke-width:1.0;"/><path d="M1289.7969,747.4043 Q1287.3125,747.4043 1285.9844,745.7636 Q1284.6719,744.0918 1284.6719,740.9824 Q1284.6719,737.8574 1285.9844,736.2011 Q1287.3125,734.5449 1289.7969,734.5449 Q1290.5156,734.5449 1291.1719,734.7011 Q1291.8125,734.8574 1292.375,735.1543 L1292.375,737.873 Q1292.0156,737.5293 1291.7188,737.3418 Q1291.4219,737.1386 1291.1563,737.0136 Q1290.8438,736.873 1290.5313,736.8105 Q1290.2344,736.748 1289.9219,736.748 Q1288.5938,736.748 1287.9063,737.8105 Q1287.2188,738.9043 1287.2188,740.9824 Q1287.2188,743.0761 1287.9063,744.1386 Q1288.5938,745.2168 1289.9219,745.2168 Q1290.5625,745.2168 1291.1563,744.9355 Q1291.4531,744.8105 1291.7344,744.623 Q1292.0313,744.4199 1292.375,744.0918 L1292.375,746.8105 Q1291.7969,747.1074 1291.1563,747.2636 Q1290.5313,747.4043 1289.7969,747.4043 Z " fill="#000000"/><text fill="#000000" font-family="sans-serif" font-size="14" lengthAdjust="spacing" textLength="140" x="1304" y="746.1019">Gesti&#243;n de Proyectos</text><line style="stroke:#181818;stroke-width:0.5;" x1="1276" x2="1446" y1="756.6699" y2="756.6699"/><line style="stroke:#181818;stroke-width:0.5;" x1="1276" x2="1446" y1="764.6699" y2="764.6699"/></g><!--class operaciones--><g id="elem_operaciones"><rect codeLine="58" fill="#F1F1F1" height="48" id="operaciones" rx="2.5" ry="2.5" style="stroke:#181818;stroke-width:0.5;" width="193" x="844.5" y="724.6699"/><ellipse cx="859.5" cy="740.6699" fill="#ADD1B2" rx="11" ry="11" style="stroke:#181818;stroke-width:1.0;"/><path d="M859.2969,747.4043 Q856.8125,747.4043 855.4844,745.7636 Q854.1719,744.0918 854.1719,740.9824 Q854.1719,737.8574 855.4844,736.2011 Q856.8125,734.5449 859.2969,734.5449 Q860.0156,734.5449 860.6719,734.7011 Q861.3125,734.8574 861.875,735.1543 L861.875,737.873 Q861.5156,737.5293 861.2188,737.3418 Q860.9219,737.1386 860.6563,737.0136 Q860.3438,736.873 860.0313,736.8105 Q859.7344,736.748 859.4219,736.748 Q858.0938,736.748 857.4063,737.8105 Q856.7188,738.9043 856.7188,740.9824 Q856.7188,743.0761 857.4063,744.1386 Q858.0938,745.2168 859.4219,745.2168 Q860.0625,745.2168 860.6563,744.9355 Q860.9531,744.8105 861.2344,744.623 Q861.5313,744.4199 861.875,744.0918 L861.875,746.8105 Q861.2969,747.1074 860.6563,747.2636 Q860.0313,747.4043 859.2969,747.4043 Z " fill="#000000"/><text fill="#000000" font-family="sans-serif" font-size="14" lengthAdjust="spacing" textLength="161" x="873.5" y="746.1019">Gesti&#243;n de Operaciones</text><line style="stroke:#181818;stroke-width:0.5;" x1="845.5" x2="1036.5" y1="756.6699" y2="756.6699"/><line style="stroke:#181818;stroke-width:0.5;" x1="845.5" x2="1036.5" y1="764.6699" y2="764.6699"/></g><!--class servicios--><g id="elem_servicios"><rect codeLine="59" fill="#F1F1F1" height="48" id="servicios" rx="2.5" ry="2.5" style="stroke:#181818;stroke-width:0.5;" width="167" x="1072.5" y="724.6699"/><ellipse cx="1087.5" cy="740.6699" fill="#ADD1B2" rx="11" ry="11" style="stroke:#181818;stroke-width:1.0;"/><path d="M1087.2969,747.4043 Q1084.8125,747.4043 1083.4844,745.7636 Q1082.1719,744.0918 1082.1719,740.9824 Q1082.1719,737.8574 1083.4844,736.2011 Q1084.8125,734.5449 1087.2969,734.5449 Q1088.0156,734.5449 1088.6719,734.7011 Q1089.3125,734.8574 1089.875,735.1543 L1089.875,737.873 Q1089.5156,737.5293 1089.2188,737.3418 Q1088.9219,737.1386 1088.6563,737.0136 Q1088.3438,736.873 1088.0313,736.8105 Q1087.7344,736.748 1087.4219,736.748 Q1086.0938,736.748 1085.4063,737.8105 Q1084.7188,738.9043 1084.7188,740.9824 Q1084.7188,743.0761 1085.4063,744.1386 Q1086.0938,745.2168 1087.4219,745.2168 Q1088.0625,745.2168 1088.6563,744.9355 Q1088.9531,744.8105 1089.2344,744.623 Q1089.5313,744.4199 1089.875,744.0918 L1089.875,746.8105 Q1089.2969,747.1074 1088.6563,747.2636 Q1088.0313,747.4043 1087.2969,747.4043 Z " fill="#000000"/><text fill="#000000" font-family="sans-serif" font-size="14" lengthAdjust="spacing" textLength="135" x="1101.5" y="746.1019">Gesti&#243;n de Servicios</text><line style="stroke:#181818;stroke-width:0.5;" x1="1073.5" x2="1238.5" y1="756.6699" y2="756.6699"/><line style="stroke:#181818;stroke-width:0.5;" x1="1073.5" x2="1238.5" y1="764.6699" y2="764.6699"/></g><!--link planificacion to transformacion--><g id="link_planificacion_transformacion"><path codeLine="63" d="M591.28,401.7599 C566.71,426.2599 537.18,455.7199 511.47,481.3599 " fill="none" id="planificacion-transformacion" style="stroke:#181818;stroke-width:1.0;"/></g><!--link planificacion to frameworks--><g id="link_planificacion_frameworks"><path codeLine="64" d="M650.24,401.7599 C653.67,426.2599 657.8,455.7199 661.4,481.3599 " fill="none" id="planificacion-frameworks" style="stroke:#181818;stroke-width:1.0;"/></g><!--link transformacion to etapas--><g id="link_transformacion_etapas"><path codeLine="65" d="M450,605.8499 C450,631.4199 450,661.0599 450,686.6099 " fill="none" id="transformacion-etapas" style="stroke:#181818;stroke-width:1.0;"/></g><!--link evolucion to transformacion--><g id="link_evolucion_transformacion"><path codeLine="66" d="M417.07,420.7599 C422.46,440.7199 428.28,462.2599 433.51,481.6099 " fill="none" id="evolucion-transformacion" style="stroke:#181818;stroke-width:1.0;"/></g><!--link capitalHumano to transformacion--><g id="link_capitalHumano_transformacion"><path codeLine="67" d="M221.61,401.7599 C261.41,426.3099 309.29,455.8499 350.91,481.5299 " fill="none" id="capitalHumano-transformacion" style="stroke:#181818;stroke-width:1.0;"/></g><!--link previos to estrategia--><g id="link_previos_estrategia"><path codeLine="70" d="M487.1309,164.7486 C487.4919,165.5757 487.8671,166.3968 488.2571,167.2103 C489.0373,168.8373 489.8766,170.434 490.7798,171.9867 C492.5861,175.0922 494.6475,178.0224 497,180.6699 C516.96,203.1399 529.71,200.9299 559,207.6699 C579.92,212.4799 736.02,201.3399 752,215.6699 C754.7275,218.1168 757.1951,220.7641 759.4244,223.578 C760.5391,224.9849 761.5941,226.4335 762.5924,227.9195 C763.0915,228.6625 763.5764,229.4148 764.0474,230.176 C764.2829,230.5565 761.451,225.7806 761.6797,226.1655 " fill="none" id="previos-to-estrategia" style="stroke:#181818;stroke-width:1.0;"/><polygon fill="#181818" points="764.7436,231.3242,763.5868,221.5435,762.1903,227.0253,756.7085,225.6288,764.7436,231.3242" style="stroke:#181818;stroke-width:1.0;"/><text fill="#000000" font-family="sans-serif" font-size="13" lengthAdjust="spacing" textLength="74" x="560" y="203.5669">fundamenta</text></g><!--link modelos to planificacion--><g id="link_modelos_planificacion"><path codeLine="71" d="M643,141.0399 C643,177.2099 643,241.6299 643,290.2499 " fill="none" id="modelos-to-planificacion" style="stroke:#181818;stroke-width:1.0;"/><polygon fill="#181818" points="643,296.2499,647,287.2499,643,291.2499,639,287.2499,643,296.2499" style="stroke:#181818;stroke-width:1.0;"/><text fill="#000000" font-family="sans-serif" font-size="13" lengthAdjust="spacing" textLength="40" x="644" y="203.5669">influye</text></g><!--link funciones to estrategia--><g id="link_funciones_estrategia"><path codeLine="72" d="M860.96,141.0399 C848.575,169.8799 826.83,220.5074 807.94,264.4886 C798.495,286.4793 789.7638,306.8083 783.2731,321.9216 C782.4618,323.8108 781.6855,325.6184 780.9472,327.3377 C780.7626,327.7675 780.5804,328.1918 780.4006,328.6104 C780.3107,328.8197 782.589,323.5145 782.5003,323.721 " fill="none" id="funciones-to-estrategia" style="stroke:#181818;stroke-width:1.0;"/><polygon fill="#181818" points="780.1327,329.2341,787.3595,322.5428,782.1057,324.6399,780.0087,319.386,780.1327,329.2341" style="stroke:#181818;stroke-width:1.0;"/><text fill="#000000" font-family="sans-serif" font-size="13" lengthAdjust="spacing" textLength="37" x="839" y="203.5669">define</text></g><!--link estrategia to gestion--><g id="link_estrategia_gestion"><path codeLine="75" d="M780.2904,351.1663 C780.8309,351.2351 781.3966,351.3077 781.9873,351.3842 C783.1687,351.5373 784.4498,351.7058 785.8278,351.8905 C788.5838,352.2599 791.7275,352.6938 795.2368,353.197 C809.2737,355.2098 829.159,358.3309 853.4736,362.8644 C902.1028,371.9315 968.4494,386.648 1041.1613,409.4461 C1186.585,455.0424 1357.47,532.9649 1463,662.6699 C1465.9588,666.3061 1468.4795,670.3082 1470.625,674.5341 C1471.1614,675.5906 1471.6743,676.661 1472.1647,677.7433 C1472.2874,678.0138 1469.9898,672.7942 1470.1096,673.0662 " fill="none" id="estrategia-to-gestion" style="stroke:#181818;stroke-width:1.0;"/><polygon fill="#181818" points="1472.5284,678.5571,1472.5608,668.7083,1470.5128,673.9814,1465.2397,671.9333,1472.5284,678.5571" style="stroke:#181818;stroke-width:1.0;"/><text fill="#000000" font-family="sans-serif" font-size="13" lengthAdjust="spacing" textLength="26" x="1409" y="549.0669">gu&#237;a</text></g><!--link planificacion to proyectos--><g id="link_planificacion_proyectos"><path codeLine="76" d="M711.26,401.6899 C721.05,408.3699 731.15,414.8799 741,420.6699 C959.41,548.9599 1042.64,527.7199 1257,662.6699 C1286.01,680.9299 1311.53,702.2364 1331.81,720.4864 " fill="none" id="planificacion-to-proyectos" style="stroke:#181818;stroke-width:1.0;"/><polygon fill="#181818" points="1336.27,724.4999,1332.2557,715.5063,1332.5533,721.1553,1326.9043,721.4529,1336.27,724.4999" style="stroke:#181818;stroke-width:1.0;"/><text fill="#000000" font-family="sans-serif" font-size="13" lengthAdjust="spacing" textLength="43" x="1154" y="549.0669">orienta</text></g><!--link frameworks to servicios--><g id="link_frameworks_servicios"><path codeLine="77" d="M726.52,590.9199 C759.07,614.6799 801.97,641.3799 845,654.6699 C889.62,668.4499 1011.44,645.8299 1055,662.6699 C1088.13,675.4799 1114.1411,699.4938 1132.6811,719.9538 " fill="none" id="frameworks-to-servicios" style="stroke:#181818;stroke-width:1.0;"/><polygon fill="#181818" points="1136.71,724.3999,1133.6307,715.0448,1133.3526,720.6948,1127.7026,720.4166,1136.71,724.3999" style="stroke:#181818;stroke-width:1.0;"/><text fill="#000000" font-family="sans-serif" font-size="13" lengthAdjust="spacing" textLength="69" x="846" y="650.5669">estandariza</text></g><!--link transformacion to operaciones--><g id="link_transformacion_operaciones"><path codeLine="78" d="M557.86,590.2399 C570.69,595.5099 583.62,600.7499 596,605.6699 C653.38,628.4599 667.58,634.6899 726,654.6699 C737.44,658.5799 740.69,658.3999 752,662.6699 C801.32,681.2699 850.679,703.8174 888.499,721.9374 " fill="none" id="transformacion-to-operaciones" style="stroke:#181818;stroke-width:1.0;"/><polygon fill="#181818" points="893.91,724.5299,887.5218,717.0338,889.4008,722.3695,884.0652,724.2485,893.91,724.5299" style="stroke:#181818;stroke-width:1.0;"/><text fill="#000000" font-family="sans-serif" font-size="13" lengthAdjust="spacing" textLength="67" x="727" y="650.5669">transforma</text></g><!--SRC=[ZLN9Rjim4BthAuXScg0maA90bnmAE7OMeqbir4Rl4shiig58WQAS9a4-9iSUSiedwCSw9BLGNe3gO9XyRyWtAwsm4jbO6EHSL6-AfSZceh2OGU7-JzHIcmm2Dc1dXJLWSIKWITwnaLOM_zWIf7YiARd1DO4vy3jO8JiOGLwzsbBgWiqSf8i3HYVduJzxIXXzN49Hi8E9iaQdPH3YQSBjn9HhdQ8xYvJTu4fpePdJgFGQEgiia6Axyr8HLs71nlE99osRdUJPkJB6fL2YyK4GbeEaQoIhNWn63Xr_77H1y2TXk-oxCvEWn59mw08RhiuxGAlQndtlsL0AXJMV4wQ2Zn7ZWcwhZvECGtRRGuUgUf6Y43v02ZaM8eKKGoYU_M-iS6505L5-ns8bB4WlqaROXigR4jUw3NEuQbFdiBGw0zlKHOJKb-n0UkfJi7gVxdC36TvhSnUAQTakUp8NqulXURGUJKydYsWzMKokekNi-dJwVS-5Psijon2ZIsgEwirGzaBo0x8HeQaHg2oam20umWu_VFrqN1pjuLnFvexnkSy8TLRzNT5b3lxIXtywyzz0XPBbQ8KLQy_wscTjvZWDuMU7G-uQzsYVnnRoC04s3WXU1_JflzAwGAuq9x5655bS8oEt1ocri68ZwQA14NgfPVLAnSvXZyIe5HYD6U_LPPc1qbuZ3rjXfoTrv0E6rEFEmw2xxf6km0dw1RT2HWqKm2kHee77bQvb-V5n3WMwcM9B0qKtB5g9CqqZrGXjlBILssvBPeSxCwCVaDjsMDQhVVHfJeh2DFC6kbllCvcZMTEugsyecbNmvWVAsfov5A4lCLfIWdn9T1ClwS-omM1ZRcpZNRCc6oE6m51NITTKsmVsqxgDz-Mx8Sh3AwNhHoTftfv1gk_Lu5iylq_Siv2IGEgif9bl3Q_loWazJajPFc3IlYIxJqpTou8xT2rzpUHDPL2k8hlcgAPKJjYgh5wtujr8Qog4U3hCbIIQYWsjJJFHw5mWLmqrx5OYQdfKHcJGaP9_]--></g></svg>