<?xml version="1.0" encoding="us-ascii" standalone="no"?><svg xmlns="http://www.w3.org/2000/svg" xmlns:xlink="http://www.w3.org/1999/xlink" contentStyleType="text/css" height="602px" preserveAspectRatio="none" style="width:1322px;height:602px;background:#FFFFFF;" version="1.1" viewBox="0 0 1322 602" width="1322px" zoomAndPan="magnify"><defs/><g><!--cluster Tecnolog?a e Informaci?n--><g id="cluster_Tecnolog&#237;a e Informaci&#243;n"><path d="M735.5,109 L912.5,109 A3.75,3.75 0 0 1 915,111.5 L922,134.0679 L1312.5,134.0679 A2.5,2.5 0 0 1 1315,136.5679 L1315,336.5 A2.5,2.5 0 0 1 1312.5,339 L735.5,339 A2.5,2.5 0 0 1 733,336.5 L733,111.5 A2.5,2.5 0 0 1 735.5,109 " fill="none" style="stroke:#000000;stroke-width:1.5;"/><line style="stroke:#000000;stroke-width:1.5;" x1="733" x2="922" y1="134.0679" y2="134.0679"/><text fill="#000000" font-family="sans-serif" font-size="14" font-weight="bold" lengthAdjust="spacing" textLength="176" x="737" y="125.9659">Tecnolog&#237;a e Informaci&#243;n</text></g><!--cluster Experiencia y Comunicaci?n--><g id="cluster_Experiencia y Comunicaci&#243;n"><path d="M8.5,363 L202.5,363 A3.75,3.75 0 0 1 205,365.5 L212,388.0679 L412.5,388.0679 A2.5,2.5 0 0 1 415,390.5679 L415,593 A2.5,2.5 0 0 1 412.5,595.5 L8.5,595.5 A2.5,2.5 0 0 1 6,593 L6,365.5 A2.5,2.5 0 0 1 8.5,363 " fill="none" style="stroke:#000000;stroke-width:1.5;"/><line style="stroke:#000000;stroke-width:1.5;" x1="6" x2="212" y1="388.0679" y2="388.0679"/><text fill="#000000" font-family="sans-serif" font-size="14" font-weight="bold" lengthAdjust="spacing" textLength="193" x="10" y="379.9659">Experiencia y Comunicaci&#243;n</text></g><!--cluster Organizaci?n y Cultura--><g id="cluster_Organizaci&#243;n y Cultura"><path d="M486.5,363 L645.5,363 A3.75,3.75 0 0 1 648,365.5 L655,388.0679 L1067.5,388.0679 A2.5,2.5 0 0 1 1070,390.5679 L1070,472.5 A2.5,2.5 0 0 1 1067.5,475 L486.5,475 A2.5,2.5 0 0 1 484,472.5 L484,365.5 A2.5,2.5 0 0 1 486.5,363 " fill="none" style="stroke:#000000;stroke-width:1.5;"/><line style="stroke:#000000;stroke-width:1.5;" x1="484" x2="655" y1="388.0679" y2="388.0679"/><text fill="#000000" font-family="sans-serif" font-size="14" font-weight="bold" lengthAdjust="spacing" textLength="158" x="488" y="379.9659">Organizaci&#243;n y Cultura</text></g><!--entity CIO--><g id="elem_CIO"><rect fill="#F1F1F1" height="58.1358" rx="2.5" ry="2.5" style="stroke:#181818;stroke-width:0.5;" width="189" x="851.5" y="147"/><text fill="#000000" font-family="sans-serif" font-size="14" lengthAdjust="spacing" textLength="25" x="861.5" y="171.9659">CIO</text><text fill="#000000" font-family="sans-serif" font-size="14" lengthAdjust="spacing" textLength="169" x="861.5" y="191.0339">Chief Information Officer</text></g><!--entity CTO--><g id="elem_CTO"><rect fill="#F1F1F1" height="58.1358" rx="2.5" ry="2.5" style="stroke:#181818;stroke-width:0.5;" width="186" x="749" y="265"/><text fill="#000000" font-family="sans-serif" font-size="14" lengthAdjust="spacing" textLength="28" x="759" y="289.9659">CTO</text><text fill="#000000" font-family="sans-serif" font-size="14" lengthAdjust="spacing" textLength="166" x="759" y="309.0339">Chief Technology Officer</text></g><!--entity CDO--><g id="elem_CDO"><rect fill="#F1F1F1" height="58.1358" rx="2.5" ry="2.5" style="stroke:#181818;stroke-width:0.5;" width="153" x="970.5" y="265"/><text fill="#000000" font-family="sans-serif" font-size="14" lengthAdjust="spacing" textLength="30" x="980.5" y="289.9659">CDO</text><text fill="#000000" font-family="sans-serif" font-size="14" lengthAdjust="spacing" textLength="133" x="980.5" y="309.0339">Chief Digital Officer</text></g><!--entity CDO2--><g id="elem_CDO2"><rect fill="#F1F1F1" height="58.1358" rx="2.5" ry="2.5" style="stroke:#181818;stroke-width:0.5;" width="140" x="1159" y="265"/><text fill="#000000" font-family="sans-serif" font-size="14" lengthAdjust="spacing" textLength="38" x="1169" y="289.9659">CDO2</text><text fill="#000000" font-family="sans-serif" font-size="14" lengthAdjust="spacing" textLength="120" x="1169" y="309.0339">Chief Data Officer</text></g><!--entity CCO--><g id="elem_CCO"><rect fill="#F1F1F1" height="58.1358" rx="2.5" ry="2.5" style="stroke:#181818;stroke-width:0.5;" width="222" x="99" y="401"/><text fill="#000000" font-family="sans-serif" font-size="14" lengthAdjust="spacing" textLength="29" x="109" y="425.9659">CCO</text><text fill="#000000" font-family="sans-serif" font-size="14" lengthAdjust="spacing" textLength="202" x="109" y="445.0339">Chief Communications Officer</text></g><!--entity CXO--><g id="elem_CXO"><rect fill="#F1F1F1" height="58.1358" rx="2.5" ry="2.5" style="stroke:#181818;stroke-width:0.5;" width="183" x="22.5" y="521.5"/><text fill="#000000" font-family="sans-serif" font-size="14" lengthAdjust="spacing" textLength="28" x="32.5" y="546.4659">CXO</text><text fill="#000000" font-family="sans-serif" font-size="14" lengthAdjust="spacing" textLength="163" x="32.5" y="565.5339">Chief Experience Officer</text></g><!--entity CGO--><g id="elem_CGO"><rect fill="#F1F1F1" height="58.1358" rx="2.5" ry="2.5" style="stroke:#181818;stroke-width:0.5;" width="158" x="241" y="521.5"/><text fill="#000000" font-family="sans-serif" font-size="14" lengthAdjust="spacing" textLength="30" x="251" y="546.4659">CGO</text><text fill="#000000" font-family="sans-serif" font-size="14" lengthAdjust="spacing" textLength="138" x="251" y="565.5339">Chief Growth Officer</text></g><!--entity CDIVO--><g id="elem_CDIVO"><rect fill="#F1F1F1" height="58.1358" rx="2.5" ry="2.5" style="stroke:#181818;stroke-width:0.5;" width="167" x="695.5" y="401"/><text fill="#000000" font-family="sans-serif" font-size="14" lengthAdjust="spacing" textLength="43" x="705.5" y="425.9659">CDIVO</text><text fill="#000000" font-family="sans-serif" font-size="14" lengthAdjust="spacing" textLength="147" x="705.5" y="445.0339">Chief Diversity Officer</text></g><!--entity CRO--><g id="elem_CRO"><rect fill="#F1F1F1" height="58.1358" rx="2.5" ry="2.5" style="stroke:#181818;stroke-width:0.5;" width="160" x="500" y="401"/><text fill="#000000" font-family="sans-serif" font-size="14" lengthAdjust="spacing" textLength="29" x="510" y="425.9659">CRO</text><text fill="#000000" font-family="sans-serif" font-size="14" lengthAdjust="spacing" textLength="140" x="510" y="445.0339">Chief Remote Officer</text></g><!--entity CDEO--><g id="elem_CDEO"><rect fill="#F1F1F1" height="58.1358" rx="2.5" ry="2.5" style="stroke:#181818;stroke-width:0.5;" width="156" x="898" y="401"/><text fill="#000000" font-family="sans-serif" font-size="14" lengthAdjust="spacing" textLength="38" x="908" y="425.9659">CDEO</text><text fill="#000000" font-family="sans-serif" font-size="14" lengthAdjust="spacing" textLength="136" x="908" y="445.0339">Chief Design Officer</text></g><!--entity CEO--><g id="elem_CEO"><rect fill="#F1F1F1" height="58.1358" rx="2.5" ry="2.5" style="stroke:#181818;stroke-width:0.5;" width="172" x="470" y="17.5"/><text fill="#000000" font-family="sans-serif" font-size="14" lengthAdjust="spacing" textLength="28" x="480" y="42.4659">CEO</text><text fill="#000000" font-family="sans-serif" font-size="14" lengthAdjust="spacing" textLength="152" x="480" y="61.5339">Chief Executive Officer</text></g><!--entity COO--><g id="elem_COO"><rect fill="#F1F1F1" height="58.1358" rx="2.5" ry="2.5" style="stroke:#181818;stroke-width:0.5;" width="178" x="536" y="265"/><text fill="#000000" font-family="sans-serif" font-size="14" lengthAdjust="spacing" textLength="31" x="546" y="289.9659">COO</text><text fill="#000000" font-family="sans-serif" font-size="14" lengthAdjust="spacing" textLength="158" x="546" y="309.0339">Chief Operating Officer</text></g><!--entity CFO--><g id="elem_CFO"><rect fill="#F1F1F1" height="58.1358" rx="2.5" ry="2.5" style="stroke:#181818;stroke-width:0.5;" width="169" x="263.5" y="147"/><text fill="#000000" font-family="sans-serif" font-size="14" lengthAdjust="spacing" textLength="27" x="273.5" y="171.9659">CFO</text><text fill="#000000" font-family="sans-serif" font-size="14" lengthAdjust="spacing" textLength="149" x="273.5" y="191.0339">Chief Financial Officer</text></g><!--entity CMO--><g id="elem_CMO"><rect fill="#F1F1F1" height="58.1358" rx="2.5" ry="2.5" style="stroke:#181818;stroke-width:0.5;" width="178" x="467" y="147"/><text fill="#000000" font-family="sans-serif" font-size="14" lengthAdjust="spacing" textLength="33" x="477" y="171.9659">CMO</text><text fill="#000000" font-family="sans-serif" font-size="14" lengthAdjust="spacing" textLength="158" x="477" y="191.0339">Chief Marketing Officer</text></g><g id="elem_GMN32"><path d="M836,6 L836,86.8241 A0,0 0 0 0 836,86.8241 L942,86.8241 L946,146.71 L950,86.8241 L1056,86.8241 A0,0 0 0 0 1056,86.8241 L1056,16 L1046,6 L836,6 A0,0 0 0 0 836,6 " fill="#FEFFDD" style="stroke:#181818;stroke-width:0.5;"/><path d="M1046,6 L1046,16 L1056,16 L1046,6 " fill="#FEFFDD" style="stroke:#181818;stroke-width:0.5;"/><text fill="#000000" font-family="sans-serif" font-size="13" lengthAdjust="spacing" textLength="115" x="842" y="24.897">Evoluci&#243;n hist&#243;rica:</text><text fill="#000000" font-family="sans-serif" font-size="13" lengthAdjust="spacing" textLength="131" x="842" y="42.603">1960-1980: Rol t&#233;cnico</text><text fill="#000000" font-family="sans-serif" font-size="13" lengthAdjust="spacing" textLength="199" x="842" y="60.309">1980-2000: Gestor de informaci&#243;n</text><text fill="#000000" font-family="sans-serif" font-size="13" lengthAdjust="spacing" textLength="158" x="842" y="78.0151">2000-presente: Estrat&#233;gico</text></g><g id="elem_GMN35"><path d="M1089.5,398.5 L1089.5,461.618 A0,0 0 0 0 1089.5,461.618 L1242.5,461.618 A0,0 0 0 0 1242.5,461.618 L1242.5,408.5 L1232.5,398.5 L1142.6,398.5 L1071.95,323.09 L1134.6,398.5 L1089.5,398.5 A0,0 0 0 0 1089.5,398.5 " fill="#FEFFDD" style="stroke:#181818;stroke-width:0.5;"/><path d="M1232.5,398.5 L1232.5,408.5 L1242.5,408.5 L1232.5,398.5 " fill="#FEFFDD" style="stroke:#181818;stroke-width:0.5;"/><text fill="#000000" font-family="sans-serif" font-size="13" lengthAdjust="spacing" textLength="125" x="1095.5" y="417.397">Surgimiento reciente</text><text fill="#000000" font-family="sans-serif" font-size="13" lengthAdjust="spacing" textLength="81" x="1095.5" y="435.103">para liderar la</text><text fill="#000000" font-family="sans-serif" font-size="13" lengthAdjust="spacing" textLength="132" x="1095.5" y="452.809">transformaci&#243;n digital</text></g><!--link CEO to COO--><g id="link_CEO_COO"><path d="M637.65,75.62 C647.71,82.4 656.67,90.75 663,101 C694.8,152.45 666.8988,219.9212 645.1788,259.4612 " fill="none" id="CEO-to-COO" style="stroke:#181818;stroke-width:1.0;"/><polygon fill="#181818" points="642.29,264.72,650.129,258.7576,644.6973,260.3377,643.1173,254.9059,642.29,264.72" style="stroke:#181818;stroke-width:1.0;"/></g><!--link CEO to CFO--><g id="link_CEO_CFO"><path d="M496.22,75.57 C480.89,83.34 464.61,92.09 450,101 C427.21,114.89 407.7653,128.7304 388.6353,143.2004 " fill="none" id="CEO-to-CFO" style="stroke:#181818;stroke-width:1.0;"/><polygon fill="#181818" points="383.85,146.82,393.4409,144.5808,387.8377,143.8037,388.6148,138.2005,383.85,146.82" style="stroke:#181818;stroke-width:1.0;"/></g><!--link CEO to CMO--><g id="link_CEO_CMO"><path d="M556,75.8 C556,96.93 556,119.67 556,140.78 " fill="none" id="CEO-to-CMO" style="stroke:#181818;stroke-width:1.0;"/><polygon fill="#181818" points="556,146.78,560,137.78,556,141.78,552,137.78,556,146.78" style="stroke:#181818;stroke-width:1.0;"/></g><!--link CEO to CIO--><g id="link_CEO_CIO"><path d="M642.4,74.77 C668.63,83.11 697.52,92.37 724,101 C769.97,115.98 815.4808,131.114 857.1208,145.064 " fill="none" id="CEO-to-CIO" style="stroke:#181818;stroke-width:1.0;"/><polygon fill="#181818" points="862.81,146.97,855.5468,140.3182,858.069,145.3817,853.0055,147.9039,862.81,146.97" style="stroke:#181818;stroke-width:1.0;"/></g><!--link CIO to CTO--><g id="link_CIO_CTO"><path d="M920.82,205.08 C904.59,223.18 887.5648,242.1722 871.3048,260.3122 " fill="none" id="CIO-to-CTO" style="stroke:#181818;stroke-width:1.0;"/><polygon fill="#181818" points="867.3,264.78,876.2858,260.7481,870.6373,261.0568,870.3286,255.4084,867.3,264.78" style="stroke:#181818;stroke-width:1.0;"/></g><!--link CIO to CDO--><g id="link_CIO_CDO"><path d="M970.45,205.08 C986.21,223.18 1002.7006,242.1144 1018.4906,260.2544 " fill="none" id="CIO-to-CDO" style="stroke:#181818;stroke-width:1.0;"/><polygon fill="#181818" points="1022.43,264.78,1019.5381,255.3653,1019.1472,261.0086,1013.5039,260.6178,1022.43,264.78" style="stroke:#181818;stroke-width:1.0;"/></g><!--link CIO to CDO2--><g id="link_CIO_CDO2"><path d="M1014.51,205.08 C1058.84,223.25 1110.7784,244.5442 1155.0784,262.7042 " fill="none" id="CIO-to-CDO2" style="stroke:#181818;stroke-width:1.0;"/><polygon fill="#181818" points="1160.63,264.98,1153.8197,257.8652,1156.0036,263.0835,1150.7853,265.2674,1160.63,264.98" style="stroke:#181818;stroke-width:1.0;"/></g><!--link COO to CDIVO--><g id="link_COO_CDIVO"><path d="M657.28,323.09 C683.57,345.96 715.9638,374.1513 742.2338,397.0113 " fill="none" id="COO-to-CDIVO" style="stroke:#181818;stroke-width:1.0;"/><polygon fill="#181818" points="746.76,400.95,742.5965,392.0245,742.9881,397.6678,737.3449,398.0594,746.76,400.95" style="stroke:#181818;stroke-width:1.0;"/></g><!--link COO to CRO--><g id="link_COO_CRO"><path d="M615.57,323.09 C607.89,345.96 599.0108,372.4024 591.3308,395.2624 " fill="none" id="COO-to-CRO" style="stroke:#181818;stroke-width:1.0;"/><polygon fill="#181818" points="589.42,400.95,596.0779,393.6925,591.0123,396.2103,588.4945,391.1447,589.42,400.95" style="stroke:#181818;stroke-width:1.0;"/></g><!--link CDO to CDEO--><g id="link_CDO_CDEO"><path d="M1032.12,323.09 C1020,345.96 1005.7905,372.789 993.6705,395.649 " fill="none" id="CDO-to-CDEO" style="stroke:#181818;stroke-width:1.0;"/><polygon fill="#181818" points="990.86,400.95,998.6098,394.8721,993.2021,396.5325,991.5418,391.1248,990.86,400.95" style="stroke:#181818;stroke-width:1.0;"/></g><!--link CEO to CCO--><g id="link_CEO_CCO"><path d="M469.78,51.05 C388.83,56.31 275.84,69.27 246,101 C167.52,184.47 188.4373,331.8422 201.8973,394.8922 " fill="none" id="CEO-to-CCO" style="stroke:#181818;stroke-width:1.0;"/><polygon fill="#181818" points="203.15,400.76,205.1829,391.1232,202.1061,395.8702,197.3592,392.7934,203.15,400.76" style="stroke:#181818;stroke-width:1.0;"/></g><!--link CCO to CXO--><g id="link_CCO_CXO"><path d="M187.25,459.08 C172.06,477.84 155.9268,497.7479 140.6968,516.5479 " fill="none" id="CCO-to-CXO" style="stroke:#181818;stroke-width:1.0;"/><polygon fill="#181818" points="136.92,521.21,145.6933,516.7347,140.0674,517.3249,139.4772,511.6989,136.92,521.21" style="stroke:#181818;stroke-width:1.0;"/></g><!--link CCO to CGO--><g id="link_CCO_CGO"><path d="M236.07,459.08 C253.48,477.84 272.2082,498.0124 289.6582,516.8124 " fill="none" id="CCO-to-CGO" style="stroke:#181818;stroke-width:1.0;"/><polygon fill="#181818" points="293.74,521.21,290.549,511.8924,290.3385,517.5453,284.6856,517.3348,293.74,521.21" style="stroke:#181818;stroke-width:1.0;"/></g><!--SRC=[TLJ1Zfim4Btp5QFSaTWSgjqSUW4IvH1PoaPL3hsuP23MWesCoUwswWVjeQVz17wiOqWTxAW7f37ptioRuHcDXU6ogX4MQSw-o_Gii8Jy3OlUY0i2AqjHe5u0xu00KQHd1EO8h4NDZP2LJs3CmwyTVYqabuNWjOzV-_YTm- -uVi7x-ZiIrFBYXLS4Fs0XLQsguGy7XAqibMvu8OPFkO1V4S2yyjPLlkACKDAllMK1v-0urEayjdhtAOUGaZbA9YfXmd6pU_pI4RZX8NeP_PxDcx_HqWNQDS8xfAhffIZ-Dt3gb11mGjgHExz56WewpYnnxHPuuXXIDewoqUhLd7tuXdapC5rnANvEgkqKVMrwpU_rPzjlirrUK7V21Dkta82rTvmzDie4qlTtwx_TW0mxKGMEeBGLJzS0ulZhw6uNhsUnTQKxa8tecUB3BCwyU4aCzkzavt0d4advQoPtbSSpVIvwfjnn5jEI8sd7DQe5LLwzd5zKtK-BFelE39-QJB2YnCFJboH-U7fCLh1NDPZXeo1_g37pcCJB9A7C1ZkZD9mGnEnc4SQcurPZXzBW2lBEq9zW-AXi1PGdi4AkSdueOrGpAXgj_zphIZHaAgFiTx01qkkMQmwrED4lHKFDWLvHJTdTsi9fkawt1dy1]--></g></svg>