<?xml version="1.0" encoding="us-ascii" standalone="no"?><svg xmlns="http://www.w3.org/2000/svg" xmlns:xlink="http://www.w3.org/1999/xlink" contentStyleType="text/css" height="979px" preserveAspectRatio="none" style="width:4415px;height:979px;background:#FFFFFF;" version="1.1" viewBox="0 0 4415 979" width="4415px" zoomAndPan="magnify"><defs/><g><!--cluster Tecnolog?a e informaci?n--><g id="cluster_Tecnolog&#237;a e informaci&#243;n"><path d="M8.5,312 L184.5,312 A3.75,3.75 0 0 1 187,314.5 L194,337.0679 L1385.5,337.0679 A2.5,2.5 0 0 1 1388,339.5679 L1388,627.5 A2.5,2.5 0 0 1 1385.5,630 L8.5,630 A2.5,2.5 0 0 1 6,627.5 L6,314.5 A2.5,2.5 0 0 1 8.5,312 " fill="none" style="stroke:#000000;stroke-width:1.5;"/><line style="stroke:#000000;stroke-width:1.5;" x1="6" x2="194" y1="337.0679" y2="337.0679"/><text fill="#000000" font-family="sans-serif" font-size="14" font-weight="bold" lengthAdjust="spacing" textLength="175" x="10" y="328.9659">Tecnolog&#237;a e informaci&#243;n</text></g><!--cluster Experiencia y comunicaci?n--><g id="cluster_Experiencia y comunicaci&#243;n"><path d="M1573.5,312 L1765.5,312 A3.75,3.75 0 0 1 1768,314.5 L1775,337.0679 L2354.5,337.0679 A2.5,2.5 0 0 1 2357,339.5679 L2357,627.5 A2.5,2.5 0 0 1 2354.5,630 L1573.5,630 A2.5,2.5 0 0 1 1571,627.5 L1571,314.5 A2.5,2.5 0 0 1 1573.5,312 " fill="none" style="stroke:#000000;stroke-width:1.5;"/><line style="stroke:#000000;stroke-width:1.5;" x1="1571" x2="1775" y1="337.0679" y2="337.0679"/><text fill="#000000" font-family="sans-serif" font-size="14" font-weight="bold" lengthAdjust="spacing" textLength="191" x="1575" y="328.9659">Experiencia y comunicaci&#243;n</text></g><!--cluster Organizaci?n y talento--><g id="cluster_Organizaci&#243;n y talento"><path d="M2383.5,312 L2541.5,312 A3.75,3.75 0 0 1 2544,314.5 L2551,337.0679 L3487.5,337.0679 A2.5,2.5 0 0 1 3490,339.5679 L3490,627.5 A2.5,2.5 0 0 1 3487.5,630 L2383.5,630 A2.5,2.5 0 0 1 2381,627.5 L2381,314.5 A2.5,2.5 0 0 1 2383.5,312 " fill="none" style="stroke:#000000;stroke-width:1.5;"/><line style="stroke:#000000;stroke-width:1.5;" x1="2381" x2="2551" y1="337.0679" y2="337.0679"/><text fill="#000000" font-family="sans-serif" font-size="14" font-weight="bold" lengthAdjust="spacing" textLength="157" x="2385" y="328.9659">Organizaci&#243;n y talento</text></g><!--cluster Cumplimiento y sostenibilidad--><g id="cluster_Cumplimiento y sostenibilidad"><path d="M3516.5,312 L3729.5,312 A3.75,3.75 0 0 1 3732,314.5 L3739,337.0679 L4405.5,337.0679 A2.5,2.5 0 0 1 4408,339.5679 L4408,627.5 A2.5,2.5 0 0 1 4405.5,630 L3516.5,630 A2.5,2.5 0 0 1 3514,627.5 L3514,314.5 A2.5,2.5 0 0 1 3516.5,312 " fill="none" style="stroke:#000000;stroke-width:1.5;"/><line style="stroke:#000000;stroke-width:1.5;" x1="3514" x2="3739" y1="337.0679" y2="337.0679"/><text fill="#000000" font-family="sans-serif" font-size="14" font-weight="bold" lengthAdjust="spacing" textLength="212" x="3518" y="328.9659">Cumplimiento y sostenibilidad</text></g><!--cluster Innovaci?n y futuro--><g id="cluster_Innovaci&#243;n y futuro"><path d="M1105.5,654 L1243.5,654 A3.75,3.75 0 0 1 1246,656.5 L1253,679.0679 L2238.5,679.0679 A2.5,2.5 0 0 1 2241,681.5679 L2241,969.5 A2.5,2.5 0 0 1 2238.5,972 L1105.5,972 A2.5,2.5 0 0 1 1103,969.5 L1103,656.5 A2.5,2.5 0 0 1 1105.5,654 " fill="none" style="stroke:#000000;stroke-width:1.5;"/><line style="stroke:#000000;stroke-width:1.5;" x1="1103" x2="1253" y1="679.0679" y2="679.0679"/><text fill="#000000" font-family="sans-serif" font-size="14" font-weight="bold" lengthAdjust="spacing" textLength="137" x="1107" y="670.9659">Innovaci&#243;n y futuro</text></g><!--class CIO--><g id="elem_CIO"><rect codeLine="26" fill="#F1F1F1" height="102.2717" id="CIO" rx="2.5" ry="2.5" style="stroke:#181818;stroke-width:0.5;" width="229" x="741.5" y="350"/><ellipse cx="769.1" cy="374.0679" fill="#ADD1B2" rx="11" ry="11" style="stroke:#181818;stroke-width:1.0;"/><path d="M772.0688,379.7085 Q771.4906,380.0054 770.85,380.146 Q770.2094,380.3023 769.5063,380.3023 Q767.0063,380.3023 765.6781,378.6617 Q764.3656,377.0054 764.3656,373.8804 Q764.3656,370.7554 765.6781,369.0992 Q767.0063,367.4429 769.5063,367.4429 Q770.2094,367.4429 770.85,367.5992 Q771.5063,367.7554 772.0688,368.0523 L772.0688,370.771 Q771.4438,370.1929 770.85,369.9273 Q770.2563,369.646 769.6313,369.646 Q768.2875,369.646 767.6,370.7242 Q766.9125,371.7867 766.9125,373.8804 Q766.9125,375.9742 767.6,377.0523 Q768.2875,378.1148 769.6313,378.1148 Q770.2563,378.1148 770.85,377.8492 Q771.4438,377.5679 772.0688,376.9898 L772.0688,379.7085 Z " fill="#000000"/><text fill="#000000" font-family="sans-serif" font-size="14" lengthAdjust="spacing" textLength="25" x="857.9" y="369.9659">CIO</text><text fill="#000000" font-family="sans-serif" font-size="14" lengthAdjust="spacing" textLength="169" x="785.9" y="389.0339">Chief Information Officer</text><line style="stroke:#181818;stroke-width:0.5;" x1="742.5" x2="969.5" y1="398.1358" y2="398.1358"/><line style="stroke:#181818;stroke-width:0.5;" x1="742.5" x2="969.5" y1="406.1358" y2="406.1358"/><ellipse cx="752.5" cy="421.1698" fill="#84BE84" rx="3" ry="3" style="stroke:#038048;stroke-width:1.0;"/><text fill="#000000" font-family="sans-serif" font-size="14" lengthAdjust="spacing" textLength="203" x="761.5" y="425.1018">definirEstrategiaInformaci&#243;n()</text><ellipse cx="752.5" cy="440.2377" fill="#84BE84" rx="3" ry="3" style="stroke:#038048;stroke-width:1.0;"/><text fill="#000000" font-family="sans-serif" font-size="14" lengthAdjust="spacing" textLength="191" x="761.5" y="444.1697">mejorarEficienciaOperativa()</text></g><!--class CTO--><g id="elem_CTO"><rect codeLine="31" fill="#F1F1F1" height="102.2717" id="CTO" rx="2.5" ry="2.5" style="stroke:#181818;stroke-width:0.5;" width="251" x="22.5" y="512"/><ellipse cx="61.35" cy="536.0679" fill="#ADD1B2" rx="11" ry="11" style="stroke:#181818;stroke-width:1.0;"/><path d="M64.3188,541.7085 Q63.7406,542.0054 63.1,542.146 Q62.4594,542.3023 61.7563,542.3023 Q59.2563,542.3023 57.9281,540.6617 Q56.6156,539.0054 56.6156,535.8804 Q56.6156,532.7554 57.9281,531.0992 Q59.2563,529.4429 61.7563,529.4429 Q62.4594,529.4429 63.1,529.5992 Q63.7563,529.7554 64.3188,530.0523 L64.3188,532.771 Q63.6938,532.1929 63.1,531.9273 Q62.5063,531.646 61.8813,531.646 Q60.5375,531.646 59.85,532.7242 Q59.1625,533.7867 59.1625,535.8804 Q59.1625,537.9742 59.85,539.0523 Q60.5375,540.1148 61.8813,540.1148 Q62.5063,540.1148 63.1,539.8492 Q63.6938,539.5679 64.3188,538.9898 L64.3188,541.7085 Z " fill="#000000"/><text fill="#000000" font-family="sans-serif" font-size="14" lengthAdjust="spacing" textLength="28" x="149.65" y="531.9659">CTO</text><text fill="#000000" font-family="sans-serif" font-size="14" lengthAdjust="spacing" textLength="166" x="80.65" y="551.0339">Chief Technology Officer</text><line style="stroke:#181818;stroke-width:0.5;" x1="23.5" x2="272.5" y1="560.1358" y2="560.1358"/><line style="stroke:#181818;stroke-width:0.5;" x1="23.5" x2="272.5" y1="568.1358" y2="568.1358"/><ellipse cx="33.5" cy="583.1698" fill="#84BE84" rx="3" ry="3" style="stroke:#038048;stroke-width:1.0;"/><text fill="#000000" font-family="sans-serif" font-size="14" lengthAdjust="spacing" textLength="155" x="42.5" y="587.1018">desarrollarTecnolog&#237;a()</text><ellipse cx="33.5" cy="602.2377" fill="#84BE84" rx="3" ry="3" style="stroke:#038048;stroke-width:1.0;"/><text fill="#000000" font-family="sans-serif" font-size="14" lengthAdjust="spacing" textLength="225" x="42.5" y="606.1697">implementarSolucionesT&#233;cnicas()</text></g><!--class CISO--><g id="elem_CISO"><rect codeLine="36" fill="#F1F1F1" height="102.2717" id="CISO" rx="2.5" ry="2.5" style="stroke:#181818;stroke-width:0.5;" width="270" x="309" y="512"/><ellipse cx="328.95" cy="536.0679" fill="#ADD1B2" rx="11" ry="11" style="stroke:#181818;stroke-width:1.0;"/><path d="M331.9188,541.7085 Q331.3406,542.0054 330.7,542.146 Q330.0594,542.3023 329.3563,542.3023 Q326.8563,542.3023 325.5281,540.6617 Q324.2156,539.0054 324.2156,535.8804 Q324.2156,532.7554 325.5281,531.0992 Q326.8563,529.4429 329.3563,529.4429 Q330.0594,529.4429 330.7,529.5992 Q331.3563,529.7554 331.9188,530.0523 L331.9188,532.771 Q331.2938,532.1929 330.7,531.9273 Q330.1063,531.646 329.4813,531.646 Q328.1375,531.646 327.45,532.7242 Q326.7625,533.7867 326.7625,535.8804 Q326.7625,537.9742 327.45,539.0523 Q328.1375,540.1148 329.4813,540.1148 Q330.1063,540.1148 330.7,539.8492 Q331.2938,539.5679 331.9188,538.9898 L331.9188,541.7085 Z " fill="#000000"/><text fill="#000000" font-family="sans-serif" font-size="14" lengthAdjust="spacing" textLength="33" x="441.05" y="531.9659">CISO</text><text fill="#000000" font-family="sans-serif" font-size="14" lengthAdjust="spacing" textLength="227" x="344.05" y="551.0339">Chief Information Security Officer</text><line style="stroke:#181818;stroke-width:0.5;" x1="310" x2="578" y1="560.1358" y2="560.1358"/><line style="stroke:#181818;stroke-width:0.5;" x1="310" x2="578" y1="568.1358" y2="568.1358"/><ellipse cx="320" cy="583.1698" fill="#84BE84" rx="3" ry="3" style="stroke:#038048;stroke-width:1.0;"/><text fill="#000000" font-family="sans-serif" font-size="14" lengthAdjust="spacing" textLength="142" x="329" y="587.1018">gestionarSeguridad()</text><ellipse cx="320" cy="602.2377" fill="#84BE84" rx="3" ry="3" style="stroke:#038048;stroke-width:1.0;"/><text fill="#000000" font-family="sans-serif" font-size="14" lengthAdjust="spacing" textLength="244" x="329" y="606.1697">supervisarCumplimientoNormativo()</text></g><!--class CDO--><g id="elem_CDO"><rect codeLine="41" fill="#F1F1F1" height="102.2717" id="CDO" rx="2.5" ry="2.5" style="stroke:#181818;stroke-width:0.5;" width="229" x="614.5" y="512"/><ellipse cx="658.3" cy="536.0679" fill="#ADD1B2" rx="11" ry="11" style="stroke:#181818;stroke-width:1.0;"/><path d="M661.2688,541.7085 Q660.6906,542.0054 660.05,542.146 Q659.4094,542.3023 658.7063,542.3023 Q656.2063,542.3023 654.8781,540.6617 Q653.5656,539.0054 653.5656,535.8804 Q653.5656,532.7554 654.8781,531.0992 Q656.2063,529.4429 658.7063,529.4429 Q659.4094,529.4429 660.05,529.5992 Q660.7063,529.7554 661.2688,530.0523 L661.2688,532.771 Q660.6438,532.1929 660.05,531.9273 Q659.4563,531.646 658.8313,531.646 Q657.4875,531.646 656.8,532.7242 Q656.1125,533.7867 656.1125,535.8804 Q656.1125,537.9742 656.8,539.0523 Q657.4875,540.1148 658.8313,540.1148 Q659.4563,540.1148 660.05,539.8492 Q660.6438,539.5679 661.2688,538.9898 L661.2688,541.7085 Z " fill="#000000"/><text fill="#000000" font-family="sans-serif" font-size="14" lengthAdjust="spacing" textLength="30" x="730.2" y="531.9659">CDO</text><text fill="#000000" font-family="sans-serif" font-size="14" lengthAdjust="spacing" textLength="133" x="678.7" y="551.0339">Chief Digital Officer</text><line style="stroke:#181818;stroke-width:0.5;" x1="615.5" x2="842.5" y1="560.1358" y2="560.1358"/><line style="stroke:#181818;stroke-width:0.5;" x1="615.5" x2="842.5" y1="568.1358" y2="568.1358"/><ellipse cx="625.5" cy="583.1698" fill="#84BE84" rx="3" ry="3" style="stroke:#038048;stroke-width:1.0;"/><text fill="#000000" font-family="sans-serif" font-size="14" lengthAdjust="spacing" textLength="203" x="634.5" y="587.1018">liderarTransformaci&#243;nDigital()</text><ellipse cx="625.5" cy="602.2377" fill="#84BE84" rx="3" ry="3" style="stroke:#038048;stroke-width:1.0;"/><text fill="#000000" font-family="sans-serif" font-size="14" lengthAdjust="spacing" textLength="143" x="634.5" y="606.1697">integrarTecnolog&#237;as()</text></g><!--class CDataO--><g id="elem_CDataO"><rect codeLine="46" fill="#F1F1F1" height="102.2717" id="CDataO" rx="2.5" ry="2.5" style="stroke:#181818;stroke-width:0.5;" width="224" x="879" y="512"/><ellipse cx="926.75" cy="536.0679" fill="#ADD1B2" rx="11" ry="11" style="stroke:#181818;stroke-width:1.0;"/><path d="M929.7188,541.7085 Q929.1406,542.0054 928.5,542.146 Q927.8594,542.3023 927.1563,542.3023 Q924.6563,542.3023 923.3281,540.6617 Q922.0156,539.0054 922.0156,535.8804 Q922.0156,532.7554 923.3281,531.0992 Q924.6563,529.4429 927.1563,529.4429 Q927.8594,529.4429 928.5,529.5992 Q929.1563,529.7554 929.7188,530.0523 L929.7188,532.771 Q929.0938,532.1929 928.5,531.9273 Q927.9063,531.646 927.2813,531.646 Q925.9375,531.646 925.25,532.7242 Q924.5625,533.7867 924.5625,535.8804 Q924.5625,537.9742 925.25,539.0523 Q925.9375,540.1148 927.2813,540.1148 Q927.9063,540.1148 928.5,539.8492 Q929.0938,539.5679 929.7188,538.9898 L929.7188,541.7085 Z " fill="#000000"/><text fill="#000000" font-family="sans-serif" font-size="14" lengthAdjust="spacing" textLength="30" x="992.25" y="531.9659">CDO</text><text fill="#000000" font-family="sans-serif" font-size="14" lengthAdjust="spacing" textLength="120" x="947.25" y="551.0339">Chief Data Officer</text><line style="stroke:#181818;stroke-width:0.5;" x1="880" x2="1102" y1="560.1358" y2="560.1358"/><line style="stroke:#181818;stroke-width:0.5;" x1="880" x2="1102" y1="568.1358" y2="568.1358"/><ellipse cx="890" cy="583.1698" fill="#84BE84" rx="3" ry="3" style="stroke:#038048;stroke-width:1.0;"/><text fill="#000000" font-family="sans-serif" font-size="14" lengthAdjust="spacing" textLength="159" x="899" y="587.1018">definirEstrategiaDatos()</text><ellipse cx="890" cy="602.2377" fill="#84BE84" rx="3" ry="3" style="stroke:#038048;stroke-width:1.0;"/><text fill="#000000" font-family="sans-serif" font-size="14" lengthAdjust="spacing" textLength="198" x="899" y="606.1697">establecerGobernanzaDatos()</text></g><!--class CAO--><g id="elem_CAO"><rect codeLine="51" fill="#F1F1F1" height="102.2717" id="CAO" rx="2.5" ry="2.5" style="stroke:#181818;stroke-width:0.5;" width="234" x="1138" y="512"/><ellipse cx="1176.85" cy="536.0679" fill="#ADD1B2" rx="11" ry="11" style="stroke:#181818;stroke-width:1.0;"/><path d="M1179.8188,541.7085 Q1179.2406,542.0054 1178.6,542.146 Q1177.9594,542.3023 1177.2563,542.3023 Q1174.7563,542.3023 1173.4281,540.6617 Q1172.1156,539.0054 1172.1156,535.8804 Q1172.1156,532.7554 1173.4281,531.0992 Q1174.7563,529.4429 1177.2563,529.4429 Q1177.9594,529.4429 1178.6,529.5992 Q1179.2563,529.7554 1179.8188,530.0523 L1179.8188,532.771 Q1179.1938,532.1929 1178.6,531.9273 Q1178.0063,531.646 1177.3813,531.646 Q1176.0375,531.646 1175.35,532.7242 Q1174.6625,533.7867 1174.6625,535.8804 Q1174.6625,537.9742 1175.35,539.0523 Q1176.0375,540.1148 1177.3813,540.1148 Q1178.0063,540.1148 1178.6,539.8492 Q1179.1938,539.5679 1179.8188,538.9898 L1179.8188,541.7085 Z " fill="#000000"/><text fill="#000000" font-family="sans-serif" font-size="14" lengthAdjust="spacing" textLength="29" x="1256.15" y="531.9659">CAO</text><text fill="#000000" font-family="sans-serif" font-size="14" lengthAdjust="spacing" textLength="149" x="1196.15" y="551.0339">Chief Analytics Officer</text><line style="stroke:#181818;stroke-width:0.5;" x1="1139" x2="1371" y1="560.1358" y2="560.1358"/><line style="stroke:#181818;stroke-width:0.5;" x1="1139" x2="1371" y1="568.1358" y2="568.1358"/><ellipse cx="1149" cy="583.1698" fill="#84BE84" rx="3" ry="3" style="stroke:#038048;stroke-width:1.0;"/><text fill="#000000" font-family="sans-serif" font-size="14" lengthAdjust="spacing" textLength="208" x="1158" y="587.1018">desarrollarEstrategiaAnal&#237;tica()</text><ellipse cx="1149" cy="602.2377" fill="#84BE84" rx="3" ry="3" style="stroke:#038048;stroke-width:1.0;"/><text fill="#000000" font-family="sans-serif" font-size="14" lengthAdjust="spacing" textLength="205" x="1158" y="606.1697">generarInformesEstrat&#233;gicos()</text></g><!--class CCO--><g id="elem_CCO"><rect codeLine="58" fill="#F1F1F1" height="102.2717" id="CCO" rx="2.5" ry="2.5" style="stroke:#181818;stroke-width:0.5;" width="242" x="1587" y="350"/><ellipse cx="1605.6" cy="374.0679" fill="#ADD1B2" rx="11" ry="11" style="stroke:#181818;stroke-width:1.0;"/><path d="M1608.5688,379.7085 Q1607.9906,380.0054 1607.35,380.146 Q1606.7094,380.3023 1606.0063,380.3023 Q1603.5063,380.3023 1602.1781,378.6617 Q1600.8656,377.0054 1600.8656,373.8804 Q1600.8656,370.7554 1602.1781,369.0992 Q1603.5063,367.4429 1606.0063,367.4429 Q1606.7094,367.4429 1607.35,367.5992 Q1608.0063,367.7554 1608.5688,368.0523 L1608.5688,370.771 Q1607.9438,370.1929 1607.35,369.9273 Q1606.7563,369.646 1606.1313,369.646 Q1604.7875,369.646 1604.1,370.7242 Q1603.4125,371.7867 1603.4125,373.8804 Q1603.4125,375.9742 1604.1,377.0523 Q1604.7875,378.1148 1606.1313,378.1148 Q1606.7563,378.1148 1607.35,377.8492 Q1607.9438,377.5679 1608.5688,376.9898 L1608.5688,379.7085 Z " fill="#000000"/><text fill="#000000" font-family="sans-serif" font-size="14" lengthAdjust="spacing" textLength="29" x="1706.9" y="369.9659">CCO</text><text fill="#000000" font-family="sans-serif" font-size="14" lengthAdjust="spacing" textLength="202" x="1620.4" y="389.0339">Chief Communications Officer</text><line style="stroke:#181818;stroke-width:0.5;" x1="1588" x2="1828" y1="398.1358" y2="398.1358"/><line style="stroke:#181818;stroke-width:0.5;" x1="1588" x2="1828" y1="406.1358" y2="406.1358"/><ellipse cx="1598" cy="421.1698" fill="#84BE84" rx="3" ry="3" style="stroke:#038048;stroke-width:1.0;"/><text fill="#000000" font-family="sans-serif" font-size="14" lengthAdjust="spacing" textLength="216" x="1607" y="425.1018">definirEstrategiaComunicaci&#243;n()</text><ellipse cx="1598" cy="440.2377" fill="#84BE84" rx="3" ry="3" style="stroke:#038048;stroke-width:1.0;"/><text fill="#000000" font-family="sans-serif" font-size="14" lengthAdjust="spacing" textLength="120" x="1607" y="444.1697">posicionarMarca()</text></g><!--class CXO--><g id="elem_CXO"><rect codeLine="63" fill="#F1F1F1" height="102.2717" id="CXO" rx="2.5" ry="2.5" style="stroke:#181818;stroke-width:0.5;" width="212" x="1602" y="512"/><ellipse cx="1624.65" cy="536.0679" fill="#ADD1B2" rx="11" ry="11" style="stroke:#181818;stroke-width:1.0;"/><path d="M1627.6188,541.7085 Q1627.0406,542.0054 1626.4,542.146 Q1625.7594,542.3023 1625.0563,542.3023 Q1622.5563,542.3023 1621.2281,540.6617 Q1619.9156,539.0054 1619.9156,535.8804 Q1619.9156,532.7554 1621.2281,531.0992 Q1622.5563,529.4429 1625.0563,529.4429 Q1625.7594,529.4429 1626.4,529.5992 Q1627.0563,529.7554 1627.6188,530.0523 L1627.6188,532.771 Q1626.9938,532.1929 1626.4,531.9273 Q1625.8063,531.646 1625.1813,531.646 Q1623.8375,531.646 1623.15,532.7242 Q1622.4625,533.7867 1622.4625,535.8804 Q1622.4625,537.9742 1623.15,539.0523 Q1623.8375,540.1148 1625.1813,540.1148 Q1625.8063,540.1148 1626.4,539.8492 Q1626.9938,539.5679 1627.6188,538.9898 L1627.6188,541.7085 Z " fill="#000000"/><text fill="#000000" font-family="sans-serif" font-size="14" lengthAdjust="spacing" textLength="28" x="1707.85" y="531.9659">CXO</text><text fill="#000000" font-family="sans-serif" font-size="14" lengthAdjust="spacing" textLength="163" x="1640.35" y="551.0339">Chief Experience Officer</text><line style="stroke:#181818;stroke-width:0.5;" x1="1603" x2="1813" y1="560.1358" y2="560.1358"/><line style="stroke:#181818;stroke-width:0.5;" x1="1603" x2="1813" y1="568.1358" y2="568.1358"/><ellipse cx="1613" cy="583.1698" fill="#84BE84" rx="3" ry="3" style="stroke:#038048;stroke-width:1.0;"/><text fill="#000000" font-family="sans-serif" font-size="14" lengthAdjust="spacing" textLength="186" x="1622" y="587.1018">mejorarExperienciaCliente()</text><ellipse cx="1613" cy="602.2377" fill="#84BE84" rx="3" ry="3" style="stroke:#038048;stroke-width:1.0;"/><text fill="#000000" font-family="sans-serif" font-size="14" lengthAdjust="spacing" textLength="171" x="1622" y="606.1697">gestionarJornadaCliente()</text></g><!--class CGO--><g id="elem_CGO"><rect codeLine="68" fill="#F1F1F1" height="102.2717" id="CGO" rx="2.5" ry="2.5" style="stroke:#181818;stroke-width:0.5;" width="234" x="1864" y="350"/><ellipse cx="1907.8" cy="374.0679" fill="#ADD1B2" rx="11" ry="11" style="stroke:#181818;stroke-width:1.0;"/><path d="M1910.7688,379.7085 Q1910.1906,380.0054 1909.55,380.146 Q1908.9094,380.3023 1908.2063,380.3023 Q1905.7063,380.3023 1904.3781,378.6617 Q1903.0656,377.0054 1903.0656,373.8804 Q1903.0656,370.7554 1904.3781,369.0992 Q1905.7063,367.4429 1908.2063,367.4429 Q1908.9094,367.4429 1909.55,367.5992 Q1910.2063,367.7554 1910.7688,368.0523 L1910.7688,370.771 Q1910.1438,370.1929 1909.55,369.9273 Q1908.9563,369.646 1908.3313,369.646 Q1906.9875,369.646 1906.3,370.7242 Q1905.6125,371.7867 1905.6125,373.8804 Q1905.6125,375.9742 1906.3,377.0523 Q1906.9875,378.1148 1908.3313,378.1148 Q1908.9563,378.1148 1909.55,377.8492 Q1910.1438,377.5679 1910.7688,376.9898 L1910.7688,379.7085 Z " fill="#000000"/><text fill="#000000" font-family="sans-serif" font-size="14" lengthAdjust="spacing" textLength="30" x="1982.2" y="369.9659">CGO</text><text fill="#000000" font-family="sans-serif" font-size="14" lengthAdjust="spacing" textLength="138" x="1928.2" y="389.0339">Chief Growth Officer</text><line style="stroke:#181818;stroke-width:0.5;" x1="1865" x2="2097" y1="398.1358" y2="398.1358"/><line style="stroke:#181818;stroke-width:0.5;" x1="1865" x2="2097" y1="406.1358" y2="406.1358"/><ellipse cx="1875" cy="421.1698" fill="#84BE84" rx="3" ry="3" style="stroke:#038048;stroke-width:1.0;"/><text fill="#000000" font-family="sans-serif" font-size="14" lengthAdjust="spacing" textLength="208" x="1884" y="425.1018">dise&#241;arEstrategiaCrecimiento()</text><ellipse cx="1875" cy="440.2377" fill="#84BE84" rx="3" ry="3" style="stroke:#038048;stroke-width:1.0;"/><text fill="#000000" font-family="sans-serif" font-size="14" lengthAdjust="spacing" textLength="134" x="1884" y="444.1697">expandirMercados()</text></g><!--class CPO--><g id="elem_CPO"><rect codeLine="73" fill="#F1F1F1" height="102.2717" id="CPO" rx="2.5" ry="2.5" style="stroke:#181818;stroke-width:0.5;" width="207" x="2133.5" y="350"/><ellipse cx="2163.8" cy="374.0679" fill="#ADD1B2" rx="11" ry="11" style="stroke:#181818;stroke-width:1.0;"/><path d="M2166.7688,379.7085 Q2166.1906,380.0054 2165.55,380.146 Q2164.9094,380.3023 2164.2063,380.3023 Q2161.7063,380.3023 2160.3781,378.6617 Q2159.0656,377.0054 2159.0656,373.8804 Q2159.0656,370.7554 2160.3781,369.0992 Q2161.7063,367.4429 2164.2063,367.4429 Q2164.9094,367.4429 2165.55,367.5992 Q2166.2063,367.7554 2166.7688,368.0523 L2166.7688,370.771 Q2166.1438,370.1929 2165.55,369.9273 Q2164.9563,369.646 2164.3313,369.646 Q2162.9875,369.646 2162.3,370.7242 Q2161.6125,371.7867 2161.6125,373.8804 Q2161.6125,375.9742 2162.3,377.0523 Q2162.9875,378.1148 2164.3313,378.1148 Q2164.9563,378.1148 2165.55,377.8492 Q2166.1438,377.5679 2166.7688,376.9898 L2166.7688,379.7085 Z " fill="#000000"/><text fill="#000000" font-family="sans-serif" font-size="14" lengthAdjust="spacing" textLength="28" x="2237.7" y="369.9659">CPO</text><text fill="#000000" font-family="sans-serif" font-size="14" lengthAdjust="spacing" textLength="141" x="2181.2" y="389.0339">Chief Product Officer</text><line style="stroke:#181818;stroke-width:0.5;" x1="2134.5" x2="2339.5" y1="398.1358" y2="398.1358"/><line style="stroke:#181818;stroke-width:0.5;" x1="2134.5" x2="2339.5" y1="406.1358" y2="406.1358"/><ellipse cx="2144.5" cy="421.1698" fill="#84BE84" rx="3" ry="3" style="stroke:#038048;stroke-width:1.0;"/><text fill="#000000" font-family="sans-serif" font-size="14" lengthAdjust="spacing" textLength="181" x="2153.5" y="425.1018">definirEstrategiaProducto()</text><ellipse cx="2144.5" cy="440.2377" fill="#84BE84" rx="3" ry="3" style="stroke:#038048;stroke-width:1.0;"/><text fill="#000000" font-family="sans-serif" font-size="14" lengthAdjust="spacing" textLength="161" x="2153.5" y="444.1697">desarrollarHojaDeRuta()</text></g><!--class CBO--><g id="elem_CBO"><rect codeLine="78" fill="#F1F1F1" height="102.2717" id="CBO" rx="2.5" ry="2.5" style="stroke:#181818;stroke-width:0.5;" width="218" x="1849" y="512"/><ellipse cx="1889.2" cy="536.0679" fill="#ADD1B2" rx="11" ry="11" style="stroke:#181818;stroke-width:1.0;"/><path d="M1892.1688,541.7085 Q1891.5906,542.0054 1890.95,542.146 Q1890.3094,542.3023 1889.6063,542.3023 Q1887.1063,542.3023 1885.7781,540.6617 Q1884.4656,539.0054 1884.4656,535.8804 Q1884.4656,532.7554 1885.7781,531.0992 Q1887.1063,529.4429 1889.6063,529.4429 Q1890.3094,529.4429 1890.95,529.5992 Q1891.6063,529.7554 1892.1688,530.0523 L1892.1688,532.771 Q1891.5438,532.1929 1890.95,531.9273 Q1890.3563,531.646 1889.7313,531.646 Q1888.3875,531.646 1887.7,532.7242 Q1887.0125,533.7867 1887.0125,535.8804 Q1887.0125,537.9742 1887.7,539.0523 Q1888.3875,540.1148 1889.7313,540.1148 Q1890.3563,540.1148 1890.95,539.8492 Q1891.5438,539.5679 1892.1688,538.9898 L1892.1688,541.7085 Z " fill="#000000"/><text fill="#000000" font-family="sans-serif" font-size="14" lengthAdjust="spacing" textLength="29" x="1959.3" y="531.9659">CBO</text><text fill="#000000" font-family="sans-serif" font-size="14" lengthAdjust="spacing" textLength="130" x="1908.8" y="551.0339">Chief Brand Officer</text><line style="stroke:#181818;stroke-width:0.5;" x1="1850" x2="2066" y1="560.1358" y2="560.1358"/><line style="stroke:#181818;stroke-width:0.5;" x1="1850" x2="2066" y1="568.1358" y2="568.1358"/><ellipse cx="1860" cy="583.1698" fill="#84BE84" rx="3" ry="3" style="stroke:#038048;stroke-width:1.0;"/><text fill="#000000" font-family="sans-serif" font-size="14" lengthAdjust="spacing" textLength="192" x="1869" y="587.1018">desarrollarEstrategiaMarca()</text><ellipse cx="1860" cy="602.2377" fill="#84BE84" rx="3" ry="3" style="stroke:#038048;stroke-width:1.0;"/><text fill="#000000" font-family="sans-serif" font-size="14" lengthAdjust="spacing" textLength="163" x="1869" y="606.1697">construirValorDeMarca()</text></g><!--class CHRO--><g id="elem_CHRO"><rect codeLine="85" fill="#F1F1F1" height="102.2717" id="CHRO" rx="2.5" ry="2.5" style="stroke:#181818;stroke-width:0.5;" width="243" x="2681.5" y="350"/><ellipse cx="2696.5" cy="374.0679" fill="#ADD1B2" rx="11" ry="11" style="stroke:#181818;stroke-width:1.0;"/><path d="M2699.4688,379.7085 Q2698.8906,380.0054 2698.25,380.146 Q2697.6094,380.3023 2696.9063,380.3023 Q2694.4063,380.3023 2693.0781,378.6617 Q2691.7656,377.0054 2691.7656,373.8804 Q2691.7656,370.7554 2693.0781,369.0992 Q2694.4063,367.4429 2696.9063,367.4429 Q2697.6094,367.4429 2698.25,367.5992 Q2698.9063,367.7554 2699.4688,368.0523 L2699.4688,370.771 Q2698.8438,370.1929 2698.25,369.9273 Q2697.6563,369.646 2697.0313,369.646 Q2695.6875,369.646 2695,370.7242 Q2694.3125,371.7867 2694.3125,373.8804 Q2694.3125,375.9742 2695,377.0523 Q2695.6875,378.1148 2697.0313,378.1148 Q2697.6563,378.1148 2698.25,377.8492 Q2698.8438,377.5679 2699.4688,376.9898 L2699.4688,379.7085 Z " fill="#000000"/><text fill="#000000" font-family="sans-serif" font-size="14" lengthAdjust="spacing" textLength="39" x="2796.5" y="369.9659">CHRO</text><text fill="#000000" font-family="sans-serif" font-size="14" lengthAdjust="spacing" textLength="211" x="2710.5" y="389.0339">Chief Human Resources Officer</text><line style="stroke:#181818;stroke-width:0.5;" x1="2682.5" x2="2923.5" y1="398.1358" y2="398.1358"/><line style="stroke:#181818;stroke-width:0.5;" x1="2682.5" x2="2923.5" y1="406.1358" y2="406.1358"/><ellipse cx="2692.5" cy="421.1698" fill="#84BE84" rx="3" ry="3" style="stroke:#038048;stroke-width:1.0;"/><text fill="#000000" font-family="sans-serif" font-size="14" lengthAdjust="spacing" textLength="122" x="2701.5" y="425.1018">gestionarTalento()</text><ellipse cx="2692.5" cy="440.2377" fill="#84BE84" rx="3" ry="3" style="stroke:#038048;stroke-width:1.0;"/><text fill="#000000" font-family="sans-serif" font-size="14" lengthAdjust="spacing" textLength="172" x="2701.5" y="444.1697">desarrollarOrganizaci&#243;n()</text></g><!--class CLO--><g id="elem_CLO"><rect codeLine="90" fill="#F1F1F1" height="102.2717" id="CLO" rx="2.5" ry="2.5" style="stroke:#181818;stroke-width:0.5;" width="212" x="2971" y="512"/><ellipse cx="2999.95" cy="536.0679" fill="#ADD1B2" rx="11" ry="11" style="stroke:#181818;stroke-width:1.0;"/><path d="M3002.9188,541.7085 Q3002.3406,542.0054 3001.7,542.146 Q3001.0594,542.3023 3000.3563,542.3023 Q2997.8563,542.3023 2996.5281,540.6617 Q2995.2156,539.0054 2995.2156,535.8804 Q2995.2156,532.7554 2996.5281,531.0992 Q2997.8563,529.4429 3000.3563,529.4429 Q3001.0594,529.4429 3001.7,529.5992 Q3002.3563,529.7554 3002.9188,530.0523 L3002.9188,532.771 Q3002.2938,532.1929 3001.7,531.9273 Q3001.1063,531.646 3000.4813,531.646 Q2999.1375,531.646 2998.45,532.7242 Q2997.7625,533.7867 2997.7625,535.8804 Q2997.7625,537.9742 2998.45,539.0523 Q2999.1375,540.1148 3000.4813,540.1148 Q3001.1063,540.1148 3001.7,539.8492 Q3002.2938,539.5679 3002.9188,538.9898 L3002.9188,541.7085 Z " fill="#000000"/><text fill="#000000" font-family="sans-serif" font-size="14" lengthAdjust="spacing" textLength="27" x="3078.05" y="531.9659">CLO</text><text fill="#000000" font-family="sans-serif" font-size="14" lengthAdjust="spacing" textLength="149" x="3017.05" y="551.0339">Chief Learning Officer</text><line style="stroke:#181818;stroke-width:0.5;" x1="2972" x2="3182" y1="560.1358" y2="560.1358"/><line style="stroke:#181818;stroke-width:0.5;" x1="2972" x2="3182" y1="568.1358" y2="568.1358"/><ellipse cx="2982" cy="583.1698" fill="#84BE84" rx="3" ry="3" style="stroke:#038048;stroke-width:1.0;"/><text fill="#000000" font-family="sans-serif" font-size="14" lengthAdjust="spacing" textLength="186" x="2991" y="587.1018">crearProgramasFormaci&#243;n()</text><ellipse cx="2982" cy="602.2377" fill="#84BE84" rx="3" ry="3" style="stroke:#038048;stroke-width:1.0;"/><text fill="#000000" font-family="sans-serif" font-size="14" lengthAdjust="spacing" textLength="177" x="2991" y="606.1697">desarrollarCompetencias()</text></g><!--class CPeopleO--><g id="elem_CPeopleO"><rect codeLine="95" fill="#F1F1F1" height="102.2717" id="CPeopleO" rx="2.5" ry="2.5" style="stroke:#181818;stroke-width:0.5;" width="255" x="3218.5" y="512"/><ellipse cx="3274.75" cy="536.0679" fill="#ADD1B2" rx="11" ry="11" style="stroke:#181818;stroke-width:1.0;"/><path d="M3277.7188,541.7085 Q3277.1406,542.0054 3276.5,542.146 Q3275.8594,542.3023 3275.1563,542.3023 Q3272.6563,542.3023 3271.3281,540.6617 Q3270.0156,539.0054 3270.0156,535.8804 Q3270.0156,532.7554 3271.3281,531.0992 Q3272.6563,529.4429 3275.1563,529.4429 Q3275.8594,529.4429 3276.5,529.5992 Q3277.1563,529.7554 3277.7188,530.0523 L3277.7188,532.771 Q3277.0938,532.1929 3276.5,531.9273 Q3275.9063,531.646 3275.2813,531.646 Q3273.9375,531.646 3273.25,532.7242 Q3272.5625,533.7867 3272.5625,535.8804 Q3272.5625,537.9742 3273.25,539.0523 Q3273.9375,540.1148 3275.2813,540.1148 Q3275.9063,540.1148 3276.5,539.8492 Q3277.0938,539.5679 3277.7188,538.9898 L3277.7188,541.7085 Z " fill="#000000"/><text fill="#000000" font-family="sans-serif" font-size="14" lengthAdjust="spacing" textLength="28" x="3348.25" y="531.9659">CPO</text><text fill="#000000" font-family="sans-serif" font-size="14" lengthAdjust="spacing" textLength="134" x="3295.25" y="551.0339">Chief People Officer</text><line style="stroke:#181818;stroke-width:0.5;" x1="3219.5" x2="3472.5" y1="560.1358" y2="560.1358"/><line style="stroke:#181818;stroke-width:0.5;" x1="3219.5" x2="3472.5" y1="568.1358" y2="568.1358"/><ellipse cx="3229.5" cy="583.1698" fill="#84BE84" rx="3" ry="3" style="stroke:#038048;stroke-width:1.0;"/><text fill="#000000" font-family="sans-serif" font-size="14" lengthAdjust="spacing" textLength="122" x="3238.5" y="587.1018">gestionarCultura()</text><ellipse cx="3229.5" cy="602.2377" fill="#84BE84" rx="3" ry="3" style="stroke:#038048;stroke-width:1.0;"/><text fill="#000000" font-family="sans-serif" font-size="14" lengthAdjust="spacing" textLength="229" x="3238.5" y="606.1697">fomentarCompromisoEmpleados()</text></g><!--class CWO--><g id="elem_CWO"><rect codeLine="100" fill="#F1F1F1" height="102.2717" id="CWO" rx="2.5" ry="2.5" style="stroke:#181818;stroke-width:0.5;" width="237" x="2397.5" y="512"/><ellipse cx="2437.7" cy="536.0679" fill="#ADD1B2" rx="11" ry="11" style="stroke:#181818;stroke-width:1.0;"/><path d="M2440.6688,541.7085 Q2440.0906,542.0054 2439.45,542.146 Q2438.8094,542.3023 2438.1063,542.3023 Q2435.6063,542.3023 2434.2781,540.6617 Q2432.9656,539.0054 2432.9656,535.8804 Q2432.9656,532.7554 2434.2781,531.0992 Q2435.6063,529.4429 2438.1063,529.4429 Q2438.8094,529.4429 2439.45,529.5992 Q2440.1063,529.7554 2440.6688,530.0523 L2440.6688,532.771 Q2440.0438,532.1929 2439.45,531.9273 Q2438.8563,531.646 2438.2313,531.646 Q2436.8875,531.646 2436.2,532.7242 Q2435.5125,533.7867 2435.5125,535.8804 Q2435.5125,537.9742 2436.2,539.0523 Q2436.8875,540.1148 2438.2313,540.1148 Q2438.8563,540.1148 2439.45,539.8492 Q2440.0438,539.5679 2440.6688,538.9898 L2440.6688,541.7085 Z " fill="#000000"/><text fill="#000000" font-family="sans-serif" font-size="14" lengthAdjust="spacing" textLength="33" x="2515.3" y="531.9659">CWO</text><text fill="#000000" font-family="sans-serif" font-size="14" lengthAdjust="spacing" textLength="149" x="2457.3" y="551.0339">Chief Wellness Officer</text><line style="stroke:#181818;stroke-width:0.5;" x1="2398.5" x2="2633.5" y1="560.1358" y2="560.1358"/><line style="stroke:#181818;stroke-width:0.5;" x1="2398.5" x2="2633.5" y1="568.1358" y2="568.1358"/><ellipse cx="2408.5" cy="583.1698" fill="#84BE84" rx="3" ry="3" style="stroke:#038048;stroke-width:1.0;"/><text fill="#000000" font-family="sans-serif" font-size="14" lengthAdjust="spacing" textLength="211" x="2417.5" y="587.1018">promoverBienestarEmpleados()</text><ellipse cx="2408.5" cy="602.2377" fill="#84BE84" rx="3" ry="3" style="stroke:#038048;stroke-width:1.0;"/><text fill="#000000" font-family="sans-serif" font-size="14" lengthAdjust="spacing" textLength="154" x="2417.5" y="606.1697">equilibrarVidaLaboral()</text></g><!--class CDIO--><g id="elem_CDIO"><rect codeLine="105" fill="#F1F1F1" height="102.2717" id="CDIO" rx="2.5" ry="2.5" style="stroke:#181818;stroke-width:0.5;" width="266" x="2670" y="512"/><ellipse cx="2688.15" cy="536.0679" fill="#ADD1B2" rx="11" ry="11" style="stroke:#181818;stroke-width:1.0;"/><path d="M2691.1188,541.7085 Q2690.5406,542.0054 2689.9,542.146 Q2689.2594,542.3023 2688.5563,542.3023 Q2686.0563,542.3023 2684.7281,540.6617 Q2683.4156,539.0054 2683.4156,535.8804 Q2683.4156,532.7554 2684.7281,531.0992 Q2686.0563,529.4429 2688.5563,529.4429 Q2689.2594,529.4429 2689.9,529.5992 Q2690.5563,529.7554 2691.1188,530.0523 L2691.1188,532.771 Q2690.4938,532.1929 2689.9,531.9273 Q2689.3063,531.646 2688.6813,531.646 Q2687.3375,531.646 2686.65,532.7242 Q2685.9625,533.7867 2685.9625,535.8804 Q2685.9625,537.9742 2686.65,539.0523 Q2687.3375,540.1148 2688.6813,540.1148 Q2689.3063,540.1148 2689.9,539.8492 Q2690.4938,539.5679 2691.1188,538.9898 L2691.1188,541.7085 Z " fill="#000000"/><text fill="#000000" font-family="sans-serif" font-size="14" lengthAdjust="spacing" textLength="35" x="2798.85" y="531.9659">CDIO</text><text fill="#000000" font-family="sans-serif" font-size="14" lengthAdjust="spacing" textLength="227" x="2702.85" y="551.0339">Chief Diversity &amp; Inclusion Officer</text><line style="stroke:#181818;stroke-width:0.5;" x1="2671" x2="2935" y1="560.1358" y2="560.1358"/><line style="stroke:#181818;stroke-width:0.5;" x1="2671" x2="2935" y1="568.1358" y2="568.1358"/><ellipse cx="2681" cy="583.1698" fill="#84BE84" rx="3" ry="3" style="stroke:#038048;stroke-width:1.0;"/><text fill="#000000" font-family="sans-serif" font-size="14" lengthAdjust="spacing" textLength="240" x="2690" y="587.1018">implementarProgramasDiversidad()</text><ellipse cx="2681" cy="602.2377" fill="#84BE84" rx="3" ry="3" style="stroke:#038048;stroke-width:1.0;"/><text fill="#000000" font-family="sans-serif" font-size="14" lengthAdjust="spacing" textLength="203" x="2690" y="606.1697">promoverIniciativasInclusi&#243;n()</text></g><!--class CRO--><g id="elem_CRO"><rect codeLine="112" fill="#F1F1F1" height="102.2717" id="CRO" rx="2.5" ry="2.5" style="stroke:#181818;stroke-width:0.5;" width="254" x="4138" y="350"/><ellipse cx="4202.75" cy="374.0679" fill="#ADD1B2" rx="11" ry="11" style="stroke:#181818;stroke-width:1.0;"/><path d="M4205.7188,379.7085 Q4205.1406,380.0054 4204.5,380.146 Q4203.8594,380.3023 4203.1563,380.3023 Q4200.6563,380.3023 4199.3281,378.6617 Q4198.0156,377.0054 4198.0156,373.8804 Q4198.0156,370.7554 4199.3281,369.0992 Q4200.6563,367.4429 4203.1563,367.4429 Q4203.8594,367.4429 4204.5,367.5992 Q4205.1563,367.7554 4205.7188,368.0523 L4205.7188,370.771 Q4205.0938,370.1929 4204.5,369.9273 Q4203.9063,369.646 4203.2813,369.646 Q4201.9375,369.646 4201.25,370.7242 Q4200.5625,371.7867 4200.5625,373.8804 Q4200.5625,375.9742 4201.25,377.0523 Q4201.9375,378.1148 4203.2813,378.1148 Q4203.9063,378.1148 4204.5,377.8492 Q4205.0938,377.5679 4205.7188,376.9898 L4205.7188,379.7085 Z " fill="#000000"/><text fill="#000000" font-family="sans-serif" font-size="14" lengthAdjust="spacing" textLength="29" x="4266.75" y="369.9659">CRO</text><text fill="#000000" font-family="sans-serif" font-size="14" lengthAdjust="spacing" textLength="116" x="4223.25" y="389.0339">Chief Risk Officer</text><line style="stroke:#181818;stroke-width:0.5;" x1="4139" x2="4391" y1="398.1358" y2="398.1358"/><line style="stroke:#181818;stroke-width:0.5;" x1="4139" x2="4391" y1="406.1358" y2="406.1358"/><ellipse cx="4149" cy="421.1698" fill="#84BE84" rx="3" ry="3" style="stroke:#038048;stroke-width:1.0;"/><text fill="#000000" font-family="sans-serif" font-size="14" lengthAdjust="spacing" textLength="110" x="4158" y="425.1018">evaluarRiesgos()</text><ellipse cx="4149" cy="440.2377" fill="#84BE84" rx="3" ry="3" style="stroke:#038048;stroke-width:1.0;"/><text fill="#000000" font-family="sans-serif" font-size="14" lengthAdjust="spacing" textLength="228" x="4158" y="444.1697">desarrollarEstrategiasMitigaci&#243;n()</text></g><!--class CCompO--><g id="elem_CCompO"><rect codeLine="117" fill="#F1F1F1" height="102.2717" id="CCompO" rx="2.5" ry="2.5" style="stroke:#181818;stroke-width:0.5;" width="260" x="3843" y="350"/><ellipse cx="3885" cy="374.0679" fill="#ADD1B2" rx="11" ry="11" style="stroke:#181818;stroke-width:1.0;"/><path d="M3887.9688,379.7085 Q3887.3906,380.0054 3886.75,380.146 Q3886.1094,380.3023 3885.4063,380.3023 Q3882.9063,380.3023 3881.5781,378.6617 Q3880.2656,377.0054 3880.2656,373.8804 Q3880.2656,370.7554 3881.5781,369.0992 Q3882.9063,367.4429 3885.4063,367.4429 Q3886.1094,367.4429 3886.75,367.5992 Q3887.4063,367.7554 3887.9688,368.0523 L3887.9688,370.771 Q3887.3438,370.1929 3886.75,369.9273 Q3886.1563,369.646 3885.5313,369.646 Q3884.1875,369.646 3883.5,370.7242 Q3882.8125,371.7867 3882.8125,373.8804 Q3882.8125,375.9742 3883.5,377.0523 Q3884.1875,378.1148 3885.5313,378.1148 Q3886.1563,378.1148 3886.75,377.8492 Q3887.3438,377.5679 3887.9688,376.9898 L3887.9688,379.7085 Z " fill="#000000"/><text fill="#000000" font-family="sans-serif" font-size="14" lengthAdjust="spacing" textLength="29" x="3974.5" y="369.9659">CCO</text><text fill="#000000" font-family="sans-serif" font-size="14" lengthAdjust="spacing" textLength="168" x="3905" y="389.0339">Chief Compliance Officer</text><line style="stroke:#181818;stroke-width:0.5;" x1="3844" x2="4102" y1="398.1358" y2="398.1358"/><line style="stroke:#181818;stroke-width:0.5;" x1="3844" x2="4102" y1="406.1358" y2="406.1358"/><ellipse cx="3854" cy="421.1698" fill="#84BE84" rx="3" ry="3" style="stroke:#038048;stroke-width:1.0;"/><text fill="#000000" font-family="sans-serif" font-size="14" lengthAdjust="spacing" textLength="234" x="3863" y="425.1018">asegurarCumplimientoNormativo()</text><ellipse cx="3854" cy="440.2377" fill="#84BE84" rx="3" ry="3" style="stroke:#038048;stroke-width:1.0;"/><text fill="#000000" font-family="sans-serif" font-size="14" lengthAdjust="spacing" textLength="185" x="3863" y="444.1697">gestionar&#201;ticaEmpresarial()</text></g><!--class CSO--><g id="elem_CSO"><rect codeLine="122" fill="#F1F1F1" height="102.2717" id="CSO" rx="2.5" ry="2.5" style="stroke:#181818;stroke-width:0.5;" width="278" x="3530" y="350"/><ellipse cx="3574.75" cy="374.0679" fill="#ADD1B2" rx="11" ry="11" style="stroke:#181818;stroke-width:1.0;"/><path d="M3577.7188,379.7085 Q3577.1406,380.0054 3576.5,380.146 Q3575.8594,380.3023 3575.1563,380.3023 Q3572.6563,380.3023 3571.3281,378.6617 Q3570.0156,377.0054 3570.0156,373.8804 Q3570.0156,370.7554 3571.3281,369.0992 Q3572.6563,367.4429 3575.1563,367.4429 Q3575.8594,367.4429 3576.5,367.5992 Q3577.1563,367.7554 3577.7188,368.0523 L3577.7188,370.771 Q3577.0938,370.1929 3576.5,369.9273 Q3575.9063,369.646 3575.2813,369.646 Q3573.9375,369.646 3573.25,370.7242 Q3572.5625,371.7867 3572.5625,373.8804 Q3572.5625,375.9742 3573.25,377.0523 Q3573.9375,378.1148 3575.2813,378.1148 Q3575.9063,378.1148 3576.5,377.8492 Q3577.0938,377.5679 3577.7188,376.9898 L3577.7188,379.7085 Z " fill="#000000"/><text fill="#000000" font-family="sans-serif" font-size="14" lengthAdjust="spacing" textLength="28" x="3671.25" y="369.9659">CSO</text><text fill="#000000" font-family="sans-serif" font-size="14" lengthAdjust="spacing" textLength="180" x="3595.25" y="389.0339">Chief Sustainability Officer</text><line style="stroke:#181818;stroke-width:0.5;" x1="3531" x2="3807" y1="398.1358" y2="398.1358"/><line style="stroke:#181818;stroke-width:0.5;" x1="3531" x2="3807" y1="406.1358" y2="406.1358"/><ellipse cx="3541" cy="421.1698" fill="#84BE84" rx="3" ry="3" style="stroke:#038048;stroke-width:1.0;"/><text fill="#000000" font-family="sans-serif" font-size="14" lengthAdjust="spacing" textLength="217" x="3550" y="425.1018">definirEstrategiaSostenibilidad()</text><ellipse cx="3541" cy="440.2377" fill="#84BE84" rx="3" ry="3" style="stroke:#038048;stroke-width:1.0;"/><text fill="#000000" font-family="sans-serif" font-size="14" lengthAdjust="spacing" textLength="252" x="3550" y="444.1697">implementarProgramasAmbientales()</text></g><!--class CEthicsO--><g id="elem_CEthicsO"><rect codeLine="127" fill="#F1F1F1" height="102.2717" id="CEthicsO" rx="2.5" ry="2.5" style="stroke:#181818;stroke-width:0.5;" width="218" x="3580" y="512"/><ellipse cx="3620.65" cy="536.0679" fill="#ADD1B2" rx="11" ry="11" style="stroke:#181818;stroke-width:1.0;"/><path d="M3623.6188,541.7085 Q3623.0406,542.0054 3622.4,542.146 Q3621.7594,542.3023 3621.0563,542.3023 Q3618.5563,542.3023 3617.2281,540.6617 Q3615.9156,539.0054 3615.9156,535.8804 Q3615.9156,532.7554 3617.2281,531.0992 Q3618.5563,529.4429 3621.0563,529.4429 Q3621.7594,529.4429 3622.4,529.5992 Q3623.0563,529.7554 3623.6188,530.0523 L3623.6188,532.771 Q3622.9938,532.1929 3622.4,531.9273 Q3621.8063,531.646 3621.1813,531.646 Q3619.8375,531.646 3619.15,532.7242 Q3618.4625,533.7867 3618.4625,535.8804 Q3618.4625,537.9742 3619.15,539.0523 Q3619.8375,540.1148 3621.1813,540.1148 Q3621.8063,540.1148 3622.4,539.8492 Q3622.9938,539.5679 3623.6188,538.9898 L3623.6188,541.7085 Z " fill="#000000"/><text fill="#000000" font-family="sans-serif" font-size="14" lengthAdjust="spacing" textLength="28" x="3690.85" y="531.9659">CEO</text><text fill="#000000" font-family="sans-serif" font-size="14" lengthAdjust="spacing" textLength="129" x="3640.35" y="551.0339">Chief Ethics Officer</text><line style="stroke:#181818;stroke-width:0.5;" x1="3581" x2="3797" y1="560.1358" y2="560.1358"/><line style="stroke:#181818;stroke-width:0.5;" x1="3581" x2="3797" y1="568.1358" y2="568.1358"/><ellipse cx="3591" cy="583.1698" fill="#84BE84" rx="3" ry="3" style="stroke:#038048;stroke-width:1.0;"/><text fill="#000000" font-family="sans-serif" font-size="14" lengthAdjust="spacing" textLength="192" x="3600" y="587.1018">establecerEst&#225;ndares&#201;ticos()</text><ellipse cx="3591" cy="602.2377" fill="#84BE84" rx="3" ry="3" style="stroke:#038048;stroke-width:1.0;"/><text fill="#000000" font-family="sans-serif" font-size="14" lengthAdjust="spacing" textLength="105" x="3600" y="606.1697">alinearCultura()</text></g><!--class CInnovO--><g id="elem_CInnovO"><rect codeLine="134" fill="#F1F1F1" height="102.2717" id="CInnovO" rx="2.5" ry="2.5" style="stroke:#181818;stroke-width:0.5;" width="236" x="1416" y="692"/><ellipse cx="1450.35" cy="716.0679" fill="#ADD1B2" rx="11" ry="11" style="stroke:#181818;stroke-width:1.0;"/><path d="M1453.3188,721.7085 Q1452.7406,722.0054 1452.1,722.146 Q1451.4594,722.3023 1450.7563,722.3023 Q1448.2563,722.3023 1446.9281,720.6617 Q1445.6156,719.0054 1445.6156,715.8804 Q1445.6156,712.7554 1446.9281,711.0992 Q1448.2563,709.4429 1450.7563,709.4429 Q1451.4594,709.4429 1452.1,709.5992 Q1452.7563,709.7554 1453.3188,710.0523 L1453.3188,712.771 Q1452.6938,712.1929 1452.1,711.9273 Q1451.5063,711.646 1450.8813,711.646 Q1449.5375,711.646 1448.85,712.7242 Q1448.1625,713.7867 1448.1625,715.8804 Q1448.1625,717.9742 1448.85,719.0523 Q1449.5375,720.1148 1450.8813,720.1148 Q1451.5063,720.1148 1452.1,719.8492 Q1452.6938,719.5679 1453.3188,718.9898 L1453.3188,721.7085 Z " fill="#000000"/><text fill="#000000" font-family="sans-serif" font-size="14" lengthAdjust="spacing" textLength="25" x="1536.65" y="711.9659">CIO</text><text fill="#000000" font-family="sans-serif" font-size="14" lengthAdjust="spacing" textLength="161" x="1468.65" y="731.0339">Chief Innovation Officer</text><line style="stroke:#181818;stroke-width:0.5;" x1="1417" x2="1651" y1="740.1358" y2="740.1358"/><line style="stroke:#181818;stroke-width:0.5;" x1="1417" x2="1651" y1="748.1358" y2="748.1358"/><ellipse cx="1427" cy="763.1698" fill="#84BE84" rx="3" ry="3" style="stroke:#038048;stroke-width:1.0;"/><text fill="#000000" font-family="sans-serif" font-size="14" lengthAdjust="spacing" textLength="210" x="1436" y="767.1018">impulsarEstrategiaInnovaci&#243;n()</text><ellipse cx="1427" cy="782.2377" fill="#84BE84" rx="3" ry="3" style="stroke:#038048;stroke-width:1.0;"/><text fill="#000000" font-family="sans-serif" font-size="14" lengthAdjust="spacing" textLength="200" x="1436" y="786.1697">desarrollarNuevasIniciativas()</text></g><!--class CKO--><g id="elem_CKO"><rect codeLine="139" fill="#F1F1F1" height="102.2717" id="CKO" rx="2.5" ry="2.5" style="stroke:#181818;stroke-width:0.5;" width="227" x="1290.5" y="854"/><ellipse cx="1319.45" cy="878.0679" fill="#ADD1B2" rx="11" ry="11" style="stroke:#181818;stroke-width:1.0;"/><path d="M1322.4188,883.7085 Q1321.8406,884.0054 1321.2,884.146 Q1320.5594,884.3023 1319.8563,884.3023 Q1317.3563,884.3023 1316.0281,882.6617 Q1314.7156,881.0054 1314.7156,877.8804 Q1314.7156,874.7554 1316.0281,873.0992 Q1317.3563,871.4429 1319.8563,871.4429 Q1320.5594,871.4429 1321.2,871.5992 Q1321.8563,871.7554 1322.4188,872.0523 L1322.4188,874.771 Q1321.7938,874.1929 1321.2,873.9273 Q1320.6063,873.646 1319.9813,873.646 Q1318.6375,873.646 1317.95,874.7242 Q1317.2625,875.7867 1317.2625,877.8804 Q1317.2625,879.9742 1317.95,881.0523 Q1318.6375,882.1148 1319.9813,882.1148 Q1320.6063,882.1148 1321.2,881.8492 Q1321.7938,881.5679 1322.4188,880.9898 L1322.4188,883.7085 Z " fill="#000000"/><text fill="#000000" font-family="sans-serif" font-size="14" lengthAdjust="spacing" textLength="29" x="1404.05" y="873.9659">CKO</text><text fill="#000000" font-family="sans-serif" font-size="14" lengthAdjust="spacing" textLength="164" x="1336.55" y="893.0339">Chief Knowledge Officer</text><line style="stroke:#181818;stroke-width:0.5;" x1="1291.5" x2="1516.5" y1="902.1358" y2="902.1358"/><line style="stroke:#181818;stroke-width:0.5;" x1="1291.5" x2="1516.5" y1="910.1358" y2="910.1358"/><ellipse cx="1301.5" cy="925.1698" fill="#84BE84" rx="3" ry="3" style="stroke:#038048;stroke-width:1.0;"/><text fill="#000000" font-family="sans-serif" font-size="14" lengthAdjust="spacing" textLength="164" x="1310.5" y="929.1018">gestionarConocimiento()</text><ellipse cx="1301.5" cy="944.2377" fill="#84BE84" rx="3" ry="3" style="stroke:#038048;stroke-width:1.0;"/><text fill="#000000" font-family="sans-serif" font-size="14" lengthAdjust="spacing" textLength="201" x="1310.5" y="948.1697">desarrollarCapitalIntelectual()</text></g><!--class CVO--><g id="elem_CVO"><rect codeLine="144" fill="#F1F1F1" height="102.2717" id="CVO" rx="2.5" ry="2.5" style="stroke:#181818;stroke-width:0.5;" width="222" x="1553" y="854"/><ellipse cx="1595.45" cy="878.0679" fill="#ADD1B2" rx="11" ry="11" style="stroke:#181818;stroke-width:1.0;"/><path d="M1598.4188,883.7085 Q1597.8406,884.0054 1597.2,884.146 Q1596.5594,884.3023 1595.8563,884.3023 Q1593.3563,884.3023 1592.0281,882.6617 Q1590.7156,881.0054 1590.7156,877.8804 Q1590.7156,874.7554 1592.0281,873.0992 Q1593.3563,871.4429 1595.8563,871.4429 Q1596.5594,871.4429 1597.2,871.5992 Q1597.8563,871.7554 1598.4188,872.0523 L1598.4188,874.771 Q1597.7938,874.1929 1597.2,873.9273 Q1596.6063,873.646 1595.9813,873.646 Q1594.6375,873.646 1593.95,874.7242 Q1593.2625,875.7867 1593.2625,877.8804 Q1593.2625,879.9742 1593.95,881.0523 Q1594.6375,882.1148 1595.9813,882.1148 Q1596.6063,882.1148 1597.2,881.8492 Q1597.7938,881.5679 1598.4188,880.9898 L1598.4188,883.7085 Z " fill="#000000"/><text fill="#000000" font-family="sans-serif" font-size="14" lengthAdjust="spacing" textLength="28" x="1666.05" y="873.9659">CVO</text><text fill="#000000" font-family="sans-serif" font-size="14" lengthAdjust="spacing" textLength="129" x="1615.55" y="893.0339">Chief Vision Officer</text><line style="stroke:#181818;stroke-width:0.5;" x1="1554" x2="1774" y1="902.1358" y2="902.1358"/><line style="stroke:#181818;stroke-width:0.5;" x1="1554" x2="1774" y1="910.1358" y2="910.1358"/><ellipse cx="1564" cy="925.1698" fill="#84BE84" rx="3" ry="3" style="stroke:#038048;stroke-width:1.0;"/><text fill="#000000" font-family="sans-serif" font-size="14" lengthAdjust="spacing" textLength="196" x="1573" y="929.1018">anticiparTendenciasFuturas()</text><ellipse cx="1564" cy="944.2377" fill="#84BE84" rx="3" ry="3" style="stroke:#038048;stroke-width:1.0;"/><text fill="#000000" font-family="sans-serif" font-size="14" lengthAdjust="spacing" textLength="191" x="1573" y="948.1697">definirDirecci&#243;nEstrat&#233;gica()</text></g><!--class CRemoteO--><g id="elem_CRemoteO"><rect codeLine="149" fill="#F1F1F1" height="102.2717" id="CRemoteO" rx="2.5" ry="2.5" style="stroke:#181818;stroke-width:0.5;" width="261" x="1119.5" y="692"/><ellipse cx="1175.75" cy="716.0679" fill="#ADD1B2" rx="11" ry="11" style="stroke:#181818;stroke-width:1.0;"/><path d="M1178.7188,721.7085 Q1178.1406,722.0054 1177.5,722.146 Q1176.8594,722.3023 1176.1563,722.3023 Q1173.6563,722.3023 1172.3281,720.6617 Q1171.0156,719.0054 1171.0156,715.8804 Q1171.0156,712.7554 1172.3281,711.0992 Q1173.6563,709.4429 1176.1563,709.4429 Q1176.8594,709.4429 1177.5,709.5992 Q1178.1563,709.7554 1178.7188,710.0523 L1178.7188,712.771 Q1178.0938,712.1929 1177.5,711.9273 Q1176.9063,711.646 1176.2813,711.646 Q1174.9375,711.646 1174.25,712.7242 Q1173.5625,713.7867 1173.5625,715.8804 Q1173.5625,717.9742 1174.25,719.0523 Q1174.9375,720.1148 1176.2813,720.1148 Q1176.9063,720.1148 1177.5,719.8492 Q1178.0938,719.5679 1178.7188,718.9898 L1178.7188,721.7085 Z " fill="#000000"/><text fill="#000000" font-family="sans-serif" font-size="14" lengthAdjust="spacing" textLength="29" x="1251.75" y="711.9659">CRO</text><text fill="#000000" font-family="sans-serif" font-size="14" lengthAdjust="spacing" textLength="140" x="1196.25" y="731.0339">Chief Remote Officer</text><line style="stroke:#181818;stroke-width:0.5;" x1="1120.5" x2="1379.5" y1="740.1358" y2="740.1358"/><line style="stroke:#181818;stroke-width:0.5;" x1="1120.5" x2="1379.5" y1="748.1358" y2="748.1358"/><ellipse cx="1130.5" cy="763.1698" fill="#84BE84" rx="3" ry="3" style="stroke:#038048;stroke-width:1.0;"/><text fill="#000000" font-family="sans-serif" font-size="14" lengthAdjust="spacing" textLength="235" x="1139.5" y="767.1018">establecerPol&#237;ticasTrabajoRemoto()</text><ellipse cx="1130.5" cy="782.2377" fill="#84BE84" rx="3" ry="3" style="stroke:#038048;stroke-width:1.0;"/><text fill="#000000" font-family="sans-serif" font-size="14" lengthAdjust="spacing" textLength="208" x="1139.5" y="786.1697">gestionarEquiposDistribuidos()</text></g><!--class CAccessO--><g id="elem_CAccessO"><rect codeLine="154" fill="#F1F1F1" height="102.2717" id="CAccessO" rx="2.5" ry="2.5" style="stroke:#181818;stroke-width:0.5;" width="285" x="1939.5" y="692"/><ellipse cx="1992.25" cy="716.0679" fill="#ADD1B2" rx="11" ry="11" style="stroke:#181818;stroke-width:1.0;"/><path d="M1995.2188,721.7085 Q1994.6406,722.0054 1994,722.146 Q1993.3594,722.3023 1992.6563,722.3023 Q1990.1563,722.3023 1988.8281,720.6617 Q1987.5156,719.0054 1987.5156,715.8804 Q1987.5156,712.7554 1988.8281,711.0992 Q1990.1563,709.4429 1992.6563,709.4429 Q1993.3594,709.4429 1994,709.5992 Q1994.6563,709.7554 1995.2188,710.0523 L1995.2188,712.771 Q1994.5938,712.1929 1994,711.9273 Q1993.4063,711.646 1992.7813,711.646 Q1991.4375,711.646 1990.75,712.7242 Q1990.0625,713.7867 1990.0625,715.8804 Q1990.0625,717.9742 1990.75,719.0523 Q1991.4375,720.1148 1992.7813,720.1148 Q1993.4063,720.1148 1994,719.8492 Q1994.5938,719.5679 1995.2188,718.9898 L1995.2188,721.7085 Z " fill="#000000"/><text fill="#000000" font-family="sans-serif" font-size="14" lengthAdjust="spacing" textLength="29" x="2083.75" y="711.9659">CAO</text><text fill="#000000" font-family="sans-serif" font-size="14" lengthAdjust="spacing" textLength="171" x="2012.75" y="731.0339">Chief Accessibility Officer</text><line style="stroke:#181818;stroke-width:0.5;" x1="1940.5" x2="2223.5" y1="740.1358" y2="740.1358"/><line style="stroke:#181818;stroke-width:0.5;" x1="1940.5" x2="2223.5" y1="748.1358" y2="748.1358"/><ellipse cx="1950.5" cy="763.1698" fill="#84BE84" rx="3" ry="3" style="stroke:#038048;stroke-width:1.0;"/><text fill="#000000" font-family="sans-serif" font-size="14" lengthAdjust="spacing" textLength="259" x="1959.5" y="767.1018">implementarEst&#225;ndaresAccesibilidad()</text><ellipse cx="1950.5" cy="782.2377" fill="#84BE84" rx="3" ry="3" style="stroke:#038048;stroke-width:1.0;"/><text fill="#000000" font-family="sans-serif" font-size="14" lengthAdjust="spacing" textLength="179" x="1959.5" y="786.1697">promoverDise&#241;oInclusivo()</text></g><!--class CDesignO--><g id="elem_CDesignO"><rect codeLine="159" fill="#F1F1F1" height="102.2717" id="CDesignO" rx="2.5" ry="2.5" style="stroke:#181818;stroke-width:0.5;" width="217" x="1687.5" y="692"/><ellipse cx="1724.55" cy="716.0679" fill="#ADD1B2" rx="11" ry="11" style="stroke:#181818;stroke-width:1.0;"/><path d="M1727.5188,721.7085 Q1726.9406,722.0054 1726.3,722.146 Q1725.6594,722.3023 1724.9563,722.3023 Q1722.4563,722.3023 1721.1281,720.6617 Q1719.8156,719.0054 1719.8156,715.8804 Q1719.8156,712.7554 1721.1281,711.0992 Q1722.4563,709.4429 1724.9563,709.4429 Q1725.6594,709.4429 1726.3,709.5992 Q1726.9563,709.7554 1727.5188,710.0523 L1727.5188,712.771 Q1726.8938,712.1929 1726.3,711.9273 Q1725.7063,711.646 1725.0813,711.646 Q1723.7375,711.646 1723.05,712.7242 Q1722.3625,713.7867 1722.3625,715.8804 Q1722.3625,717.9742 1723.05,719.0523 Q1723.7375,720.1148 1725.0813,720.1148 Q1725.7063,720.1148 1726.3,719.8492 Q1726.8938,719.5679 1727.5188,718.9898 L1727.5188,721.7085 Z " fill="#000000"/><text fill="#000000" font-family="sans-serif" font-size="14" lengthAdjust="spacing" textLength="30" x="1796.45" y="711.9659">CDO</text><text fill="#000000" font-family="sans-serif" font-size="14" lengthAdjust="spacing" textLength="136" x="1743.45" y="731.0339">Chief Design Officer</text><line style="stroke:#181818;stroke-width:0.5;" x1="1688.5" x2="1903.5" y1="740.1358" y2="740.1358"/><line style="stroke:#181818;stroke-width:0.5;" x1="1688.5" x2="1903.5" y1="748.1358" y2="748.1358"/><ellipse cx="1698.5" cy="763.1698" fill="#84BE84" rx="3" ry="3" style="stroke:#038048;stroke-width:1.0;"/><text fill="#000000" font-family="sans-serif" font-size="14" lengthAdjust="spacing" textLength="167" x="1707.5" y="767.1018">definirEstrategiaDise&#241;o()</text><ellipse cx="1698.5" cy="782.2377" fill="#84BE84" rx="3" ry="3" style="stroke:#038048;stroke-width:1.0;"/><text fill="#000000" font-family="sans-serif" font-size="14" lengthAdjust="spacing" textLength="191" x="1707.5" y="786.1697">mejorarExperienciaUsuario()</text></g><!--class CEO--><g id="elem_CEO"><rect codeLine="2" fill="#F1F1F1" height="102.2717" id="CEO" rx="2.5" ry="2.5" style="stroke:#181818;stroke-width:0.5;" width="200" x="1768" y="7"/><ellipse cx="1790.2" cy="31.0679" fill="#ADD1B2" rx="11" ry="11" style="stroke:#181818;stroke-width:1.0;"/><path d="M1793.1688,36.7085 Q1792.5906,37.0054 1791.95,37.146 Q1791.3094,37.3023 1790.6063,37.3023 Q1788.1063,37.3023 1786.7781,35.6617 Q1785.4656,34.0054 1785.4656,30.8804 Q1785.4656,27.7554 1786.7781,26.0992 Q1788.1063,24.4429 1790.6063,24.4429 Q1791.3094,24.4429 1791.95,24.5992 Q1792.6063,24.7554 1793.1688,25.0523 L1793.1688,27.771 Q1792.5438,27.1929 1791.95,26.9273 Q1791.3563,26.646 1790.7313,26.646 Q1789.3875,26.646 1788.7,27.7242 Q1788.0125,28.7867 1788.0125,30.8804 Q1788.0125,32.9742 1788.7,34.0523 Q1789.3875,35.1148 1790.7313,35.1148 Q1791.3563,35.1148 1791.95,34.8492 Q1792.5438,34.5679 1793.1688,33.9898 L1793.1688,36.7085 Z " fill="#000000"/><text fill="#000000" font-family="sans-serif" font-size="14" lengthAdjust="spacing" textLength="28" x="1867.8" y="26.9659">CEO</text><text fill="#000000" font-family="sans-serif" font-size="14" lengthAdjust="spacing" textLength="152" x="1805.8" y="46.0339">Chief Executive Officer</text><line style="stroke:#181818;stroke-width:0.5;" x1="1769" x2="1967" y1="55.1358" y2="55.1358"/><line style="stroke:#181818;stroke-width:0.5;" x1="1769" x2="1967" y1="63.1358" y2="63.1358"/><ellipse cx="1779" cy="78.1698" fill="#84BE84" rx="3" ry="3" style="stroke:#038048;stroke-width:1.0;"/><text fill="#000000" font-family="sans-serif" font-size="14" lengthAdjust="spacing" textLength="174" x="1788" y="82.1018">definirVisi&#243;nEmpresarial()</text><ellipse cx="1779" cy="97.2377" fill="#84BE84" rx="3" ry="3" style="stroke:#038048;stroke-width:1.0;"/><text fill="#000000" font-family="sans-serif" font-size="14" lengthAdjust="spacing" textLength="164" x="1788" y="101.1697">supervisarOperaciones()</text></g><!--class COO--><g id="elem_COO"><rect codeLine="8" fill="#F1F1F1" height="102.2717" id="COO" rx="2.5" ry="2.5" style="stroke:#181818;stroke-width:0.5;" width="190" x="1291" y="178.5"/><ellipse cx="1306" cy="202.5679" fill="#ADD1B2" rx="11" ry="11" style="stroke:#181818;stroke-width:1.0;"/><path d="M1308.9688,208.2085 Q1308.3906,208.5054 1307.75,208.646 Q1307.1094,208.8023 1306.4063,208.8023 Q1303.9063,208.8023 1302.5781,207.1617 Q1301.2656,205.5054 1301.2656,202.3804 Q1301.2656,199.2554 1302.5781,197.5992 Q1303.9063,195.9429 1306.4063,195.9429 Q1307.1094,195.9429 1307.75,196.0992 Q1308.4063,196.2554 1308.9688,196.5523 L1308.9688,199.271 Q1308.3438,198.6929 1307.75,198.4273 Q1307.1563,198.146 1306.5313,198.146 Q1305.1875,198.146 1304.5,199.2242 Q1303.8125,200.2867 1303.8125,202.3804 Q1303.8125,204.4742 1304.5,205.5523 Q1305.1875,206.6148 1306.5313,206.6148 Q1307.1563,206.6148 1307.75,206.3492 Q1308.3438,206.0679 1308.9688,205.4898 L1308.9688,208.2085 Z " fill="#000000"/><text fill="#000000" font-family="sans-serif" font-size="14" lengthAdjust="spacing" textLength="31" x="1383.5" y="198.4659">COO</text><text fill="#000000" font-family="sans-serif" font-size="14" lengthAdjust="spacing" textLength="158" x="1320" y="217.5339">Chief Operating Officer</text><line style="stroke:#181818;stroke-width:0.5;" x1="1292" x2="1480" y1="226.6358" y2="226.6358"/><line style="stroke:#181818;stroke-width:0.5;" x1="1292" x2="1480" y1="234.6358" y2="234.6358"/><ellipse cx="1302" cy="249.6698" fill="#84BE84" rx="3" ry="3" style="stroke:#038048;stroke-width:1.0;"/><text fill="#000000" font-family="sans-serif" font-size="14" lengthAdjust="spacing" textLength="157" x="1311" y="253.6018">gestionarOperaciones()</text><ellipse cx="1302" cy="268.7377" fill="#84BE84" rx="3" ry="3" style="stroke:#038048;stroke-width:1.0;"/><text fill="#000000" font-family="sans-serif" font-size="14" lengthAdjust="spacing" textLength="131" x="1311" y="272.6697">ejecutarEstrategia()</text></g><!--class CFO--><g id="elem_CFO"><rect codeLine="13" fill="#F1F1F1" height="121.3396" id="CFO" rx="2.5" ry="2.5" style="stroke:#181818;stroke-width:0.5;" width="227" x="3859.5" y="169"/><ellipse cx="3895.2" cy="193.0679" fill="#ADD1B2" rx="11" ry="11" style="stroke:#181818;stroke-width:1.0;"/><path d="M3898.1688,198.7085 Q3897.5906,199.0054 3896.95,199.146 Q3896.3094,199.3023 3895.6063,199.3023 Q3893.1063,199.3023 3891.7781,197.6617 Q3890.4656,196.0054 3890.4656,192.8804 Q3890.4656,189.7554 3891.7781,188.0992 Q3893.1063,186.4429 3895.6063,186.4429 Q3896.3094,186.4429 3896.95,186.5992 Q3897.6063,186.7554 3898.1688,187.0523 L3898.1688,189.771 Q3897.5438,189.1929 3896.95,188.9273 Q3896.3563,188.646 3895.7313,188.646 Q3894.3875,188.646 3893.7,189.7242 Q3893.0125,190.7867 3893.0125,192.8804 Q3893.0125,194.9742 3893.7,196.0523 Q3894.3875,197.1148 3895.7313,197.1148 Q3896.3563,197.1148 3896.95,196.8492 Q3897.5438,196.5679 3898.1688,195.9898 L3898.1688,198.7085 Z " fill="#000000"/><text fill="#000000" font-family="sans-serif" font-size="14" lengthAdjust="spacing" textLength="27" x="3974.8" y="188.9659">CFO</text><text fill="#000000" font-family="sans-serif" font-size="14" lengthAdjust="spacing" textLength="149" x="3913.8" y="208.0339">Chief Financial Officer</text><line style="stroke:#181818;stroke-width:0.5;" x1="3860.5" x2="4085.5" y1="217.1358" y2="217.1358"/><line style="stroke:#181818;stroke-width:0.5;" x1="3860.5" x2="4085.5" y1="225.1358" y2="225.1358"/><ellipse cx="3870.5" cy="240.1698" fill="#84BE84" rx="3" ry="3" style="stroke:#038048;stroke-width:1.0;"/><text fill="#000000" font-family="sans-serif" font-size="14" lengthAdjust="spacing" textLength="131" x="3879.5" y="244.1018">gestionarFinanzas()</text><ellipse cx="3870.5" cy="259.2377" fill="#84BE84" rx="3" ry="3" style="stroke:#038048;stroke-width:1.0;"/><text fill="#000000" font-family="sans-serif" font-size="14" lengthAdjust="spacing" textLength="156" x="3879.5" y="263.1697">planificarPresupuesto()</text><ellipse cx="3870.5" cy="278.3056" fill="#84BE84" rx="3" ry="3" style="stroke:#038048;stroke-width:1.0;"/><text fill="#000000" font-family="sans-serif" font-size="14" lengthAdjust="spacing" textLength="201" x="3879.5" y="282.2376">gestionarRiesgosFinancieros()</text></g><!--class CMO--><g id="elem_CMO"><rect codeLine="19" fill="#F1F1F1" height="102.2717" id="CMO" rx="2.5" ry="2.5" style="stroke:#181818;stroke-width:0.5;" width="245" x="1810.5" y="178.5"/><ellipse cx="1850.25" cy="202.5679" fill="#ADD1B2" rx="11" ry="11" style="stroke:#181818;stroke-width:1.0;"/><path d="M1853.2188,208.2085 Q1852.6406,208.5054 1852,208.646 Q1851.3594,208.8023 1850.6563,208.8023 Q1848.1563,208.8023 1846.8281,207.1617 Q1845.5156,205.5054 1845.5156,202.3804 Q1845.5156,199.2554 1846.8281,197.5992 Q1848.1563,195.9429 1850.6563,195.9429 Q1851.3594,195.9429 1852,196.0992 Q1852.6563,196.2554 1853.2188,196.5523 L1853.2188,199.271 Q1852.5938,198.6929 1852,198.4273 Q1851.4063,198.146 1850.7813,198.146 Q1849.4375,198.146 1848.75,199.2242 Q1848.0625,200.2867 1848.0625,202.3804 Q1848.0625,204.4742 1848.75,205.5523 Q1849.4375,206.6148 1850.7813,206.6148 Q1851.4063,206.6148 1852,206.3492 Q1852.5938,206.0679 1853.2188,205.4898 L1853.2188,208.2085 Z " fill="#000000"/><text fill="#000000" font-family="sans-serif" font-size="14" lengthAdjust="spacing" textLength="33" x="1932.25" y="198.4659">CMO</text><text fill="#000000" font-family="sans-serif" font-size="14" lengthAdjust="spacing" textLength="158" x="1869.75" y="217.5339">Chief Marketing Officer</text><line style="stroke:#181818;stroke-width:0.5;" x1="1811.5" x2="2054.5" y1="226.6358" y2="226.6358"/><line style="stroke:#181818;stroke-width:0.5;" x1="1811.5" x2="2054.5" y1="234.6358" y2="234.6358"/><ellipse cx="1821.5" cy="249.6698" fill="#84BE84" rx="3" ry="3" style="stroke:#038048;stroke-width:1.0;"/><text fill="#000000" font-family="sans-serif" font-size="14" lengthAdjust="spacing" textLength="219" x="1830.5" y="253.6018">desarrollarEstrategiaMarketing()</text><ellipse cx="1821.5" cy="268.7377" fill="#84BE84" rx="3" ry="3" style="stroke:#038048;stroke-width:1.0;"/><text fill="#000000" font-family="sans-serif" font-size="14" lengthAdjust="spacing" textLength="114" x="1830.5" y="272.6697">gestionarMarca()</text></g><g id="elem_N2"><path d="M629.5,720.5 L629.5,765.912 A0,0 0 0 0 629.5,765.912 L828.5,765.912 A0,0 0 0 0 828.5,765.912 L828.5,730.5 L818.5,720.5 L733,720.5 L729,614.06 L725,720.5 L629.5,720.5 A0,0 0 0 0 629.5,720.5 " fill="#FEFFDD" style="stroke:#181818;stroke-width:0.5;"/><path d="M818.5,720.5 L818.5,730.5 L828.5,730.5 L818.5,720.5 " fill="#FEFFDD" style="stroke:#181818;stroke-width:0.5;"/><text fill="#000000" font-family="sans-serif" font-size="13" lengthAdjust="spacing" textLength="178" x="635.5" y="739.397">Rol emergente enfocado en la</text><text fill="#000000" font-family="sans-serif" font-size="13" lengthAdjust="spacing" textLength="132" x="635.5" y="757.103">transformaci&#243;n digital</text></g><g id="elem_N3"><path d="M2257.5,882.5 L2257.5,927.912 L2456.5,927.912 L2456.5,892.5 L2446.5,882.5 L2257.5,882.5 " fill="#FEFFDD" style="stroke:#181818;stroke-width:0.5;"/><path d="M2446.5,882.5 L2446.5,892.5 L2456.5,892.5 L2446.5,882.5 " fill="#FEFFDD" style="stroke:#181818;stroke-width:1.0;"/><text fill="#000000" font-family="sans-serif" font-size="13" lengthAdjust="spacing" textLength="178" x="2263.5" y="901.397">Rol emergente enfocado en la</text><text fill="#000000" font-family="sans-serif" font-size="13" lengthAdjust="spacing" textLength="137" x="2263.5" y="919.103">experiencia del usuario</text></g><g id="elem_N4"><path d="M3359.5,729 L3359.5,756.706 L3694.5,756.706 L3694.5,739 L3684.5,729 L3359.5,729 " fill="#FEFFDD" style="stroke:#181818;stroke-width:0.5;"/><path d="M3684.5,729 L3684.5,739 L3694.5,739 L3684.5,729 " fill="#FEFFDD" style="stroke:#181818;stroke-width:1.0;"/><text fill="#000000" font-family="sans-serif" font-size="13" lengthAdjust="spacing" textLength="314" x="3365.5" y="747.897">Reflejo de las nuevas prioridades sociales y culturales</text></g><g id="elem_N5"><path d="M773.5,891 L773.5,918.706 A0,0 0 0 0 773.5,918.706 L1086.5,918.706 A0,0 0 0 0 1086.5,918.706 L1086.5,901 L1076.5,891 L960.34,891 L1149.63,794.19 L952.34,891 L773.5,891 A0,0 0 0 0 773.5,891 " fill="#FEFFDD" style="stroke:#181818;stroke-width:0.5;"/><path d="M1076.5,891 L1076.5,901 L1086.5,901 L1076.5,891 " fill="#FEFFDD" style="stroke:#181818;stroke-width:0.5;"/><text fill="#000000" font-family="sans-serif" font-size="13" lengthAdjust="spacing" textLength="292" x="779.5" y="909.897">Especializaci&#243;n reciente, derivado de la pandemia</text></g><!--link CEO to COO--><g id="link_CEO_COO"><path codeLine="166" d="M1767.62,85.1 C1694.6,105.19 1593.89,135.18 1508,169 C1499.23,172.45 1495.6988,173.8341 1486.7388,177.8341 " fill="none" id="CEO-to-COO" style="stroke:#181818;stroke-width:1.0;"/><polygon fill="#181818" points="1481.26,180.28,1491.1088,180.2637,1485.8257,178.2417,1487.8476,172.9586,1481.26,180.28" style="stroke:#181818;stroke-width:1.0;"/></g><!--link CEO to CFO--><g id="link_CEO_CFO"><path codeLine="167" d="M1968.11,67.06 C2318.53,95.28 3482.6494,189.0184 3853.3494,218.8684 " fill="none" id="CEO-to-CFO" style="stroke:#181818;stroke-width:1.0;"/><polygon fill="#181818" points="3859.33,219.35,3850.6801,214.6405,3854.3461,218.9487,3850.038,222.6147,3859.33,219.35" style="stroke:#181818;stroke-width:1.0;"/></g><!--link CEO to CMO--><g id="link_CEO_CMO"><path codeLine="168" d="M1887.33,109.4 C1895.67,131.16 1903.261,150.9581 1911.601,172.6981 " fill="none" id="CEO-to-CMO" style="stroke:#181818;stroke-width:1.0;"/><polygon fill="#181818" points="1913.75,178.3,1914.2611,168.4644,1911.9591,173.6317,1906.7918,171.3298,1913.75,178.3" style="stroke:#181818;stroke-width:1.0;"/></g><!--link CEO to CIO--><g id="link_CEO_CIO"><path codeLine="169" d="M1767.96,67.63 C1647.8,80.22 1441.48,109 1274,169 C1145.79,214.93 1015.0496,293.7232 934.1996,346.6632 " fill="none" id="CEO-to-CIO" style="stroke:#181818;stroke-width:1.0;"/><polygon fill="#181818" points="929.18,349.95,938.9007,348.3662,933.363,347.211,934.5182,341.6733,929.18,349.95" style="stroke:#181818;stroke-width:1.0;"/></g><!--link CEO to CCO--><g id="link_CEO_CCO"><path codeLine="170" d="M1829.99,109.14 C1817.2,127.38 1803.53,148.55 1793,169 C1762.29,228.65 1739.0496,296.2869 1724.2896,344.1069 " fill="none" id="CEO-to-CCO" style="stroke:#181818;stroke-width:1.0;"/><polygon fill="#181818" points="1722.52,349.84,1728.9964,342.42,1723.9946,345.0624,1721.3523,340.0606,1722.52,349.84" style="stroke:#181818;stroke-width:1.0;"/></g><!--link CEO to CHRO--><g id="link_CEO_CHRO"><path codeLine="171" d="M1968.06,95.49 C2140.84,158.51 2488.8632,285.4342 2675.6132,353.5442 " fill="none" id="CEO-to-CHRO" style="stroke:#181818;stroke-width:1.0;"/><polygon fill="#181818" points="2681.25,355.6,2674.1653,348.7584,2676.5527,353.8868,2671.4242,356.2742,2681.25,355.6" style="stroke:#181818;stroke-width:1.0;"/></g><!--link CEO to CInnovO--><g id="link_CEO_CInnovO"><path codeLine="172" d="M1773.92,109.04 C1704.98,151.18 1615.91,218.3 1571,304 C1504.59,430.74 1514.8653,600.8364 1525.5153,685.9764 " fill="none" id="CEO-to-CInnovO" style="stroke:#181818;stroke-width:1.0;"/><polygon fill="#181818" points="1526.26,691.93,1529.112,682.5031,1525.6394,686.9687,1521.1738,683.4961,1526.26,691.93" style="stroke:#181818;stroke-width:1.0;"/></g><!--link CIO to CTO--><g id="link_CIO_CTO"><path codeLine="175" d="M741.49,419.45 C626.76,438.06 445.63,470.57 292,512 C286,513.62 285.6316,513.6513 279.4716,515.4813 " fill="none" id="CIO-to-CTO" style="stroke:#181818;stroke-width:1.0;"/><polygon fill="#181818" points="273.72,517.19,283.4865,518.4614,278.513,515.7661,281.2082,510.7926,273.72,517.19" style="stroke:#181818;stroke-width:1.0;"/></g><!--link CIO to CISO--><g id="link_CIO_CISO"><path codeLine="176" d="M741.24,446.57 C688.97,466.87 632.4827,488.7971 578.6127,509.7271 " fill="none" id="CIO-to-CISO" style="stroke:#181818;stroke-width:1.0;"/><polygon fill="#181818" points="573.02,511.9,582.8577,512.3691,577.6806,510.0892,579.9604,504.9121,573.02,511.9" style="stroke:#181818;stroke-width:1.0;"/></g><!--link CIO to CDO--><g id="link_CIO_CDO"><path codeLine="177" d="M816.16,452.19 C801.03,471.25 787.5413,488.2513 772.4213,507.2913 " fill="none" id="CIO-to-CDO" style="stroke:#181818;stroke-width:1.0;"/><polygon fill="#181818" points="768.69,511.99,777.4194,507.4295,771.7994,508.0744,771.1545,502.4545,768.69,511.99" style="stroke:#181818;stroke-width:1.0;"/></g><!--link CIO to CDataO--><g id="link_CIO_CDataO"><path codeLine="178" d="M898.34,452.19 C914.43,471.25 928.8701,488.3648 944.9401,507.4048 " fill="none" id="CIO-to-CDataO" style="stroke:#181818;stroke-width:1.0;"/><polygon fill="#181818" points="948.81,511.99,946.0619,502.5323,945.5851,508.169,939.9483,507.6922,948.81,511.99" style="stroke:#181818;stroke-width:1.0;"/></g><!--link CIO to CAO--><g id="link_CIO_CAO"><path codeLine="179" d="M970.6,447.96 C1022.99,468.96 1079.4008,491.5875 1132.1108,512.7175 " fill="none" id="CIO-to-CAO" style="stroke:#181818;stroke-width:1.0;"/><polygon fill="#181818" points="1137.68,514.95,1130.8146,507.8884,1133.039,513.0896,1127.8379,515.314,1137.68,514.95" style="stroke:#181818;stroke-width:1.0;"/></g><!--link CMO to CCO--><g id="link_CMO_CCO"><path codeLine="182" d="M1866.41,280.67 C1837.38,302.53 1808.2227,324.5002 1779.2127,346.3502 " fill="none" id="CMO-to-CCO" style="stroke:#181818;stroke-width:1.0;"/><polygon fill="#181818" points="1774.42,349.96,1784.0155,347.7404,1778.4139,346.9519,1779.2025,341.3502,1774.42,349.96" style="stroke:#181818;stroke-width:1.0;"/></g><!--link CCO to CXO--><g id="link_CCO_CXO"><path codeLine="183" d="M1708,452.19 C1708,471.25 1708,486.95 1708,505.99 " fill="none" id="CCO-to-CXO" style="stroke:#181818;stroke-width:1.0;"/><polygon fill="#181818" points="1708,511.99,1712,502.99,1708,506.99,1704,502.99,1708,511.99" style="stroke:#181818;stroke-width:1.0;"/></g><!--link CCO to CBO--><g id="link_CCO_CBO"><path codeLine="184" d="M1786.42,452.19 C1816.2,471.25 1845.0459,489.7164 1874.8059,508.7564 " fill="none" id="CCO-to-CBO" style="stroke:#181818;stroke-width:1.0;"/><polygon fill="#181818" points="1879.86,511.99,1874.4345,503.7703,1875.6482,509.2954,1870.1231,510.5091,1879.86,511.99" style="stroke:#181818;stroke-width:1.0;"/></g><!--link CMO to CGO--><g id="link_CMO_CGO"><path codeLine="185" d="M1947.27,280.9 C1953.43,302.66 1958.9968,322.2866 1965.1468,344.0266 " fill="none" id="CMO-to-CGO" style="stroke:#181818;stroke-width:1.0;"/><polygon fill="#181818" points="1966.78,349.8,1968.1791,340.051,1965.419,344.9888,1960.4812,342.2287,1966.78,349.8" style="stroke:#181818;stroke-width:1.0;"/></g><!--link CMO to CPO--><g id="link_CMO_CPO"><path codeLine="186" d="M2055.92,274.15 C2076.47,283.05 2097.2,293.08 2116,304 C2138.37,317 2156.4151,330.0543 2176.0151,345.9943 " fill="none" id="CMO-to-CPO" style="stroke:#181818;stroke-width:1.0;"/><polygon fill="#181818" points="2180.67,349.78,2176.2114,340.9982,2176.7909,346.6252,2171.1638,347.2047,2180.67,349.78" style="stroke:#181818;stroke-width:1.0;"/></g><!--link CHRO to CLO--><g id="link_CHRO_CLO"><path codeLine="189" d="M2888.94,452.19 C2921.59,471.25 2953.5685,489.9247 2986.1785,508.9647 " fill="none" id="CHRO-to-CLO" style="stroke:#181818;stroke-width:1.0;"/><polygon fill="#181818" points="2991.36,511.99,2985.6047,503.9977,2987.0421,509.4689,2981.5709,510.9064,2991.36,511.99" style="stroke:#181818;stroke-width:1.0;"/></g><!--link CHRO to CPeopleO--><g id="link_CHRO_CPeopleO"><path codeLine="190" d="M2924.62,433.51 C3003.73,454.51 3108.91,483.43 3201,512 C3206.72,513.78 3206.8469,513.7968 3212.7369,515.6868 " fill="none" id="CHRO-to-CPeopleO" style="stroke:#181818;stroke-width:1.0;"/><polygon fill="#181818" points="3218.45,517.52,3211.1025,510.9614,3213.6891,515.9923,3208.6582,518.5789,3218.45,517.52" style="stroke:#181818;stroke-width:1.0;"/></g><!--link CHRO to CWO--><g id="link_CHRO_CWO"><path codeLine="191" d="M2712.98,452.19 C2678.79,471.25 2645.1112,490.0295 2610.9412,509.0695 " fill="none" id="CHRO-to-CWO" style="stroke:#181818;stroke-width:1.0;"/><polygon fill="#181818" points="2605.7,511.99,2615.5089,511.1034,2610.0677,509.5563,2611.6149,504.1151,2605.7,511.99" style="stroke:#181818;stroke-width:1.0;"/></g><!--link CHRO to CDIO--><g id="link_CHRO_CDIO"><path codeLine="192" d="M2803,452.19 C2803,471.25 2803,486.95 2803,505.99 " fill="none" id="CHRO-to-CDIO" style="stroke:#181818;stroke-width:1.0;"/><polygon fill="#181818" points="2803,511.99,2807,502.99,2803,506.99,2799,502.99,2803,511.99" style="stroke:#181818;stroke-width:1.0;"/></g><!--link CFO to CRO--><g id="link_CFO_CRO"><path codeLine="195" d="M4086.51,285.02 C4098.27,291.22 4109.95,297.61 4121,304 C4145.19,317.99 4165.8195,331.1442 4188.6395,346.4742 " fill="none" id="CFO-to-CRO" style="stroke:#181818;stroke-width:1.0;"/><polygon fill="#181818" points="4193.62,349.82,4188.3798,341.4809,4189.4696,347.0318,4183.9187,348.1216,4193.62,349.82" style="stroke:#181818;stroke-width:1.0;"/></g><!--link CFO to CCompO--><g id="link_CFO_CCompO"><path codeLine="196" d="M3973,290.26 C3973,309.7 3973,325.07 3973,343.75 " fill="none" id="CFO-to-CCompO" style="stroke:#181818;stroke-width:1.0;"/><polygon fill="#181818" points="3973,349.75,3977,340.75,3973,344.75,3969,340.75,3973,349.75" style="stroke:#181818;stroke-width:1.0;"/></g><!--link CEO to CSO--><g id="link_CEO_CSO"><path codeLine="197" d="M1968.09,62.3 C2226.58,73.31 2935,119.41 3490,304 C3524.13,315.35 3554.2523,329.9553 3584.4323,346.9553 " fill="none" id="CEO-to-CSO" style="stroke:#181818;stroke-width:1.0;"/><polygon fill="#181818" points="3589.66,349.9,3583.7816,341.9978,3585.3036,347.4461,3579.8553,348.9681,3589.66,349.9" style="stroke:#181818;stroke-width:1.0;"/></g><!--link CSO to CEthicsO--><g id="link_CSO_CEthicsO"><path codeLine="198" d="M3675.27,452.19 C3677.66,471.25 3679.6258,486.9963 3682.0058,506.0363 " fill="none" id="CSO-to-CEthicsO" style="stroke:#181818;stroke-width:1.0;"/><polygon fill="#181818" points="3682.75,511.99,3685.6028,502.5634,3682.1298,507.0286,3677.6646,503.5556,3682.75,511.99" style="stroke:#181818;stroke-width:1.0;"/></g><!--link CInnovO to CKO--><g id="link_CInnovO_CKO"><path codeLine="200" d="M1493.22,794.19 C1477.74,813.25 1463.895,830.2945 1448.415,849.3345 " fill="none" id="CInnovO-to-CKO" style="stroke:#181818;stroke-width:1.0;"/><polygon fill="#181818" points="1444.63,853.99,1453.4112,849.5301,1447.7842,850.1104,1447.2039,844.4834,1444.63,853.99" style="stroke:#181818;stroke-width:1.0;"/></g><!--link CInnovO to CVO--><g id="link_CInnovO_CVO"><path codeLine="201" d="M1574.78,794.19 C1590.26,813.25 1604.105,830.2945 1619.585,849.3345 " fill="none" id="CInnovO-to-CVO" style="stroke:#181818;stroke-width:1.0;"/><polygon fill="#181818" points="1623.37,853.99,1620.7961,844.4834,1620.2158,850.1104,1614.5888,849.5301,1623.37,853.99" style="stroke:#181818;stroke-width:1.0;"/></g><!--link COO to CRemoteO--><g id="link_COO_CRemoteO"><path codeLine="202" d="M1400.01,280.77 C1419.49,361.09 1446.24,521.18 1388,638 C1377.49,659.08 1365.1507,673.2813 1346.5807,688.0113 " fill="none" id="COO-to-CRemoteO" style="stroke:#181818;stroke-width:1.0;"/><polygon fill="#181818" points="1341.88,691.74,1351.4169,689.2808,1345.7973,688.6328,1346.4453,683.0131,1341.88,691.74" style="stroke:#181818;stroke-width:1.0;"/></g><!--link CDO to CDesignO--><g id="link_CDO_CDesignO"><path codeLine="203" d="M803.94,614.12 C822.2,623.91 842.2,632.76 862,638 C905.4,649.49 1627.54,631.43 1670,646 C1697.83,655.55 1719.8201,670.0256 1741.3301,688.1356 " fill="none" id="CDO-to-CDesignO" style="stroke:#181818;stroke-width:1.0;"/><polygon fill="#181818" points="1745.92,692,1741.6115,683.1436,1742.0951,688.7797,1736.459,689.2634,1745.92,692" style="stroke:#181818;stroke-width:1.0;"/></g><!--link CDIO to CAccessO--><g id="link_CDIO_CAccessO"><path codeLine="204" d="M2710.84,614.12 C2691.78,623.06 2671.55,631.56 2652,638 C2510.35,684.64 2347.562,711.3828 2230.602,726.2628 " fill="none" id="CDIO-to-CAccessO" style="stroke:#181818;stroke-width:1.0;"/><polygon fill="#181818" points="2224.65,727.02,2234.0829,729.8522,2229.61,726.389,2233.0732,721.9161,2224.65,727.02" style="stroke:#181818;stroke-width:1.0;"/></g><!--link CXO to N3--><g id="link_CXO_N3"><path codeLine="210" d="M1777.87,614.15 C1794.83,623.88 1813.44,632.69 1832,638 C1853.85,644.25 2222.04,633.47 2241,646 C2324.18,700.96 2348.38,830.99 2354.84,882.47 " fill="none" id="CXO-N3" style="stroke:#181818;stroke-width:1.0;stroke-dasharray:7.0,7.0;"/></g><!--link CDesignO to N3--><g id="link_CDesignO_N3"><path codeLine="211" d="M1904.83,788.67 C1910.6,790.57 1916.35,792.36 1922,794 C2060.57,834.12 2103.03,811.86 2241,854 C2265.54,861.5 2291.88,872.58 2313.25,882.41 " fill="none" id="CDesignO-N3" style="stroke:#181818;stroke-width:1.0;stroke-dasharray:7.0,7.0;"/></g><!--link CDIO to N4--><g id="link_CDIO_N4"><path codeLine="214" d="M2895.15,614.13 C2914.21,623.07 2934.45,631.57 2954,638 C3102.63,686.86 3280.95,714.65 3398.75,728.99 " fill="none" id="CDIO-N4" style="stroke:#181818;stroke-width:1.0;stroke-dasharray:7.0,7.0;"/></g><!--link CSO to N4--><g id="link_CSO_N4"><path codeLine="215" d="M3608.15,452.13 C3590.96,469.35 3573.97,489.91 3563,512 C3525.51,587.47 3525.21,692.57 3526.39,728.98 " fill="none" id="CSO-N4" style="stroke:#181818;stroke-width:1.0;stroke-dasharray:7.0,7.0;"/></g><!--link CEthicsO to N4--><g id="link_CEthicsO_N4"><path codeLine="216" d="M3643.44,614.06 C3607.88,653.13 3560.96,704.68 3539.14,728.66 " fill="none" id="CEthicsO-N4" style="stroke:#181818;stroke-width:1.0;stroke-dasharray:7.0,7.0;"/></g><!--SRC=[ZLZDSjis4BxpAJ0-DEsqoQ5Dhfsn9TbHROSQIxLpo0KY8HeE22W0gVnqyW1zZ1npoA7JHz2BzGC1WY15nJru1W1N-orsl_s1Cq6D8IUJMVf6Jkuvsv3P1vRL5TynacusF6FwX513843-IWZvEMSRBhc-vORl_vMpSgkPePfJyUDFzhEfjqplE8vIB6Z6bMG6dpudoHEoqBp48H7xRv9HaZEYsLRfYYMPDoCDPZG_hxWi-cQaQMD5mKm5rKCKV64FrdogPwR2xrd1gKDl4Su3mZcNL6Qml8zmFa1en3vHhtuhgEIGfdg1YzVR6cBAVGg_kE7C5Cfu_KmhqpVXEfXmJVLRTdZ9wzIx6cxKIeZuDk4d0r2SPpGuchwhMSKCWNV9_ejcqBgffVKJ5SmaMvgzfGKZ9okMIILKiVz62IDSRfGkuKv4zgG9TsloF9WyTp8Mj6_ql36wOqXdyZnIsrWDeP8zA8rxGG5dDWe-tZlQI7p6NmI_2l0m-Bwn-6CVVTMX1wT5bsjXURaLh6GI15agKJlYhFPVCucGcZ7e-NBqwakmJFDgO0M4lHaXBajMG32dUMj2bo6J6jRm4lUlr2kdUQV6R9W64wQyuDMGiTCMLF0SJjGhJQNfNEv_4rmW4HJTyuvv19HMT828awFXnaTbMZIuWQu5moylr9hf9fKwWG7aQO0y1Ky_LZmpVTpJaIXtmFP7-s_uLGXtmQHrY0iSCqvq_xNWMJ00-HAoOVO1eN5q91z9fihQqc8a7IR1q8agdPIDzi3QoL4NJMBLhR5RPNZMo-K31xsEghGtTL2cNxUORO9rLve8opJM-SOpz0-5iEIzpmFOYm1xeTNxwhuFUH6koGtR_nD7PA9PvWaU2F5XIsNEzJN37VDn7Ym2taAhlCwgFk3Yg5-zU02BQF9IFT0fkq5h64Cy2uXdI9wyZtVsNTPrmO941X9KkaP_f4BfAOiZ6JCjrGNwo2T7070D-McTr6VPovjWrSkwf9BSCADgdR41po0th3ehfs_43ptaCLTS1T0hHhKyQ4vNBLY6je8kg51CIchE3qfy10g-Rz6FB0iV2pXJgD23U3Td1tUSrAAgTN3zHhcwRh6qAhbHCrliZt7iBa3UCI7G1GPElMlnh3ArO_eCDBRLJFVLMag_gxdWQsJRBGhz5LqZySHeIPr7XHmgZMqWFw2lPA8s1mrr6ZfgrBM2lxs2gB6qXivHMNZJIetNt4Kwvc3SVa11emmYnDUu2fJscTWHyOQRjtqp0_dOZeewJ3yZBEXonbppYXV7ETYhhp2I7jGvUzu2KsDxxFVwQKoR_T-sGmm7ru41NTDVreWv9Zdhbs6xNnujHCkUCqUcZn37qt9j3RPZsPWXqLnUtH_qGtSM0X1wBGpPVv4vnHMRwtRXe89ZzExbJfyLSodLBjIbJGqnTNmMjB8Zew0zZyXR2qDxys206679gverp0qa7dFBPR3XKghtWkN5W1-NX-L2IJLiHd69ebix9StH0k72gXxdnMt0jG-WuRrl0oCbdCwtTiYIkIjxvzQJD4gBXZ5JZWxPU2AQJKOxL9I2h5JLuBhkx9082-Kd8eEXS4qVL2Duc1Gpb33C7rCEA_YwvlcZ0rg6DcJuM5QuJoErAs9b8pDCZxQ0JPivGldYzUX834N5i7GsPySdL0SmV8jqezAV1eMCgouzdi3hmhypoGFJU5F1Ot1hOX_6J_EdlzkdgTlOzNaQVRXkFzZDF9AQH6iqyMxZ4cW0MtK3Um8rJdALTckyFhhDD5xRSRtRdWurzoRT1FPsvaty-dMqFaixcOjelJYms4qXYRsS4xbAeutlwz79NRn1_nlQ6HNu13vsSjPnxRff2vqVhKEMVkrhPP9uxxhJoxI_lyK-RHMxf4hWIs-HerLYJVEkT5nF4cbJykH62GAowy9EqeJXsM5dN2o8e6zarN-NaTmzp1hAllgrWNdspAx-bpOMFLPo9aZjEEkq_POWOeqshBpPVjigPni1tjj_mY2bY6ogBjb2G_DQXRUDilySmG9F8TSki77gdpiNM8NF6m_xbVUnttgacTaogocCk_PHOA_q2y0rAdpkhI3sPS1AJXt8YwIDGAFlHV8V]--></g></svg>