<?xml version="1.0" encoding="us-ascii" standalone="no"?><svg xmlns="http://www.w3.org/2000/svg" xmlns:xlink="http://www.w3.org/1999/xlink" contentStyleType="text/css" height="703px" preserveAspectRatio="none" style="width:1207px;height:703px;background:#FFFFFF;" version="1.1" viewBox="0 0 1207 703" width="1207px" zoomAndPan="magnify"><defs/><g><!--cluster TrianguloDeHierro--><g id="cluster_TrianguloDeHierro"><path d="M617,264 L746,264 A3.75,3.75 0 0 1 748.5,266.5 L755.5,289.0679 L1198,289.0679 A2.5,2.5 0 0 1 1200.5,291.5679 L1200.5,693.5 A2.5,2.5 0 0 1 1198,696 L617,696 A2.5,2.5 0 0 1 614.5,693.5 L614.5,266.5 A2.5,2.5 0 0 1 617,264 " fill="none" style="stroke:#000000;stroke-width:1.5;"/><line style="stroke:#000000;stroke-width:1.5;" x1="614.5" x2="755.5" y1="289.0679" y2="289.0679"/><text fill="#000000" font-family="sans-serif" font-size="14" font-weight="bold" lengthAdjust="spacing" textLength="128" x="618.5" y="280.9659">TrianguloDeHierro</text></g><!--class TRIANGULO--><g id="elem_TRIANGULO"><rect codeLine="14" fill="#F1F1F1" height="121.3396" id="TRIANGULO" rx="2.5" ry="2.5" style="stroke:#181818;stroke-width:0.5;" width="145" x="746" y="302"/><text fill="#000000" font-family="sans-serif" font-size="14" lengthAdjust="spacing" textLength="107" x="765" y="321.9659">TrianguloHierro</text><line style="stroke:#181818;stroke-width:0.5;" x1="747" x2="890" y1="331.0679" y2="331.0679"/><text fill="#000000" font-family="sans-serif" font-size="14" lengthAdjust="spacing" textLength="96" x="752" y="350.0339">restricciones[]</text><line style="stroke:#181818;stroke-width:0.5;" x1="747" x2="890" y1="358.1358" y2="358.1358"/><text fill="#000000" font-family="sans-serif" font-size="14" lengthAdjust="spacing" textLength="133" x="752" y="377.1018">calcularDesviacion()</text><text fill="#000000" font-family="sans-serif" font-size="14" lengthAdjust="spacing" textLength="132" x="752" y="396.1697">ajustarParametros()</text><text fill="#000000" font-family="sans-serif" font-size="14" lengthAdjust="spacing" textLength="133" x="752" y="415.2376">optimizarRecursos()</text></g><!--class TIEMPO--><g id="elem_TIEMPO"><rect codeLine="21" fill="#F1F1F1" height="159.4754" id="TIEMPO" rx="2.5" ry="2.5" style="stroke:#181818;stroke-width:0.5;" width="170" x="630.5" y="521"/><text fill="#000000" font-family="sans-serif" font-size="14" lengthAdjust="spacing" textLength="50" x="690.5" y="540.9659">Tiempo</text><line style="stroke:#181818;stroke-width:0.5;" x1="631.5" x2="799.5" y1="550.0679" y2="550.0679"/><text fill="#000000" font-family="sans-serif" font-size="14" lengthAdjust="spacing" textLength="134" x="636.5" y="569.0339">duracionPlanificada</text><text fill="#000000" font-family="sans-serif" font-size="14" lengthAdjust="spacing" textLength="43" x="636.5" y="588.1018">hitos[]</text><text fill="#000000" font-family="sans-serif" font-size="14" lengthAdjust="spacing" textLength="74" x="636.5" y="607.1697">fechaInicio</text><text fill="#000000" font-family="sans-serif" font-size="14" lengthAdjust="spacing" textLength="57" x="636.5" y="626.2376">fechaFin</text><line style="stroke:#181818;stroke-width:0.5;" x1="631.5" x2="799.5" y1="634.3396" y2="634.3396"/><text fill="#000000" font-family="sans-serif" font-size="14" lengthAdjust="spacing" textLength="92" x="636.5" y="653.3055">calcularRuta()</text><text fill="#000000" font-family="sans-serif" font-size="14" lengthAdjust="spacing" textLength="158" x="636.5" y="672.3734">actualizarCronograma()</text></g><!--class COSTE--><g id="elem_COSTE"><rect codeLine="30" fill="#F1F1F1" height="140.4075" id="COSTE" rx="2.5" ry="2.5" style="stroke:#181818;stroke-width:0.5;" width="171" x="836" y="530.5"/><text fill="#000000" font-family="sans-serif" font-size="14" lengthAdjust="spacing" textLength="37" x="903" y="550.4659">Coste</text><line style="stroke:#181818;stroke-width:0.5;" x1="837" x2="1006" y1="559.5679" y2="559.5679"/><text fill="#000000" font-family="sans-serif" font-size="14" lengthAdjust="spacing" textLength="159" x="842" y="578.5339">presupuestoPlanificado</text><text fill="#000000" font-family="sans-serif" font-size="14" lengthAdjust="spacing" textLength="66" x="842" y="597.6018">gastoReal</text><text fill="#000000" font-family="sans-serif" font-size="14" lengthAdjust="spacing" textLength="142" x="842" y="616.6697">distribucionRecursos</text><line style="stroke:#181818;stroke-width:0.5;" x1="837" x2="1006" y1="624.7717" y2="624.7717"/><text fill="#000000" font-family="sans-serif" font-size="14" lengthAdjust="spacing" textLength="133" x="842" y="643.7376">calcularDesviacion()</text><text fill="#000000" font-family="sans-serif" font-size="14" lengthAdjust="spacing" textLength="127" x="842" y="662.8055">gestionarPartidas()</text></g><!--class ALCANCE--><g id="elem_ALCANCE"><rect codeLine="38" fill="#F1F1F1" height="140.4075" id="ALCANCE" rx="2.5" ry="2.5" style="stroke:#181818;stroke-width:0.5;" width="142" x="1042.5" y="530.5"/><text fill="#000000" font-family="sans-serif" font-size="14" lengthAdjust="spacing" textLength="52" x="1087.5" y="550.4659">Alcance</text><line style="stroke:#181818;stroke-width:0.5;" x1="1043.5" x2="1183.5" y1="559.5679" y2="559.5679"/><text fill="#000000" font-family="sans-serif" font-size="14" lengthAdjust="spacing" textLength="70" x="1048.5" y="578.5339">objetivos[]</text><text fill="#000000" font-family="sans-serif" font-size="14" lengthAdjust="spacing" textLength="91" x="1048.5" y="597.6018">entregables[]</text><text fill="#000000" font-family="sans-serif" font-size="14" lengthAdjust="spacing" textLength="77" x="1048.5" y="616.6697">requisitos[]</text><line style="stroke:#181818;stroke-width:0.5;" x1="1043.5" x2="1183.5" y1="624.7717" y2="624.7717"/><text fill="#000000" font-family="sans-serif" font-size="14" lengthAdjust="spacing" textLength="101" x="1048.5" y="643.7376">definirLimites()</text><text fill="#000000" font-family="sans-serif" font-size="14" lengthAdjust="spacing" textLength="130" x="1048.5" y="662.8055">gestionarCambios()</text></g><!--class TRANSFORMACION--><g id="elem_TRANSFORMACION"><rect codeLine="4" fill="#F1F1F1" height="140.4075" id="TRANSFORMACION" rx="2.5" ry="2.5" style="stroke:#181818;stroke-width:0.5;" width="178" x="217.5" y="26.5"/><text fill="#000000" font-family="sans-serif" font-size="14" font-weight="bold" lengthAdjust="spacing" textLength="172" x="220.5" y="46.4659">TRANSFORMACI&#211;N REAL</text><line style="stroke:#181818;stroke-width:0.5;" x1="218.5" x2="394.5" y1="55.5679" y2="55.5679"/><text fill="#000000" font-family="sans-serif" font-size="14" lengthAdjust="spacing" textLength="47" x="223.5" y="74.5339">equipo</text><line style="stroke:#181818;stroke-width:0.5;" x1="218.5" x2="394.5" y1="82.6358" y2="82.6358"/><text fill="#000000" font-family="sans-serif" font-size="14" lengthAdjust="spacing" textLength="118" x="223.5" y="101.6018">evaluarProgreso()</text><text fill="#000000" font-family="sans-serif" font-size="14" lengthAdjust="spacing" textLength="103" x="223.5" y="120.6697">medirImpacto()</text><text fill="#000000" font-family="sans-serif" font-size="14" lengthAdjust="spacing" textLength="123" x="223.5" y="139.7376">gestionarCambio()</text><text fill="#000000" font-family="sans-serif" font-size="14" lengthAdjust="spacing" textLength="129" x="223.5" y="158.8055">adaptarEstrategia()</text></g><!--class PROYECTO--><g id="elem_PROYECTO"><rect codeLine="49" fill="#F1F1F1" height="178.5433" id="PROYECTO" rx="2.5" ry="2.5" style="stroke:#181818;stroke-width:0.5;" width="240" x="479.5" y="7"/><text fill="#000000" font-family="sans-serif" font-size="14" lengthAdjust="spacing" textLength="57" x="571" y="26.9659">Proyecto</text><line style="stroke:#181818;stroke-width:0.5;" x1="480.5" x2="718.5" y1="36.0679" y2="36.0679"/><text fill="#000000" font-family="sans-serif" font-size="14" lengthAdjust="spacing" textLength="121" x="485.5" y="55.0339">desviacionTiempo</text><text fill="#000000" font-family="sans-serif" font-size="14" lengthAdjust="spacing" textLength="155" x="485.5" y="74.1018">desviacionPresupuesto</text><text fill="#000000" font-family="sans-serif" font-size="14" lengthAdjust="spacing" textLength="107" x="485.5" y="93.1697">causasRetraso[]</text><line style="stroke:#181818;stroke-width:0.5;" x1="480.5" x2="718.5" y1="101.2717" y2="101.2717"/><text fill="#000000" font-family="sans-serif" font-size="14" lengthAdjust="spacing" textLength="133" x="485.5" y="120.2376">calcularDesviacion()</text><text fill="#000000" font-family="sans-serif" font-size="14" lengthAdjust="spacing" textLength="153" x="485.5" y="139.3055">identificarCausasRaiz()</text><text fill="#000000" font-family="sans-serif" font-size="14" lengthAdjust="spacing" textLength="228" x="485.5" y="158.3734">implementarMedidasCorrectivas()</text><text fill="#000000" font-family="sans-serif" font-size="14" lengthAdjust="spacing" textLength="123" x="485.5" y="177.4414">renegociarPlazos()</text></g><!--class EQUIPO--><g id="elem_EQUIPO"><rect codeLine="59" fill="#F1F1F1" height="140.4075" id="EQUIPO" rx="2.5" ry="2.5" style="stroke:#181818;stroke-width:0.5;" width="141" x="24" y="292.5"/><text fill="#000000" font-family="sans-serif" font-size="14" lengthAdjust="spacing" textLength="47" x="71" y="312.4659">Equipo</text><line style="stroke:#181818;stroke-width:0.5;" x1="25" x2="164" y1="321.5679" y2="321.5679"/><text fill="#000000" font-family="sans-serif" font-size="14" lengthAdjust="spacing" textLength="78" x="30" y="340.5339">miembros[]</text><text fill="#000000" font-family="sans-serif" font-size="14" lengthAdjust="spacing" textLength="43" x="30" y="359.6018">roles[]</text><text fill="#000000" font-family="sans-serif" font-size="14" lengthAdjust="spacing" textLength="42" x="30" y="378.6697">nivel[]</text><line style="stroke:#181818;stroke-width:0.5;" x1="25" x2="164" y1="386.7717" y2="386.7717"/><text fill="#000000" font-family="sans-serif" font-size="14" lengthAdjust="spacing" textLength="129" x="30" y="405.7376">evaluarCapacidad()</text><text fill="#000000" font-family="sans-serif" font-size="14" lengthAdjust="spacing" textLength="95" x="30" y="424.8055">asignarRoles()</text></g><!--class ROI--><g id="elem_ROI"><rect codeLine="67" fill="#F1F1F1" height="194.8874" id="ROI" rx="2.5" ry="2.5" style="stroke:#181818;stroke-width:0.5;" width="197" x="200" y="265"/><text fill="#000000" font-family="sans-serif" font-size="12" font-style="italic" lengthAdjust="spacing" textLength="52" x="272.5" y="282.8281">&#171;difficult&#187;</text><text fill="#000000" font-family="sans-serif" font-size="14" lengthAdjust="spacing" textLength="25" x="286" y="301.31">ROI</text><line style="stroke:#181818;stroke-width:0.5;" x1="201" x2="396" y1="310.412" y2="310.412"/><text fill="#000000" font-family="sans-serif" font-size="14" lengthAdjust="spacing" textLength="167" x="206" y="329.378">indicadoresCuantitativos</text><text fill="#000000" font-family="sans-serif" font-size="14" lengthAdjust="spacing" textLength="146" x="206" y="348.4459">beneficiosIntangibles</text><text fill="#000000" font-family="sans-serif" font-size="14" lengthAdjust="spacing" textLength="146" x="206" y="367.5138">metodologiaMedicion</text><line style="stroke:#181818;stroke-width:0.5;" x1="201" x2="396" y1="375.6158" y2="375.6158"/><text fill="#000000" font-family="sans-serif" font-size="14" lengthAdjust="spacing" textLength="82" x="206" y="394.5817">definirKPIs()</text><text fill="#000000" font-family="sans-serif" font-size="14" lengthAdjust="spacing" textLength="185" x="206" y="413.6496">medirBeneficiosIndirectos()</text><text fill="#000000" font-family="sans-serif" font-size="14" lengthAdjust="spacing" textLength="86" x="206" y="432.7176">calcularROI()</text><text fill="#000000" font-family="sans-serif" font-size="14" lengthAdjust="spacing" textLength="113" x="206" y="451.7855">ajustarMetricas()</text></g><!--class CULTURA--><g id="elem_CULTURA"><rect codeLine="77" fill="#F1F1F1" height="178.5433" id="CULTURA" rx="2.5" ry="2.5" style="stroke:#181818;stroke-width:0.5;" width="167" x="432" y="273"/><text fill="#000000" font-family="sans-serif" font-size="14" lengthAdjust="spacing" textLength="152" x="439.5" y="292.9659">CulturaOrganizacional</text><line style="stroke:#181818;stroke-width:0.5;" x1="433" x2="598" y1="302.0679" y2="302.0679"/><text fill="#000000" font-family="sans-serif" font-size="14" lengthAdjust="spacing" textLength="108" x="438" y="321.0339">nivelResistencia</text><text fill="#000000" font-family="sans-serif" font-size="14" lengthAdjust="spacing" textLength="103" x="438" y="340.1018">gradoAdopcion</text><text fill="#000000" font-family="sans-serif" font-size="14" lengthAdjust="spacing" textLength="149" x="438" y="359.1697">cambiosOrganizativos</text><line style="stroke:#181818;stroke-width:0.5;" x1="433" x2="598" y1="367.2717" y2="367.2717"/><text fill="#000000" font-family="sans-serif" font-size="14" lengthAdjust="spacing" textLength="134" x="438" y="386.2376">evaluarResistencia()</text><text fill="#000000" font-family="sans-serif" font-size="14" lengthAdjust="spacing" textLength="155" x="438" y="405.3055">gestionarExpectativas()</text><text fill="#000000" font-family="sans-serif" font-size="14" lengthAdjust="spacing" textLength="136" x="438" y="424.3734">promoverAdopcion()</text><text fill="#000000" font-family="sans-serif" font-size="14" lengthAdjust="spacing" textLength="128" x="438" y="443.4414">medirSatisfaccion()</text></g><!--class COMPETENCIAS--><g id="elem_COMPETENCIAS"><rect codeLine="87" fill="#F1F1F1" height="178.5433" id="COMPETENCIAS" rx="2.5" ry="2.5" style="stroke:#181818;stroke-width:0.5;" width="175" x="7" y="7"/><text fill="#000000" font-family="sans-serif" font-size="14" lengthAdjust="spacing" textLength="95" x="47" y="26.9659">Competencias</text><line style="stroke:#181818;stroke-width:0.5;" x1="8" x2="181" y1="36.0679" y2="36.0679"/><text fill="#000000" font-family="sans-serif" font-size="14" lengthAdjust="spacing" textLength="152" x="13" y="55.0339">brechaCompetencias[]</text><text fill="#000000" font-family="sans-serif" font-size="14" lengthAdjust="spacing" textLength="94" x="13" y="74.1018">nuevosRoles[]</text><text fill="#000000" font-family="sans-serif" font-size="14" lengthAdjust="spacing" textLength="116" x="13" y="93.1697">planCapacitacion</text><line style="stroke:#181818;stroke-width:0.5;" x1="8" x2="181" y1="101.2717" y2="101.2717"/><text fill="#000000" font-family="sans-serif" font-size="14" lengthAdjust="spacing" textLength="163" x="13" y="120.2376">identificarNecesidades()</text><text fill="#000000" font-family="sans-serif" font-size="14" lengthAdjust="spacing" textLength="132" x="13" y="139.3055">desarrollarTalento()</text><text fill="#000000" font-family="sans-serif" font-size="14" lengthAdjust="spacing" textLength="124" x="13" y="158.3734">actualizarPerfiles()</text><text fill="#000000" font-family="sans-serif" font-size="14" lengthAdjust="spacing" textLength="138" x="13" y="177.4414">evaluarDesempe&#241;o()</text></g><!--reverse link TRANSFORMACION to PROYECTO--><g id="link_TRANSFORMACION_PROYECTO"><path codeLine="97" d="M407.77,96.5 C435.63,96.5 451.48,96.5 479.33,96.5 " fill="none" id="TRANSFORMACION-backto-PROYECTO" style="stroke:#181818;stroke-width:1.0;"/><polygon fill="#181818" points="395.77,96.5,401.77,100.5,407.77,96.5,401.77,92.5,395.77,96.5" style="stroke:#181818;stroke-width:1.0;"/></g><!--reverse link TRANSFORMACION to ROI--><g id="link_TRANSFORMACION_ROI"><path codeLine="98" d="M304.0454,178.5145 C303.1354,208.4545 302.42,232.05 301.44,264.58 " fill="none" id="TRANSFORMACION-backto-ROI" style="stroke:#181818;stroke-width:1.0;"/><polygon fill="#181818" points="304.41,166.52,300.2296,172.3957,304.0454,178.5145,308.2259,172.6388,304.41,166.52" style="stroke:#181818;stroke-width:1.0;"/></g><!--reverse link TRANSFORMACION to CULTURA--><g id="link_TRANSFORMACION_CULTURA"><path codeLine="99" d="M368.5883,175.9287 C394.3483,208.4687 417.94,238.27 445.41,272.97 " fill="none" id="TRANSFORMACION-backto-CULTURA" style="stroke:#181818;stroke-width:1.0;"/><polygon fill="#181818" points="361.14,166.52,361.7279,173.7071,368.5883,175.9287,368.0004,168.7416,361.14,166.52" style="stroke:#181818;stroke-width:1.0;"/></g><!--link COMPETENCIAS to TRANSFORMACION--><g id="link_COMPETENCIAS_TRANSFORMACION"><path codeLine="100" d="M182.28,96.5 C193.93,96.5 193.57,96.5 205.22,96.5 " fill="none" id="COMPETENCIAS-to-TRANSFORMACION" style="stroke:#181818;stroke-width:1.0;"/><polygon fill="#181818" points="217.22,96.5,211.22,92.5,205.22,96.5,211.22,100.5,217.22,96.5" style="stroke:#181818;stroke-width:1.0;"/></g><!--reverse link TRANSFORMACION to EQUIPO--><g id="link_TRANSFORMACION_EQUIPO"><path codeLine="101" d="M243.5646,175.8751 C212.3946,214.6751 181.14,253.61 149.97,292.43 " fill="none" id="TRANSFORMACION-backto-EQUIPO" style="stroke:#181818;stroke-width:1.0;"/><polygon fill="#181818" points="251.08,166.52,244.2039,168.6924,243.5646,175.8751,250.4407,173.7027,251.08,166.52" style="stroke:#181818;stroke-width:1.0;"/></g><!--link EQUIPO to COMPETENCIAS--><g id="link_EQUIPO_COMPETENCIAS"><path codeLine="102" d="M94.5,292.29 C94.5,259.82 94.5,226.75 94.5,192.14 " fill="none" id="EQUIPO-to-COMPETENCIAS" style="stroke:#181818;stroke-width:1.0;stroke-dasharray:7.0,7.0;"/><polygon fill="#181818" points="94.5,186.14,90.5,195.14,94.5,191.14,98.5,195.14,94.5,186.14" style="stroke:#181818;stroke-width:1.0;"/></g><!--reverse link TRIANGULO to TIEMPO--><g id="link_TRIANGULO_TIEMPO"><path codeLine="104" d="M787.7105,434.0484 C774.7805,463.6784 763.77,488.89 749.86,520.78 " fill="none" id="TRIANGULO-backto-TIEMPO" style="stroke:#181818;stroke-width:1.0;"/><polygon fill="#181818" points="792.51,423.05,786.4441,426.9494,787.7105,434.0484,793.7764,430.149,792.51,423.05" style="stroke:#181818;stroke-width:1.0;"/><text fill="#000000" font-family="sans-serif" font-size="13" lengthAdjust="spacing" textLength="7" x="781.9159" y="445.3848">1</text></g><!--reverse link TRIANGULO to COSTE--><g id="link_TRIANGULO_COSTE"><path codeLine="105" d="M849.2885,434.0488 C863.5285,466.6888 876.46,496.3 891.31,530.34 " fill="none" id="TRIANGULO-backto-COSTE" style="stroke:#181818;stroke-width:1.0;"/><polygon fill="#181818" points="844.49,423.05,843.223,430.1489,849.2885,434.0488,850.5555,426.9499,844.49,423.05" style="stroke:#181818;stroke-width:1.0;"/><text fill="#000000" font-family="sans-serif" font-size="13" lengthAdjust="spacing" textLength="7" x="840.231" y="445.3848">1</text></g><!--reverse link TRIANGULO to ALCANCE--><g id="link_TRIANGULO_ALCANCE"><path codeLine="106" d="M901.0409,424.5088 C940.8909,454.3888 981.19,485.42 1024.5,521 C1030.39,525.84 1036.44,530.92 1042.47,536.07 " fill="none" id="TRIANGULO-backto-ALCANCE" style="stroke:#181818;stroke-width:1.0;"/><polygon fill="#181818" points="891.44,417.31,893.8408,424.1097,901.0409,424.5088,898.64,417.7091,891.44,417.31" style="stroke:#181818;stroke-width:1.0;"/><text fill="#000000" font-family="sans-serif" font-size="13" lengthAdjust="spacing" textLength="7" x="898.9646" y="418.7837">1</text></g><!--reverse link PROYECTO to TRIANGULO--><g id="link_PROYECTO_TRIANGULO"><path codeLine="107" d="M680.6924,195.3751 C712.2624,233.4251 740.64,267.64 768.96,301.78 " fill="none" id="PROYECTO-backto-TRIANGULO" style="stroke:#181818;stroke-width:1.0;"/><polygon fill="#181818" points="673.03,186.14,673.7828,193.3117,680.6924,195.3751,679.9396,188.2034,673.03,186.14" style="stroke:#181818;stroke-width:1.0;"/><polygon fill="#000000" points="716.6923,229.7013,713.1793,220.8633,708.6554,224.6161,716.6923,229.7013" style="stroke:#000000;stroke-width:1.0;"/><text fill="#000000" font-family="sans-serif" font-size="13" lengthAdjust="spacing" textLength="90" x="722.5" y="230.897">restringido por</text></g><!--SRC=[VLLBZjms4Dth5CAiuW3Z85jZq80YoudW_YYQdaKGP56YgjMqAL4fKfru39yY9yaPVB4KFwrMZsUoabH5ibwzUeywoXPJ8KaeJ8xk7VlHVafxx1iaaoH2WJ7fpLspsjVPzlxThjvaUVdrdsrQ5zdwxeTcTPE2IPV9tJRzdAGf_Zd9KRkN4wW9g2BT4HhztIkEzTXAAliHX0s13esLUW3AeMzaY44BemKgZ2Mms4dWw9SauKqVeSDqJnA6RbBwBVuYaKX_dk7EgP284Cji-_F3UkVHCH9BKWYkYURtFpWYG8b90Rr5SvBW4W74XyamY0e8UhIaZO_gqSfUFWBLA2OoFlhbKbuoYx5gMMogKBATo1zRAHZaGGfkZwD7QNK0S41nX7AGlERyzKuE2sJrP25W4dO2vShdf0Uc5Ngu0f1hOz7NptVt-yAN7xdbQPouRtr1u2frmA4QGJcCqj7IJ0xdkRMNkPc7nknOsS8r2vaIC8W08rldsJOFG7Jp0QqynQvni8GTD2gEWPnkp4nAYmSvI5epsnRDSrA9HHU5MMcVa8NbArVrxhSYtySHpFZ3YAv2rOKWt_9amDGySZ3w_mJ2fXciPvC1-JqW7qEc7nNsd0NQiDwPdrmJCJ9vWj0AuO2T5f8PLF3uH4M5Dv1lelZreOmgwXbuGv4TqcVQ1db25GWDTik1VS8rsw0O8pjch7RhhuhKkz9Nu6TwTzVA0pSoARjQ-M9oQBrAc9by0cxJWfySfng6Vd1QDIKtE7JIJT0xs-fMAyrsTKqxcYvZV5-LvkB_dnP7yASRMSZEWj-LImzkq5dsYSfoHil6sb77cdxqOm4LfF-mtZ_KcM_4qrEZONdZm7mx6H4tbhLwZ115KDFve7EVaSx5tciH5d-F31mkCnr9z_g4T3xwqkyzhp87436wj6i_OZZSHDTkgc9VRFCok_Vu6tBNmN9TcFg4ZBAULJ2oiSFWBSIs5lBSek0kM1BHIFm4lXqLCxq7nSlqazkbGZf85LT78bZzx1py-gyEBJov-R-_9TaTxUtiksyNjFgluTO9xgLK7DotQOK7Fdb9paj71CCaqJUlNw-kToMNdy7DZpUywpPUrCya_0twJ3nUQSbymVXJvcLluY-6dT7gTDIKhfBaFm00]--></g></svg>