<?xml version="1.0" encoding="us-ascii" standalone="no"?><svg xmlns="http://www.w3.org/2000/svg" xmlns:xlink="http://www.w3.org/1999/xlink" contentStyleType="text/css" height="1055px" preserveAspectRatio="none" style="width:954px;height:1055px;background:#FFFFFF;" version="1.1" viewBox="0 0 954 1055" width="954px" zoomAndPan="magnify"><defs/><g><!--class Trabajo--><g id="elem_Trabajo"><rect codeLine="4" fill="#F1F1F1" height="94.2717" id="Trabajo" rx="2.5" ry="2.5" style="stroke:#181818;stroke-width:0.5;" width="102" x="373" y="7"/><text fill="#000000" font-family="sans-serif" font-size="14" font-style="italic" lengthAdjust="spacing" textLength="49" x="399.5" y="26.9659">Trabajo</text><line style="stroke:#181818;stroke-width:0.5;" x1="374" x2="474" y1="36.0679" y2="36.0679"/><text fill="#000000" font-family="sans-serif" font-size="14" lengthAdjust="spacing" textLength="74" x="379" y="55.0339">presentar()</text><text fill="#000000" font-family="sans-serif" font-size="14" lengthAdjust="spacing" textLength="58" x="379" y="74.1018">evaluar()</text><text fill="#000000" font-family="sans-serif" font-size="14" lengthAdjust="spacing" textLength="90" x="379" y="93.1697">documentar()</text></g><!--class TrabajoProfesional--><g id="elem_TrabajoProfesional"><rect codeLine="10" fill="#F1F1F1" height="178.5433" id="TrabajoProfesional" rx="2.5" ry="2.5" style="stroke:#181818;stroke-width:0.5;" width="169" x="652.5" y="161"/><text fill="#000000" font-family="sans-serif" font-size="14" lengthAdjust="spacing" textLength="126" x="674" y="180.9659">TrabajoProfesional</text><line style="stroke:#181818;stroke-width:0.5;" x1="653.5" x2="820.5" y1="190.0679" y2="190.0679"/><text fill="#000000" font-family="sans-serif" font-size="14" lengthAdjust="spacing" textLength="120" x="658.5" y="209.0339">analisisSustancial</text><text fill="#000000" font-family="sans-serif" font-size="14" lengthAdjust="spacing" textLength="142" x="658.5" y="228.1018">estructuraAdaptativa</text><text fill="#000000" font-family="sans-serif" font-size="14" lengthAdjust="spacing" textLength="62" x="658.5" y="247.1697">valorReal</text><text fill="#000000" font-family="sans-serif" font-size="14" lengthAdjust="spacing" textLength="157" x="658.5" y="266.2376">trazabilidadAutomatica</text><line style="stroke:#181818;stroke-width:0.5;" x1="653.5" x2="820.5" y1="274.3396" y2="274.3396"/><text fill="#000000" font-family="sans-serif" font-size="14" lengthAdjust="spacing" textLength="74" x="658.5" y="293.3055">presentar()</text><text fill="#000000" font-family="sans-serif" font-size="14" lengthAdjust="spacing" textLength="58" x="658.5" y="312.3734">evaluar()</text><text fill="#000000" font-family="sans-serif" font-size="14" lengthAdjust="spacing" textLength="90" x="658.5" y="331.4414">documentar()</text></g><!--class TrabajoAcademico--><g id="elem_TrabajoAcademico"><rect codeLine="20" fill="#F1F1F1" height="178.5433" id="TrabajoAcademico" rx="2.5" ry="2.5" style="stroke:#181818;stroke-width:0.5;" width="208" x="7" y="161"/><text fill="#000000" font-family="sans-serif" font-size="14" lengthAdjust="spacing" textLength="124" x="49" y="180.9659">TrabajoAcademico</text><line style="stroke:#181818;stroke-width:0.5;" x1="8" x2="214" y1="190.0679" y2="190.0679"/><text fill="#000000" font-family="sans-serif" font-size="14" lengthAdjust="spacing" textLength="196" x="13" y="209.0339">presentacionVisualElaborada</text><text fill="#000000" font-family="sans-serif" font-size="14" lengthAdjust="spacing" textLength="179" x="13" y="228.1018">estructuraPredeterminada</text><text fill="#000000" font-family="sans-serif" font-size="14" lengthAdjust="spacing" textLength="128" x="13" y="247.1697">requisitosFormales</text><text fill="#000000" font-family="sans-serif" font-size="14" lengthAdjust="spacing" textLength="133" x="13" y="266.2376">listadoParticipantes</text><line style="stroke:#181818;stroke-width:0.5;" x1="8" x2="214" y1="274.3396" y2="274.3396"/><text fill="#000000" font-family="sans-serif" font-size="14" lengthAdjust="spacing" textLength="74" x="13" y="293.3055">presentar()</text><text fill="#000000" font-family="sans-serif" font-size="14" lengthAdjust="spacing" textLength="58" x="13" y="312.3734">evaluar()</text><text fill="#000000" font-family="sans-serif" font-size="14" lengthAdjust="spacing" textLength="90" x="13" y="331.4414">documentar()</text></g><!--class Enfoque--><g id="elem_Enfoque"><rect codeLine="32" fill="#F1F1F1" height="75.2038" id="Enfoque" rx="2.5" ry="2.5" style="stroke:#181818;stroke-width:0.5;" width="109" x="299.5" y="213"/><text fill="#000000" font-family="sans-serif" font-size="14" font-style="italic" lengthAdjust="spacing" textLength="50" x="329" y="232.9659">Enfoque</text><line style="stroke:#181818;stroke-width:0.5;" x1="300.5" x2="407.5" y1="242.0679" y2="242.0679"/><text fill="#000000" font-family="sans-serif" font-size="14" lengthAdjust="spacing" textLength="26" x="305.5" y="261.0339">tipo</text><text fill="#000000" font-family="sans-serif" font-size="14" lengthAdjust="spacing" textLength="97" x="305.5" y="280.1018">caracteristicas</text></g><!--class EnfoqueProfesional--><g id="elem_EnfoqueProfesional"><rect codeLine="37" fill="#F1F1F1" height="94.2717" id="EnfoqueProfesional" rx="2.5" ry="2.5" style="stroke:#181818;stroke-width:0.5;" width="137" x="334.5" y="400"/><text fill="#000000" font-family="sans-serif" font-size="14" lengthAdjust="spacing" textLength="131" x="337.5" y="419.9659">EnfoqueProfesional</text><line style="stroke:#181818;stroke-width:0.5;" x1="335.5" x2="470.5" y1="429.0679" y2="429.0679"/><text fill="#000000" font-family="sans-serif" font-size="14" lengthAdjust="spacing" textLength="55" x="340.5" y="448.0339">iterativo</text><text fill="#000000" font-family="sans-serif" font-size="14" lengthAdjust="spacing" textLength="54" x="340.5" y="467.1018">practico</text><text fill="#000000" font-family="sans-serif" font-size="14" lengthAdjust="spacing" textLength="71" x="340.5" y="486.1697">adaptativo</text></g><!--class EnfoqueAcademico--><g id="elem_EnfoqueAcademico"><rect codeLine="43" fill="#F1F1F1" height="94.2717" id="EnfoqueAcademico" rx="2.5" ry="2.5" style="stroke:#181818;stroke-width:0.5;" width="135" x="164.5" y="400"/><text fill="#000000" font-family="sans-serif" font-size="14" lengthAdjust="spacing" textLength="129" x="167.5" y="419.9659">EnfoqueAcademico</text><line style="stroke:#181818;stroke-width:0.5;" x1="165.5" x2="298.5" y1="429.0679" y2="429.0679"/><text fill="#000000" font-family="sans-serif" font-size="14" lengthAdjust="spacing" textLength="37" x="170.5" y="448.0339">lineal</text><text fill="#000000" font-family="sans-serif" font-size="14" lengthAdjust="spacing" textLength="46" x="170.5" y="467.1018">teorico</text><text fill="#000000" font-family="sans-serif" font-size="14" lengthAdjust="spacing" textLength="96" x="170.5" y="486.1697">estandarizado</text></g><!--class Trazabilidad--><g id="elem_Trazabilidad"><rect codeLine="49" fill="#F1F1F1" height="75.2038" id="Trazabilidad" rx="2.5" ry="2.5" style="stroke:#181818;stroke-width:0.5;" width="177" x="506.5" y="409.5"/><text fill="#000000" font-family="sans-serif" font-size="14" font-style="italic" lengthAdjust="spacing" textLength="79" x="555.5" y="429.4659">Trazabilidad</text><line style="stroke:#181818;stroke-width:0.5;" x1="507.5" x2="682.5" y1="438.5679" y2="438.5679"/><text fill="#000000" font-family="sans-serif" font-size="14" lengthAdjust="spacing" textLength="125" x="512.5" y="457.5339">registrarCambios()</text><text fill="#000000" font-family="sans-serif" font-size="14" lengthAdjust="spacing" textLength="165" x="512.5" y="476.6018">verificarContribuciones()</text></g><!--class TrazabilidadAcademica--><g id="elem_TrazabilidadAcademica"><rect codeLine="54" fill="#F1F1F1" height="121.3396" id="TrazabilidadAcademica" rx="2.5" ry="2.5" style="stroke:#181818;stroke-width:0.5;" width="177" x="141.5" y="554"/><text fill="#000000" font-family="sans-serif" font-size="14" lengthAdjust="spacing" textLength="157" x="151.5" y="573.9659">TrazabilidadAcademica</text><line style="stroke:#181818;stroke-width:0.5;" x1="142.5" x2="317.5" y1="583.0679" y2="583.0679"/><text fill="#000000" font-family="sans-serif" font-size="14" lengthAdjust="spacing" textLength="80" x="147.5" y="602.0339">listaEstatica</text><text fill="#000000" font-family="sans-serif" font-size="14" lengthAdjust="spacing" textLength="80" x="147.5" y="621.1018">autoreporte</text><line style="stroke:#181818;stroke-width:0.5;" x1="142.5" x2="317.5" y1="629.2038" y2="629.2038"/><text fill="#000000" font-family="sans-serif" font-size="14" lengthAdjust="spacing" textLength="125" x="147.5" y="648.1697">registrarCambios()</text><text fill="#000000" font-family="sans-serif" font-size="14" lengthAdjust="spacing" textLength="165" x="147.5" y="667.2376">verificarContribuciones()</text></g><!--class TrazabilidadProfesional--><g id="elem_TrazabilidadProfesional"><rect codeLine="61" fill="#F1F1F1" height="121.3396" id="TrazabilidadProfesional" rx="2.5" ry="2.5" style="stroke:#181818;stroke-width:0.5;" width="177" x="424.5" y="554"/><text fill="#000000" font-family="sans-serif" font-size="14" lengthAdjust="spacing" textLength="159" x="433.5" y="573.9659">TrazabilidadProfesional</text><line style="stroke:#181818;stroke-width:0.5;" x1="425.5" x2="600.5" y1="583.0679" y2="583.0679"/><text fill="#000000" font-family="sans-serif" font-size="14" lengthAdjust="spacing" textLength="112" x="430.5" y="602.0339">controlVersiones</text><text fill="#000000" font-family="sans-serif" font-size="14" lengthAdjust="spacing" textLength="160" x="430.5" y="621.1018">historicoContribuciones</text><line style="stroke:#181818;stroke-width:0.5;" x1="425.5" x2="600.5" y1="629.2038" y2="629.2038"/><text fill="#000000" font-family="sans-serif" font-size="14" lengthAdjust="spacing" textLength="125" x="430.5" y="648.1697">registrarCambios()</text><text fill="#000000" font-family="sans-serif" font-size="14" lengthAdjust="spacing" textLength="165" x="430.5" y="667.2376">verificarContribuciones()</text></g><!--class Herramientas--><g id="elem_Herramientas"><rect codeLine="68" fill="#F1F1F1" height="75.2038" id="Herramientas" rx="2.5" ry="2.5" style="stroke:#181818;stroke-width:0.5;" width="95" x="636.5" y="577"/><text fill="#000000" font-family="sans-serif" font-size="14" font-style="italic" lengthAdjust="spacing" textLength="87" x="640.5" y="596.9659">Herramientas</text><line style="stroke:#181818;stroke-width:0.5;" x1="637.5" x2="730.5" y1="606.0679" y2="606.0679"/><text fill="#000000" font-family="sans-serif" font-size="14" lengthAdjust="spacing" textLength="26" x="642.5" y="625.0339">tipo</text><text fill="#000000" font-family="sans-serif" font-size="14" lengthAdjust="spacing" textLength="83" x="642.5" y="644.1018">usoPrincipal</text></g><!--class HerramientasAcademicas--><g id="elem_HerramientasAcademicas"><rect codeLine="73" fill="#F1F1F1" height="94.2717" id="HerramientasAcademicas" rx="2.5" ry="2.5" style="stroke:#181818;stroke-width:0.5;" width="178" x="188" y="735"/><text fill="#000000" font-family="sans-serif" font-size="14" lengthAdjust="spacing" textLength="172" x="191" y="754.9659">HerramientasAcademicas</text><line style="stroke:#181818;stroke-width:0.5;" x1="189" x2="365" y1="764.0679" y2="764.0679"/><text fill="#000000" font-family="sans-serif" font-size="14" lengthAdjust="spacing" textLength="150" x="194" y="783.0339">formatosTradicionales</text><text fill="#000000" font-family="sans-serif" font-size="14" lengthAdjust="spacing" textLength="163" x="194" y="802.1018">presentacionesEstandar</text><text fill="#000000" font-family="sans-serif" font-size="14" lengthAdjust="spacing" textLength="148" x="194" y="821.1697">elementosDecorativos</text></g><!--class HerramientasProfesionales--><g id="elem_HerramientasProfesionales"><rect codeLine="79" fill="#F1F1F1" height="94.2717" id="HerramientasProfesionales" rx="2.5" ry="2.5" style="stroke:#181818;stroke-width:0.5;" width="188" x="566" y="735"/><text fill="#000000" font-family="sans-serif" font-size="14" lengthAdjust="spacing" textLength="182" x="569" y="754.9659">HerramientasProfesionales</text><line style="stroke:#181818;stroke-width:0.5;" x1="567" x2="753" y1="764.0679" y2="764.0679"/><text fill="#000000" font-family="sans-serif" font-size="14" lengthAdjust="spacing" textLength="112" x="572" y="783.0339">controlVersiones</text><text fill="#000000" font-family="sans-serif" font-size="14" lengthAdjust="spacing" textLength="165" x="572" y="802.1018">colaboracionTiempoReal</text><text fill="#000000" font-family="sans-serif" font-size="14" lengthAdjust="spacing" textLength="171" x="572" y="821.1697">visualizacionesDinamicas</text></g><!--class Proceso--><g id="elem_Proceso"><rect codeLine="85" fill="#F1F1F1" height="94.2717" id="Proceso" rx="2.5" ry="2.5" style="stroke:#181818;stroke-width:0.5;" width="84" x="789" y="735"/><text fill="#000000" font-family="sans-serif" font-size="14" font-style="italic" lengthAdjust="spacing" textLength="49" x="806.5" y="754.9659">Proceso</text><line style="stroke:#181818;stroke-width:0.5;" x1="790" x2="872" y1="764.0679" y2="764.0679"/><text fill="#000000" font-family="sans-serif" font-size="14" lengthAdjust="spacing" textLength="72" x="795" y="783.0339">planificar()</text><text fill="#000000" font-family="sans-serif" font-size="14" lengthAdjust="spacing" textLength="63" x="795" y="802.1018">ejecutar()</text><text fill="#000000" font-family="sans-serif" font-size="14" lengthAdjust="spacing" textLength="67" x="795" y="821.1697">entregar()</text></g><!--class ProcesoAcademico--><g id="elem_ProcesoAcademico"><rect codeLine="91" fill="#F1F1F1" height="159.4754" id="ProcesoAcademico" rx="2.5" ry="2.5" style="stroke:#181818;stroke-width:0.5;" width="142" x="288" y="889"/><text fill="#000000" font-family="sans-serif" font-size="14" lengthAdjust="spacing" textLength="125" x="296.5" y="908.9659">ProcesoAcademico</text><line style="stroke:#181818;stroke-width:0.5;" x1="289" x2="429" y1="918.0679" y2="918.0679"/><text fill="#000000" font-family="sans-serif" font-size="14" lengthAdjust="spacing" textLength="108" x="294" y="937.0339">linealPredecible</text><text fill="#000000" font-family="sans-serif" font-size="14" lengthAdjust="spacing" textLength="118" x="294" y="956.1018">evaluacionFormal</text><text fill="#000000" font-family="sans-serif" font-size="14" lengthAdjust="spacing" textLength="130" x="294" y="975.1697">enfasisEnExtension</text><line style="stroke:#181818;stroke-width:0.5;" x1="289" x2="429" y1="983.2717" y2="983.2717"/><text fill="#000000" font-family="sans-serif" font-size="14" lengthAdjust="spacing" textLength="72" x="294" y="1002.2376">planificar()</text><text fill="#000000" font-family="sans-serif" font-size="14" lengthAdjust="spacing" textLength="63" x="294" y="1021.3055">ejecutar()</text><text fill="#000000" font-family="sans-serif" font-size="14" lengthAdjust="spacing" textLength="67" x="294" y="1040.3734">entregar()</text></g><!--class ProcesoProfesional--><g id="elem_ProcesoProfesional"><rect codeLine="100" fill="#F1F1F1" height="159.4754" id="ProcesoProfesional" rx="2.5" ry="2.5" style="stroke:#181818;stroke-width:0.5;" width="139" x="808.5" y="889"/><text fill="#000000" font-family="sans-serif" font-size="14" lengthAdjust="spacing" textLength="127" x="814.5" y="908.9659">ProcesoProfesional</text><line style="stroke:#181818;stroke-width:0.5;" x1="809.5" x2="946.5" y1="918.0679" y2="918.0679"/><text fill="#000000" font-family="sans-serif" font-size="14" lengthAdjust="spacing" textLength="127" x="814.5" y="937.0339">iterativoAdaptativo</text><text fill="#000000" font-family="sans-serif" font-size="14" lengthAdjust="spacing" textLength="106" x="814.5" y="956.1018">evaluacionValor</text><text fill="#000000" font-family="sans-serif" font-size="14" lengthAdjust="spacing" textLength="126" x="814.5" y="975.1697">enfasisEnPrecision</text><line style="stroke:#181818;stroke-width:0.5;" x1="809.5" x2="946.5" y1="983.2717" y2="983.2717"/><text fill="#000000" font-family="sans-serif" font-size="14" lengthAdjust="spacing" textLength="72" x="814.5" y="1002.2376">planificar()</text><text fill="#000000" font-family="sans-serif" font-size="14" lengthAdjust="spacing" textLength="63" x="814.5" y="1021.3055">ejecutar()</text><text fill="#000000" font-family="sans-serif" font-size="14" lengthAdjust="spacing" textLength="67" x="814.5" y="1040.3734">entregar()</text></g><!--reverse link Trabajo to TrabajoProfesional--><g id="link_Trabajo_TrabajoProfesional"><path codeLine="109" d="M490.6281,96.4013 C538.5781,126.2013 595.76,161.73 652.29,196.86 " fill="none" id="Trabajo-backto-TrabajoProfesional" style="stroke:#181818;stroke-width:1.0;"/><polygon fill="none" points="475.34,86.9,487.461,101.4973,493.7952,91.3052,475.34,86.9" style="stroke:#181818;stroke-width:1.0;"/></g><!--reverse link Trabajo to TrabajoAcademico--><g id="link_Trabajo_TrabajoAcademico"><path codeLine="110" d="M357.3725,96.4022 C314.8025,122.8622 268.18,151.83 215.27,184.71 " fill="none" id="Trabajo-backto-TrabajoAcademico" style="stroke:#181818;stroke-width:1.0;"/><polygon fill="none" points="372.66,86.9,354.2051,91.3063,360.5399,101.498,372.66,86.9" style="stroke:#181818;stroke-width:1.0;"/></g><!--reverse link Enfoque to EnfoqueAcademico--><g id="link_Enfoque_EnfoqueAcademico"><path codeLine="111" d="M321.4867,303.3294 C301.6067,335.0294 282.32,365.78 260.87,399.97 " fill="none" id="Enfoque-backto-EnfoqueAcademico" style="stroke:#181818;stroke-width:1.0;"/><polygon fill="none" points="331.05,288.08,316.4036,300.1416,326.5698,306.5171,331.05,288.08" style="stroke:#181818;stroke-width:1.0;"/></g><!--reverse link Enfoque to EnfoqueProfesional--><g id="link_Enfoque_EnfoqueProfesional"><path codeLine="112" d="M367.6141,305.5354 C375.5941,337.2354 382.79,365.78 391.4,399.97 " fill="none" id="Enfoque-backto-EnfoqueProfesional" style="stroke:#181818;stroke-width:1.0;"/><polygon fill="none" points="363.22,288.08,361.7957,307.0001,373.4326,304.0707,363.22,288.08" style="stroke:#181818;stroke-width:1.0;"/></g><!--reverse link Trazabilidad to TrazabilidadAcademica--><g id="link_Trazabilidad_TrazabilidadAcademica"><path codeLine="113" d="M498.0569,491.9542 C440.1069,518.2342 378.37,546.22 318.66,573.3 " fill="none" id="Trazabilidad-backto-TrazabilidadAcademica" style="stroke:#181818;stroke-width:1.0;"/><polygon fill="none" points="514.45,484.52,495.5789,486.4898,500.535,497.4185,514.45,484.52" style="stroke:#181818;stroke-width:1.0;"/></g><!--reverse link Trazabilidad to TrazabilidadProfesional--><g id="link_Trazabilidad_TrazabilidadProfesional"><path codeLine="114" d="M568.8075,500.8582 C558.7575,521.1382 554.02,530.71 542.58,553.8 " fill="none" id="Trazabilidad-backto-TrazabilidadProfesional" style="stroke:#181818;stroke-width:1.0;"/><polygon fill="none" points="576.8,484.73,563.4314,498.194,574.1835,503.5224,576.8,484.73" style="stroke:#181818;stroke-width:1.0;"/></g><!--reverse link Herramientas to HerramientasAcademicas--><g id="link_Herramientas_HerramientasAcademicas"><path codeLine="115" d="M636.1029,664.3049 C626.8329,672.6649 629.75,668.83 619,675 C539.34,720.71 437.71,748.96 366.01,764.69 " fill="none" id="Herramientas-backto-HerramientasAcademicas" style="stroke:#181818;stroke-width:1.0;"/><polygon fill="none" points="649.47,652.25,632.0846,659.8492,640.1212,668.7606,649.47,652.25" style="stroke:#181818;stroke-width:1.0;"/></g><!--reverse link Herramientas to HerramientasProfesionales--><g id="link_Herramientas_HerramientasProfesionales"><path codeLine="116" d="M676.0907,670.0442 C672.5607,694.4242 670.47,708.8 666.69,734.9 " fill="none" id="Herramientas-backto-HerramientasProfesionales" style="stroke:#181818;stroke-width:1.0;"/><polygon fill="none" points="678.67,652.23,670.1526,669.1845,682.0287,670.904,678.67,652.23" style="stroke:#181818;stroke-width:1.0;"/></g><!--reverse link Proceso to ProcesoAcademico--><g id="link_Proceso_ProcesoAcademico"><path codeLine="117" d="M774.0896,828.1999 C768.2696,832.2199 777.02,825.79 771,829 C658.26,889.02 514.51,930.21 430.03,951.24 " fill="none" id="Proceso-backto-ProcesoAcademico" style="stroke:#181818;stroke-width:1.0;"/><polygon fill="none" points="788.9,817.97,770.6796,823.2631,777.4995,833.1367,788.9,817.97" style="stroke:#181818;stroke-width:1.0;"/></g><!--reverse link Proceso to ProcesoProfesional--><g id="link_Proceso_ProcesoProfesional"><path codeLine="118" d="M847.1784,846.5242 C851.7684,864.5642 852.74,868.33 857.91,888.65 " fill="none" id="Proceso-backto-ProcesoProfesional" style="stroke:#181818;stroke-width:1.0;"/><polygon fill="none" points="842.74,829.08,841.3637,848.0037,852.9931,845.0447,842.74,829.08" style="stroke:#181818;stroke-width:1.0;"/></g><!--link TrabajoAcademico to EnfoqueAcademico--><g id="link_TrabajoAcademico_EnfoqueAcademico"><path codeLine="120" d="M172.5287,350.3993 C185.3687,371.0393 189.019,376.9164 200.169,394.8264 " fill="none" id="TrabajoAcademico-EnfoqueAcademico" style="stroke:#181818;stroke-width:1.0;stroke-dasharray:7.0,7.0;"/><polygon fill="none" points="166.19,340.21,165.9629,347.4175,172.5287,350.3993,172.7558,343.1917,166.19,340.21" style="stroke:#181818;stroke-width:1.0;"/><polygon fill="#181818" points="203.34,399.92,201.9792,390.1656,200.6975,395.6754,195.1877,394.3937,203.34,399.92" style="stroke:#181818;stroke-width:1.0;"/></g><!--link TrabajoProfesional to EnfoqueProfesional--><g id="link_TrabajoProfesional_EnfoqueProfesional"><path codeLine="121" d="M641.92,306.8685 C585.97,339.4485 529.1449,372.5406 476.8049,403.0206 " fill="none" id="TrabajoProfesional-EnfoqueProfesional" style="stroke:#181818;stroke-width:1.0;stroke-dasharray:7.0,7.0;"/><polygon fill="none" points="652.29,300.83,645.0922,300.3926,641.92,306.8685,649.1178,307.3059,652.29,300.83" style="stroke:#181818;stroke-width:1.0;"/><polygon fill="#181818" points="471.62,406.04,481.4103,404.9675,475.9407,403.5238,477.3844,398.0543,471.62,406.04" style="stroke:#181818;stroke-width:1.0;"/></g><!--link TrabajoAcademico to TrazabilidadAcademica--><g id="link_TrabajoAcademico_TrazabilidadAcademica"><path codeLine="123" d="M115.4793,352.1023 C119.6893,399.1623 127.68,445.23 147,494 C155.28,514.9 164.387,530.8032 177.237,549.0632 " fill="none" id="TrabajoAcademico-TrazabilidadAcademica" style="stroke:#181818;stroke-width:1.0;stroke-dasharray:7.0,7.0;"/><polygon fill="none" points="114.41,340.15,110.9605,346.4826,115.4793,352.1023,118.9287,345.7697,114.41,340.15" style="stroke:#181818;stroke-width:1.0;"/><polygon fill="#181818" points="180.69,553.97,178.7817,544.3078,177.8125,549.881,172.2393,548.9118,180.69,553.97" style="stroke:#181818;stroke-width:1.0;"/></g><!--link TrabajoProfesional to TrazabilidadProfesional--><g id="link_TrabajoProfesional_TrazabilidadProfesional"><path codeLine="124" d="M740.7731,352.2124 C739.0331,401.0924 730.32,448.85 701,494 C694.25,504.4 652.221,531.2764 606.821,558.5964 " fill="none" id="TrabajoProfesional-TrazabilidadProfesional" style="stroke:#181818;stroke-width:1.0;stroke-dasharray:7.0,7.0;"/><polygon fill="none" points="741.2,340.22,736.9891,346.0739,740.7731,352.2124,744.984,346.3585,741.2,340.22" style="stroke:#181818;stroke-width:1.0;"/><polygon fill="#181818" points="601.68,561.69,611.4539,560.4769,605.9641,559.112,607.329,553.6222,601.68,561.69" style="stroke:#181818;stroke-width:1.0;"/></g><!--link TrabajoAcademico to HerramientasAcademicas--><g id="link_TrabajoAcademico_HerramientasAcademicas"><path codeLine="126" d="M89.2887,352.2453 C74.1787,442.5053 66.46,571.49 124,675 C138.6,701.27 157.7621,719.1505 182.6421,735.4605 " fill="none" id="TrabajoAcademico-HerramientasAcademicas" style="stroke:#181818;stroke-width:1.0;stroke-dasharray:7.0,7.0;"/><polygon fill="none" points="91.27,340.41,86.3343,345.6672,89.2887,352.2453,94.2245,346.9881,91.27,340.41" style="stroke:#181818;stroke-width:1.0;"/><polygon fill="#181818" points="187.66,738.75,182.3261,730.4705,183.4784,736.0088,177.9402,737.1611,187.66,738.75" style="stroke:#181818;stroke-width:1.0;"/></g><!--link TrabajoProfesional to HerramientasProfesionales--><g id="link_TrabajoProfesional_HerramientasProfesionales"><path codeLine="127" d="M760.2522,351.8706 C776.8822,439.7106 789.08,564.94 749,675 C740.94,697.13 730.0143,713.3817 714.6543,730.5217 " fill="none" id="TrabajoProfesional-HerramientasProfesionales" style="stroke:#181818;stroke-width:1.0;stroke-dasharray:7.0,7.0;"/><polygon fill="none" points="758.02,340.08,755.2059,346.7193,760.2522,351.8706,763.0663,345.2312,758.02,340.08" style="stroke:#181818;stroke-width:1.0;"/><polygon fill="#181818" points="710.65,734.99,719.6353,730.9571,713.9869,731.2664,713.6775,725.618,710.65,734.99" style="stroke:#181818;stroke-width:1.0;"/></g><!--link TrabajoAcademico to ProcesoAcademico--><g id="link_TrabajoAcademico_ProcesoAcademico"><path codeLine="129" d="M80.811,351.9321 C75.941,371.4221 74.53,380.44 72,400 C64.98,454.38 76.42,666.22 79,675 C101.44,751.27 116.63,770.08 170,829 C204.14,866.69 244.9772,897.308 282.9772,922.138 " fill="none" id="TrabajoAcademico-ProcesoAcademico" style="stroke:#181818;stroke-width:1.0;stroke-dasharray:7.0,7.0;"/><polygon fill="none" points="83.72,340.29,78.3848,345.1414,80.811,351.9321,86.1462,347.0807,83.72,340.29" style="stroke:#181818;stroke-width:1.0;"/><polygon fill="#181818" points="288,925.42,282.6538,917.1485,283.8143,922.685,278.2778,923.8455,288,925.42" style="stroke:#181818;stroke-width:1.0;"/></g><!--link TrabajoProfesional to ProcesoProfesional--><g id="link_TrabajoProfesional_ProcesoProfesional"><path codeLine="130" d="M780.0667,351.3394 C819.0167,446.7194 871.62,592.72 891,735 C897.94,785.97 895.422,837.7555 890.482,882.9455 " fill="none" id="TrabajoProfesional-ProcesoProfesional" style="stroke:#181818;stroke-width:1.0;stroke-dasharray:7.0,7.0;"/><polygon fill="none" points="775.53,340.23,774.0952,347.2969,780.0667,351.3394,781.5015,344.2725,775.53,340.23" style="stroke:#181818;stroke-width:1.0;"/><polygon fill="#181818" points="889.83,888.91,894.7843,880.398,890.3733,883.9396,886.8317,879.5286,889.83,888.91" style="stroke:#181818;stroke-width:1.0;"/></g><!--SRC=[hLLDRzim3BtxL-Iu7TfVC0m8sWmx1bkHEoqp3GjPSYafsBhjlu-IvM-dmThbv9XVZu-Fz8agt63T-9-R6kiIsHMd-4eHAur50QNp3Cfl7XXAUBARNyL6VWsZG-E1FtnC__4CElJ_Agj2tPd_58NIu5oNOS_sY8wi0PsJWJoI8_SzE0z64UWsfrGEoWU6RGMD1qzdI0QfPVaRPZU1zm8bQQgWsWPlQt5Ky5wKMmKLrgJc3Ii1VY0NGEyqb9QXWXdOFME57hacqnaPduCqwAtxOha6ZIwzbgOzL7OFB8Yf0UEpuTzmZuQqCqVx731ZzjJOzA0WMf6bdb3ZXcQp_t8a9DwHS9lnIBXmqKwh6uPTv9cJfidqKqBBNGQCOww0wKMwZqd68kjdcNCmFbAqyXtK9LcNIJXBDqTfXk-iyKnbY8D1Dvla88oC37faWc7d_A0L4EamDfOz_iUwIsPLZBFw89kM8jFBavHA_4oplXb8J-XNP8QQebhSN1N1oIwIYShJ0_fnHCzQ5tkCyXKPIuiLgTJMJB8jYbsUS3jkZL6krjsZigsgt7gz4LleNkDBsNRvOhK7alDb-tDmJiifqcgHtCiMrfteUrgaa4BNxxO6qtBPxTiJgZ1QFq60ZzCpaJEiApwT04Mbnj7wHZpj-kUaHv2RjpEx7nvDxEszM5xPuksmirD0XtXAftW4lA8tuka-4fz-tzoitFjLUqzXqLslP9sVb5NhBFTmExe2omDmnM-SSR8yoNDzEQuuJbHTTD9BRdCLhLh7a8h5vydUtdvUahNohHqxNaqfhXVPMqaySx-UNW8kS7cXm2nWokc56XAp8FXI-i5tPFeB]--></g></svg>