<?xml version="1.0" encoding="us-ascii" standalone="no"?><svg xmlns="http://www.w3.org/2000/svg" xmlns:xlink="http://www.w3.org/1999/xlink" contentStyleType="text/css" height="584px" preserveAspectRatio="none" style="width:813px;height:584px;background:#FFFFFF;" version="1.1" viewBox="0 0 813 584" width="813px" zoomAndPan="magnify"><defs/><g><!--class Trabajo--><g id="elem_Trabajo"><rect codeLine="3" fill="#F1F1F1" height="45.0679" id="Trabajo" rx="2.5" ry="2.5" style="stroke:#181818;stroke-width:0.5;" width="55" x="311.5" y="7"/><text fill="#000000" font-family="sans-serif" font-size="14" font-style="italic" lengthAdjust="spacing" textLength="49" x="314.5" y="26.9659">Trabajo</text><line style="stroke:#181818;stroke-width:0.5;" x1="312.5" x2="365.5" y1="36.0679" y2="36.0679"/><line style="stroke:#181818;stroke-width:0.5;" x1="312.5" x2="365.5" y1="44.0679" y2="44.0679"/></g><!--class Enfoque--><g id="elem_Enfoque"><rect codeLine="4" fill="#F1F1F1" height="45.0679" id="Enfoque" rx="2.5" ry="2.5" style="stroke:#181818;stroke-width:0.5;" width="56" x="254" y="112"/><text fill="#000000" font-family="sans-serif" font-size="14" font-style="italic" lengthAdjust="spacing" textLength="50" x="257" y="131.9659">Enfoque</text><line style="stroke:#181818;stroke-width:0.5;" x1="255" x2="309" y1="141.0679" y2="141.0679"/><line style="stroke:#181818;stroke-width:0.5;" x1="255" x2="309" y1="149.0679" y2="149.0679"/></g><!--class Trazabilidad--><g id="elem_Trazabilidad"><rect codeLine="5" fill="#F1F1F1" height="45.0679" id="Trazabilidad" rx="2.5" ry="2.5" style="stroke:#181818;stroke-width:0.5;" width="85" x="467.5" y="217"/><text fill="#000000" font-family="sans-serif" font-size="14" font-style="italic" lengthAdjust="spacing" textLength="79" x="470.5" y="236.9659">Trazabilidad</text><line style="stroke:#181818;stroke-width:0.5;" x1="468.5" x2="551.5" y1="246.0679" y2="246.0679"/><line style="stroke:#181818;stroke-width:0.5;" x1="468.5" x2="551.5" y1="254.0679" y2="254.0679"/></g><!--class Herramientas--><g id="elem_Herramientas"><rect codeLine="6" fill="#F1F1F1" height="45.0679" id="Herramientas" rx="2.5" ry="2.5" style="stroke:#181818;stroke-width:0.5;" width="93" x="513.5" y="322"/><text fill="#000000" font-family="sans-serif" font-size="14" font-style="italic" lengthAdjust="spacing" textLength="87" x="516.5" y="341.9659">Herramientas</text><line style="stroke:#181818;stroke-width:0.5;" x1="514.5" x2="605.5" y1="351.0679" y2="351.0679"/><line style="stroke:#181818;stroke-width:0.5;" x1="514.5" x2="605.5" y1="359.0679" y2="359.0679"/></g><!--class Proceso--><g id="elem_Proceso"><rect codeLine="7" fill="#F1F1F1" height="45.0679" id="Proceso" rx="2.5" ry="2.5" style="stroke:#181818;stroke-width:0.5;" width="55" x="672.5" y="427"/><text fill="#000000" font-family="sans-serif" font-size="14" font-style="italic" lengthAdjust="spacing" textLength="49" x="675.5" y="446.9659">Proceso</text><line style="stroke:#181818;stroke-width:0.5;" x1="673.5" x2="726.5" y1="456.0679" y2="456.0679"/><line style="stroke:#181818;stroke-width:0.5;" x1="673.5" x2="726.5" y1="464.0679" y2="464.0679"/></g><!--class TrabajoProfesional--><g id="elem_TrabajoProfesional"><rect fill="#F1F1F1" height="45.0679" id="TrabajoProfesional" rx="2.5" ry="2.5" style="stroke:#181818;stroke-width:0.5;" width="132" x="540" y="112"/><text fill="#000000" font-family="sans-serif" font-size="14" lengthAdjust="spacing" textLength="126" x="543" y="131.9659">TrabajoProfesional</text><line style="stroke:#181818;stroke-width:0.5;" x1="541" x2="671" y1="141.0679" y2="141.0679"/><line style="stroke:#181818;stroke-width:0.5;" x1="541" x2="671" y1="149.0679" y2="149.0679"/></g><!--class TrabajoAcademico--><g id="elem_TrabajoAcademico"><rect fill="#F1F1F1" height="45.0679" id="TrabajoAcademico" rx="2.5" ry="2.5" style="stroke:#181818;stroke-width:0.5;" width="130" x="7" y="112"/><text fill="#000000" font-family="sans-serif" font-size="14" lengthAdjust="spacing" textLength="124" x="10" y="131.9659">TrabajoAcademico</text><line style="stroke:#181818;stroke-width:0.5;" x1="8" x2="136" y1="141.0679" y2="141.0679"/><line style="stroke:#181818;stroke-width:0.5;" x1="8" x2="136" y1="149.0679" y2="149.0679"/></g><!--class EnfoqueAcademico--><g id="elem_EnfoqueAcademico"><rect fill="#F1F1F1" height="45.0679" id="EnfoqueAcademico" rx="2.5" ry="2.5" style="stroke:#181818;stroke-width:0.5;" width="135" x="125.5" y="217"/><text fill="#000000" font-family="sans-serif" font-size="14" lengthAdjust="spacing" textLength="129" x="128.5" y="236.9659">EnfoqueAcademico</text><line style="stroke:#181818;stroke-width:0.5;" x1="126.5" x2="259.5" y1="246.0679" y2="246.0679"/><line style="stroke:#181818;stroke-width:0.5;" x1="126.5" x2="259.5" y1="254.0679" y2="254.0679"/></g><!--class EnfoqueProfesional--><g id="elem_EnfoqueProfesional"><rect fill="#F1F1F1" height="45.0679" id="EnfoqueProfesional" rx="2.5" ry="2.5" style="stroke:#181818;stroke-width:0.5;" width="137" x="295.5" y="217"/><text fill="#000000" font-family="sans-serif" font-size="14" lengthAdjust="spacing" textLength="131" x="298.5" y="236.9659">EnfoqueProfesional</text><line style="stroke:#181818;stroke-width:0.5;" x1="296.5" x2="431.5" y1="246.0679" y2="246.0679"/><line style="stroke:#181818;stroke-width:0.5;" x1="296.5" x2="431.5" y1="254.0679" y2="254.0679"/></g><!--class TrazabilidadAcademica--><g id="elem_TrazabilidadAcademica"><rect fill="#F1F1F1" height="45.0679" id="TrazabilidadAcademica" rx="2.5" ry="2.5" style="stroke:#181818;stroke-width:0.5;" width="163" x="76.5" y="322"/><text fill="#000000" font-family="sans-serif" font-size="14" lengthAdjust="spacing" textLength="157" x="79.5" y="341.9659">TrazabilidadAcademica</text><line style="stroke:#181818;stroke-width:0.5;" x1="77.5" x2="238.5" y1="351.0679" y2="351.0679"/><line style="stroke:#181818;stroke-width:0.5;" x1="77.5" x2="238.5" y1="359.0679" y2="359.0679"/></g><!--class TrazabilidadProfesional--><g id="elem_TrazabilidadProfesional"><rect fill="#F1F1F1" height="45.0679" id="TrazabilidadProfesional" rx="2.5" ry="2.5" style="stroke:#181818;stroke-width:0.5;" width="165" x="313.5" y="322"/><text fill="#000000" font-family="sans-serif" font-size="14" lengthAdjust="spacing" textLength="159" x="316.5" y="341.9659">TrazabilidadProfesional</text><line style="stroke:#181818;stroke-width:0.5;" x1="314.5" x2="477.5" y1="351.0679" y2="351.0679"/><line style="stroke:#181818;stroke-width:0.5;" x1="314.5" x2="477.5" y1="359.0679" y2="359.0679"/></g><!--class HerramientasAcademicas--><g id="elem_HerramientasAcademicas"><rect fill="#F1F1F1" height="45.0679" id="HerramientasAcademicas" rx="2.5" ry="2.5" style="stroke:#181818;stroke-width:0.5;" width="178" x="110" y="427"/><text fill="#000000" font-family="sans-serif" font-size="14" lengthAdjust="spacing" textLength="172" x="113" y="446.9659">HerramientasAcademicas</text><line style="stroke:#181818;stroke-width:0.5;" x1="111" x2="287" y1="456.0679" y2="456.0679"/><line style="stroke:#181818;stroke-width:0.5;" x1="111" x2="287" y1="464.0679" y2="464.0679"/></g><!--class HerramientasProfesionales--><g id="elem_HerramientasProfesionales"><rect fill="#F1F1F1" height="45.0679" id="HerramientasProfesionales" rx="2.5" ry="2.5" style="stroke:#181818;stroke-width:0.5;" width="188" x="449" y="427"/><text fill="#000000" font-family="sans-serif" font-size="14" lengthAdjust="spacing" textLength="182" x="452" y="446.9659">HerramientasProfesionales</text><line style="stroke:#181818;stroke-width:0.5;" x1="450" x2="636" y1="456.0679" y2="456.0679"/><line style="stroke:#181818;stroke-width:0.5;" x1="450" x2="636" y1="464.0679" y2="464.0679"/></g><!--class ProcesoAcademico--><g id="elem_ProcesoAcademico"><rect fill="#F1F1F1" height="45.0679" id="ProcesoAcademico" rx="2.5" ry="2.5" style="stroke:#181818;stroke-width:0.5;" width="131" x="206.5" y="532"/><text fill="#000000" font-family="sans-serif" font-size="14" lengthAdjust="spacing" textLength="125" x="209.5" y="551.9659">ProcesoAcademico</text><line style="stroke:#181818;stroke-width:0.5;" x1="207.5" x2="336.5" y1="561.0679" y2="561.0679"/><line style="stroke:#181818;stroke-width:0.5;" x1="207.5" x2="336.5" y1="569.0679" y2="569.0679"/></g><!--class ProcesoProfesional--><g id="elem_ProcesoProfesional"><rect fill="#F1F1F1" height="45.0679" id="ProcesoProfesional" rx="2.5" ry="2.5" style="stroke:#181818;stroke-width:0.5;" width="133" x="673.5" y="532"/><text fill="#000000" font-family="sans-serif" font-size="14" lengthAdjust="spacing" textLength="127" x="676.5" y="551.9659">ProcesoProfesional</text><line style="stroke:#181818;stroke-width:0.5;" x1="674.5" x2="805.5" y1="561.0679" y2="561.0679"/><line style="stroke:#181818;stroke-width:0.5;" x1="674.5" x2="805.5" y1="569.0679" y2="569.0679"/></g><!--reverse link Trabajo to TrabajoProfesional--><g id="link_Trabajo_TrabajoProfesional"><path codeLine="9" d="M383.3633,47.6096 C426.4633,64.2396 493.89,90.25 550.06,111.92 " fill="none" id="Trabajo-backto-TrabajoProfesional" style="stroke:#181818;stroke-width:1.0;"/><polygon fill="none" points="366.57,41.13,381.2034,53.2074,385.5232,42.0119,366.57,41.13" style="stroke:#181818;stroke-width:1.0;"/></g><!--reverse link Trabajo to TrabajoAcademico--><g id="link_Trabajo_TrabajoAcademico"><path codeLine="10" d="M294.6367,47.6096 C251.5367,64.2396 184.11,90.25 127.94,111.92 " fill="none" id="Trabajo-backto-TrabajoAcademico" style="stroke:#181818;stroke-width:1.0;"/><polygon fill="none" points="311.43,41.13,292.4768,42.0119,296.7966,53.2074,311.43,41.13" style="stroke:#181818;stroke-width:1.0;"/></g><!--reverse link Enfoque to EnfoqueAcademico--><g id="link_Enfoque_EnfoqueAcademico"><path codeLine="11" d="M251.3588,170.9576 C236.2488,188.4376 226.94,199.22 211.85,216.69 " fill="none" id="Enfoque-backto-EnfoqueAcademico" style="stroke:#181818;stroke-width:1.0;"/><polygon fill="none" points="263.13,157.34,246.8196,167.0338,255.8979,174.8813,263.13,157.34" style="stroke:#181818;stroke-width:1.0;"/></g><!--reverse link Enfoque to EnfoqueProfesional--><g id="link_Enfoque_EnfoqueProfesional"><path codeLine="12" d="M310.603,171.4208 C324.523,188.9008 332.73,199.22 346.63,216.69 " fill="none" id="Enfoque-backto-EnfoqueProfesional" style="stroke:#181818;stroke-width:1.0;"/><polygon fill="none" points="299.39,157.34,305.9095,175.1584,315.2966,167.6831,299.39,157.34" style="stroke:#181818;stroke-width:1.0;"/></g><!--reverse link Trazabilidad to TrazabilidadAcademica--><g id="link_Trazabilidad_TrazabilidadAcademica"><path codeLine="13" d="M450.1859,262.1642 C444.4259,264.1642 455.59,260.22 450,262 C379.53,284.43 298.46,306.79 239.65,322.4 " fill="none" id="Trazabilidad-backto-TrazabilidadAcademica" style="stroke:#181818;stroke-width:1.0;"/><polygon fill="none" points="467.19,256.26,448.2178,256.4962,452.1539,267.8323,467.19,256.26" style="stroke:#181818;stroke-width:1.0;"/></g><!--reverse link Trazabilidad to TrazabilidadProfesional--><g id="link_Trazabilidad_TrazabilidadProfesional"><path codeLine="14" d="M472.7463,274.1598 C453.2963,291.7398 439.31,304.36 419.87,321.94 " fill="none" id="Trazabilidad-backto-TrazabilidadProfesional" style="stroke:#181818;stroke-width:1.0;"/><polygon fill="none" points="486.1,262.09,468.7231,269.7086,476.7696,278.611,486.1,262.09" style="stroke:#181818;stroke-width:1.0;"/></g><!--reverse link Herramientas to HerramientasAcademicas--><g id="link_Herramientas_HerramientasAcademicas"><path codeLine="15" d="M496.1457,367.1169 C490.3457,369.0069 501.61,365.29 496,367 C424.27,388.87 341.99,411.24 282.25,427 " fill="none" id="Herramientas-backto-HerramientasAcademicas" style="stroke:#181818;stroke-width:1.0;"/><polygon fill="none" points="513.26,361.54,494.2868,361.4121,498.0047,372.8216,513.26,361.54" style="stroke:#181818;stroke-width:1.0;"/></g><!--reverse link Herramientas to HerramientasProfesionales--><g id="link_Herramientas_HerramientasProfesionales"><path codeLine="16" d="M553.4638,385.1006 C550.5838,402.5806 549.48,409.22 546.6,426.69 " fill="none" id="Herramientas-backto-HerramientasProfesionales" style="stroke:#181818;stroke-width:1.0;"/><polygon fill="none" points="556.39,367.34,547.5436,384.1251,559.384,386.076,556.39,367.34" style="stroke:#181818;stroke-width:1.0;"/></g><!--reverse link Proceso to ProcesoAcademico--><g id="link_Proceso_ProcesoAcademico"><path codeLine="17" d="M655.9823,472.4818 C650.3423,475.0718 660.74,470.05 655,472 C546.55,508.87 414.93,532.51 337.63,544.37 " fill="none" id="Proceso-backto-ProcesoAcademico" style="stroke:#181818;stroke-width:1.0;"/><polygon fill="none" points="672.34,464.97,653.4784,467.0292,658.4863,477.9343,672.34,464.97" style="stroke:#181818;stroke-width:1.0;"/></g><!--reverse link Proceso to ProcesoProfesional--><g id="link_Proceso_ProcesoProfesional"><path codeLine="18" d="M714.9975,489.1186 C721.7875,506.5986 724.74,514.22 731.53,531.69 " fill="none" id="Proceso-backto-ProcesoProfesional" style="stroke:#181818;stroke-width:1.0;"/><polygon fill="none" points="708.48,472.34,709.4047,491.2911,720.5904,486.9461,708.48,472.34" style="stroke:#181818;stroke-width:1.0;"/></g><!--link TrabajoAcademico to EnfoqueAcademico--><g id="link_TrabajoAcademico_EnfoqueAcademico"><path codeLine="20" d="M106.5073,164.8688 C127.1573,182.4488 142.4623,195.4695 163.1023,213.0495 " fill="none" id="TrabajoAcademico-EnfoqueAcademico" style="stroke:#181818;stroke-width:1.0;stroke-dasharray:7.0,7.0;"/><polygon fill="none" points="97.37,157.09,99.3457,164.0252,106.5073,164.8688,104.5316,157.9337,97.37,157.09" style="stroke:#181818;stroke-width:1.0;"/><polygon fill="#181818" points="167.67,216.94,163.4121,208.0591,163.8636,213.6979,158.2248,214.1494,167.67,216.94" style="stroke:#181818;stroke-width:1.0;"/></g><!--link TrabajoProfesional to EnfoqueProfesional--><g id="link_TrabajoProfesional_EnfoqueProfesional"><path codeLine="21" d="M544.2287,161.7899 C502.9287,179.3699 461.4705,197.0096 420.1805,214.5896 " fill="none" id="TrabajoProfesional-EnfoqueProfesional" style="stroke:#181818;stroke-width:1.0;stroke-dasharray:7.0,7.0;"/><polygon fill="none" points="555.27,157.09,548.1827,155.7595,544.2287,161.7899,551.316,163.1204,555.27,157.09" style="stroke:#181818;stroke-width:1.0;"/><polygon fill="#181818" points="414.66,216.94,424.5076,217.0946,419.2604,214.9813,421.3737,209.734,414.66,216.94" style="stroke:#181818;stroke-width:1.0;"/></g><!--link TrabajoAcademico to TrazabilidadAcademica--><g id="link_TrabajoAcademico_TrazabilidadAcademica"><path codeLine="23" d="M78.7812,168.8943 C84.2812,194.5943 92.48,226.67 108,262 C117.41,283.43 128.2381,301.0239 139.1081,316.9539 " fill="none" id="TrabajoAcademico-TrazabilidadAcademica" style="stroke:#181818;stroke-width:1.0;stroke-dasharray:7.0,7.0;"/><polygon fill="none" points="76.27,157.16,73.6142,163.8642,78.7812,168.8943,81.437,162.1901,76.27,157.16" style="stroke:#181818;stroke-width:1.0;"/><polygon fill="#181818" points="142.49,321.91,140.7213,312.2213,139.6718,317.7799,134.1131,316.7304,142.49,321.91" style="stroke:#181818;stroke-width:1.0;"/></g><!--link TrabajoProfesional to TrazabilidadProfesional--><g id="link_TrabajoProfesional_TrazabilidadProfesional"><path codeLine="24" d="M604.2413,169.244 C602.1113,196.684 595.6,231.91 570,262 C545.9,290.33 515.3901,307.3123 482.3001,319.8623 " fill="none" id="TrabajoProfesional-TrazabilidadProfesional" style="stroke:#181818;stroke-width:1.0;stroke-dasharray:7.0,7.0;"/><polygon fill="none" points="605.17,157.28,600.7177,162.9524,604.2413,169.244,608.6937,163.5716,605.17,157.28" style="stroke:#181818;stroke-width:1.0;"/><polygon fill="#181818" points="476.69,321.99,486.5236,322.5385,481.3651,320.2169,483.6866,315.0584,476.69,321.99" style="stroke:#181818;stroke-width:1.0;"/></g><!--link TrabajoAcademico to HerramientasAcademicas--><g id="link_TrabajoAcademico_HerramientasAcademicas"><path codeLine="26" d="M59.3987,168.3682 C43.8287,211.5382 19.87,298.95 59,367 C75.05,394.92 99.2918,411.6684 127.2218,424.4184 " fill="none" id="TrabajoAcademico-HerramientasAcademicas" style="stroke:#181818;stroke-width:1.0;stroke-dasharray:7.0,7.0;"/><polygon fill="none" points="63.47,157.08,57.6716,161.367,59.3987,168.3682,65.1971,164.0812,63.47,157.08" style="stroke:#181818;stroke-width:1.0;"/><polygon fill="#181818" points="132.68,426.91,126.1538,419.5337,128.1315,424.8336,122.8316,426.8113,132.68,426.91" style="stroke:#181818;stroke-width:1.0;"/></g><!--link TrabajoProfesional to HerramientasProfesionales--><g id="link_TrabajoProfesional_HerramientasProfesionales"><path codeLine="27" d="M617.8386,168.6328 C632.0686,210.9028 653.74,294.89 624,367 C613.96,391.34 597.4277,408.505 579.2277,423.045 " fill="none" id="TrabajoProfesional-HerramientasProfesionales" style="stroke:#181818;stroke-width:1.0;stroke-dasharray:7.0,7.0;"/><polygon fill="none" points="614.01,157.26,612.1334,164.2226,617.8386,168.6328,619.7153,161.6702,614.01,157.26" style="stroke:#181818;stroke-width:1.0;"/><polygon fill="#181818" points="574.54,426.79,584.0683,424.2976,578.4464,423.6691,579.0749,418.0473,574.54,426.79" style="stroke:#181818;stroke-width:1.0;"/></g><!--link TrabajoAcademico to ProcesoAcademico--><g id="link_TrabajoAcademico_ProcesoAcademico"><path codeLine="29" d="M52.4122,167.3978 C43.2222,183.2878 37.89,195.43 33,217 C27.43,241.54 27.57,335.23 36,367 C49.56,418.12 53.41,435.83 92,472 C124.16,502.14 163.7214,520.5935 200.7914,533.4535 " fill="none" id="TrabajoAcademico-ProcesoAcademico" style="stroke:#181818;stroke-width:1.0;stroke-dasharray:7.0,7.0;"/><polygon fill="none" points="58.42,157.01,51.9535,160.2013,52.4122,167.3978,58.8787,164.2065,58.42,157.01" style="stroke:#181818;stroke-width:1.0;"/><polygon fill="#181818" points="206.46,535.42,199.2681,528.6912,201.7362,533.7813,196.6461,536.2493,206.46,535.42" style="stroke:#181818;stroke-width:1.0;"/></g><!--link TrabajoProfesional to ProcesoProfesional--><g id="link_TrabajoProfesional_ProcesoProfesional"><path codeLine="30" d="M629.1306,167.0007 C640.5806,183.0107 648.84,195.83 660,217 C706.93,306.08 725.76,328.17 745,427 C752.06,463.24 748.5953,500.4672 744.7653,525.8472 " fill="none" id="TrabajoProfesional-ProcesoProfesional" style="stroke:#181818;stroke-width:1.0;stroke-dasharray:7.0,7.0;"/><polygon fill="none" points="622.15,157.24,622.3868,164.4472,629.1306,167.0007,628.8939,159.7935,622.15,157.24" style="stroke:#181818;stroke-width:1.0;"/><polygon fill="#181818" points="743.87,531.78,749.1682,523.4776,744.6161,526.836,741.2577,522.2839,743.87,531.78" style="stroke:#181818;stroke-width:1.0;"/></g><!--SRC=[XP113i8W44NtSmekO4zWJ5oOk7JX1QOmZMFQ4g5kZ8UNf1GeBRBa_pzlXlzWHKAoaJq1O6idWt8ITuCjFdKKBcEdNszQ9JxOSiyALLIlP0mEJEE4DgeteoLP3U2nulWz79OTpkp8iXwnt_NF4XKDB3Nu6sRNF_wx6JiS71O4PU5W9PSIqy_EoLG9H5i99aYouBkQO_uHFxddfYT1NfhGJNFQbhNjVXMi8bsqsDuEE8lNyMwWq6LXGJQmxhImmyri2YxXOpQnVW00]--></g></svg>