<?xml version="1.0" encoding="us-ascii" standalone="no"?><svg xmlns="http://www.w3.org/2000/svg" xmlns:xlink="http://www.w3.org/1999/xlink" contentStyleType="text/css" height="536px" preserveAspectRatio="none" style="width:823px;height:536px;background:#FFFFFF;" version="1.1" viewBox="0 0 823 536" width="823px" zoomAndPan="magnify"><defs/><g><!--class Trabajo--><g id="elem_Trabajo"><rect codeLine="3" fill="#F1F1F1" height="97.2038" id="Trabajo" rx="2.5" ry="2.5" style="stroke:#181818;stroke-width:0.5;" width="102" x="347.5" y="7"/><ellipse cx="371.95" cy="23" fill="#A9DCDF" rx="11" ry="11" style="stroke:#181818;stroke-width:1.0;"/><path d="M372.0594,18.3438 L370.9031,23.4219 L373.2313,23.4219 L372.0594,18.3438 Z M370.575,16.1094 L373.5594,16.1094 L376.9188,28.5 L374.4656,28.5 L373.7,25.4375 L370.4188,25.4375 L369.6688,28.5 L367.2313,28.5 L370.575,16.1094 Z " fill="#000000"/><text fill="#000000" font-family="sans-serif" font-size="14" font-style="italic" lengthAdjust="spacing" textLength="49" x="388.05" y="28.432">Trabajo</text><line style="stroke:#181818;stroke-width:0.5;" x1="348.5" x2="448.5" y1="39" y2="39"/><text fill="#000000" font-family="sans-serif" font-size="14" lengthAdjust="spacing" textLength="74" x="353.5" y="57.9659">presentar()</text><text fill="#000000" font-family="sans-serif" font-size="14" lengthAdjust="spacing" textLength="58" x="353.5" y="77.0339">evaluar()</text><text fill="#000000" font-family="sans-serif" font-size="14" lengthAdjust="spacing" textLength="90" x="353.5" y="96.1018">documentar()</text></g><!--class TrabajoAcademico--><g id="elem_TrabajoAcademico"><rect codeLine="9" fill="#F1F1F1" height="181.4754" id="TrabajoAcademico" rx="2.5" ry="2.5" style="stroke:#181818;stroke-width:0.5;" width="208" x="182.5" y="164"/><ellipse cx="220.9" cy="180" fill="#ADD1B2" rx="11" ry="11" style="stroke:#181818;stroke-width:1.0;"/><path d="M223.8688,185.6406 Q223.2906,185.9375 222.65,186.0781 Q222.0094,186.2344 221.3063,186.2344 Q218.8063,186.2344 217.4781,184.5938 Q216.1656,182.9375 216.1656,179.8125 Q216.1656,176.6875 217.4781,175.0313 Q218.8063,173.375 221.3063,173.375 Q222.0094,173.375 222.65,173.5313 Q223.3063,173.6875 223.8688,173.9844 L223.8688,176.7031 Q223.2438,176.125 222.65,175.8594 Q222.0563,175.5781 221.4313,175.5781 Q220.0875,175.5781 219.4,176.6563 Q218.7125,177.7188 218.7125,179.8125 Q218.7125,181.9063 219.4,182.9844 Q220.0875,184.0469 221.4313,184.0469 Q222.0563,184.0469 222.65,183.7813 Q223.2438,183.5 223.8688,182.9219 L223.8688,185.6406 Z " fill="#000000"/><text fill="#000000" font-family="sans-serif" font-size="14" lengthAdjust="spacing" textLength="124" x="240.1" y="185.432">TrabajoAcademico</text><line style="stroke:#181818;stroke-width:0.5;" x1="183.5" x2="389.5" y1="196" y2="196"/><text fill="#000000" font-family="sans-serif" font-size="14" lengthAdjust="spacing" textLength="196" x="188.5" y="214.9659">presentacionVisualElaborada</text><text fill="#000000" font-family="sans-serif" font-size="14" lengthAdjust="spacing" textLength="179" x="188.5" y="234.0339">estructuraPredeterminada</text><text fill="#000000" font-family="sans-serif" font-size="14" lengthAdjust="spacing" textLength="128" x="188.5" y="253.1018">requisitosFormales</text><text fill="#000000" font-family="sans-serif" font-size="14" lengthAdjust="spacing" textLength="133" x="188.5" y="272.1697">listadoParticipantes</text><line style="stroke:#181818;stroke-width:0.5;" x1="183.5" x2="389.5" y1="280.2717" y2="280.2717"/><text fill="#000000" font-family="sans-serif" font-size="14" lengthAdjust="spacing" textLength="74" x="188.5" y="299.2376">presentar()</text><text fill="#000000" font-family="sans-serif" font-size="14" lengthAdjust="spacing" textLength="58" x="188.5" y="318.3055">evaluar()</text><text fill="#000000" font-family="sans-serif" font-size="14" lengthAdjust="spacing" textLength="90" x="188.5" y="337.3734">documentar()</text></g><!--class TrabajoProfesional--><g id="elem_TrabajoProfesional"><rect codeLine="19" fill="#F1F1F1" height="181.4754" id="TrabajoProfesional" rx="2.5" ry="2.5" style="stroke:#181818;stroke-width:0.5;" width="169" x="426" y="164"/><ellipse cx="445.95" cy="180" fill="#ADD1B2" rx="11" ry="11" style="stroke:#181818;stroke-width:1.0;"/><path d="M448.9188,185.6406 Q448.3406,185.9375 447.7,186.0781 Q447.0594,186.2344 446.3563,186.2344 Q443.8563,186.2344 442.5281,184.5938 Q441.2156,182.9375 441.2156,179.8125 Q441.2156,176.6875 442.5281,175.0313 Q443.8563,173.375 446.3563,173.375 Q447.0594,173.375 447.7,173.5313 Q448.3563,173.6875 448.9188,173.9844 L448.9188,176.7031 Q448.2938,176.125 447.7,175.8594 Q447.1063,175.5781 446.4813,175.5781 Q445.1375,175.5781 444.45,176.6563 Q443.7625,177.7188 443.7625,179.8125 Q443.7625,181.9063 444.45,182.9844 Q445.1375,184.0469 446.4813,184.0469 Q447.1063,184.0469 447.7,183.7813 Q448.2938,183.5 448.9188,182.9219 L448.9188,185.6406 Z " fill="#000000"/><text fill="#000000" font-family="sans-serif" font-size="14" lengthAdjust="spacing" textLength="126" x="461.05" y="185.432">TrabajoProfesional</text><line style="stroke:#181818;stroke-width:0.5;" x1="427" x2="594" y1="196" y2="196"/><text fill="#000000" font-family="sans-serif" font-size="14" lengthAdjust="spacing" textLength="120" x="432" y="214.9659">analisisSustancial</text><text fill="#000000" font-family="sans-serif" font-size="14" lengthAdjust="spacing" textLength="142" x="432" y="234.0339">estructuraAdaptativa</text><text fill="#000000" font-family="sans-serif" font-size="14" lengthAdjust="spacing" textLength="62" x="432" y="253.1018">valorReal</text><text fill="#000000" font-family="sans-serif" font-size="14" lengthAdjust="spacing" textLength="157" x="432" y="272.1697">trazabilidadAutomatica</text><line style="stroke:#181818;stroke-width:0.5;" x1="427" x2="594" y1="280.2717" y2="280.2717"/><text fill="#000000" font-family="sans-serif" font-size="14" lengthAdjust="spacing" textLength="74" x="432" y="299.2376">presentar()</text><text fill="#000000" font-family="sans-serif" font-size="14" lengthAdjust="spacing" textLength="58" x="432" y="318.3055">evaluar()</text><text fill="#000000" font-family="sans-serif" font-size="14" lengthAdjust="spacing" textLength="90" x="432" y="337.3734">documentar()</text></g><!--class Enfoque--><g id="elem_Enfoque"><rect codeLine="29" fill="#F1F1F1" height="78.1358" id="Enfoque" rx="2.5" ry="2.5" style="stroke:#181818;stroke-width:0.5;" width="109" x="36" y="215.5"/><ellipse cx="63.15" cy="231.5" fill="#A9DCDF" rx="11" ry="11" style="stroke:#181818;stroke-width:1.0;"/><path d="M63.2594,226.8438 L62.1031,231.9219 L64.4313,231.9219 L63.2594,226.8438 Z M61.775,224.6094 L64.7594,224.6094 L68.1188,237 L65.6656,237 L64.9,233.9375 L61.6188,233.9375 L60.8688,237 L58.4313,237 L61.775,224.6094 Z " fill="#000000"/><text fill="#000000" font-family="sans-serif" font-size="14" font-style="italic" lengthAdjust="spacing" textLength="50" x="79.85" y="236.932">Enfoque</text><line style="stroke:#181818;stroke-width:0.5;" x1="37" x2="144" y1="247.5" y2="247.5"/><text fill="#000000" font-family="sans-serif" font-size="14" lengthAdjust="spacing" textLength="26" x="42" y="266.4659">tipo</text><text fill="#000000" font-family="sans-serif" font-size="14" lengthAdjust="spacing" textLength="97" x="42" y="285.5339">caracteristicas</text></g><!--class EnfoqueAcademico--><g id="elem_EnfoqueAcademico"><rect codeLine="34" fill="#F1F1F1" height="97.2038" id="EnfoqueAcademico" rx="2.5" ry="2.5" style="stroke:#181818;stroke-width:0.5;" width="161" x="7" y="418.5"/><ellipse cx="22" cy="434.5" fill="#ADD1B2" rx="11" ry="11" style="stroke:#181818;stroke-width:1.0;"/><path d="M24.9688,440.1406 Q24.3906,440.4375 23.75,440.5781 Q23.1094,440.7344 22.4063,440.7344 Q19.9063,440.7344 18.5781,439.0938 Q17.2656,437.4375 17.2656,434.3125 Q17.2656,431.1875 18.5781,429.5313 Q19.9063,427.875 22.4063,427.875 Q23.1094,427.875 23.75,428.0313 Q24.4063,428.1875 24.9688,428.4844 L24.9688,431.2031 Q24.3438,430.625 23.75,430.3594 Q23.1563,430.0781 22.5313,430.0781 Q21.1875,430.0781 20.5,431.1563 Q19.8125,432.2188 19.8125,434.3125 Q19.8125,436.4063 20.5,437.4844 Q21.1875,438.5469 22.5313,438.5469 Q23.1563,438.5469 23.75,438.2813 Q24.3438,438 24.9688,437.4219 L24.9688,440.1406 Z " fill="#000000"/><text fill="#000000" font-family="sans-serif" font-size="14" lengthAdjust="spacing" textLength="129" x="36" y="439.932">EnfoqueAcademico</text><line style="stroke:#181818;stroke-width:0.5;" x1="8" x2="167" y1="450.5" y2="450.5"/><text fill="#000000" font-family="sans-serif" font-size="14" lengthAdjust="spacing" textLength="37" x="13" y="469.4659">lineal</text><text fill="#000000" font-family="sans-serif" font-size="14" lengthAdjust="spacing" textLength="46" x="13" y="488.5339">teorico</text><text fill="#000000" font-family="sans-serif" font-size="14" lengthAdjust="spacing" textLength="96" x="13" y="507.6018">estandarizado</text></g><!--class EnfoqueProfesional--><g id="elem_EnfoqueProfesional"><rect codeLine="40" fill="#F1F1F1" height="97.2038" id="EnfoqueProfesional" rx="2.5" ry="2.5" style="stroke:#181818;stroke-width:0.5;" width="163" x="203" y="418.5"/><ellipse cx="218" cy="434.5" fill="#ADD1B2" rx="11" ry="11" style="stroke:#181818;stroke-width:1.0;"/><path d="M220.9688,440.1406 Q220.3906,440.4375 219.75,440.5781 Q219.1094,440.7344 218.4063,440.7344 Q215.9063,440.7344 214.5781,439.0938 Q213.2656,437.4375 213.2656,434.3125 Q213.2656,431.1875 214.5781,429.5313 Q215.9063,427.875 218.4063,427.875 Q219.1094,427.875 219.75,428.0313 Q220.4063,428.1875 220.9688,428.4844 L220.9688,431.2031 Q220.3438,430.625 219.75,430.3594 Q219.1563,430.0781 218.5313,430.0781 Q217.1875,430.0781 216.5,431.1563 Q215.8125,432.2188 215.8125,434.3125 Q215.8125,436.4063 216.5,437.4844 Q217.1875,438.5469 218.5313,438.5469 Q219.1563,438.5469 219.75,438.2813 Q220.3438,438 220.9688,437.4219 L220.9688,440.1406 Z " fill="#000000"/><text fill="#000000" font-family="sans-serif" font-size="14" lengthAdjust="spacing" textLength="131" x="232" y="439.932">EnfoqueProfesional</text><line style="stroke:#181818;stroke-width:0.5;" x1="204" x2="365" y1="450.5" y2="450.5"/><text fill="#000000" font-family="sans-serif" font-size="14" lengthAdjust="spacing" textLength="55" x="209" y="469.4659">iterativo</text><text fill="#000000" font-family="sans-serif" font-size="14" lengthAdjust="spacing" textLength="54" x="209" y="488.5339">practico</text><text fill="#000000" font-family="sans-serif" font-size="14" lengthAdjust="spacing" textLength="71" x="209" y="507.6018">adaptativo</text></g><!--class Trazabilidad--><g id="elem_Trazabilidad"><rect codeLine="46" fill="#F1F1F1" height="78.1358" id="Trazabilidad" rx="2.5" ry="2.5" style="stroke:#181818;stroke-width:0.5;" width="177" x="631" y="215.5"/><ellipse cx="675.75" cy="231.5" fill="#A9DCDF" rx="11" ry="11" style="stroke:#181818;stroke-width:1.0;"/><path d="M675.8594,226.8438 L674.7031,231.9219 L677.0313,231.9219 L675.8594,226.8438 Z M674.375,224.6094 L677.3594,224.6094 L680.7188,237 L678.2656,237 L677.5,233.9375 L674.2188,233.9375 L673.4688,237 L671.0313,237 L674.375,224.6094 Z " fill="#000000"/><text fill="#000000" font-family="sans-serif" font-size="14" font-style="italic" lengthAdjust="spacing" textLength="79" x="696.25" y="236.932">Trazabilidad</text><line style="stroke:#181818;stroke-width:0.5;" x1="632" x2="807" y1="247.5" y2="247.5"/><text fill="#000000" font-family="sans-serif" font-size="14" lengthAdjust="spacing" textLength="125" x="637" y="266.4659">registrarCambios()</text><text fill="#000000" font-family="sans-serif" font-size="14" lengthAdjust="spacing" textLength="165" x="637" y="285.5339">verificarContribuciones()</text></g><!--class TrazabilidadAcademica--><g id="elem_TrazabilidadAcademica"><rect codeLine="51" fill="#F1F1F1" height="124.2717" id="TrazabilidadAcademica" rx="2.5" ry="2.5" style="stroke:#181818;stroke-width:0.5;" width="189" x="401" y="405"/><ellipse cx="416" cy="421" fill="#ADD1B2" rx="11" ry="11" style="stroke:#181818;stroke-width:1.0;"/><path d="M418.9688,426.6406 Q418.3906,426.9375 417.75,427.0781 Q417.1094,427.2344 416.4063,427.2344 Q413.9063,427.2344 412.5781,425.5938 Q411.2656,423.9375 411.2656,420.8125 Q411.2656,417.6875 412.5781,416.0313 Q413.9063,414.375 416.4063,414.375 Q417.1094,414.375 417.75,414.5313 Q418.4063,414.6875 418.9688,414.9844 L418.9688,417.7031 Q418.3438,417.125 417.75,416.8594 Q417.1563,416.5781 416.5313,416.5781 Q415.1875,416.5781 414.5,417.6563 Q413.8125,418.7188 413.8125,420.8125 Q413.8125,422.9063 414.5,423.9844 Q415.1875,425.0469 416.5313,425.0469 Q417.1563,425.0469 417.75,424.7813 Q418.3438,424.5 418.9688,423.9219 L418.9688,426.6406 Z " fill="#000000"/><text fill="#000000" font-family="sans-serif" font-size="14" lengthAdjust="spacing" textLength="157" x="430" y="426.432">TrazabilidadAcademica</text><line style="stroke:#181818;stroke-width:0.5;" x1="402" x2="589" y1="437" y2="437"/><text fill="#000000" font-family="sans-serif" font-size="14" lengthAdjust="spacing" textLength="80" x="407" y="455.9659">listaEstatica</text><text fill="#000000" font-family="sans-serif" font-size="14" lengthAdjust="spacing" textLength="80" x="407" y="475.0339">autoreporte</text><line style="stroke:#181818;stroke-width:0.5;" x1="402" x2="589" y1="483.1358" y2="483.1358"/><text fill="#000000" font-family="sans-serif" font-size="14" lengthAdjust="spacing" textLength="125" x="407" y="502.1018">registrarCambios()</text><text fill="#000000" font-family="sans-serif" font-size="14" lengthAdjust="spacing" textLength="165" x="407" y="521.1697">verificarContribuciones()</text></g><!--class TrazabilidadProfesional--><g id="elem_TrazabilidadProfesional"><rect codeLine="58" fill="#F1F1F1" height="124.2717" id="TrazabilidadProfesional" rx="2.5" ry="2.5" style="stroke:#181818;stroke-width:0.5;" width="191" x="625" y="405"/><ellipse cx="640" cy="421" fill="#ADD1B2" rx="11" ry="11" style="stroke:#181818;stroke-width:1.0;"/><path d="M642.9688,426.6406 Q642.3906,426.9375 641.75,427.0781 Q641.1094,427.2344 640.4063,427.2344 Q637.9063,427.2344 636.5781,425.5938 Q635.2656,423.9375 635.2656,420.8125 Q635.2656,417.6875 636.5781,416.0313 Q637.9063,414.375 640.4063,414.375 Q641.1094,414.375 641.75,414.5313 Q642.4063,414.6875 642.9688,414.9844 L642.9688,417.7031 Q642.3438,417.125 641.75,416.8594 Q641.1563,416.5781 640.5313,416.5781 Q639.1875,416.5781 638.5,417.6563 Q637.8125,418.7188 637.8125,420.8125 Q637.8125,422.9063 638.5,423.9844 Q639.1875,425.0469 640.5313,425.0469 Q641.1563,425.0469 641.75,424.7813 Q642.3438,424.5 642.9688,423.9219 L642.9688,426.6406 Z " fill="#000000"/><text fill="#000000" font-family="sans-serif" font-size="14" lengthAdjust="spacing" textLength="159" x="654" y="426.432">TrazabilidadProfesional</text><line style="stroke:#181818;stroke-width:0.5;" x1="626" x2="815" y1="437" y2="437"/><text fill="#000000" font-family="sans-serif" font-size="14" lengthAdjust="spacing" textLength="112" x="631" y="455.9659">controlVersiones</text><text fill="#000000" font-family="sans-serif" font-size="14" lengthAdjust="spacing" textLength="160" x="631" y="475.0339">historicoContribuciones</text><line style="stroke:#181818;stroke-width:0.5;" x1="626" x2="815" y1="483.1358" y2="483.1358"/><text fill="#000000" font-family="sans-serif" font-size="14" lengthAdjust="spacing" textLength="125" x="631" y="502.1018">registrarCambios()</text><text fill="#000000" font-family="sans-serif" font-size="14" lengthAdjust="spacing" textLength="165" x="631" y="521.1697">verificarContribuciones()</text></g><!--reverse link Trabajo to TrabajoAcademico--><g id="link_Trabajo_TrabajoAcademico"><path codeLine="65" d="M362.4923,119.8371 C352.2623,137.8271 349.16,143.29 337.46,163.87 " fill="none" id="Trabajo-backto-TrabajoAcademico" style="stroke:#181818;stroke-width:1.0;"/><polygon fill="none" points="371.39,104.19,357.2766,116.8712,367.708,122.803,371.39,104.19" style="stroke:#181818;stroke-width:1.0;"/></g><!--reverse link Trabajo to TrabajoProfesional--><g id="link_Trabajo_TrabajoProfesional"><path codeLine="66" d="M434.5077,119.8371 C444.7377,137.8271 447.84,143.29 459.54,163.87 " fill="none" id="Trabajo-backto-TrabajoProfesional" style="stroke:#181818;stroke-width:1.0;"/><polygon fill="none" points="425.61,104.19,429.292,122.803,439.7234,116.8712,425.61,104.19" style="stroke:#181818;stroke-width:1.0;"/></g><!--reverse link Enfoque to EnfoqueAcademico--><g id="link_Enfoque_EnfoqueAcademico"><path codeLine="67" d="M89.7025,311.6182 C89.2025,346.5682 88.72,380.47 88.18,418.19 " fill="none" id="Enfoque-backto-EnfoqueAcademico" style="stroke:#181818;stroke-width:1.0;"/><polygon fill="none" points="89.96,293.62,83.7031,311.5323,95.7019,311.704,89.96,293.62" style="stroke:#181818;stroke-width:1.0;"/></g><!--reverse link Enfoque to EnfoqueProfesional--><g id="link_Enfoque_EnfoqueProfesional"><path codeLine="68" d="M132.0791,307.5532 C145.2091,323.6932 149.61,328.56 164.5,345 C187.04,369.89 213.19,396.49 235.3,418.4 " fill="none" id="Enfoque-backto-EnfoqueProfesional" style="stroke:#181818;stroke-width:1.0;"/><polygon fill="none" points="120.72,293.59,127.4247,311.3395,136.7335,303.7668,120.72,293.59" style="stroke:#181818;stroke-width:1.0;"/></g><!--reverse link Trazabilidad to TrazabilidadAcademica--><g id="link_Trazabilidad_TrazabilidadAcademica"><path codeLine="69" d="M665.8216,305.9451 C632.9116,336.8651 599,368.73 560.81,404.63 " fill="none" id="Trazabilidad-backto-TrazabilidadAcademica" style="stroke:#181818;stroke-width:1.0;"/><polygon fill="none" points="678.94,293.62,661.7133,301.5723,669.93,310.3179,678.94,293.62" style="stroke:#181818;stroke-width:1.0;"/></g><!--reverse link Trazabilidad to TrazabilidadProfesional--><g id="link_Trazabilidad_TrazabilidadProfesional"><path codeLine="70" d="M719.7673,311.6198 C719.9173,342.5398 720.04,368.73 720.21,404.63 " fill="none" id="Trazabilidad-backto-TrazabilidadProfesional" style="stroke:#181818;stroke-width:1.0;"/><polygon fill="none" points="719.68,293.62,713.7674,311.6489,725.7673,311.5907,719.68,293.62" style="stroke:#181818;stroke-width:1.0;"/></g><!--link TrabajoAcademico to EnfoqueAcademico--><g id="link_TrabajoAcademico_EnfoqueAcademico"><path codeLine="72" d="M201.82,345.08 C178.02,370.25 157.1834,392.3014 136.6734,413.9814 " fill="none" id="TrabajoAcademico-to-EnfoqueAcademico" style="stroke:#181818;stroke-width:1.0;"/><polygon fill="#181818" points="132.55,418.34,141.6408,414.551,135.9862,414.7078,135.8294,409.0531,132.55,418.34" style="stroke:#181818;stroke-width:1.0;"/></g><!--link TrabajoAcademico to TrazabilidadAcademica--><g id="link_TrabajoAcademico_TrazabilidadAcademica"><path codeLine="73" d="M375.44,345.08 C395.44,365.22 411.9822,381.8826 430.5222,400.5526 " fill="none" id="TrabajoAcademico-to-TrazabilidadAcademica" style="stroke:#181818;stroke-width:1.0;"/><polygon fill="#181818" points="434.75,404.81,431.2466,395.6053,431.2268,401.2621,425.57,401.2424,434.75,404.81" style="stroke:#181818;stroke-width:1.0;"/></g><!--link TrabajoProfesional to EnfoqueProfesional--><g id="link_TrabajoProfesional_EnfoqueProfesional"><path codeLine="74" d="M425.7,334.48 C395.39,362.71 366.5811,389.5512 339.9911,414.3112 " fill="none" id="TrabajoProfesional-to-EnfoqueProfesional" style="stroke:#181818;stroke-width:1.0;"/><polygon fill="#181818" points="335.6,418.4,344.9125,415.1941,339.2592,414.9926,339.4607,409.3394,335.6,418.4" style="stroke:#181818;stroke-width:1.0;"/></g><!--link TrabajoProfesional to TrazabilidadProfesional--><g id="link_TrabajoProfesional_TrazabilidadProfesional"><path codeLine="75" d="M595.01,340.21 C616.55,361.8 635.0537,380.341 655.1637,400.511 " fill="none" id="TrabajoProfesional-to-TrazabilidadProfesional" style="stroke:#181818;stroke-width:1.0;"/><polygon fill="#181818" points="659.4,404.76,655.8782,395.5624,655.8697,401.2192,650.2129,401.2108,659.4,404.76" style="stroke:#181818;stroke-width:1.0;"/></g><!--SRC=[hLJDJkCm4BxdAN9S3dq3j5A5oha2n7rYJs6GxGbZkn9_xyuas6sQ526ncrFY6Nz_O-UHBBRe-_JIUlGTIcmQw68ICAcz4-ZWYTktfjMd5umO4iYVY_4Rz-3ouSkooRwMFvh6E8Yn8gmDMFHavb26EDnJpE0s3ZeMiF05hGAoILbWAsWneNWAjIZud2bIudZDui5X79STnGIMjo293FKGKYdyW-wjy0wZYWHNb8E-AdcypSeM386R2LvRw1Casd-9LIwM6onj6kihTEJ8Wbtdn5uR3Vn2vM54cx3Zvun5NQAUnnS3GnL5Cr62U3HM-kS3SHGE6f552zKM10j2hvhi0cIP3Ydbu9sB9TLGeQ3cmYVwxoQ951311nggSWM-8uubWhswsQaPkUAGXBey71wCiwaTuoqEuU1GlMnYEYOEEW31dYNXV-HTXcA6VUpkzMwDEyV5HwKQSpv5_RMGUbKltrUhnQqxMvq8RUef6klp8tAsEjrzCiDAiHp43trJn6RntrYj_Yw5dUtwbdj-eIUGCpVdEh-J-Wa0]--></g></svg>