<?xml version="1.0" encoding="us-ascii" standalone="no"?><svg xmlns="http://www.w3.org/2000/svg" xmlns:xlink="http://www.w3.org/1999/xlink" contentStyleType="text/css" height="2407px" preserveAspectRatio="none" style="width:761px;height:2407px;background:#FFFFFF;" version="1.1" viewBox="0 0 761 2407" width="761px" zoomAndPan="magnify"><defs/><g><ellipse cx="423" cy="16" fill="#222222" rx="10" ry="10" style="stroke:#222222;stroke-width:1.0;"/><path d="M111,87 L735.5,87 A12.5,12.5 0 0 1 748,99.5 L748,116.0679 L98.5,116.0679 L98.5,99.5 A12.5,12.5 0 0 1 111,87 " fill="#F1F1F1" style="stroke:#F1F1F1;stroke-width:1.0;"/><rect fill="none" height="326.4799" rx="12.5" ry="12.5" style="stroke:#181818;stroke-width:0.5;" width="649.5" x="98.5" y="87"/><line style="stroke:#181818;stroke-width:0.5;" x1="98.5" x2="748" y1="116.0679" y2="116.0679"/><text fill="#000000" font-family="sans-serif" font-size="14" lengthAdjust="spacing" textLength="178" x="334.25" y="106.9659">EstablecerVisionEstrategia</text><g id="EstablecerVisionEstrategia.Metas"><rect fill="#F1F1F1" height="55.412" rx="12.5" ry="12.5" style="stroke:#181818;stroke-width:0.5;" width="355" x="229.5" y="128.0679"/><line style="stroke:#181818;stroke-width:0.5;" x1="229.5" x2="584.5" y1="157.1358" y2="157.1358"/><text fill="#000000" font-family="sans-serif" font-size="14" lengthAdjust="spacing" textLength="135" x="339.5" y="148.0339">Definir metas claras</text><text fill="#000000" font-family="sans-serif" font-size="12" lengthAdjust="spacing" textLength="335" x="234.5" y="174.9639">Establecer objetivos espec&#237;ficos relacionados con el negocio</text></g><g id="EstablecerVisionEstrategia.Alinear"><rect fill="#F1F1F1" height="55.412" rx="12.5" ry="12.5" style="stroke:#181818;stroke-width:0.5;" width="371" x="110.5" y="238.0679"/><line style="stroke:#181818;stroke-width:0.5;" x1="110.5" x2="481.5" y1="267.1358" y2="267.1358"/><text fill="#000000" font-family="sans-serif" font-size="14" lengthAdjust="spacing" textLength="240" x="176" y="258.0339">Alinear con objetivos de la empresa</text><text fill="#000000" font-family="sans-serif" font-size="12" lengthAdjust="spacing" textLength="351" x="115.5" y="284.9639">Asegurar que la tecnolog&#237;a soporte los objetivos de la empresa</text></g><g id="EstablecerVisionEstrategia.ProyectosInmediatos"><rect fill="#F1F1F1" height="55.412" rx="12.5" ry="12.5" style="stroke:#181818;stroke-width:0.5;" width="248" x="283" y="348.0679"/><line style="stroke:#181818;stroke-width:0.5;" x1="283" x2="531" y1="377.1358" y2="377.1358"/><text fill="#000000" font-family="sans-serif" font-size="14" lengthAdjust="spacing" textLength="218" x="298" y="368.0339">Identificar proyectos inmediatos</text><text fill="#000000" font-family="sans-serif" font-size="12" lengthAdjust="spacing" textLength="228" x="288" y="394.9639">Buscar resultados r&#225;pidos y beneficiosos</text></g><!--link Metas to Alinear--><g id="link_Metas_Alinear"><path d="M379.56,183.2679 C362.48,199.8779 344.9001,216.9935 327.8101,233.6235 " fill="none" id="Metas-to-Alinear" style="stroke:#181818;stroke-width:1.0;"/><polygon fill="#181818" points="323.51,237.8079,332.7498,234.3981,327.0934,234.3209,327.1706,228.6646,323.51,237.8079" style="stroke:#181818;stroke-width:1.0;"/><text fill="#000000" font-family="sans-serif" font-size="13" lengthAdjust="spacing" textLength="112" x="360" y="215.9649">Asegura alineaci&#243;n</text></g><!--link Alinear to ProyectosInmediatos--><g id="link_Alinear_ProyectosInmediatos"><path d="M319.46,293.1579 C330.03,304.7779 342.84,318.3979 355,330.0679 C361.17,335.9879 363.4559,338.1783 370.0559,343.8983 " fill="none" id="Alinear-to-ProyectosInmediatos" style="stroke:#181818;stroke-width:1.0;"/><polygon fill="#181818" points="374.59,347.8279,370.4085,338.9108,370.8116,344.5533,365.1691,344.9563,374.59,347.8279" style="stroke:#181818;stroke-width:1.0;"/><text fill="#000000" font-family="sans-serif" font-size="13" lengthAdjust="spacing" textLength="147" x="356" y="325.9649">Identifica oportunidades</text></g><!--link ProyectosInmediatos to Metas--><g id="link_ProyectosInmediatos_Metas"><path d="M486.89,348.0079 C493.58,343.0079 499.5,337.0879 504,330.0679 C535.63,280.7679 513.43,246.9379 477,201.0679 C471.72,194.4179 469.955,192.0613 462.975,186.8413 " fill="none" id="ProyectosInmediatos-to-Metas" style="stroke:#181818;stroke-width:1.0;"/><polygon fill="#181818" points="458.17,183.2479,462.9818,191.8413,462.1741,186.2424,467.773,185.4347,458.17,183.2479" style="stroke:#181818;stroke-width:1.0;"/><text fill="#000000" font-family="sans-serif" font-size="13" lengthAdjust="spacing" textLength="217" x="521" y="270.9649">Retroalimenta la definici&#243;n de metas</text></g><path d="M19.5,474 L514.5,474 A12.5,12.5 0 0 1 527,486.5 L527,503.0679 L7,503.0679 L7,486.5 A12.5,12.5 0 0 1 19.5,474 " fill="#F1F1F1" style="stroke:#F1F1F1;stroke-width:1.0;"/><rect fill="none" height="436.4799" rx="12.5" ry="12.5" style="stroke:#181818;stroke-width:0.5;" width="520" x="7" y="474"/><line style="stroke:#181818;stroke-width:0.5;" x1="7" x2="527" y1="503.0679" y2="503.0679"/><text fill="#000000" font-family="sans-serif" font-size="14" lengthAdjust="spacing" textLength="220" x="157" y="493.9659">DesarrollarCapacidadesDigitales</text><g id="DesarrollarCapacidadesDigitales.Tecnologia"><rect fill="#F1F1F1" height="55.412" rx="12.5" ry="12.5" style="stroke:#181818;stroke-width:0.5;" width="232" x="113" y="515.0679"/><line style="stroke:#181818;stroke-width:0.5;" x1="113" x2="345" y1="544.1358" y2="544.1358"/><text fill="#000000" font-family="sans-serif" font-size="14" lengthAdjust="spacing" textLength="141" x="158.5" y="535.0339">Actualizar tecnolog&#237;a</text><text fill="#000000" font-family="sans-serif" font-size="12" lengthAdjust="spacing" textLength="212" x="118" y="561.9639">Usar tecnolog&#237;as modernas y flexibles</text></g><g id="DesarrollarCapacidadesDigitales.Datos"><rect fill="#F1F1F1" height="55.412" rx="12.5" ry="12.5" style="stroke:#181818;stroke-width:0.5;" width="222" x="19" y="625.0679"/><line style="stroke:#181818;stroke-width:0.5;" x1="19" x2="241" y1="654.1358" y2="654.1358"/><text fill="#000000" font-family="sans-serif" font-size="14" lengthAdjust="spacing" textLength="169" x="45.5" y="645.0339">Mejorar manejo de datos</text><text fill="#000000" font-family="sans-serif" font-size="12" lengthAdjust="spacing" textLength="202" x="24" y="671.9639">Organizar y analizar mejor los datos</text></g><g id="DesarrollarCapacidadesDigitales.Capacitacion"><rect fill="#F1F1F1" height="55.412" rx="12.5" ry="12.5" style="stroke:#181818;stroke-width:0.5;" width="233" x="27.5" y="735.0679"/><line style="stroke:#181818;stroke-width:0.5;" x1="27.5" x2="260.5" y1="764.1358" y2="764.1358"/><text fill="#000000" font-family="sans-serif" font-size="14" lengthAdjust="spacing" textLength="143" x="72.5" y="755.0339">Capacitar al personal</text><text fill="#000000" font-family="sans-serif" font-size="12" lengthAdjust="spacing" textLength="213" x="32.5" y="781.9639">Ense&#241;ar habilidades digitales actuales</text></g><g id="DesarrollarCapacidadesDigitales.Procesos"><rect fill="#F1F1F1" height="55.412" rx="12.5" ry="12.5" style="stroke:#181818;stroke-width:0.5;" width="316" x="72" y="845.0679"/><line style="stroke:#181818;stroke-width:0.5;" x1="72" x2="388" y1="874.1358" y2="874.1358"/><text fill="#000000" font-family="sans-serif" font-size="14" lengthAdjust="spacing" textLength="136" x="162" y="865.0339">Simplificar procesos</text><text fill="#000000" font-family="sans-serif" font-size="12" lengthAdjust="spacing" textLength="296" x="77" y="891.9639">Hacer los procesos m&#225;s eficientes usando tecnolog&#237;a</text></g><!--link Tecnologia to Datos--><g id="link_Tecnologia_Datos"><path d="M189.52,570.1679 C182.63,575.6779 175.82,581.7379 170,588.0679 C159.86,599.0979 153.7671,607.8459 146.8171,619.8459 " fill="none" id="Tecnologia-to-Datos" style="stroke:#181818;stroke-width:1.0;"/><polygon fill="#181818" points="143.81,625.0379,151.782,619.2545,146.3159,620.7112,144.8592,615.2451,143.81,625.0379" style="stroke:#181818;stroke-width:1.0;"/><text fill="#000000" font-family="sans-serif" font-size="13" lengthAdjust="spacing" textLength="130" x="171" y="602.9649">Habilita mejor an&#225;lisis</text></g><!--link Datos to Capacitacion--><g id="link_Datos_Capacitacion"><path d="M119.6,680.3479 C116.54,691.7579 114.77,705.1579 118,717.0679 C119.64,723.1179 119.4693,723.8984 122.5093,729.5284 " fill="none" id="Datos-to-Capacitacion" style="stroke:#181818;stroke-width:1.0;"/><polygon fill="#181818" points="125.36,734.8079,124.6036,724.9882,122.9844,730.4083,117.5642,728.7891,125.36,734.8079" style="stroke:#181818;stroke-width:1.0;"/><text fill="#000000" font-family="sans-serif" font-size="13" lengthAdjust="spacing" textLength="174" x="119" y="712.9649">Necesita personal capacitado</text></g><!--link Capacitacion to Procesos--><g id="link_Capacitacion_Procesos"><path d="M154.51,790.3579 C159.91,802.2779 167.21,816.0779 176,827.0679 C181.08,833.4279 182.693,835.5472 188.963,841.0572 " fill="none" id="Capacitacion-to-Procesos" style="stroke:#181818;stroke-width:1.0;"/><polygon fill="#181818" points="193.47,845.0179,189.35,836.0722,189.7142,841.7173,184.0691,842.0815,193.47,845.0179" style="stroke:#181818;stroke-width:1.0;"/><text fill="#000000" font-family="sans-serif" font-size="13" lengthAdjust="spacing" textLength="124" x="177" y="822.9649">Implementa mejoras</text></g><!--link Procesos to Tecnologia--><g id="link_Procesos_Tecnologia"><path d="M286.87,844.8279 C292.9,839.7679 298.21,833.8679 302,827.0679 C353.73,734.2879 354.01,680.6879 302,588.0679 C298.15,581.2079 297.3767,579.1101 291.2567,574.0301 " fill="none" id="Procesos-to-Tecnologia" style="stroke:#181818;stroke-width:1.0;"/><polygon fill="#181818" points="286.64,570.1979,291.0103,579.024,290.4873,573.3914,296.1199,572.8684,286.64,570.1979" style="stroke:#181818;stroke-width:1.0;"/><text fill="#000000" font-family="sans-serif" font-size="13" lengthAdjust="spacing" textLength="176" x="341" y="712.9649">Demanda nuevas tecnolog&#237;as</text></g><path d="M68.5,971 L494,971 A12.5,12.5 0 0 1 506.5,983.5 L506.5,1000.0679 L56,1000.0679 L56,983.5 A12.5,12.5 0 0 1 68.5,971 " fill="#F1F1F1" style="stroke:#F1F1F1;stroke-width:1.0;"/><rect fill="none" height="436.4799" rx="12.5" ry="12.5" style="stroke:#181818;stroke-width:0.5;" width="450.5" x="56" y="971"/><line style="stroke:#181818;stroke-width:0.5;" x1="56" x2="506.5" y1="1000.0679" y2="1000.0679"/><text fill="#000000" font-family="sans-serif" font-size="14" lengthAdjust="spacing" textLength="170" x="196.25" y="990.9659">GestionarCambioCultural</text><g id="GestionarCambioCultural.Liderazgo"><rect fill="#F1F1F1" height="55.412" rx="12.5" ry="12.5" style="stroke:#181818;stroke-width:0.5;" width="205" x="150" y="1012.0679"/><line style="stroke:#181818;stroke-width:0.5;" x1="150" x2="355" y1="1041.1358" y2="1041.1358"/><text fill="#000000" font-family="sans-serif" font-size="14" lengthAdjust="spacing" textLength="178" x="163.5" y="1032.0339">Motivar desde la direcci&#243;n</text><text fill="#000000" font-family="sans-serif" font-size="12" lengthAdjust="spacing" textLength="185" x="155" y="1058.9639">Liderazgo activo y comprometido</text></g><g id="GestionarCambioCultural.Comunicacion"><rect fill="#F1F1F1" height="55.412" rx="12.5" ry="12.5" style="stroke:#181818;stroke-width:0.5;" width="227" x="68" y="1122.0679"/><line style="stroke:#181818;stroke-width:0.5;" x1="68" x2="295" y1="1151.1358" y2="1151.1358"/><text fill="#000000" font-family="sans-serif" font-size="14" lengthAdjust="spacing" textLength="153" x="105" y="1142.0339">Comunicar claramente</text><text fill="#000000" font-family="sans-serif" font-size="12" lengthAdjust="spacing" textLength="207" x="73" y="1168.9639">Explicar bien la visi&#243;n y los beneficios</text></g><g id="GestionarCambioCultural.Entrenamiento"><rect fill="#F1F1F1" height="55.412" rx="12.5" ry="12.5" style="stroke:#181818;stroke-width:0.5;" width="206" x="90.5" y="1232.0679"/><line style="stroke:#181818;stroke-width:0.5;" x1="90.5" x2="296.5" y1="1261.1358" y2="1261.1358"/><text fill="#000000" font-family="sans-serif" font-size="14" lengthAdjust="spacing" textLength="126" x="130.5" y="1252.0339">Entrenar al equipo</text><text fill="#000000" font-family="sans-serif" font-size="12" lengthAdjust="spacing" textLength="186" x="95.5" y="1278.9639">Cursos de capacitaci&#243;n continuos</text></g><g id="GestionarCambioCultural.Recompensas"><rect fill="#F1F1F1" height="55.412" rx="12.5" ry="12.5" style="stroke:#181818;stroke-width:0.5;" width="311" x="107" y="1342.0679"/><line style="stroke:#181818;stroke-width:0.5;" x1="107" x2="418" y1="1371.1358" y2="1371.1358"/><text fill="#000000" font-family="sans-serif" font-size="14" lengthAdjust="spacing" textLength="291" x="117" y="1362.0339">Recompensar comportamientos adecuados</text><text fill="#000000" font-family="sans-serif" font-size="12" lengthAdjust="spacing" textLength="219" x="112" y="1388.9639">Alinear premios con las metas digitales</text></g><!--link Liderazgo to Comunicacion--><g id="link_Liderazgo_Comunicacion"><path d="M191.02,1067.3479 C184.86,1072.3779 179.44,1078.2479 175.5,1085.0679 C169.14,1096.0979 168.4538,1104.1588 171.0038,1116.1688 " fill="none" id="Liderazgo-to-Comunicacion" style="stroke:#181818;stroke-width:1.0;"/><polygon fill="#181818" points="172.25,1122.0379,174.2935,1112.4034,171.2115,1117.1469,166.468,1114.0649,172.25,1122.0379" style="stroke:#181818;stroke-width:1.0;"/><text fill="#000000" font-family="sans-serif" font-size="13" lengthAdjust="spacing" textLength="139" x="176.5" y="1099.9649">Facilita la transparencia</text></g><!--link Comunicacion to Entrenamiento--><g id="link_Comunicacion_Entrenamiento"><path d="M184.47,1177.2679 C186.31,1193.8779 188.0166,1209.2147 189.8666,1225.8447 " fill="none" id="Comunicacion-to-Entrenamiento" style="stroke:#181818;stroke-width:1.0;"/><polygon fill="#181818" points="190.53,1231.8079,193.5104,1222.4208,189.9772,1226.8386,185.5595,1223.3053,190.53,1231.8079" style="stroke:#181818;stroke-width:1.0;"/><text fill="#000000" font-family="sans-serif" font-size="13" lengthAdjust="spacing" textLength="115" x="189.5" y="1209.9649">Prepara al personal</text></g><!--link Entrenamiento to Recompensas--><g id="link_Entrenamiento_Recompensas"><path d="M201.89,1287.3179 C206.21,1299.1079 212.14,1312.7979 219.5,1324.0679 C223.49,1330.1879 224.354,1331.7574 229.404,1337.2874 " fill="none" id="Entrenamiento-to-Recompensas" style="stroke:#181818;stroke-width:1.0;"/><polygon fill="#181818" points="233.45,1341.7179,230.3347,1332.3747,230.0783,1338.0258,224.4273,1337.7694,233.45,1341.7179" style="stroke:#181818;stroke-width:1.0;"/><text fill="#000000" font-family="sans-serif" font-size="13" lengthAdjust="spacing" textLength="95" x="220.5" y="1319.9649">Motiva cambios</text></g><!--link Recompensas to Liderazgo--><g id="link_Recompensas_Liderazgo"><path d="M303.52,1341.8479 C308.77,1336.6079 313.39,1330.6579 316.5,1324.0679 C361.82,1227.9979 365.7,1179.2079 316.5,1085.0679 C312.99,1078.3479 312.4202,1076.4501 306.6902,1071.3201 " fill="none" id="Recompensas-to-Liderazgo" style="stroke:#181818;stroke-width:1.0;"/><polygon fill="#181818" points="302.22,1067.3179,306.2572,1076.3013,305.9452,1070.653,311.5934,1070.341,302.22,1067.3179" style="stroke:#181818;stroke-width:1.0;"/><text fill="#000000" font-family="sans-serif" font-size="13" lengthAdjust="spacing" textLength="144" x="352.5" y="1209.9649">Refuerza el compromiso</text></g><path d="M68,1468 L509.5,1468 A12.5,12.5 0 0 1 522,1480.5 L522,1497.0679 L55.5,1497.0679 L55.5,1480.5 A12.5,12.5 0 0 1 68,1468 " fill="#F1F1F1" style="stroke:#F1F1F1;stroke-width:1.0;"/><rect fill="none" height="436.4799" rx="12.5" ry="12.5" style="stroke:#181818;stroke-width:0.5;" width="466.5" x="55.5" y="1468"/><line style="stroke:#181818;stroke-width:0.5;" x1="55.5" x2="522" y1="1497.0679" y2="1497.0679"/><text fill="#000000" font-family="sans-serif" font-size="14" lengthAdjust="spacing" textLength="170" x="203.75" y="1487.9659">ImplementarConAgilidad</text><g id="ImplementarConAgilidad.Metodos"><rect fill="#F1F1F1" height="55.412" rx="12.5" ry="12.5" style="stroke:#181818;stroke-width:0.5;" width="173" x="202.5" y="1509.0679"/><line style="stroke:#181818;stroke-width:0.5;" x1="202.5" x2="375.5" y1="1538.1358" y2="1538.1358"/><text fill="#000000" font-family="sans-serif" font-size="14" lengthAdjust="spacing" textLength="137" x="220.5" y="1529.0339">Usar m&#233;todos &#225;giles</text><text fill="#000000" font-family="sans-serif" font-size="12" lengthAdjust="spacing" textLength="153" x="207.5" y="1555.9639">Utilizar Scrum, Kanban, etc.</text></g><g id="ImplementarConAgilidad.Equipos"><rect fill="#F1F1F1" height="55.412" rx="12.5" ry="12.5" style="stroke:#181818;stroke-width:0.5;" width="261" x="67.5" y="1619.0679"/><line style="stroke:#181818;stroke-width:0.5;" x1="67.5" x2="328.5" y1="1648.1358" y2="1648.1358"/><text fill="#000000" font-family="sans-serif" font-size="14" lengthAdjust="spacing" textLength="169" x="113.5" y="1639.0339">Formar equipos efectivos</text><text fill="#000000" font-family="sans-serif" font-size="12" lengthAdjust="spacing" textLength="241" x="72.5" y="1665.9639">Combinar expertos en tecnolog&#237;a y negocio</text></g><g id="ImplementarConAgilidad.VersionesSimples"><rect fill="#F1F1F1" height="55.412" rx="12.5" ry="12.5" style="stroke:#181818;stroke-width:0.5;" width="270" x="88" y="1729.0679"/><line style="stroke:#181818;stroke-width:0.5;" x1="88" x2="358" y1="1758.1358" y2="1758.1358"/><text fill="#000000" font-family="sans-serif" font-size="14" lengthAdjust="spacing" textLength="219" x="113.5" y="1749.0339">Crear versiones simples primero</text><text fill="#000000" font-family="sans-serif" font-size="12" lengthAdjust="spacing" textLength="250" x="93" y="1775.9639">Empezar con productos b&#225;sicos y mejorarlos</text></g><g id="ImplementarConAgilidad.Retroalimentacion"><rect fill="#F1F1F1" height="55.412" rx="12.5" ry="12.5" style="stroke:#181818;stroke-width:0.5;" width="278" x="168" y="1839.0679"/><line style="stroke:#181818;stroke-width:0.5;" x1="168" x2="446" y1="1868.1358" y2="1868.1358"/><text fill="#000000" font-family="sans-serif" font-size="14" lengthAdjust="spacing" textLength="158" x="228" y="1859.0339">Escuchar a los usuarios</text><text fill="#000000" font-family="sans-serif" font-size="12" lengthAdjust="spacing" textLength="258" x="173" y="1885.9639">Tomar en cuenta las opiniones de los usuarios</text></g><!--link Metodos to Equipos--><g id="link_Metodos_Equipos"><path d="M206.22,1564.1479 C199.5,1569.1379 193.55,1575.0579 189,1582.0679 C182.03,1592.8079 181.5286,1600.9256 184.8686,1612.9856 " fill="none" id="Metodos-to-Equipos" style="stroke:#181818;stroke-width:1.0;"/><polygon fill="#181818" points="186.47,1618.7679,187.9228,1609.0268,185.1355,1613.9493,180.213,1611.162,186.47,1618.7679" style="stroke:#181818;stroke-width:1.0;"/><text fill="#000000" font-family="sans-serif" font-size="13" lengthAdjust="spacing" textLength="186" x="190" y="1596.9649">Necesita equipos colaborativos</text></g><!--link Equipos to VersionesSimples--><g id="link_Equipos_VersionesSimples"><path d="M204.18,1674.2679 C208.03,1690.8779 211.6101,1706.3317 215.4501,1722.9617 " fill="none" id="Equipos-to-VersionesSimples" style="stroke:#181818;stroke-width:1.0;"/><polygon fill="#181818" points="216.8,1728.8079,218.6726,1719.1387,215.6751,1723.9361,210.8777,1720.9386,216.8,1728.8079" style="stroke:#181818;stroke-width:1.0;"/><text fill="#000000" font-family="sans-serif" font-size="13" lengthAdjust="spacing" textLength="116" x="213" y="1706.9649">Produce resultados</text></g><!--link VersionesSimples to Retroalimentacion--><g id="link_VersionesSimples_Retroalimentacion"><path d="M229.39,1784.2979 C233.16,1796.3379 238.83,1810.2579 247,1821.0679 C251.93,1827.5879 253.4419,1829.7574 259.8919,1835.1074 " fill="none" id="VersionesSimples-to-Retroalimentacion" style="stroke:#181818;stroke-width:1.0;"/><polygon fill="#181818" points="264.51,1838.9379,260.1365,1830.1134,260.6616,1835.7458,255.0291,1836.2709,264.51,1838.9379" style="stroke:#181818;stroke-width:1.0;"/><text fill="#000000" font-family="sans-serif" font-size="13" lengthAdjust="spacing" textLength="128" x="248" y="1816.9649">Genera conocimiento</text></g><!--link Retroalimentacion to Metodos--><g id="link_Retroalimentacion_Metodos"><path d="M361.98,1838.9079 C367.98,1833.8079 373.26,1827.8879 377,1821.0679 C428.14,1727.9679 432.64,1672.5479 377,1582.0679 C372.7,1575.0679 371.6714,1572.7788 365.1114,1567.7488 " fill="none" id="Retroalimentacion-to-Metodos" style="stroke:#181818;stroke-width:1.0;"/><polygon fill="#181818" points="360.35,1564.0979,365.0582,1572.7485,364.3178,1567.1403,369.926,1566.4,360.35,1564.0979" style="stroke:#181818;stroke-width:1.0;"/><text fill="#000000" font-family="sans-serif" font-size="13" lengthAdjust="spacing" textLength="94" x="418" y="1706.9649">Mejora iterativa</text></g><path d="M211,1965 L657.5,1965 A12.5,12.5 0 0 1 670,1977.5 L670,1994.0679 L198.5,1994.0679 L198.5,1977.5 A12.5,12.5 0 0 1 211,1965 " fill="#F1F1F1" style="stroke:#F1F1F1;stroke-width:1.0;"/><rect fill="none" height="436.4799" rx="12.5" ry="12.5" style="stroke:#181818;stroke-width:0.5;" width="471.5" x="198.5" y="1965"/><line style="stroke:#181818;stroke-width:0.5;" x1="198.5" x2="670" y1="1994.0679" y2="1994.0679"/><text fill="#000000" font-family="sans-serif" font-size="14" lengthAdjust="spacing" textLength="152" x="358.25" y="1984.9659">MedirAprenderEscalar</text><g id="MedirAprenderEscalar.Evaluacion"><rect fill="#F1F1F1" height="55.412" rx="12.5" ry="12.5" style="stroke:#181818;stroke-width:0.5;" width="269" x="296.5" y="2006.0679"/><line style="stroke:#181818;stroke-width:0.5;" x1="296.5" x2="565.5" y1="2035.1358" y2="2035.1358"/><text fill="#000000" font-family="sans-serif" font-size="14" lengthAdjust="spacing" textLength="131" x="365.5" y="2026.0339">Evaluar el progreso</text><text fill="#000000" font-family="sans-serif" font-size="12" lengthAdjust="spacing" textLength="249" x="301.5" y="2052.9639">Seguimiento continuo de c&#243;mo van las cosas</text></g><g id="MedirAprenderEscalar.Aprendizaje"><rect fill="#F1F1F1" height="55.412" rx="12.5" ry="12.5" style="stroke:#181818;stroke-width:0.5;" width="275" x="210.5" y="2116.0679"/><line style="stroke:#181818;stroke-width:0.5;" x1="210.5" x2="485.5" y1="2145.1358" y2="2145.1358"/><text fill="#000000" font-family="sans-serif" font-size="14" lengthAdjust="spacing" textLength="183" x="256.5" y="2136.0339">Aprender de la experiencia</text><text fill="#000000" font-family="sans-serif" font-size="12" lengthAdjust="spacing" textLength="255" x="215.5" y="2162.9639">Sacar lecciones de lo que funciona y lo que no</text></g><g id="MedirAprenderEscalar.Expansion"><rect fill="#F1F1F1" height="55.412" rx="12.5" ry="12.5" style="stroke:#181818;stroke-width:0.5;" width="248" x="235" y="2226.0679"/><line style="stroke:#181818;stroke-width:0.5;" x1="235" x2="483" y1="2255.1358" y2="2255.1358"/><text fill="#000000" font-family="sans-serif" font-size="14" lengthAdjust="spacing" textLength="169" x="274.5" y="2246.0339">Expandir lo que funciona</text><text fill="#000000" font-family="sans-serif" font-size="12" lengthAdjust="spacing" textLength="228" x="240" y="2272.9639">Aplicar m&#233;todos exitosos a mayor escala</text></g><g id="MedirAprenderEscalar.Actualizacion"><rect fill="#F1F1F1" height="55.412" rx="12.5" ry="12.5" style="stroke:#181818;stroke-width:0.5;" width="218" x="327" y="2336.0679"/><line style="stroke:#181818;stroke-width:0.5;" x1="327" x2="545" y1="2365.1358" y2="2365.1358"/><text fill="#000000" font-family="sans-serif" font-size="14" lengthAdjust="spacing" textLength="146" x="363" y="2356.0339">Actualizar estrategias</text><text fill="#000000" font-family="sans-serif" font-size="12" lengthAdjust="spacing" textLength="198" x="332" y="2382.9639">Ajustar planes seg&#250;n los resultados</text></g><!--link Evaluacion to Aprendizaje--><g id="link_Evaluacion_Aprendizaje"><path d="M401.77,2061.3179 C396.26,2066.9479 390.75,2073.0179 386,2079.0679 C377.04,2090.4879 371.5434,2098.9751 364.8934,2110.7351 " fill="none" id="Evaluacion-to-Aprendizaje" style="stroke:#181818;stroke-width:1.0;"/><polygon fill="#181818" points="361.94,2115.9579,369.8519,2110.0926,364.4011,2111.6056,362.8882,2106.1548,361.94,2115.9579" style="stroke:#181818;stroke-width:1.0;"/><text fill="#000000" font-family="sans-serif" font-size="13" lengthAdjust="spacing" textLength="112" x="387" y="2093.9649">Identifica lecciones</text></g><!--link Aprendizaje to Expansion--><g id="link_Aprendizaje_Expansion"><path d="M350.72,2171.2679 C352.41,2187.8779 353.9734,2203.2087 355.6634,2219.8387 " fill="none" id="Aprendizaje-to-Expansion" style="stroke:#181818;stroke-width:1.0;"/><polygon fill="#181818" points="356.27,2225.8079,359.3396,2216.4496,355.7645,2220.8335,351.3806,2217.2584,356.27,2225.8079" style="stroke:#181818;stroke-width:1.0;"/><text fill="#000000" font-family="sans-serif" font-size="13" lengthAdjust="spacing" textLength="107" x="356" y="2203.9649">Aplica aprendizaje</text></g><!--link Expansion to Actualizacion--><g id="link_Expansion_Actualizacion"><path d="M375.34,2281.2479 C382.61,2292.7679 391.46,2306.2679 400,2318.0679 C404.2,2323.8579 405.1358,2325.2295 409.6958,2330.9395 " fill="none" id="Expansion-to-Actualizacion" style="stroke:#181818;stroke-width:1.0;"/><polygon fill="#181818" points="413.44,2335.6279,410.9494,2326.0992,410.3199,2331.7209,404.6981,2331.0914,413.44,2335.6279" style="stroke:#181818;stroke-width:1.0;"/><text fill="#000000" font-family="sans-serif" font-size="13" lengthAdjust="spacing" textLength="98" x="401" y="2313.9649">Requiere ajustes</text></g><!--link Actualizacion to Evaluacion--><g id="link_Actualizacion_Evaluacion"><path d="M485.72,2335.8179 C491.45,2330.6879 496.49,2324.7879 500,2318.0679 C549.2,2223.9279 550.83,2172.3379 500,2079.0679 C496.32,2072.3079 495.6734,2070.3252 489.7534,2065.2452 " fill="none" id="Actualizacion-to-Evaluacion" style="stroke:#181818;stroke-width:1.0;"/><polygon fill="#181818" points="485.2,2061.3379,489.4252,2070.2344,488.9945,2064.594,494.6349,2064.1633,485.2,2061.3379" style="stroke:#181818;stroke-width:1.0;"/><text fill="#000000" font-family="sans-serif" font-size="13" lengthAdjust="spacing" textLength="122" x="538" y="2203.9649">Continua evaluaci&#243;n</text></g><!--link *start* to EstablecerVisionEstrategia--><g id="link_*start*_EstablecerVisionEstrategia"><path d="M423,26.09 C423,38.03 423,54.59 423,80.94 " fill="none" id="*start*-to-EstablecerVisionEstrategia" style="stroke:#181818;stroke-width:1.0;"/><polygon fill="#181818" points="423,86.94,427,77.94,423,81.94,419,77.94,423,86.94" style="stroke:#181818;stroke-width:1.0;"/></g><!--link EstablecerVisionEstrategia to DesarrollarCapacidadesDigitales--><g id="link_EstablecerVisionEstrategia_DesarrollarCapacidadesDigitales"><path d="M365.47,413.28 C358.48,432.99 353.2562,447.7253 346.0362,468.0753 " fill="none" id="EstablecerVisionEstrategia-to-DesarrollarCapacidadesDigitales" style="stroke:#181818;stroke-width:1.0;"/><polygon fill="#181818" points="344.03,473.73,350.8091,466.5855,345.7019,469.0178,343.2696,463.9105,344.03,473.73" style="stroke:#181818;stroke-width:1.0;"/></g><!--link DesarrollarCapacidadesDigitales to GestionarCambioCultural--><g id="link_DesarrollarCapacidadesDigitales_GestionarCambioCultural"><path d="M273.14,910.11 C273.71,930.25 274.1202,944.6524 274.6902,964.7824 " fill="none" id="DesarrollarCapacidadesDigitales-to-GestionarCambioCultural" style="stroke:#181818;stroke-width:1.0;"/><polygon fill="#181818" points="274.86,970.78,278.6037,961.6704,274.7185,965.782,270.6069,961.8968,274.86,970.78" style="stroke:#181818;stroke-width:1.0;"/></g><!--link GestionarCambioCultural to ImplementarConAgilidad--><g id="link_GestionarCambioCultural_ImplementarConAgilidad"><path d="M284.51,1407.11 C284.83,1427.25 285.0617,1441.6508 285.3917,1461.7808 " fill="none" id="GestionarCambioCultural-to-ImplementarConAgilidad" style="stroke:#181818;stroke-width:1.0;"/><polygon fill="#181818" points="285.49,1467.78,289.3419,1458.7156,285.408,1462.7807,281.343,1458.8468,285.49,1467.78" style="stroke:#181818;stroke-width:1.0;"/></g><!--link ImplementarConAgilidad to MedirAprenderEscalar--><g id="link_ImplementarConAgilidad_MedirAprenderEscalar"><path d="M352.6,1904.11 C358.5,1924.25 362.7824,1938.8922 368.6824,1959.0222 " fill="none" id="ImplementarConAgilidad-to-MedirAprenderEscalar" style="stroke:#181818;stroke-width:1.0;"/><polygon fill="#181818" points="370.37,1964.78,371.6772,1955.0183,368.9637,1959.9818,364.0001,1957.2684,370.37,1964.78" style="stroke:#181818;stroke-width:1.0;"/></g><!--link MedirAprenderEscalar to EstablecerVisionEstrategia--><g id="link_MedirAprenderEscalar_EstablecerVisionEstrategia"><path d="M527.08,1964.87 C555.79,1879.82 580,1780.41 580,1687 C580,691 580,691 580,691 C580,593.24 575.75,566.46 544,474 C537.06,453.8 530.9735,438.6648 521.5035,418.6248 " fill="none" id="MedirAprenderEscalar-to-EstablecerVisionEstrategia" style="stroke:#181818;stroke-width:1.0;"/><polygon fill="#181818" points="518.94,413.2,519.1687,423.0462,521.0763,417.7207,526.4018,419.6282,518.94,413.2" style="stroke:#181818;stroke-width:1.0;"/><text fill="#000000" font-family="sans-serif" font-size="13" lengthAdjust="spacing" textLength="148" x="581" y="1194.397">Ciclo continuo de mejora</text></g><!--SRC=[XLSzRnmt4EtlLn0k0pi_G4M0oqcsXKI983bkWXHpkwCJ1Ivv9dSFEWNvCIfJk0ZSfRq_bZT3xjVf8whsoE4CvysRDzIjhTbmisttfk5cpJ4j5hz_zuTvz-u7SvPQMZkkE7wsoGQFtv5QtbXQBB3LyYiMvi-5mLysUtFADzRRY10j9LCvYfJU67nUwCB9n949wpjkxIuamsdBrU7hZQtm8xAZ2Y6eneygUCFEUDu4h4qZBPtrJ54jHa_8qP6a6JcH1kxjJimoyQQB-FpIgLNBbGykR0vVoQIm3H5k7Noyu6qQ_BnctrhS5zwsCUovQc5kVSEr9NngvCj-utnOnor-x9ASWiVEjPfZF3nkhNpipPez04IcAQ0y4Z3Z9aLwaeWXNQdiuPjNszv2h9yFFjxRQCATjpNLdFJuSqV4LL-wAsvZGCm6FaY0gRNO6b-Wqfel_kefSmhCOWmE75ZH5jVKIATsOrjodEQyMLPj1zSFkFsaB0hZf_8RL3inlwMvHJ9Dg3bw4lHk7DzRa2jDFL_mNP2YD-Jn9VUiXmgT5bX-ZHlo6dnlo9TxD79G2Q47fZvpFYsCo9ajMWbiTUgntn422zjzuiC_iBkbjNKP0LCF491cFR_ljMssRgHMnMcaa_w0suya_IDNworCStX47mbtK1suxXBvEaoXodoQe2crxH7ugFT3MNFMv0-F3esURtOwKE4elL_GnqbEzHYOgXZKkLTdzeMMVHBdo9CpbpGe3IpC5c8-g_qfeuOr6T_n3dXCMJ2oxWEdLiG3d6lMDgpGP6WLDsVRHK1_0rzK8xTuRIDNIcI5-cTePQI7JK3KyHlLWYg08bM08WJGtTOpILg51WqbXLFXazmuiw9izAouHuN5R8rYIVWTe9OcscjDHn6OEZ_pRMIVASTVEhiDwheiDr9skUwgYoahLpLWBwuXawtrtTpd5Kigx9FgQ2EAK3o1cpLNdUYJXXajfNIzq40N6rjKsaalgb8C_CwC6m5K1isXU8yFvPteSIIVjeHqAflLTcQiW-eesyl8E43JDjI3SpivEKyW4m0G2KSo95C3EJ3bm1NVT1mVI4PHARvDOIJTIEMu2dwvoQq-vvmgLtFukmqYzOT76F4m6dKDwjRQh3tNLUoQj-OdycloRmstrVTJN-z3R62LQI1jpqhDxEwih9u8V6ihbE5xe2D51TscKs__t61THIdj3d02TIX94a5YaHeeVyoi-zplNfTDa1hWFPHv383gJaVY6hAaKtrVcZow8rgdggjkXTRA_Ivr5Er0kid0AOJv53Hp4BehOmW3Uuinf7UjUUPb6A6Ahn9e06VGhXx5AZXQuuQAP6PHsP63psHygLdoP9JhgIUMcNvFK_c0FWTt0HXAaAbQc7XiMwPmOKcUQCQsh9UbaOSN6DjnYQxqu2wG9SZGd8LdEtAT0EYaI1jSlSY8hfUBNUDvKIuqw8Ogok5R4yoEShEZgZGhPH-uVpO9wQmsStw8wJReVSSIWqG0dQZkM3bzcTrqNfz_geQwucVyX7fY3DXuR9_paCsKqrWMbHsQ3g-3LbvMu5f3UumvLeXUU8VmyCJDR1os2ahBkox94s3hIDk4DuT_lT9lGeZCen5SVSZDW9WyoGOqycjkOgRKVPAQeT4a1nfCDCxHXQ-4wHpPaDoyZp8pqZXJAgno-L7DiYflJV3jbVy7z5dn-jjlyNzlG_7nmYHVl3JXvSppGhnuGPzpMprjcSMpVVJwFqg2bQtSl66ov2t-0m00]--></g></svg>